# Blender 5.2.1 LTS
# www.blender.org
mtllib chalk_crook.mtl
o chalk_crook
v 0.009000 -0.169000 0.003000
v 0.009000 0.089000 0.003000
v -0.009000 0.089000 0.003000
v -0.009000 -0.169000 0.003000
v 0.007071 0.069417 0.003000
v 0.014008 0.104292 0.003000
v -0.003646 0.107804 0.003000
v -0.010583 0.072929 0.003000
v 0.005909 0.084737 0.003000
v 0.025664 0.114303 0.003000
v 0.010697 0.124303 0.003000
v -0.009058 0.094738 0.003000
v 0.010697 0.099336 0.003000
v 0.040263 0.119091 0.003000
v 0.030262 0.134058 0.003000
v 0.000697 0.114303 0.003000
v 0.020708 0.110992 0.003000
v 0.055583 0.117929 0.003000
v 0.052071 0.135583 0.003000
v 0.017196 0.128646 0.003000
v 0.034417 0.117929 0.003000
v 0.069292 0.110992 0.003000
v 0.072804 0.128646 0.003000
v 0.037929 0.135583 0.003000
v 0.049737 0.119091 0.003000
v 0.079303 0.099336 0.003000
v 0.089303 0.114303 0.003000
v 0.059738 0.134058 0.003000
v 0.064336 0.114303 0.003000
v 0.084091 0.084737 0.003000
v 0.099058 0.094738 0.003000
v 0.079303 0.124303 0.003000
v 0.075992 0.104292 0.003000
v 0.082929 0.069417 0.003000
v 0.100583 0.072929 0.003000
v 0.093646 0.107804 0.003000
v 0.082929 0.090583 0.003000
v 0.075992 0.055708 0.003000
v 0.093646 0.052196 0.003000
v 0.100583 0.087071 0.003000
v 0.084091 0.075263 0.003000
v 0.064336 0.045697 0.003000
v 0.079303 0.035697 0.003000
v 0.099058 0.065262 0.003000
vn -0.0000 -0.0000 1.0000
vt 0.036000 0.356000
vt -0.036000 -0.676000
vt 0.036000 -0.676000
vt 0.056033 0.417168
vt -0.042332 0.291715
vt 0.028285 0.277668
vt 0.102654 0.457212
vt -0.036232 0.378951
vt 0.023634 0.338950
vt 0.042788 0.397346
vt 0.121049 0.536232
vt 0.002787 0.457212
vt 0.222332 0.471715
vt 0.068785 0.514583
vt 0.082832 0.443967
vt 0.277168 0.443967
vt 0.151715 0.542332
vt 0.137668 0.471715
vt 0.317212 0.397346
vt 0.238951 0.536232
vt 0.198950 0.476366
vt 0.336366 0.338950
vt 0.317212 0.497213
vt 0.257346 0.457212
vt 0.331715 0.277668
vt 0.374583 0.431215
vt 0.303967 0.417168
vt 0.331715 0.362332
vt 0.374583 0.208785
vt 0.402332 0.348285
vt 0.257346 0.182788
vt 0.396232 0.261049
vt 0.336366 0.301050
vt -0.036000 0.356000
vt -0.014583 0.431215
vt 0.042788 0.497213
vt 0.161050 0.476366
vt 0.208285 0.542332
vt 0.291215 0.514583
vt 0.357213 0.457212
vt 0.396232 0.378951
vt 0.402332 0.291715
vt 0.303967 0.222832
vt 0.317212 0.142787
s 0
usemtl chalk
f 2/1/1 4/2/1 1/3/1
f 6/4/1 8/5/1 5/6/1
f 10/7/1 12/8/1 9/9/1
f 13/10/1 15/11/1 16/12/1
f 18/13/1 20/14/1 17/15/1
f 22/16/1 24/17/1 21/18/1
f 26/19/1 28/20/1 25/21/1
f 30/22/1 32/23/1 29/24/1
f 34/25/1 36/26/1 33/27/1
f 37/28/1 39/29/1 40/30/1
f 42/31/1 44/32/1 41/33/1
f 2/1/1 3/34/1 4/2/1
f 6/4/1 7/35/1 8/5/1
f 10/7/1 11/36/1 12/8/1
f 13/10/1 14/37/1 15/11/1
f 18/13/1 19/38/1 20/14/1
f 22/16/1 23/39/1 24/17/1
f 26/19/1 27/40/1 28/20/1
f 30/22/1 31/41/1 32/23/1
f 34/25/1 35/42/1 36/26/1
f 37/28/1 38/43/1 39/29/1
f 42/31/1 43/44/1 44/32/1
