# Blender 5.2.1 LTS
# www.blender.org
mtllib chalk_lamp.mtl
o chalk_lamp
v -0.069000 -0.109000 0.003000
v 0.069000 -0.109000 0.003000
v 0.069000 -0.091000 0.003000
v -0.069000 -0.091000 0.003000
v 0.069000 -0.109000 0.003000
v 0.069000 0.069000 0.003000
v 0.051000 0.069000 0.003000
v 0.051000 -0.109000 0.003000
v 0.069000 0.069000 0.003000
v -0.069000 0.069000 0.003000
v -0.069000 0.051000 0.003000
v 0.069000 0.051000 0.003000
v -0.069000 0.069000 0.003000
v -0.069000 -0.109000 0.003000
v -0.051000 -0.109000 0.003000
v -0.051000 0.069000 0.003000
v -0.086226 0.047331 0.003000
v 0.012669 0.128774 0.003000
v 0.001226 0.142669 0.003000
v -0.097669 0.061226 0.003000
v -0.012669 0.128774 0.003000
v 0.086226 0.047331 0.003000
v 0.097669 0.061226 0.003000
v -0.001226 0.142669 0.003000
v 0.036759 0.160129 0.003000
v 0.022548 0.194437 0.003000
v 0.005919 0.187548 0.003000
v 0.020129 0.153241 0.003000
v 0.029437 0.187548 0.003000
v -0.004871 0.201759 0.003000
v -0.011759 0.185129 0.003000
v 0.022548 0.170919 0.003000
v 0.004871 0.201759 0.003000
v -0.029437 0.187548 0.003000
v -0.022548 0.170919 0.003000
v 0.011759 0.185129 0.003000
v -0.022548 0.194437 0.003000
v -0.036759 0.160129 0.003000
v -0.020129 0.153241 0.003000
v -0.005919 0.187548 0.003000
v -0.036759 0.169871 0.003000
v -0.022548 0.135563 0.003000
v -0.005919 0.142452 0.003000
v -0.020129 0.176759 0.003000
v -0.029437 0.142452 0.003000
v 0.004871 0.128241 0.003000
v 0.011759 0.144871 0.003000
v -0.022548 0.159081 0.003000
v -0.004871 0.128241 0.003000
v 0.029437 0.142452 0.003000
v 0.022548 0.159081 0.003000
v -0.011759 0.144871 0.003000
v 0.022548 0.135563 0.003000
v 0.036759 0.169871 0.003000
v 0.020129 0.176759 0.003000
v 0.005919 0.142452 0.003000
v -0.092602 -0.009643 0.003000
v -0.170357 -0.022602 0.003000
v -0.167398 -0.040357 0.003000
v -0.089643 -0.027398 0.003000
v 0.089643 -0.027398 0.003000
v 0.167398 -0.040357 0.003000
v 0.170357 -0.022602 0.003000
v 0.092602 -0.009643 0.003000
v -0.077272 0.030000 0.003000
v -0.140000 0.092728 0.003000
v -0.152728 0.080000 0.003000
v -0.090000 0.017272 0.003000
v 0.090000 0.017272 0.003000
v 0.152728 0.080000 0.003000
v 0.140000 0.092728 0.003000
v 0.077272 0.030000 0.003000
v 0.009000 -0.069000 0.003000
v 0.009000 0.029000 0.003000
v -0.009000 0.029000 0.003000
v -0.009000 -0.069000 0.003000
vn -0.0000 -0.0000 1.0000
vt 0.276000 -0.436000
vt -0.276000 -0.364000
vt -0.276000 -0.436000
vt 0.276000 0.276000
vt 0.204000 -0.436000
vt -0.276000 0.276000
vt 0.276000 0.204000
vt -0.204000 0.276000
vt 0.050675 0.515096
vt -0.390675 0.244904
vt -0.344904 0.189325
vt -0.050675 0.515096
vt 0.390675 0.244904
vt -0.004904 0.570675
vt 0.090194 0.777747
vt 0.080517 0.612964
vt 0.147036 0.640517
vt -0.019483 0.807036
vt 0.090194 0.683674
vt 0.117747 0.750194
vt -0.117747 0.750194
vt 0.047036 0.740517
vt 0.019483 0.807036
vt -0.147036 0.640517
vt -0.023674 0.750194
vt -0.090194 0.777747
vt -0.090194 0.542253
vt -0.080517 0.707036
vt -0.147036 0.679483
vt 0.019483 0.512964
vt -0.090194 0.636326
vt -0.117747 0.569806
vt 0.117747 0.569806
vt -0.047036 0.579483
vt -0.019483 0.512964
vt 0.147036 0.679483
vt 0.023674 0.569806
vt 0.090194 0.542253
vt -0.681429 -0.090408
vt -0.358571 -0.109592
vt -0.370408 -0.038571
vt 0.358571 -0.109592
vt 0.681429 -0.090408
vt 0.370408 -0.038571
vt -0.560000 0.370912
vt -0.360000 0.069088
vt -0.309088 0.120000
vt 0.610912 0.320000
vt 0.309088 0.120000
vt 0.360000 0.069088
vt 0.036000 0.116000
vt -0.036000 -0.276000
vt 0.036000 -0.276000
vt 0.276000 -0.364000
vt 0.204000 0.276000
vt -0.276000 0.204000
vt -0.204000 -0.436000
vt 0.004904 0.570675
vt 0.344904 0.189325
vt 0.023674 0.750194
vt -0.047036 0.740517
vt -0.090194 0.683674
vt -0.080517 0.612964
vt -0.023674 0.569806
vt 0.047036 0.579483
vt 0.090194 0.636326
vt 0.080517 0.707036
vt -0.669592 -0.161429
vt 0.669592 -0.161429
vt -0.610912 0.320000
vt 0.560000 0.370912
vt -0.036000 0.116000
s 0
usemtl chalk
f 2/1/1 4/2/1 1/3/1
f 6/4/1 8/5/1 5/1/1
f 10/6/1 12/7/1 9/4/1
f 14/3/1 16/8/1 13/6/1
f 18/9/1 20/10/1 17/11/1
f 21/12/1 23/13/1 24/14/1
f 26/15/1 28/16/1 25/17/1
f 30/18/1 32/19/1 29/20/1
f 34/21/1 36/22/1 33/23/1
f 38/24/1 40/25/1 37/26/1
f 42/27/1 44/28/1 41/29/1
f 46/30/1 48/31/1 45/32/1
f 50/33/1 52/34/1 49/35/1
f 54/36/1 56/37/1 53/38/1
f 58/39/1 60/40/1 57/41/1
f 61/42/1 63/43/1 64/44/1
f 66/45/1 68/46/1 65/47/1
f 70/48/1 72/49/1 69/50/1
f 74/51/1 76/52/1 73/53/1
f 2/1/1 3/54/1 4/2/1
f 6/4/1 7/55/1 8/5/1
f 10/6/1 11/56/1 12/7/1
f 14/3/1 15/57/1 16/8/1
f 18/9/1 19/58/1 20/10/1
f 21/12/1 22/59/1 23/13/1
f 26/15/1 27/60/1 28/16/1
f 30/18/1 31/61/1 32/19/1
f 34/21/1 35/62/1 36/22/1
f 38/24/1 39/63/1 40/25/1
f 42/27/1 43/64/1 44/28/1
f 46/30/1 47/65/1 48/31/1
f 50/33/1 51/66/1 52/34/1
f 54/36/1 55/67/1 56/37/1
f 58/39/1 59/68/1 60/40/1
f 61/42/1 62/69/1 63/43/1
f 66/45/1 67/70/1 68/46/1
f 70/48/1 71/71/1 72/49/1
f 74/51/1 75/72/1 76/52/1
