# Blender 5.2.1 LTS
# www.blender.org
mtllib chalk_arrow.mtl
o chalk_arrow
v -0.179000 -0.009000 0.003000
v 0.179000 -0.009000 0.003000
v 0.179000 0.009000 0.003000
v -0.179000 0.009000 0.003000
v 0.057290 0.089331 0.003000
v 0.170669 -0.012710 0.003000
v 0.182710 0.000669 0.003000
v 0.069331 0.102710 0.003000
v 0.170669 0.012710 0.003000
v 0.057290 -0.089331 0.003000
v 0.069331 -0.102710 0.003000
v 0.182710 -0.000669 0.003000
vn -0.0000 -0.0000 1.0000
vt 0.716000 -0.036000
vt -0.716000 0.036000
vt -0.716000 -0.036000
vt 0.229159 0.357324
vt 0.730841 0.002676
vt 0.277324 0.410841
vt 0.229159 -0.357324
vt 0.730841 -0.002676
vt 0.682676 0.050841
vt 0.716000 0.036000
vt 0.682676 -0.050841
vt 0.277324 -0.410841
s 0
usemtl chalk
f 2/1/1 4/2/1 1/3/1
f 5/4/1 7/5/1 8/6/1
f 10/7/1 12/8/1 9/9/1
f 2/1/1 3/10/1 4/2/1
f 5/4/1 6/11/1 7/5/1
f 10/7/1 11/12/1 12/8/1
