# Blender 5.2.1 LTS
# www.blender.org
mtllib crook_handle.mtl
o crook_handle
v 0.000000 0.011000 -0.010000
v 0.009526 0.005500 -0.010000
v 0.009526 -0.005500 -0.010000
v 0.000000 -0.011000 -0.010000
v -0.009526 -0.005500 -0.010000
v -0.009526 0.005500 -0.010000
v 0.000000 0.011000 0.050000
v 0.009526 0.005500 0.050000
v 0.009526 -0.005500 0.050000
v 0.000000 -0.011000 0.050000
v -0.009526 -0.005500 0.050000
v -0.009526 0.005500 0.050000
v 0.000000 0.011000 0.100000
v 0.009526 0.005500 0.100000
v 0.009526 -0.005500 0.100000
v 0.000000 -0.011000 0.100000
v -0.009526 -0.005500 0.100000
v -0.009526 0.005500 0.100000
v 0.000000 0.010994 0.149646
v 0.009526 0.005497 0.149823
v 0.009526 -0.005497 0.150177
v 0.000000 -0.010994 0.150354
v -0.009526 -0.005497 0.150177
v -0.009526 0.005497 0.149823
v 0.000000 0.012493 0.159506
v 0.009526 0.007258 0.161193
v 0.009526 -0.003212 0.164566
v 0.000000 -0.008447 0.166252
v -0.009526 -0.003212 0.164566
v -0.009526 0.007258 0.161193
v 0.000000 0.016830 0.168096
v 0.009526 0.012364 0.171307
v 0.009526 0.003433 0.177728
v 0.000000 -0.001033 0.180938
v -0.009526 0.003433 0.177728
v -0.009526 0.012364 0.171307
v 0.000000 0.023592 0.174943
v 0.009526 0.020326 0.179368
v 0.009526 0.013794 0.188218
v 0.000000 0.010528 0.192644
v -0.009526 0.013794 0.188218
v -0.009526 0.020326 0.179368
v 0.000000 0.032127 0.179386
v 0.009526 0.030375 0.184599
v 0.009526 0.026872 0.195027
v 0.000000 0.025120 0.200240
v -0.009526 0.026872 0.195027
v -0.009526 0.030375 0.184599
v 0.000000 0.041614 0.180998
v 0.009526 0.041545 0.186497
v 0.009526 0.041408 0.197496
v 0.000000 0.041339 0.202996
v -0.009526 0.041408 0.197496
v -0.009526 0.041545 0.186497
v 0.000000 0.051137 0.179623
v 0.009526 0.052759 0.184878
v 0.009526 0.056001 0.195390
v 0.000000 0.057622 0.200645
v -0.009526 0.056001 0.195390
v -0.009526 0.052759 0.184878
v 0.000000 0.059781 0.175394
v 0.009526 0.062936 0.179899
v 0.009526 0.069245 0.188910
v 0.000000 0.072400 0.193415
v -0.009526 0.069245 0.188910
v -0.009526 0.062936 0.179899
v 0.000000 0.066711 0.168718
v 0.009526 0.071095 0.172039
v 0.009526 0.079864 0.178681
v 0.000000 0.084248 0.182002
v -0.009526 0.079864 0.178681
v -0.009526 0.071095 0.172039
v 0.000000 0.071260 0.160239
v 0.009526 0.076452 0.162055
v 0.009526 0.086834 0.165688
v 0.000000 0.092026 0.167505
v -0.009526 0.086834 0.165688
v -0.009526 0.076452 0.162055
v 0.000000 0.072990 0.150773
v 0.009526 0.078489 0.150910
v 0.009526 0.089485 0.151184
v 0.000000 0.094984 0.151321
v -0.009526 0.089485 0.151184
v -0.009526 0.078489 0.150910
v 0.000000 0.071734 0.141233
v 0.009526 0.077010 0.139677
v 0.009526 0.087561 0.136566
v 0.000000 0.092836 0.135011
v -0.009526 0.087561 0.136566
v -0.009526 0.077010 0.139677
v 0.000000 0.067613 0.132537
v 0.009526 0.072158 0.129439
v 0.009526 0.081246 0.123242
v 0.000000 0.085791 0.120144
v -0.009526 0.081246 0.123242
v -0.009526 0.072158 0.129439
v 0.000000 0.061025 0.125524
v 0.009526 0.064400 0.121182
v 0.009526 0.071151 0.112497
v 0.000000 0.074526 0.108154
v -0.009526 0.071151 0.112497
v -0.009526 0.064400 0.121182
v 0.000000 0.051044 0.120160
v 0.009526 0.053704 0.115347
v 0.009526 0.059025 0.105719
v 0.000000 0.061686 0.100905
v -0.009526 0.059025 0.105719
v -0.009526 0.053704 0.115347
vn 0.5000 0.8660 -0.0000
vn 1.0000 -0.0000 -0.0000
vn 0.5000 -0.8660 -0.0000
vn -0.5000 -0.8660 -0.0000
vn -1.0000 -0.0000 -0.0000
vn -0.5000 0.8660 -0.0000
vn 0.5000 0.8660 0.0001
vn -0.4998 -0.8661 0.0001
vn -0.4998 0.8661 -0.0000
vn 0.4974 0.8577 -0.1304
vn 0.4970 -0.8570 0.1361
vn -0.4956 -0.8576 0.1374
vn -0.4953 0.8585 -0.1330
vn 0.4954 0.7754 -0.3915
vn 0.4954 -0.7754 0.3915
vn -0.4954 -0.7754 0.3915
vn -0.4954 0.7754 -0.3915
vn 0.4954 0.6180 -0.6104
vn 0.4954 -0.6180 0.6104
vn -0.4954 -0.6180 0.6104
vn -0.4954 0.6180 -0.6104
vn 0.4954 0.4011 -0.7705
vn 0.4954 -0.4011 0.7705
vn -0.4954 -0.4011 0.7705
vn -0.4954 0.4011 -0.7705
vn 0.4954 0.1455 -0.8564
vn 0.4954 -0.1455 0.8564
vn -0.4954 -0.1455 0.8564
vn -0.4954 0.1455 -0.8564
vn 0.4954 -0.1241 -0.8597
vn 0.4954 0.1241 0.8597
vn -0.4954 0.1241 0.8597
vn -0.4954 -0.1241 -0.8597
vn 0.4954 -0.3818 -0.7803
vn 0.4954 0.3818 0.7803
vn -0.4954 0.3818 0.7803
vn -0.4954 -0.3818 -0.7803
vn 0.4954 -0.6026 -0.6256
vn 0.4954 0.6026 0.6256
vn -0.4954 0.6026 0.6256
vn -0.4954 -0.6026 -0.6256
vn 0.4954 -0.7654 -0.4107
vn 0.4954 0.7654 0.4107
vn -0.4954 0.7654 0.4107
vn -0.4954 -0.7654 -0.4107
vn 0.4954 -0.8545 -0.1562
vn 0.4954 0.8545 0.1562
vn -0.4954 0.8545 0.1562
vn -0.4954 -0.8545 -0.1562
vn 0.4954 -0.8612 0.1134
vn 0.4954 0.8612 -0.1134
vn -0.4954 0.8612 -0.1134
vn -0.4954 -0.8612 0.1134
vn 0.4954 -0.7850 0.3720
vn 0.4954 0.7850 -0.3720
vn -0.4954 0.7850 -0.3720
vn -0.4954 -0.7850 0.3720
vn 0.4954 -0.6331 0.5948
vn 0.4954 0.6331 -0.5948
vn -0.4954 0.6331 -0.5948
vn -0.4954 -0.6331 0.5948
vn 0.5000 -0.4100 0.7629
vn 0.5000 0.4225 -0.7559
vn -0.4960 0.4269 -0.7562
vn -0.4951 -0.4161 0.7627
vn -0.0000 -0.0000 -1.0000
vn -0.0000 -0.8752 -0.4837
vn 0.4998 0.8661 -0.0000
vn 0.4998 -0.8661 0.0001
vn -0.5000 0.8660 0.0001
vn 0.4953 0.8585 -0.1330
vn 0.4956 -0.8576 0.1374
vn -0.4970 -0.8570 0.1361
vn -0.4974 0.8577 -0.1304
vn 0.4951 -0.4161 0.7627
vn 0.4960 0.4269 -0.7562
vn -0.5000 0.4225 -0.7559
vn -0.5000 -0.4100 0.7629
vt 0.452167 0.363327
vt 0.459500 0.323327
vt 0.459500 0.363327
vt 0.444833 0.363327
vt 0.452167 0.323327
vt 0.437500 0.363327
vt 0.444833 0.323327
vt 0.430167 0.363327
vt 0.437500 0.323327
vt 0.422833 0.363327
vt 0.430167 0.323327
vt 0.415500 0.363327
vt 0.422833 0.323327
vt 0.452167 0.396660
vt 0.459500 0.396660
vt 0.444833 0.396660
vt 0.437500 0.396660
vt 0.430167 0.396660
vt 0.422833 0.396660
vt 0.415500 0.396660
vt 0.459500 0.429994
vt 0.452167 0.429994
vt 0.444833 0.429994
vt 0.430167 0.429994
vt 0.437500 0.429994
vt 0.422833 0.429994
vt 0.415500 0.429994
vt 0.459500 0.438685
vt 0.452167 0.438685
vt 0.444833 0.438685
vt 0.430167 0.438685
vt 0.437500 0.438685
vt 0.422833 0.438685
vt 0.415500 0.438685
vt 0.459500 0.447376
vt 0.444833 0.447376
vt 0.452167 0.447376
vt 0.437500 0.447376
vt 0.430167 0.447376
vt 0.422833 0.447376
vt 0.459500 0.456068
vt 0.452167 0.456068
vt 0.444833 0.456068
vt 0.430167 0.456068
vt 0.437500 0.456068
vt 0.422833 0.456068
vt 0.415500 0.456068
vt 0.452167 0.464759
vt 0.459500 0.464759
vt 0.444833 0.464759
vt 0.430167 0.464759
vt 0.437500 0.464759
vt 0.422833 0.464759
vt 0.459500 0.473451
vt 0.444833 0.473451
vt 0.452167 0.473451
vt 0.437500 0.473451
vt 0.430167 0.473451
vt 0.415500 0.473451
vt 0.422833 0.473451
vt 0.452167 0.482142
vt 0.459500 0.482142
vt 0.444833 0.482142
vt 0.430167 0.482142
vt 0.437500 0.482142
vt 0.422833 0.482142
vt 0.452167 0.490833
vt 0.459500 0.490833
vt 0.437500 0.490833
vt 0.444833 0.490833
vt 0.422833 0.490833
vt 0.430167 0.490833
vt 0.415500 0.482142
vt 0.459500 0.499525
vt 0.452167 0.499525
vt 0.437500 0.499525
vt 0.444833 0.499525
vt 0.422833 0.499525
vt 0.430167 0.499525
vt 0.415500 0.499525
vt 0.459500 0.508216
vt 0.444833 0.508216
vt 0.452167 0.508216
vt 0.437500 0.508216
vt 0.430167 0.508216
vt 0.415500 0.508216
vt 0.422833 0.508216
vt 0.459500 0.516907
vt 0.452167 0.516907
vt 0.444833 0.516907
vt 0.430167 0.516907
vt 0.437500 0.516907
vt 0.422833 0.516907
vt 0.415500 0.516907
vt 0.452167 0.525599
vt 0.459500 0.525599
vt 0.437500 0.525599
vt 0.444833 0.525599
vt 0.422833 0.525599
vt 0.430167 0.525599
vt 0.452167 0.534290
vt 0.459500 0.534290
vt 0.444833 0.534290
vt 0.437500 0.534290
vt 0.422833 0.534290
vt 0.430167 0.534290
vt 0.415500 0.525599
vt 0.459500 0.542982
vt 0.452167 0.542982
vt 0.437500 0.542982
vt 0.444833 0.542982
vt 0.422833 0.542982
vt 0.430167 0.542982
vt 0.415500 0.542982
vt 0.452167 0.551673
vt 0.459500 0.551673
vt 0.444833 0.551673
vt 0.437500 0.551673
vt 0.430167 0.551673
vt 0.422833 0.551673
vt 0.431149 0.441167
vt 0.437500 0.430167
vt 0.443851 0.441167
vt 0.415500 0.323327
vt 0.415500 0.447376
vt 0.415500 0.464759
vt 0.415500 0.490833
vt 0.415500 0.534290
vt 0.415500 0.551673
vt 0.437500 0.444833
vt 0.431149 0.433833
vt 0.443851 0.433833
s 0
usemtl gate_wood
f 8/1/1 1/2/1 7/3/1
f 9/4/2 2/5/2 8/1/2
f 10/6/3 3/7/3 9/4/3
f 11/8/4 4/9/4 10/6/4
f 12/10/5 5/11/5 11/8/5
f 7/12/6 6/13/6 12/10/6
f 14/14/1 7/3/1 13/15/1
f 15/16/2 8/1/2 14/14/2
f 16/17/3 9/4/3 15/16/3
f 17/18/4 10/6/4 16/17/4
f 18/19/5 11/8/5 17/18/5
f 13/20/6 12/10/6 18/19/6
f 19/21/7 14/14/7 13/15/7
f 20/22/2 15/16/2 14/14/2
f 21/23/3 16/17/3 15/16/3
f 23/24/8 16/17/8 22/25/8
f 24/26/5 17/18/5 23/24/5
f 19/27/9 18/19/9 24/26/9
f 25/28/10 20/22/10 19/21/10
f 26/29/2 21/23/2 20/22/2
f 27/30/11 22/25/11 21/23/11
f 29/31/12 22/25/12 28/32/12
f 30/33/5 23/24/5 29/31/5
f 25/34/13 24/26/13 30/33/13
f 31/35/14 26/29/14 25/28/14
f 33/36/2 26/29/2 32/37/2
f 34/38/15 27/30/15 33/36/15
f 34/38/16 29/31/16 28/32/16
f 35/39/5 30/33/5 29/31/5
f 36/40/17 25/34/17 30/33/17
f 37/41/18 32/37/18 31/35/18
f 38/42/2 33/36/2 32/37/2
f 39/43/19 34/38/19 33/36/19
f 41/44/20 34/38/20 40/45/20
f 42/46/5 35/39/5 41/44/5
f 37/47/21 36/40/21 42/46/21
f 44/48/22 37/41/22 43/49/22
f 45/50/2 38/42/2 44/48/2
f 45/50/23 40/45/23 39/43/23
f 47/51/24 40/45/24 46/52/24
f 47/51/5 42/46/5 41/44/5
f 48/53/25 37/47/25 42/46/25
f 49/54/26 44/48/26 43/49/26
f 51/55/2 44/48/2 50/56/2
f 52/57/27 45/50/27 51/55/27
f 53/58/28 46/52/28 52/57/28
f 53/58/5 48/53/5 47/51/5
f 49/59/29 48/53/29 54/60/29
f 56/61/30 49/54/30 55/62/30
f 57/63/2 50/56/2 56/61/2
f 57/63/31 52/57/31 51/55/31
f 59/64/32 52/57/32 58/65/32
f 59/64/5 54/60/5 53/58/5
f 60/66/33 49/59/33 54/60/33
f 62/67/34 55/62/34 61/68/34
f 62/67/2 57/63/2 56/61/2
f 64/69/35 57/63/35 63/70/35
f 64/69/36 59/64/36 58/65/36
f 66/71/5 59/64/5 65/72/5
f 66/71/37 55/73/37 60/66/37
f 67/74/38 62/67/38 61/68/38
f 68/75/2 63/70/2 62/67/2
f 70/76/39 63/70/39 69/77/39
f 70/76/40 65/72/40 64/69/40
f 72/78/5 65/72/5 71/79/5
f 67/80/41 66/71/41 72/78/41
f 73/81/42 68/75/42 67/74/42
f 75/82/2 68/75/2 74/83/2
f 76/84/43 69/77/43 75/82/43
f 77/85/44 70/76/44 76/84/44
f 77/85/5 72/78/5 71/79/5
f 73/86/45 72/78/45 78/87/45
f 79/88/46 74/83/46 73/81/46
f 80/89/2 75/82/2 74/83/2
f 81/90/47 76/84/47 75/82/47
f 83/91/48 76/84/48 82/92/48
f 84/93/5 77/85/5 83/91/5
f 79/94/49 78/87/49 84/93/49
f 86/95/50 79/88/50 85/96/50
f 86/95/2 81/90/2 80/89/2
f 88/97/51 81/90/51 87/98/51
f 88/97/52 83/91/52 82/92/52
f 90/99/5 83/91/5 89/100/5
f 90/99/53 79/94/53 84/93/53
f 92/101/54 85/96/54 91/102/54
f 93/103/2 86/95/2 92/101/2
f 94/104/55 87/98/55 93/103/55
f 94/104/56 89/100/56 88/97/56
f 96/105/5 89/100/5 95/106/5
f 96/105/57 85/107/57 90/99/57
f 97/108/58 92/101/58 91/102/58
f 98/109/2 93/103/2 92/101/2
f 100/110/59 93/103/59 99/111/59
f 100/110/60 95/106/60 94/104/60
f 102/112/5 95/106/5 101/113/5
f 97/114/61 96/105/61 102/112/61
f 104/115/62 97/108/62 103/116/62
f 105/117/2 98/109/2 104/115/2
f 106/118/63 99/111/63 105/117/63
f 106/118/64 101/113/64 100/110/64
f 107/119/5 102/112/5 101/113/5
f 108/120/65 97/114/65 102/112/65
f 2/121/66 4/122/66 6/123/66
f 107/123/67 105/121/67 103/122/67
f 8/1/1 2/5/1 1/2/1
f 9/4/2 3/7/2 2/5/2
f 10/6/3 4/9/3 3/7/3
f 11/8/4 5/11/4 4/9/4
f 12/10/5 6/13/5 5/11/5
f 7/12/6 1/124/6 6/13/6
f 14/14/1 8/1/1 7/3/1
f 15/16/2 9/4/2 8/1/2
f 16/17/3 10/6/3 9/4/3
f 17/18/4 11/8/4 10/6/4
f 18/19/5 12/10/5 11/8/5
f 13/20/6 7/12/6 12/10/6
f 19/21/68 20/22/68 14/14/68
f 20/22/2 21/23/2 15/16/2
f 21/23/69 22/25/69 16/17/69
f 23/24/4 17/18/4 16/17/4
f 24/26/5 18/19/5 17/18/5
f 19/27/70 13/20/70 18/19/70
f 25/28/71 26/29/71 20/22/71
f 26/29/2 27/30/2 21/23/2
f 27/30/72 28/32/72 22/25/72
f 29/31/73 23/24/73 22/25/73
f 30/33/5 24/26/5 23/24/5
f 25/34/74 19/27/74 24/26/74
f 31/35/14 32/37/14 26/29/14
f 33/36/2 27/30/2 26/29/2
f 34/38/15 28/32/15 27/30/15
f 34/38/16 35/39/16 29/31/16
f 35/39/5 36/40/5 30/33/5
f 36/40/17 31/125/17 25/34/17
f 37/41/18 38/42/18 32/37/18
f 38/42/2 39/43/2 33/36/2
f 39/43/19 40/45/19 34/38/19
f 41/44/20 35/39/20 34/38/20
f 42/46/5 36/40/5 35/39/5
f 37/47/21 31/125/21 36/40/21
f 44/48/22 38/42/22 37/41/22
f 45/50/2 39/43/2 38/42/2
f 45/50/23 46/52/23 40/45/23
f 47/51/24 41/44/24 40/45/24
f 47/51/5 48/53/5 42/46/5
f 48/53/25 43/126/25 37/47/25
f 49/54/26 50/56/26 44/48/26
f 51/55/2 45/50/2 44/48/2
f 52/57/27 46/52/27 45/50/27
f 53/58/28 47/51/28 46/52/28
f 53/58/5 54/60/5 48/53/5
f 49/59/29 43/126/29 48/53/29
f 56/61/30 50/56/30 49/54/30
f 57/63/2 51/55/2 50/56/2
f 57/63/31 58/65/31 52/57/31
f 59/64/32 53/58/32 52/57/32
f 59/64/5 60/66/5 54/60/5
f 60/66/33 55/73/33 49/59/33
f 62/67/34 56/61/34 55/62/34
f 62/67/2 63/70/2 57/63/2
f 64/69/35 58/65/35 57/63/35
f 64/69/36 65/72/36 59/64/36
f 66/71/5 60/66/5 59/64/5
f 66/71/37 61/127/37 55/73/37
f 67/74/38 68/75/38 62/67/38
f 68/75/2 69/77/2 63/70/2
f 70/76/39 64/69/39 63/70/39
f 70/76/40 71/79/40 65/72/40
f 72/78/5 66/71/5 65/72/5
f 67/80/41 61/127/41 66/71/41
f 73/81/42 74/83/42 68/75/42
f 75/82/2 69/77/2 68/75/2
f 76/84/43 70/76/43 69/77/43
f 77/85/44 71/79/44 70/76/44
f 77/85/5 78/87/5 72/78/5
f 73/86/45 67/80/45 72/78/45
f 79/88/46 80/89/46 74/83/46
f 80/89/2 81/90/2 75/82/2
f 81/90/47 82/92/47 76/84/47
f 83/91/48 77/85/48 76/84/48
f 84/93/5 78/87/5 77/85/5
f 79/94/49 73/86/49 78/87/49
f 86/95/50 80/89/50 79/88/50
f 86/95/2 87/98/2 81/90/2
f 88/97/51 82/92/51 81/90/51
f 88/97/52 89/100/52 83/91/52
f 90/99/5 84/93/5 83/91/5
f 90/99/53 85/107/53 79/94/53
f 92/101/54 86/95/54 85/96/54
f 93/103/2 87/98/2 86/95/2
f 94/104/55 88/97/55 87/98/55
f 94/104/56 95/106/56 89/100/56
f 96/105/5 90/99/5 89/100/5
f 96/105/57 91/128/57 85/107/57
f 97/108/58 98/109/58 92/101/58
f 98/109/2 99/111/2 93/103/2
f 100/110/59 94/104/59 93/103/59
f 100/110/60 101/113/60 95/106/60
f 102/112/5 96/105/5 95/106/5
f 97/114/61 91/128/61 96/105/61
f 104/115/75 98/109/75 97/108/75
f 105/117/2 99/111/2 98/109/2
f 106/118/76 100/110/76 99/111/76
f 106/118/77 107/119/77 101/113/77
f 107/119/5 108/120/5 102/112/5
f 108/120/78 103/129/78 97/114/78
f 6/123/66 1/130/66 2/121/66
f 2/121/66 3/131/66 4/122/66
f 4/122/66 5/132/66 6/123/66
f 103/122/67 108/132/67 107/123/67
f 107/123/67 106/130/67 105/121/67
f 105/121/67 104/131/67 103/122/67
