# Blender 5.2.1 LTS
# www.blender.org
mtllib crook_post.mtl
o crook_post
v -0.080000 -0.280000 0.030000
v 0.080000 -0.280000 0.030000
v -0.080000 -0.280000 0.000000
v 0.080000 -0.280000 0.000000
v -0.080000 0.280000 0.030000
v 0.080000 0.280000 0.030000
v -0.080000 0.280000 0.000000
v 0.080000 0.280000 0.000000
v -0.086000 0.172000 0.034000
v 0.086000 0.172000 0.034000
v -0.086000 0.172000 0.030000
v 0.086000 0.172000 0.030000
v -0.086000 0.208000 0.034000
v 0.086000 0.208000 0.034000
v -0.086000 0.208000 0.030000
v 0.086000 0.208000 0.030000
v -0.063000 0.182000 0.042000
v -0.047000 0.182000 0.042000
v -0.063000 0.182000 0.034000
v -0.047000 0.182000 0.034000
v -0.063000 0.198000 0.042000
v -0.047000 0.198000 0.042000
v -0.063000 0.198000 0.034000
v -0.047000 0.198000 0.034000
v 0.047000 0.182000 0.042000
v 0.063000 0.182000 0.042000
v 0.047000 0.182000 0.034000
v 0.063000 0.182000 0.034000
v 0.047000 0.198000 0.042000
v 0.063000 0.198000 0.042000
v 0.047000 0.198000 0.034000
v 0.063000 0.198000 0.034000
v -0.086000 -0.208000 0.034000
v 0.086000 -0.208000 0.034000
v -0.086000 -0.208000 0.030000
v 0.086000 -0.208000 0.030000
v -0.086000 -0.172000 0.034000
v 0.086000 -0.172000 0.034000
v -0.086000 -0.172000 0.030000
v 0.086000 -0.172000 0.030000
v -0.063000 -0.198000 0.042000
v -0.047000 -0.198000 0.042000
v -0.063000 -0.198000 0.034000
v -0.047000 -0.198000 0.034000
v -0.063000 -0.182000 0.042000
v -0.047000 -0.182000 0.042000
v -0.063000 -0.182000 0.034000
v -0.047000 -0.182000 0.034000
v 0.047000 -0.198000 0.042000
v 0.063000 -0.198000 0.042000
v 0.047000 -0.198000 0.034000
v 0.063000 -0.198000 0.034000
v 0.047000 -0.182000 0.042000
v 0.063000 -0.182000 0.042000
v 0.047000 -0.182000 0.034000
v 0.063000 -0.182000 0.034000
v -0.032000 -0.040000 0.072000
v 0.032000 -0.040000 0.072000
v -0.032000 -0.040000 0.030000
v 0.032000 -0.040000 0.030000
v -0.032000 0.040000 0.072000
v 0.032000 0.040000 0.072000
v -0.032000 0.040000 0.030000
v 0.032000 0.040000 0.030000
v -0.042000 -0.006000 0.056000
v 0.042000 -0.006000 0.056000
v -0.042000 -0.006000 0.044000
v 0.042000 -0.006000 0.044000
v -0.042000 0.006000 0.056000
v 0.042000 0.006000 0.056000
v -0.042000 0.006000 0.044000
v 0.042000 0.006000 0.044000
v -0.012000 -0.285000 0.044000
v 0.012000 -0.285000 0.044000
v -0.012000 -0.285000 0.030000
v 0.012000 -0.285000 0.030000
v -0.012000 -0.265000 0.044000
v 0.012000 -0.265000 0.044000
v -0.012000 -0.265000 0.030000
v 0.012000 -0.265000 0.030000
v 0.024000 -0.305000 0.042000
v 0.028146 -0.305000 0.036294
v 0.034854 -0.305000 0.038473
v 0.034854 -0.305000 0.045527
v 0.028146 -0.305000 0.047706
v 0.020785 -0.293000 0.042000
v 0.024375 -0.290927 0.036294
v 0.030185 -0.287573 0.038473
v 0.030185 -0.287573 0.045527
v 0.024375 -0.290927 0.047706
v 0.012000 -0.284215 0.042000
v 0.014073 -0.280625 0.036294
v 0.017427 -0.274815 0.038473
v 0.017427 -0.274815 0.045527
v 0.014073 -0.280625 0.047706
v 0.000000 -0.281000 0.042000
v 0.000000 -0.276854 0.036294
v 0.000000 -0.270146 0.038473
v 0.000000 -0.270146 0.045527
v 0.000000 -0.276854 0.047706
v -0.012000 -0.284215 0.042000
v -0.014073 -0.280625 0.036294
v -0.017427 -0.274815 0.038473
v -0.017427 -0.274815 0.045527
v -0.014073 -0.280625 0.047706
v -0.020785 -0.293000 0.042000
v -0.024375 -0.290927 0.036294
v -0.030185 -0.287573 0.038473
v -0.030185 -0.287573 0.045527
v -0.024375 -0.290927 0.047706
v -0.024000 -0.305000 0.042000
v -0.028146 -0.305000 0.036294
v -0.034854 -0.305000 0.038473
v -0.034854 -0.305000 0.045527
v -0.028146 -0.305000 0.047706
v -0.020785 -0.317000 0.042000
v -0.024375 -0.319073 0.036294
v -0.030185 -0.322427 0.038473
v -0.030185 -0.322427 0.045527
v -0.024375 -0.319073 0.047706
v -0.012000 -0.325785 0.042000
v -0.014073 -0.329375 0.036294
v -0.017427 -0.335185 0.038473
v -0.017427 -0.335185 0.045527
v -0.014073 -0.329375 0.047706
v -0.000000 -0.329000 0.042000
v -0.000000 -0.333146 0.036294
v -0.000000 -0.339854 0.038473
v -0.000000 -0.339854 0.045527
v -0.000000 -0.333146 0.047706
v 0.012000 -0.325785 0.042000
v 0.014073 -0.329375 0.036294
v 0.017427 -0.335185 0.038473
v 0.017427 -0.335185 0.045527
v 0.014073 -0.329375 0.047706
v 0.020785 -0.317000 0.042000
v 0.024375 -0.319073 0.036294
v 0.030185 -0.322427 0.038473
v 0.030185 -0.322427 0.045527
v 0.024375 -0.319073 0.047706
vn -1.0000 -0.0000 -0.0000
vn 1.0000 -0.0000 -0.0000
vn -0.0000 -0.0000 1.0000
vn -0.0000 -1.0000 -0.0000
vn -0.0000 1.0000 -0.0000
vn -0.0000 -0.0000 -1.0000
vn -0.7907 -0.2119 -0.5744
vn 0.3080 0.0825 -0.9478
vn 0.9659 0.2588 -0.0000
vn 0.3080 0.0825 0.9478
vn -0.7907 -0.2119 0.5744
vn -0.5788 -0.5788 -0.5744
vn 0.2254 0.2254 -0.9478
vn 0.7071 0.7071 -0.0000
vn 0.2254 0.2254 0.9478
vn -0.5788 -0.5788 0.5744
vn -0.2119 -0.7907 -0.5744
vn 0.0825 0.3080 -0.9478
vn 0.2588 0.9659 -0.0000
vn 0.0825 0.3080 0.9478
vn -0.2119 -0.7907 0.5744
vn 0.2119 -0.7907 -0.5744
vn -0.0825 0.3080 -0.9478
vn -0.2588 0.9659 -0.0000
vn -0.0825 0.3080 0.9478
vn 0.2119 -0.7907 0.5744
vn 0.5788 -0.5788 -0.5744
vn -0.2254 0.2254 -0.9478
vn -0.7071 0.7071 -0.0000
vn -0.2254 0.2254 0.9478
vn 0.5788 -0.5788 0.5744
vn 0.7907 -0.2119 -0.5744
vn -0.3080 0.0825 -0.9478
vn -0.9659 0.2588 -0.0000
vn -0.3080 0.0825 0.9478
vn 0.7907 -0.2119 0.5744
vn 0.7907 0.2119 -0.5744
vn -0.3080 -0.0825 -0.9478
vn -0.9659 -0.2588 -0.0000
vn -0.3080 -0.0825 0.9478
vn 0.7907 0.2119 0.5744
vn 0.5788 0.5788 -0.5744
vn -0.2254 -0.2254 -0.9478
vn -0.7071 -0.7071 -0.0000
vn -0.2254 -0.2254 0.9478
vn 0.5788 0.5788 0.5744
vn 0.2119 0.7907 -0.5744
vn -0.0825 -0.3080 -0.9478
vn -0.2588 -0.9659 -0.0000
vn -0.0825 -0.3080 0.9478
vn 0.2119 0.7907 0.5744
vn -0.2119 0.7907 -0.5744
vn 0.0825 -0.3080 -0.9478
vn 0.2588 -0.9659 -0.0000
vn 0.0825 -0.3080 0.9478
vn -0.2119 0.7907 0.5744
vn -0.5788 0.5788 -0.5744
vn 0.2254 -0.2254 -0.9478
vn 0.7071 -0.7071 -0.0000
vn 0.2254 -0.2254 0.9478
vn -0.5788 0.5788 0.5744
vn -0.7907 0.2119 -0.5744
vn 0.3080 -0.0825 -0.9478
vn 0.9659 -0.2588 -0.0000
vn 0.3080 -0.0825 0.9478
vn -0.7907 0.2119 0.5744
vt 0.447500 0.624167
vt 0.427500 0.250833
vt 0.447500 0.250833
vt 0.427500 0.624167
vt 0.490833 0.250833
vt 0.384167 0.624167
vt 0.384167 0.250833
vt 0.490833 0.447500
vt 0.384167 0.427500
vt 0.490833 0.427500
vt 0.384167 0.447500
vt 0.125909 0.195682
vt 0.124091 0.179318
vt 0.125909 0.179318
vt 0.124091 0.195682
vt 0.164091 0.179318
vt 0.085909 0.195682
vt 0.085909 0.179318
vt 0.164091 0.188409
vt 0.085909 0.186591
vt 0.164091 0.186591
vt 0.085909 0.188409
vt 0.126818 0.191136
vt 0.123182 0.183864
vt 0.126818 0.183864
vt 0.123182 0.191136
vt 0.128636 0.183864
vt 0.121364 0.191136
vt 0.121364 0.183864
vt 0.128636 0.189318
vt 0.121364 0.185682
vt 0.128636 0.185682
vt 0.121364 0.189318
vt 0.451500 0.464167
vt 0.423500 0.410833
vt 0.451500 0.410833
vt 0.423500 0.464167
vt 0.458833 0.410833
vt 0.416167 0.464167
vt 0.416167 0.410833
vt 0.458833 0.451500
vt 0.416167 0.423500
vt 0.458833 0.423500
vt 0.416167 0.451500
vt 0.127727 0.190227
vt 0.122273 0.184773
vt 0.127727 0.184773
vt 0.122273 0.190227
vt 0.144091 0.184773
vt 0.105909 0.190227
vt 0.105909 0.184773
vt 0.144091 0.190227
vt 0.128182 0.192045
vt 0.121818 0.182955
vt 0.128182 0.182955
vt 0.121818 0.192045
vt 0.130455 0.182955
vt 0.119545 0.192045
vt 0.119545 0.182955
vt 0.130455 0.190682
vt 0.119545 0.184318
vt 0.130455 0.184318
vt 0.119545 0.190682
vt 0.089706 0.179485
vt 0.082648 0.182691
vt 0.082648 0.179485
vt 0.089706 0.182691
vt 0.082648 0.185897
vt 0.089706 0.189103
vt 0.089706 0.185897
vt 0.082648 0.192309
vt 0.082648 0.189103
vt 0.089706 0.192309
vt 0.082648 0.195515
vt 0.096765 0.179485
vt 0.096765 0.185897
vt 0.096765 0.182691
vt 0.096765 0.189103
vt 0.096765 0.195515
vt 0.096765 0.192309
vt 0.103824 0.179485
vt 0.103824 0.185897
vt 0.103824 0.182691
vt 0.103824 0.189103
vt 0.103824 0.195515
vt 0.103824 0.192309
vt 0.110883 0.182691
vt 0.110883 0.179485
vt 0.110883 0.189103
vt 0.110883 0.185897
vt 0.110883 0.192309
vt 0.117941 0.179485
vt 0.117941 0.185897
vt 0.117941 0.182691
vt 0.117941 0.189103
vt 0.117941 0.192309
vt 0.110883 0.195515
vt 0.125000 0.182691
vt 0.125000 0.179485
vt 0.125000 0.185897
vt 0.125000 0.189103
vt 0.125000 0.192309
vt 0.125000 0.195515
vt 0.132059 0.179485
vt 0.132059 0.182691
vt 0.132059 0.189103
vt 0.132059 0.185897
vt 0.132059 0.195515
vt 0.132059 0.192309
vt 0.139117 0.182691
vt 0.139117 0.179485
vt 0.139117 0.189103
vt 0.139117 0.185897
vt 0.139117 0.192309
vt 0.139117 0.195515
vt 0.146176 0.182691
vt 0.146176 0.179485
vt 0.146176 0.189103
vt 0.146176 0.185897
vt 0.146176 0.192309
vt 0.153235 0.179485
vt 0.153235 0.185897
vt 0.153235 0.182691
vt 0.153235 0.189103
vt 0.153235 0.195515
vt 0.153235 0.192309
vt 0.160294 0.182691
vt 0.160294 0.179485
vt 0.160294 0.185897
vt 0.160294 0.189103
vt 0.160294 0.192309
vt 0.167352 0.182691
vt 0.167352 0.179485
vt 0.167352 0.185897
vt 0.167352 0.189103
vt 0.167352 0.192309
vt 0.167352 0.195515
vt 0.490833 0.624167
vt 0.164091 0.195682
vt 0.128636 0.191136
vt 0.458833 0.464167
vt 0.130455 0.192045
vt 0.089706 0.195515
vt 0.117941 0.195515
vt 0.146176 0.195515
vt 0.160294 0.195515
s 0
usemtl gate_wood
f 5/1/1 3/2/1 1/3/1
f 4/3/2 6/4/2 2/2/2
f 2/5/3 5/6/3 1/7/3
f 3/8/4 2/9/4 1/10/4
f 6/10/5 7/11/5 5/9/5
f 13/12/1 11/13/1 9/14/1
f 12/14/2 14/15/2 10/13/2
f 10/16/3 13/17/3 9/18/3
f 11/19/4 10/20/4 9/21/4
f 14/21/5 15/22/5 13/20/5
f 21/23/1 19/24/1 17/25/1
f 20/25/2 22/26/2 18/24/2
f 18/27/3 21/28/3 17/29/3
f 19/30/4 18/31/4 17/32/4
f 22/32/5 23/33/5 21/31/5
f 29/23/1 27/24/1 25/25/1
f 28/25/2 30/26/2 26/24/2
f 26/27/3 29/28/3 25/29/3
f 27/30/4 26/31/4 25/32/4
f 30/32/5 31/33/5 29/31/5
f 37/12/1 35/13/1 33/14/1
f 36/14/2 38/15/2 34/13/2
f 34/16/3 37/17/3 33/18/3
f 35/19/4 34/20/4 33/21/4
f 38/21/5 39/22/5 37/20/5
f 45/23/1 43/24/1 41/25/1
f 44/25/2 46/26/2 42/24/2
f 42/27/3 45/28/3 41/29/3
f 43/30/4 42/31/4 41/32/4
f 46/32/5 47/33/5 45/31/5
f 53/23/1 51/24/1 49/25/1
f 52/25/2 54/26/2 50/24/2
f 50/27/3 53/28/3 49/29/3
f 51/30/4 50/31/4 49/32/4
f 54/32/5 55/33/5 53/31/5
f 61/34/1 59/35/1 57/36/1
f 60/36/2 62/37/2 58/35/2
f 58/38/3 61/39/3 57/40/3
f 59/41/4 58/42/4 57/43/4
f 62/43/5 63/44/5 61/42/5
f 69/45/1 67/46/1 65/47/1
f 68/47/2 70/48/2 66/46/2
f 66/49/3 69/50/3 65/51/3
f 71/52/6 68/51/6 67/49/6
f 67/52/4 66/51/4 65/49/4
f 70/49/5 71/50/5 69/51/5
f 77/53/1 75/54/1 73/55/1
f 76/55/2 78/56/2 74/54/2
f 74/57/3 77/58/3 73/59/3
f 75/60/4 74/61/4 73/62/4
f 78/62/5 79/63/5 77/61/5
f 86/64/7 82/65/7 81/66/7
f 87/67/8 83/68/8 82/65/8
f 89/69/9 83/68/9 88/70/9
f 89/69/10 85/71/10 84/72/10
f 90/73/11 81/74/11 85/71/11
f 91/75/12 87/67/12 86/64/12
f 93/76/13 87/67/13 92/77/13
f 94/78/14 88/70/14 93/76/14
f 94/78/15 90/73/15 89/69/15
f 91/79/16 90/73/16 95/80/16
f 96/81/17 92/77/17 91/75/17
f 98/82/18 92/77/18 97/83/18
f 99/84/19 93/76/19 98/82/19
f 99/84/20 95/80/20 94/78/20
f 96/85/21 95/80/21 100/86/21
f 102/87/22 96/81/22 101/88/22
f 102/87/23 98/82/23 97/83/23
f 104/89/24 98/82/24 103/90/24
f 105/91/25 99/84/25 104/89/25
f 105/91/26 96/85/26 100/86/26
f 106/92/27 102/87/27 101/88/27
f 108/93/28 102/87/28 107/94/28
f 109/95/29 103/90/29 108/93/29
f 110/96/30 104/89/30 109/95/30
f 110/96/31 101/97/31 105/91/31
f 112/98/32 106/92/32 111/99/32
f 113/100/33 107/94/33 112/98/33
f 114/101/34 108/93/34 113/100/34
f 115/102/35 109/95/35 114/101/35
f 111/103/36 110/96/36 115/102/36
f 116/104/37 112/98/37 111/99/37
f 117/105/38 113/100/38 112/98/38
f 119/106/39 113/100/39 118/107/39
f 119/106/40 115/102/40 114/101/40
f 116/108/41 115/102/41 120/109/41
f 122/110/42 116/104/42 121/111/42
f 122/110/43 118/107/43 117/105/43
f 124/112/44 118/107/44 123/113/44
f 125/114/45 119/106/45 124/112/45
f 121/115/46 120/109/46 125/114/46
f 127/116/47 121/111/47 126/117/47
f 127/116/48 123/113/48 122/110/48
f 129/118/49 123/113/49 128/119/49
f 130/120/50 124/112/50 129/118/50
f 130/120/51 121/115/51 125/114/51
f 131/121/52 127/116/52 126/117/52
f 133/122/53 127/116/53 132/123/53
f 134/124/54 128/119/54 133/122/54
f 134/124/55 130/120/55 129/118/55
f 131/125/56 130/120/56 135/126/56
f 137/127/57 131/121/57 136/128/57
f 138/129/58 132/123/58 137/127/58
f 139/130/59 133/122/59 138/129/59
f 139/130/60 135/126/60 134/124/60
f 140/131/61 131/125/61 135/126/61
f 82/132/62 136/128/62 81/133/62
f 83/134/63 137/127/63 82/132/63
f 84/135/64 138/129/64 83/134/64
f 85/136/65 139/130/65 84/135/65
f 81/137/66 140/131/66 85/136/66
f 5/1/1 7/4/1 3/2/1
f 4/3/2 8/1/2 6/4/2
f 2/5/3 6/138/3 5/6/3
f 3/8/4 4/11/4 2/9/4
f 6/10/5 8/8/5 7/11/5
f 13/12/1 15/15/1 11/13/1
f 12/14/2 16/12/2 14/15/2
f 10/16/3 14/139/3 13/17/3
f 11/19/4 12/22/4 10/20/4
f 14/21/5 16/19/5 15/22/5
f 21/23/1 23/26/1 19/24/1
f 20/25/2 24/23/2 22/26/2
f 18/27/3 22/140/3 21/28/3
f 19/30/4 20/33/4 18/31/4
f 22/32/5 24/30/5 23/33/5
f 29/23/1 31/26/1 27/24/1
f 28/25/2 32/23/2 30/26/2
f 26/27/3 30/140/3 29/28/3
f 27/30/4 28/33/4 26/31/4
f 30/32/5 32/30/5 31/33/5
f 37/12/1 39/15/1 35/13/1
f 36/14/2 40/12/2 38/15/2
f 34/16/3 38/139/3 37/17/3
f 35/19/4 36/22/4 34/20/4
f 38/21/5 40/19/5 39/22/5
f 45/23/1 47/26/1 43/24/1
f 44/25/2 48/23/2 46/26/2
f 42/27/3 46/140/3 45/28/3
f 43/30/4 44/33/4 42/31/4
f 46/32/5 48/30/5 47/33/5
f 53/23/1 55/26/1 51/24/1
f 52/25/2 56/23/2 54/26/2
f 50/27/3 54/140/3 53/28/3
f 51/30/4 52/33/4 50/31/4
f 54/32/5 56/30/5 55/33/5
f 61/34/1 63/37/1 59/35/1
f 60/36/2 64/34/2 62/37/2
f 58/38/3 62/141/3 61/39/3
f 59/41/4 60/44/4 58/42/4
f 62/43/5 64/41/5 63/44/5
f 69/45/1 71/48/1 67/46/1
f 68/47/2 72/45/2 70/48/2
f 66/49/3 70/52/3 69/50/3
f 71/52/6 72/50/6 68/51/6
f 67/52/4 68/50/4 66/51/4
f 70/49/5 72/52/5 71/50/5
f 77/53/1 79/56/1 75/54/1
f 76/55/2 80/53/2 78/56/2
f 74/57/3 78/142/3 77/58/3
f 75/60/4 76/63/4 74/61/4
f 78/62/5 80/60/5 79/63/5
f 86/64/7 87/67/7 82/65/7
f 87/67/8 88/70/8 83/68/8
f 89/69/9 84/72/9 83/68/9
f 89/69/10 90/73/10 85/71/10
f 90/73/11 86/143/11 81/74/11
f 91/75/12 92/77/12 87/67/12
f 93/76/13 88/70/13 87/67/13
f 94/78/14 89/69/14 88/70/14
f 94/78/15 95/80/15 90/73/15
f 91/79/16 86/143/16 90/73/16
f 96/81/17 97/83/17 92/77/17
f 98/82/18 93/76/18 92/77/18
f 99/84/19 94/78/19 93/76/19
f 99/84/20 100/86/20 95/80/20
f 96/85/21 91/79/21 95/80/21
f 102/87/22 97/83/22 96/81/22
f 102/87/23 103/90/23 98/82/23
f 104/89/24 99/84/24 98/82/24
f 105/91/25 100/86/25 99/84/25
f 105/91/26 101/97/26 96/85/26
f 106/92/27 107/94/27 102/87/27
f 108/93/28 103/90/28 102/87/28
f 109/95/29 104/89/29 103/90/29
f 110/96/30 105/91/30 104/89/30
f 110/96/31 106/144/31 101/97/31
f 112/98/32 107/94/32 106/92/32
f 113/100/33 108/93/33 107/94/33
f 114/101/34 109/95/34 108/93/34
f 115/102/35 110/96/35 109/95/35
f 111/103/36 106/144/36 110/96/36
f 116/104/37 117/105/37 112/98/37
f 117/105/38 118/107/38 113/100/38
f 119/106/39 114/101/39 113/100/39
f 119/106/40 120/109/40 115/102/40
f 116/108/41 111/103/41 115/102/41
f 122/110/42 117/105/42 116/104/42
f 122/110/43 123/113/43 118/107/43
f 124/112/44 119/106/44 118/107/44
f 125/114/45 120/109/45 119/106/45
f 121/115/46 116/108/46 120/109/46
f 127/116/47 122/110/47 121/111/47
f 127/116/48 128/119/48 123/113/48
f 129/118/49 124/112/49 123/113/49
f 130/120/50 125/114/50 124/112/50
f 130/120/51 126/145/51 121/115/51
f 131/121/52 132/123/52 127/116/52
f 133/122/53 128/119/53 127/116/53
f 134/124/54 129/118/54 128/119/54
f 134/124/55 135/126/55 130/120/55
f 131/125/56 126/145/56 130/120/56
f 137/127/57 132/123/57 131/121/57
f 138/129/58 133/122/58 132/123/58
f 139/130/59 134/124/59 133/122/59
f 139/130/60 140/131/60 135/126/60
f 140/131/61 136/146/61 131/125/61
f 82/132/62 137/127/62 136/128/62
f 83/134/63 138/129/63 137/127/63
f 84/135/64 139/130/64 138/129/64
f 85/136/65 140/131/65 139/130/65
f 81/137/66 136/146/66 140/131/66
