# Blender 5.2.1 LTS
# www.blender.org
mtllib crook_rope_slack.mtl
o crook_rope_slack
v 0.000000 -0.043253 0.056779
v 0.006657 -0.044460 0.052095
v 0.004114 -0.046413 0.044516
v -0.004114 -0.046413 0.044516
v -0.006657 -0.044460 0.052095
v 0.000000 -0.086836 0.068005
v 0.006657 -0.087870 0.063280
v 0.004114 -0.089545 0.055635
v -0.004114 -0.089545 0.055635
v -0.006657 -0.087870 0.063280
v 0.000000 -0.130877 0.075939
v 0.006657 -0.131423 0.071133
v 0.004114 -0.132305 0.063357
v -0.004114 -0.132305 0.063357
v -0.006657 -0.131423 0.071133
v 0.000000 -0.175215 0.077997
v 0.006657 -0.175067 0.073162
v 0.004114 -0.174826 0.065340
v -0.004114 -0.174826 0.065340
v -0.006657 -0.175067 0.073162
v 0.000000 -0.219540 0.073213
v 0.006657 -0.218706 0.068448
v 0.004114 -0.217357 0.060739
v -0.004114 -0.217357 0.060739
v -0.006657 -0.218706 0.068448
v 0.000000 -0.263558 0.062573
v 0.006657 -0.262251 0.057916
v 0.004114 -0.260137 0.050381
v -0.004114 -0.260137 0.050381
v -0.006657 -0.262251 0.057916
v 0.000000 -0.303690 0.048876
v 0.006656 -0.304471 0.044101
v 0.004114 -0.305983 0.036422
v -0.004114 -0.306136 0.036452
v -0.006656 -0.304719 0.044149
v 0.003000 -0.414547 0.091972
v 0.009655 -0.416114 0.087393
v 0.007113 -0.418962 0.080103
v -0.001113 -0.419156 0.080177
v -0.003655 -0.416427 0.087512
v 0.006000 -0.524883 0.133327
v 0.012655 -0.526368 0.128720
v 0.010113 -0.529095 0.121384
v 0.001887 -0.529296 0.121457
v -0.000655 -0.526693 0.128838
v 0.009000 -0.631844 0.170677
v 0.015655 -0.633190 0.166028
v 0.013113 -0.635712 0.158619
v 0.004887 -0.635925 0.158690
v 0.002345 -0.633534 0.166142
v 0.012000 -0.734132 0.202502
v 0.018655 -0.735281 0.197800
v 0.016113 -0.737511 0.190298
v 0.007887 -0.737741 0.190364
v 0.005345 -0.735652 0.197906
v 0.015000 -0.830911 0.227817
v 0.021654 -0.831806 0.223059
v 0.019112 -0.833661 0.215456
v 0.010888 -0.833911 0.215514
v 0.008346 -0.832211 0.223154
v 0.018000 -0.921875 0.246272
v 0.024654 -0.922475 0.241468
v 0.022112 -0.923888 0.233769
v 0.013888 -0.924161 0.233817
v 0.011346 -0.922917 0.241544
v 0.021000 -1.007276 0.258189
v 0.027653 -1.007566 0.253355
v 0.025112 -1.008513 0.245586
v 0.016888 -1.008808 0.245618
v 0.014347 -1.008043 0.253408
v 0.024000 -1.087884 0.264535
v 0.030653 -1.087895 0.259691
v 0.028112 -1.088420 0.251882
v 0.019888 -1.088734 0.251899
v 0.017347 -1.088402 0.259719
v 0.027000 -1.164928 0.266830
v 0.033652 -1.164743 0.261990
v 0.031111 -1.164970 0.254166
v 0.022889 -1.165295 0.254171
v 0.020348 -1.165269 0.261998
v 0.030000 -1.239995 0.267000
v 0.036657 -1.239910 0.262163
v 0.034114 -1.239949 0.254337
v 0.025886 -1.240059 0.254337
v 0.023343 -1.240087 0.262163
v 0.030000 -1.390000 0.267000
v 0.036657 -1.390000 0.262163
v 0.034114 -1.390000 0.254337
v 0.025886 -1.390000 0.254337
v 0.023343 -1.390000 0.262163
vn 0.5875 0.2018 0.7836
vn 0.9510 -0.0771 -0.2994
vn -0.0000 -0.2496 -0.9683
vn -0.9511 -0.0771 -0.2992
vn -0.5878 0.2019 0.7834
vn 0.5870 0.1436 0.7968
vn 0.9509 -0.0549 -0.3047
vn -0.0000 -0.1777 -0.9841
vn -0.9510 -0.0550 -0.3043
vn -0.5875 0.1436 0.7964
vn 0.5866 0.0375 0.8090
vn 0.9508 -0.0144 -0.3095
vn -0.0000 -0.0466 -0.9989
vn -0.9509 -0.0144 -0.3093
vn -0.5869 0.0376 0.8088
vn 0.5867 -0.0869 0.8052
vn 0.9508 0.0333 -0.3081
vn -0.0000 0.1075 -0.9942
vn -0.9509 0.0333 -0.3078
vn -0.5870 -0.0870 0.8049
vn 0.5870 -0.1902 0.7869
vn 0.9509 0.0728 -0.3009
vn -0.0000 0.2353 -0.9719
vn -0.9510 0.0728 -0.3005
vn -0.5875 -0.1902 0.7865
vn 0.5872 -0.2614 0.7661
vn 0.9510 0.0962 -0.2939
vn -0.0000 0.2913 -0.9566
vn -0.9392 0.0995 -0.3286
vn -0.5318 -0.2612 0.8056
vn 0.5875 0.3070 0.7488
vn 0.9508 -0.0895 -0.2966
vn 0.0001 -0.3606 -0.9327
vn -0.9479 -0.1366 -0.2879
vn -0.5843 0.2800 0.7617
vn 0.5873 0.2980 0.7525
vn 0.9508 -0.0857 -0.2976
vn -0.0001 -0.3510 -0.9364
vn -0.9508 -0.1311 -0.2807
vn -0.5875 0.2699 0.7629
vn 0.5872 0.2815 0.7589
vn 0.9508 -0.0780 -0.2997
vn -0.0003 -0.3297 -0.9441
vn -0.9508 -0.1256 -0.2832
vn -0.5873 0.2520 0.7691
vn 0.5869 0.2562 0.7680
vn 0.9509 -0.0662 -0.3025
vn -0.0005 -0.2971 -0.9548
vn -0.9508 -0.1172 -0.2867
vn -0.5871 0.2247 0.7777
vn 0.5867 0.2219 0.7788
vn 0.9508 -0.0504 -0.3055
vn 0.0008 -0.2531 -0.9674
vn -0.9508 -0.1058 -0.2911
vn -0.5868 0.1877 0.7876
vn 0.5865 0.1796 0.7898
vn 0.9508 -0.0311 -0.3082
vn 0.0010 -0.1989 -0.9800
vn -0.9508 -0.0916 -0.2959
vn -0.5866 0.1422 0.7973
vn 0.5881 0.1320 0.7979
vn 0.9501 -0.0101 -0.3118
vn 0.0011 -0.1383 -0.9904
vn -0.9501 -0.0759 -0.3025
vn -0.5881 0.0913 0.8036
vn 0.5881 0.0852 0.8043
vn 0.9500 0.0109 -0.3121
vn 0.0009 -0.0785 -0.9969
vn -0.9501 -0.0597 -0.3062
vn -0.5880 0.0415 0.8078
vn 0.5880 0.0470 0.8075
vn 0.9500 0.0278 -0.3110
vn 0.0005 -0.0298 -0.9996
vn -0.9502 -0.0464 -0.3083
vn -0.5877 0.0011 0.8091
vn 0.5877 0.0253 0.8087
vn 0.9501 0.0373 -0.3097
vn -0.0000 -0.0023 -1.0000
vn -0.9503 -0.0388 -0.3089
vn -0.5868 -0.0217 0.8094
vn 0.5878 -0.0000 0.8090
vn 0.9511 -0.0000 -0.3090
vn -0.0000 -0.0000 -1.0000
vn -0.9511 -0.0000 -0.3090
vn -0.5878 -0.0000 0.8090
vn 0.5878 0.2019 0.7834
vn 0.9511 -0.0771 -0.2992
vn -0.9510 -0.0771 -0.2994
vn -0.5875 0.2018 0.7836
vn 0.5875 0.1436 0.7964
vn 0.9510 -0.0550 -0.3043
vn -0.9509 -0.0549 -0.3047
vn -0.5870 0.1436 0.7968
vn 0.5869 0.0376 0.8088
vn 0.9509 -0.0144 -0.3093
vn -0.9508 -0.0144 -0.3095
vn -0.5866 0.0375 0.8090
vn 0.5870 -0.0870 0.8049
vn 0.9509 0.0333 -0.3078
vn -0.9508 0.0333 -0.3081
vn -0.5867 -0.0869 0.8052
vn 0.5875 -0.1902 0.7865
vn 0.9510 0.0728 -0.3005
vn -0.9509 0.0728 -0.3009
vn -0.5870 -0.1902 0.7869
vn 0.5422 -0.2613 0.7986
vn 0.9384 0.1006 -0.3305
vn -0.0088 0.2898 -0.9570
vn -0.9510 0.0953 -0.2942
vn -0.5872 -0.2614 0.7661
vn 0.5781 0.3085 0.7554
vn 0.9506 -0.0896 -0.2971
vn 0.0034 -0.3607 -0.9327
vn -0.9507 -0.1341 -0.2796
vn -0.5877 0.2793 0.7593
vn 0.5877 0.2979 0.7522
vn 0.9507 -0.0858 -0.2980
vn 0.0003 -0.3509 -0.9364
vn -0.9507 -0.1312 -0.2811
vn -0.5878 0.2699 0.7627
vn 0.5878 0.2814 0.7585
vn 0.9506 -0.0781 -0.3004
vn 0.0005 -0.3296 -0.9441
vn -0.9506 -0.1258 -0.2839
vn -0.5879 0.2519 0.7687
vn 0.5879 0.2561 0.7673
vn 0.9505 -0.0664 -0.3035
vn 0.0006 -0.2970 -0.9549
vn -0.9505 -0.1174 -0.2878
vn -0.5880 0.2245 0.7771
vn 0.5880 0.2218 0.7779
vn 0.9504 -0.0507 -0.3069
vn -0.0007 -0.2530 -0.9675
vn -0.9503 -0.1060 -0.2926
vn -0.5881 0.1876 0.7868
vn 0.5881 0.1796 0.7886
vn 0.9502 -0.0313 -0.3100
vn -0.0009 -0.1988 -0.9800
vn -0.9502 -0.0918 -0.2977
vn -0.5881 0.1421 0.7962
vn 0.5864 0.1323 0.7991
vn 0.9507 -0.0096 -0.3098
vn -0.0011 -0.1381 -0.9904
vn -0.9508 -0.0754 -0.3006
vn -0.5864 0.0917 0.8048
vn 0.5865 0.0854 0.8054
vn 0.9506 0.0113 -0.3101
vn -0.0011 -0.0784 -0.9969
vn -0.9507 -0.0594 -0.3043
vn -0.5863 0.0419 0.8090
vn 0.5869 0.0471 0.8083
vn 0.9505 0.0280 -0.3095
vn -0.0010 -0.0297 -0.9996
vn -0.9506 -0.0462 -0.3069
vn -0.5864 0.0013 0.8100
vn 0.5874 0.0253 0.8089
vn 0.9503 0.0374 -0.3089
vn -0.0005 -0.0022 -1.0000
vn -0.9505 -0.0387 -0.3084
vn -0.5875 -0.0216 0.8089
vt 0.053533 0.683698
vt 0.022672 0.666190
vt 0.053533 0.666190
vt 0.053533 0.701207
vt 0.022672 0.683698
vt 0.053533 0.718715
vt 0.022672 0.701207
vt 0.022672 0.736224
vt 0.022672 0.718715
vt 0.053533 0.736224
vt 0.022672 0.753732
vt 0.083901 0.683698
vt 0.083901 0.666190
vt 0.083901 0.701207
vt 0.083901 0.718715
vt 0.083901 0.736224
vt 0.053533 0.753732
vt 0.113818 0.683698
vt 0.113818 0.666190
vt 0.113818 0.701207
vt 0.113818 0.718715
vt 0.113818 0.736224
vt 0.083901 0.753732
vt 0.143877 0.666190
vt 0.143877 0.683698
vt 0.143877 0.718715
vt 0.143877 0.701207
vt 0.143877 0.736224
vt 0.143877 0.753732
vt 0.174625 0.666190
vt 0.174625 0.683698
vt 0.174625 0.718715
vt 0.174625 0.701207
vt 0.174625 0.736224
vt 0.174625 0.753732
vt 0.205995 0.666190
vt 0.205995 0.683698
vt 0.205995 0.701207
vt 0.205995 0.736224
vt 0.205995 0.718715
vt 0.205995 0.753732
vt 0.288893 0.683698
vt 0.288893 0.666190
vt 0.288893 0.701207
vt 0.288893 0.718715
vt 0.288893 0.736224
vt 0.370102 0.683698
vt 0.370102 0.666190
vt 0.370102 0.701207
vt 0.370102 0.718715
vt 0.370102 0.736224
vt 0.288893 0.753732
vt 0.448127 0.683698
vt 0.448127 0.666190
vt 0.448127 0.701207
vt 0.448127 0.718715
vt 0.448127 0.736224
vt 0.370102 0.753732
vt 0.521843 0.683698
vt 0.521843 0.666190
vt 0.521843 0.701207
vt 0.521843 0.718715
vt 0.521843 0.736224
vt 0.448127 0.753732
vt 0.590620 0.683698
vt 0.590620 0.666190
vt 0.590620 0.701207
vt 0.590620 0.718715
vt 0.590620 0.736224
vt 0.521843 0.753732
vt 0.654384 0.683698
vt 0.654384 0.666190
vt 0.654384 0.701207
vt 0.654384 0.718715
vt 0.654384 0.736224
vt 0.590620 0.753732
vt 0.713593 0.666190
vt 0.713593 0.683698
vt 0.713593 0.718715
vt 0.713593 0.701207
vt 0.713593 0.736224
vt 0.713593 0.753732
vt 0.769131 0.666190
vt 0.769131 0.683698
vt 0.769131 0.718715
vt 0.769131 0.701207
vt 0.769131 0.736224
vt 0.769131 0.753732
vt 0.822142 0.666190
vt 0.822142 0.683698
vt 0.822142 0.718715
vt 0.822142 0.701207
vt 0.822142 0.736224
vt 0.822142 0.753732
vt 0.873880 0.666190
vt 0.873880 0.683698
vt 0.873880 0.718715
vt 0.873880 0.701207
vt 0.873880 0.736224
vt 0.977328 0.683698
vt 0.977328 0.666190
vt 0.977328 0.701207
vt 0.977328 0.718715
vt 0.977328 0.753732
vt 0.977328 0.736224
vt 0.113818 0.753732
vt 0.654384 0.753732
vt 0.873880 0.753732
s 0
usemtl flask
f 7/1/1 1/2/1 6/3/1
f 8/4/2 2/5/2 7/1/2
f 9/6/3 3/7/3 8/4/3
f 9/6/4 5/8/4 4/9/4
f 10/10/5 1/11/5 5/8/5
f 12/12/6 6/3/6 11/13/6
f 13/14/7 7/1/7 12/12/7
f 14/15/8 8/4/8 13/14/8
f 14/15/9 10/10/9 9/6/9
f 15/16/10 6/17/10 10/10/10
f 17/18/11 11/13/11 16/19/11
f 18/20/12 12/12/12 17/18/12
f 19/21/13 13/14/13 18/20/13
f 19/21/14 15/16/14 14/15/14
f 20/22/15 11/23/15 15/16/15
f 21/24/16 17/18/16 16/19/16
f 22/25/17 18/20/17 17/18/17
f 24/26/18 18/20/18 23/27/18
f 25/28/19 19/21/19 24/26/19
f 21/29/20 20/22/20 25/28/20
f 26/30/21 22/25/21 21/24/21
f 27/31/22 23/27/22 22/25/22
f 29/32/23 23/27/23 28/33/23
f 30/34/24 24/26/24 29/32/24
f 26/35/25 25/28/25 30/34/25
f 31/36/26 27/31/26 26/30/26
f 32/37/27 28/33/27 27/31/27
f 33/38/28 29/32/28 28/33/28
f 35/39/29 29/32/29 34/40/29
f 31/41/30 30/34/30 35/39/30
f 37/42/31 31/36/31 36/43/31
f 38/44/32 32/37/32 37/42/32
f 39/45/33 33/38/33 38/44/33
f 39/45/34 35/39/34 34/40/34
f 40/46/35 31/41/35 35/39/35
f 42/47/36 36/43/36 41/48/36
f 43/49/37 37/42/37 42/47/37
f 43/49/38 39/45/38 38/44/38
f 44/50/39 40/46/39 39/45/39
f 45/51/40 36/52/40 40/46/40
f 47/53/41 41/48/41 46/54/41
f 48/55/42 42/47/42 47/53/42
f 48/55/43 44/50/43 43/49/43
f 49/56/44 45/51/44 44/50/44
f 50/57/45 41/58/45 45/51/45
f 52/59/46 46/54/46 51/60/46
f 53/61/47 47/53/47 52/59/47
f 53/61/48 49/56/48 48/55/48
f 54/62/49 50/57/49 49/56/49
f 55/63/50 46/64/50 50/57/50
f 57/65/51 51/60/51 56/66/51
f 58/67/52 52/59/52 57/65/52
f 59/68/53 53/61/53 58/67/53
f 59/68/54 55/63/54 54/62/54
f 60/69/55 51/70/55 55/63/55
f 62/71/56 56/66/56 61/72/56
f 63/73/57 57/65/57 62/71/57
f 64/74/58 58/67/58 63/73/58
f 64/74/59 60/69/59 59/68/59
f 65/75/60 56/76/60 60/69/60
f 66/77/61 62/71/61 61/72/61
f 67/78/62 63/73/62 62/71/62
f 69/79/63 63/73/63 68/80/63
f 70/81/64 64/74/64 69/79/64
f 66/82/65 65/75/65 70/81/65
f 71/83/66 67/78/66 66/77/66
f 72/84/67 68/80/67 67/78/67
f 74/85/68 68/80/68 73/86/68
f 75/87/69 69/79/69 74/85/69
f 71/88/70 70/81/70 75/87/70
f 76/89/71 72/84/71 71/83/71
f 77/90/72 73/86/72 72/84/72
f 79/91/73 73/86/73 78/92/73
f 80/93/74 74/85/74 79/91/74
f 76/94/75 75/87/75 80/93/75
f 81/95/76 77/90/76 76/89/76
f 82/96/77 78/92/77 77/90/77
f 84/97/78 78/92/78 83/98/78
f 85/99/79 79/91/79 84/97/79
f 85/99/80 76/94/80 80/93/80
f 87/100/81 81/95/81 86/101/81
f 87/100/82 83/98/82 82/96/82
f 88/102/83 84/97/83 83/98/83
f 89/103/84 85/99/84 84/97/84
f 86/104/85 85/99/85 90/105/85
f 7/1/86 2/5/86 1/2/86
f 8/4/87 3/7/87 2/5/87
f 9/6/3 4/9/3 3/7/3
f 9/6/88 10/10/88 5/8/88
f 10/10/89 6/17/89 1/11/89
f 12/12/90 7/1/90 6/3/90
f 13/14/91 8/4/91 7/1/91
f 14/15/8 9/6/8 8/4/8
f 14/15/92 15/16/92 10/10/92
f 15/16/93 11/23/93 6/17/93
f 17/18/94 12/12/94 11/13/94
f 18/20/95 13/14/95 12/12/95
f 19/21/13 14/15/13 13/14/13
f 19/21/96 20/22/96 15/16/96
f 20/22/97 16/106/97 11/23/97
f 21/24/98 22/25/98 17/18/98
f 22/25/99 23/27/99 18/20/99
f 24/26/18 19/21/18 18/20/18
f 25/28/100 20/22/100 19/21/100
f 21/29/101 16/106/101 20/22/101
f 26/30/102 27/31/102 22/25/102
f 27/31/103 28/33/103 23/27/103
f 29/32/23 24/26/23 23/27/23
f 30/34/104 25/28/104 24/26/104
f 26/35/105 21/29/105 25/28/105
f 31/36/106 32/37/106 27/31/106
f 32/37/107 33/38/107 28/33/107
f 33/38/108 34/40/108 29/32/108
f 35/39/109 30/34/109 29/32/109
f 31/41/110 26/35/110 30/34/110
f 37/42/111 32/37/111 31/36/111
f 38/44/112 33/38/112 32/37/112
f 39/45/113 34/40/113 33/38/113
f 39/45/114 40/46/114 35/39/114
f 40/46/115 36/52/115 31/41/115
f 42/47/116 37/42/116 36/43/116
f 43/49/117 38/44/117 37/42/117
f 43/49/118 44/50/118 39/45/118
f 44/50/119 45/51/119 40/46/119
f 45/51/120 41/58/120 36/52/120
f 47/53/121 42/47/121 41/48/121
f 48/55/122 43/49/122 42/47/122
f 48/55/123 49/56/123 44/50/123
f 49/56/124 50/57/124 45/51/124
f 50/57/125 46/64/125 41/58/125
f 52/59/126 47/53/126 46/54/126
f 53/61/127 48/55/127 47/53/127
f 53/61/128 54/62/128 49/56/128
f 54/62/129 55/63/129 50/57/129
f 55/63/130 51/70/130 46/64/130
f 57/65/131 52/59/131 51/60/131
f 58/67/132 53/61/132 52/59/132
f 59/68/133 54/62/133 53/61/133
f 59/68/134 60/69/134 55/63/134
f 60/69/135 56/76/135 51/70/135
f 62/71/136 57/65/136 56/66/136
f 63/73/137 58/67/137 57/65/137
f 64/74/138 59/68/138 58/67/138
f 64/74/139 65/75/139 60/69/139
f 65/75/140 61/107/140 56/76/140
f 66/77/141 67/78/141 62/71/141
f 67/78/142 68/80/142 63/73/142
f 69/79/143 64/74/143 63/73/143
f 70/81/144 65/75/144 64/74/144
f 66/82/145 61/107/145 65/75/145
f 71/83/146 72/84/146 67/78/146
f 72/84/147 73/86/147 68/80/147
f 74/85/148 69/79/148 68/80/148
f 75/87/149 70/81/149 69/79/149
f 71/88/150 66/82/150 70/81/150
f 76/89/151 77/90/151 72/84/151
f 77/90/152 78/92/152 73/86/152
f 79/91/153 74/85/153 73/86/153
f 80/93/154 75/87/154 74/85/154
f 76/94/155 71/88/155 75/87/155
f 81/95/156 82/96/156 77/90/156
f 82/96/157 83/98/157 78/92/157
f 84/97/158 79/91/158 78/92/158
f 85/99/159 80/93/159 79/91/159
f 85/99/160 81/108/160 76/94/160
f 87/100/81 82/96/81 81/95/81
f 87/100/82 88/102/82 83/98/82
f 88/102/83 89/103/83 84/97/83
f 89/103/84 90/105/84 85/99/84
f 86/104/85 81/108/85 85/99/85
