# Blender 5.2.1 LTS
# www.blender.org
mtllib crook_rope_taut.mtl
o crook_rope_taut
v 0.000000 -0.045215 0.056997
v 0.006657 -0.045067 0.052162
v 0.004114 -0.044826 0.044340
v -0.004114 -0.044826 0.044340
v -0.006657 -0.045067 0.052162
v 0.000000 -0.088549 0.055663
v 0.006657 -0.088400 0.050829
v 0.004114 -0.088159 0.043006
v -0.004114 -0.088159 0.043006
v -0.006657 -0.088400 0.050829
v 0.000000 -0.131882 0.054330
v 0.006657 -0.131733 0.049495
v 0.004114 -0.131492 0.041673
v -0.004114 -0.131492 0.041673
v -0.006657 -0.131733 0.049495
v 0.000000 -0.175215 0.052997
v 0.006657 -0.175067 0.048162
v 0.004114 -0.174826 0.040340
v -0.004114 -0.174826 0.040340
v -0.006657 -0.175067 0.048162
v 0.000000 -0.218549 0.051663
v 0.006657 -0.218400 0.046829
v 0.004114 -0.218159 0.039006
v -0.004114 -0.218159 0.039006
v -0.006657 -0.218400 0.046829
v 0.000000 -0.261882 0.050330
v 0.006657 -0.261733 0.045495
v 0.004114 -0.261492 0.037673
v -0.004114 -0.261492 0.037673
v -0.006657 -0.261733 0.045495
v 0.000000 -0.303964 0.048923
v 0.006656 -0.304537 0.044118
v 0.004114 -0.305750 0.036386
v -0.004114 -0.305926 0.036412
v -0.006656 -0.304823 0.044161
v 0.003000 -0.396911 0.070617
v 0.009654 -0.397806 0.065859
v 0.007112 -0.399661 0.058256
v -0.001112 -0.399911 0.058314
v -0.003654 -0.398211 0.065954
v 0.006000 -0.490411 0.092417
v 0.012654 -0.491306 0.087659
v 0.010112 -0.493161 0.080056
v 0.001888 -0.493411 0.080114
v -0.000654 -0.491711 0.087754
v 0.009000 -0.583911 0.114217
v 0.015654 -0.584806 0.109459
v 0.013112 -0.586661 0.101856
v 0.004888 -0.586911 0.101914
v 0.002346 -0.585211 0.109554
v 0.012000 -0.677411 0.136017
v 0.018654 -0.678306 0.131259
v 0.016112 -0.680161 0.123656
v 0.007888 -0.680411 0.123714
v 0.005346 -0.678711 0.131354
v 0.015000 -0.770911 0.157817
v 0.021654 -0.771806 0.153059
v 0.019112 -0.773661 0.145456
v 0.010888 -0.773911 0.145514
v 0.008346 -0.772211 0.153154
v 0.018000 -0.864411 0.179617
v 0.024654 -0.865306 0.174859
v 0.022112 -0.867161 0.167256
v 0.013888 -0.867411 0.167314
v 0.011346 -0.865711 0.174954
v 0.021000 -0.957911 0.201417
v 0.027654 -0.958806 0.196659
v 0.025112 -0.960661 0.189056
v 0.016888 -0.960911 0.189114
v 0.014346 -0.959211 0.196754
v 0.024000 -1.051411 0.223217
v 0.030654 -1.052306 0.218459
v 0.028112 -1.054161 0.210856
v 0.019888 -1.054411 0.210914
v 0.017346 -1.052711 0.218554
v 0.027000 -1.144911 0.245017
v 0.033654 -1.145806 0.240259
v 0.031112 -1.147661 0.232656
v 0.022888 -1.147911 0.232714
v 0.020346 -1.146211 0.240354
v 0.030000 -1.239376 0.266972
v 0.036657 -1.239726 0.262147
v 0.034114 -1.240455 0.254355
v 0.025886 -1.240555 0.254364
v 0.023343 -1.239888 0.262162
v 0.030000 -1.390000 0.267000
v 0.036657 -1.390000 0.262163
v 0.034114 -1.390000 0.254337
v 0.025886 -1.390000 0.254337
v 0.023343 -1.390000 0.262163
vn 0.5878 -0.0249 0.8086
vn 0.9511 0.0095 -0.3089
vn -0.0000 0.0308 -0.9995
vn -0.9511 0.0095 -0.3089
vn -0.5878 -0.0249 0.8086
vn 0.5878 -0.0270 0.8086
vn 0.9511 0.0099 -0.3089
vn -0.0000 0.0291 -0.9996
vn -0.9497 0.0089 -0.3129
vn -0.5796 -0.0253 0.8145
vn 0.5875 0.2019 0.7836
vn 0.9506 -0.0412 -0.3077
vn -0.0000 -0.2268 -0.9739
vn -0.9495 -0.0996 -0.2974
vn -0.5879 0.1659 0.7918
vn 0.5875 0.2016 0.7837
vn -0.0000 -0.2271 -0.9739
vn -0.9506 -0.0991 -0.2942
vn -0.5875 0.1658 0.7921
vn 0.5817 0.2016 0.7880
vn 0.9510 -0.0410 -0.3065
vn 0.0017 -0.2276 -0.9737
vn -0.9506 -0.0995 -0.2941
vn -0.5875 0.1656 0.7921
vn 0.5869 0.0001 0.8097
vn 0.9507 -0.0000 -0.3102
vn -0.0011 0.0001 -1.0000
vn -0.9511 0.0001 -0.3090
vn -0.5878 -0.0000 0.8090
vn 0.5837 -0.0261 0.8116
vn 0.9495 0.0091 -0.3136
vn -0.0038 0.0284 -0.9996
vn -0.5878 -0.0270 0.8086
vn 0.5846 0.2020 0.7858
vn 0.9511 -0.0410 -0.3063
vn 0.0017 -0.2269 -0.9739
vn -0.9506 -0.0992 -0.2942
vn -0.5875 0.1659 0.7920
vn 0.5875 0.2014 0.7838
vn -0.0000 -0.2276 -0.9738
vn -0.9484 -0.1003 -0.3007
vn -0.5859 0.1657 0.7932
vn 0.5878 0.0001 0.8090
vn 0.9511 -0.0000 -0.3090
vn -0.0000 0.0002 -1.0000
vn -0.9507 -0.0000 -0.3100
vn -0.5857 0.0002 0.8105
vt 0.057255 0.683698
vt 0.027355 0.666190
vt 0.057255 0.666190
vt 0.057255 0.701207
vt 0.027355 0.683698
vt 0.057255 0.718715
vt 0.027355 0.701207
vt 0.057255 0.736224
vt 0.027355 0.718715
vt 0.057255 0.753732
vt 0.027355 0.736224
vt 0.087154 0.683698
vt 0.087154 0.666190
vt 0.087154 0.701207
vt 0.087154 0.718715
vt 0.087154 0.753732
vt 0.087154 0.736224
vt 0.117053 0.683698
vt 0.117053 0.666190
vt 0.117053 0.701207
vt 0.117053 0.718715
vt 0.117053 0.753732
vt 0.117053 0.736224
vt 0.146952 0.666190
vt 0.146952 0.683698
vt 0.146952 0.718715
vt 0.146952 0.701207
vt 0.146952 0.736224
vt 0.146952 0.753732
vt 0.176851 0.666190
vt 0.176851 0.701207
vt 0.176851 0.683698
vt 0.176851 0.718715
vt 0.176851 0.753732
vt 0.176851 0.736224
vt 0.206751 0.666190
vt 0.206751 0.683698
vt 0.206751 0.701207
vt 0.206751 0.736224
vt 0.206751 0.718715
vt 0.206751 0.753732
vt 0.272995 0.683698
vt 0.272995 0.666190
vt 0.272995 0.701207
vt 0.272995 0.718715
vt 0.272995 0.736224
vt 0.339240 0.683698
vt 0.339240 0.666190
vt 0.339240 0.701207
vt 0.339240 0.718715
vt 0.339240 0.736224
vt 0.272995 0.753732
vt 0.405484 0.683698
vt 0.405484 0.666190
vt 0.405484 0.718715
vt 0.405484 0.701207
vt 0.405484 0.736224
vt 0.339240 0.753732
vt 0.471729 0.683698
vt 0.471729 0.666190
vt 0.471729 0.701207
vt 0.471729 0.718715
vt 0.471729 0.753732
vt 0.471729 0.736224
vt 0.537973 0.683698
vt 0.537973 0.666190
vt 0.537973 0.701207
vt 0.537973 0.718715
vt 0.537973 0.736224
vt 0.604218 0.666190
vt 0.604218 0.701207
vt 0.604218 0.683698
vt 0.604218 0.718715
vt 0.604218 0.736224
vt 0.537973 0.753732
vt 0.670463 0.666190
vt 0.670463 0.683698
vt 0.670463 0.718715
vt 0.670463 0.701207
vt 0.670463 0.736224
vt 0.670463 0.753732
vt 0.736707 0.666190
vt 0.736707 0.701207
vt 0.736707 0.683698
vt 0.736707 0.718715
vt 0.736707 0.736224
vt 0.802952 0.683698
vt 0.802952 0.666190
vt 0.802952 0.701207
vt 0.802952 0.718715
vt 0.802952 0.736224
vt 0.736707 0.753732
vt 0.869196 0.683698
vt 0.869196 0.666190
vt 0.869196 0.701207
vt 0.869196 0.718715
vt 0.869196 0.736224
vt 0.802952 0.753732
vt 0.972645 0.666190
vt 0.972645 0.683698
vt 0.972645 0.701207
vt 0.972645 0.736224
vt 0.972645 0.718715
vt 0.972645 0.753732
vt 0.027355 0.753732
vt 0.405484 0.753732
vt 0.604218 0.753732
vt 0.869196 0.753732
s 0
usemtl flask
f 7/1/1 1/2/1 6/3/1
f 8/4/2 2/5/2 7/1/2
f 9/6/3 3/7/3 8/4/3
f 10/8/4 4/9/4 9/6/4
f 6/10/5 5/11/5 10/8/5
f 12/12/1 6/3/1 11/13/1
f 13/14/2 7/1/2 12/12/2
f 14/15/3 8/4/3 13/14/3
f 14/15/4 10/8/4 9/6/4
f 11/16/5 10/8/5 15/17/5
f 17/18/1 11/13/1 16/19/1
f 18/20/2 12/12/2 17/18/2
f 19/21/3 13/14/3 18/20/3
f 19/21/4 15/17/4 14/15/4
f 16/22/5 15/17/5 20/23/5
f 21/24/1 17/18/1 16/19/1
f 22/25/2 18/20/2 17/18/2
f 24/26/3 18/20/3 23/27/3
f 25/28/4 19/21/4 24/26/4
f 21/29/5 20/23/5 25/28/5
f 26/30/1 22/25/1 21/24/1
f 28/31/2 22/25/2 27/32/2
f 29/33/3 23/27/3 28/31/3
f 29/33/4 25/28/4 24/26/4
f 26/34/5 25/28/5 30/35/5
f 31/36/6 27/32/6 26/30/6
f 32/37/7 28/31/7 27/32/7
f 33/38/8 29/33/8 28/31/8
f 35/39/9 29/33/9 34/40/9
f 31/41/10 30/35/10 35/39/10
f 37/42/11 31/36/11 36/43/11
f 38/44/12 32/37/12 37/42/12
f 39/45/13 33/38/13 38/44/13
f 39/45/14 35/39/14 34/40/14
f 40/46/15 31/41/15 35/39/15
f 42/47/16 36/43/16 41/48/16
f 43/49/12 37/42/12 42/47/12
f 44/50/17 38/44/17 43/49/17
f 44/50/18 40/46/18 39/45/18
f 45/51/19 36/52/19 40/46/19
f 47/53/16 41/48/16 46/54/16
f 47/53/12 43/49/12 42/47/12
f 49/55/17 43/49/17 48/56/17
f 49/55/18 45/51/18 44/50/18
f 50/57/19 41/58/19 45/51/19
f 52/59/16 46/54/16 51/60/16
f 53/61/12 47/53/12 52/59/12
f 54/62/17 48/56/17 53/61/17
f 54/62/18 50/57/18 49/55/18
f 51/63/19 50/57/19 55/64/19
f 57/65/16 51/60/16 56/66/16
f 58/67/12 52/59/12 57/65/12
f 58/67/17 54/62/17 53/61/17
f 59/68/18 55/64/18 54/62/18
f 60/69/19 51/63/19 55/64/19
f 61/70/16 57/65/16 56/66/16
f 63/71/12 57/65/12 62/72/12
f 64/73/17 58/67/17 63/71/17
f 65/74/18 59/68/18 64/73/18
f 65/74/19 56/75/19 60/69/19
f 66/76/16 62/72/16 61/70/16
f 67/77/12 63/71/12 62/72/12
f 69/78/17 63/71/17 68/79/17
f 70/80/18 64/73/18 69/78/18
f 66/81/19 65/74/19 70/80/19
f 71/82/16 67/77/16 66/76/16
f 73/83/12 67/77/12 72/84/12
f 74/85/17 68/79/17 73/83/17
f 75/86/18 69/78/18 74/85/18
f 75/86/19 66/81/19 70/80/19
f 77/87/16 71/82/16 76/88/16
f 78/89/12 72/84/12 77/87/12
f 79/90/17 73/83/17 78/89/17
f 80/91/18 74/85/18 79/90/18
f 80/91/19 71/92/19 75/86/19
f 82/93/20 76/88/20 81/94/20
f 83/95/21 77/87/21 82/93/21
f 84/96/22 78/89/22 83/95/22
f 84/96/23 80/91/23 79/90/23
f 85/97/24 76/98/24 80/91/24
f 86/99/25 82/93/25 81/94/25
f 87/100/26 83/95/26 82/93/26
f 88/101/27 84/96/27 83/95/27
f 90/102/28 84/96/28 89/103/28
f 86/104/29 85/97/29 90/102/29
f 7/1/1 2/5/1 1/2/1
f 8/4/2 3/7/2 2/5/2
f 9/6/3 4/9/3 3/7/3
f 10/8/4 5/11/4 4/9/4
f 6/10/5 1/105/5 5/11/5
f 12/12/1 7/1/1 6/3/1
f 13/14/2 8/4/2 7/1/2
f 14/15/3 9/6/3 8/4/3
f 14/15/4 15/17/4 10/8/4
f 11/16/5 6/10/5 10/8/5
f 17/18/1 12/12/1 11/13/1
f 18/20/2 13/14/2 12/12/2
f 19/21/3 14/15/3 13/14/3
f 19/21/4 20/23/4 15/17/4
f 16/22/5 11/16/5 15/17/5
f 21/24/1 22/25/1 17/18/1
f 22/25/2 23/27/2 18/20/2
f 24/26/3 19/21/3 18/20/3
f 25/28/4 20/23/4 19/21/4
f 21/29/5 16/22/5 20/23/5
f 26/30/1 27/32/1 22/25/1
f 28/31/2 23/27/2 22/25/2
f 29/33/3 24/26/3 23/27/3
f 29/33/4 30/35/4 25/28/4
f 26/34/5 21/29/5 25/28/5
f 31/36/30 32/37/30 27/32/30
f 32/37/31 33/38/31 28/31/31
f 33/38/32 34/40/32 29/33/32
f 35/39/4 30/35/4 29/33/4
f 31/41/33 26/34/33 30/35/33
f 37/42/34 32/37/34 31/36/34
f 38/44/35 33/38/35 32/37/35
f 39/45/36 34/40/36 33/38/36
f 39/45/37 40/46/37 35/39/37
f 40/46/38 36/52/38 31/41/38
f 42/47/16 37/42/16 36/43/16
f 43/49/12 38/44/12 37/42/12
f 44/50/17 39/45/17 38/44/17
f 44/50/18 45/51/18 40/46/18
f 45/51/19 41/58/19 36/52/19
f 47/53/16 42/47/16 41/48/16
f 47/53/12 48/56/12 43/49/12
f 49/55/17 44/50/17 43/49/17
f 49/55/18 50/57/18 45/51/18
f 50/57/19 46/106/19 41/58/19
f 52/59/16 47/53/16 46/54/16
f 53/61/12 48/56/12 47/53/12
f 54/62/17 49/55/17 48/56/17
f 54/62/18 55/64/18 50/57/18
f 51/63/19 46/106/19 50/57/19
f 57/65/16 52/59/16 51/60/16
f 58/67/12 53/61/12 52/59/12
f 58/67/17 59/68/17 54/62/17
f 59/68/18 60/69/18 55/64/18
f 60/69/19 56/75/19 51/63/19
f 61/70/16 62/72/16 57/65/16
f 63/71/12 58/67/12 57/65/12
f 64/73/17 59/68/17 58/67/17
f 65/74/18 60/69/18 59/68/18
f 65/74/19 61/107/19 56/75/19
f 66/76/16 67/77/16 62/72/16
f 67/77/12 68/79/12 63/71/12
f 69/78/17 64/73/17 63/71/17
f 70/80/18 65/74/18 64/73/18
f 66/81/19 61/107/19 65/74/19
f 71/82/16 72/84/16 67/77/16
f 73/83/12 68/79/12 67/77/12
f 74/85/17 69/78/17 68/79/17
f 75/86/18 70/80/18 69/78/18
f 75/86/19 71/92/19 66/81/19
f 77/87/16 72/84/16 71/82/16
f 78/89/12 73/83/12 72/84/12
f 79/90/17 74/85/17 73/83/17
f 80/91/18 75/86/18 74/85/18
f 80/91/19 76/98/19 71/92/19
f 82/93/39 77/87/39 76/88/39
f 83/95/12 78/89/12 77/87/12
f 84/96/40 79/90/40 78/89/40
f 84/96/41 85/97/41 80/91/41
f 85/97/42 81/108/42 76/98/42
f 86/99/43 87/100/43 82/93/43
f 87/100/44 88/101/44 83/95/44
f 88/101/45 89/103/45 84/96/45
f 90/102/46 85/97/46 84/96/46
f 86/104/47 81/108/47 85/97/47
