# Blender 5.2.1 LTS
# www.blender.org
mtllib crystal_a.mtl
o crystal_a
v 0.075000 0.120000 0.000000
v 0.037500 0.120000 -0.064952
v -0.037500 0.120000 -0.064952
v -0.075000 0.120000 -0.000000
v -0.037500 0.120000 0.064952
v 0.037500 0.120000 0.064952
v 0.105000 0.340000 0.000000
v 0.052500 0.340000 -0.090933
v -0.052500 0.340000 -0.090933
v -0.105000 0.340000 -0.000000
v -0.052500 0.340000 0.090933
v 0.052500 0.340000 0.090933
v 0.000000 0.500000 0.000000
v 0.000000 0.000000 0.000000
vn 0.8600 -0.1173 -0.4965
vn 0.7529 0.4941 -0.4347
vn -0.0000 -0.1173 -0.9931
vn -0.0000 0.4941 -0.8694
vn -0.8600 -0.1173 -0.4965
vn -0.7529 0.4941 -0.4347
vn -0.8600 -0.1173 0.4965
vn -0.7529 0.4941 0.4347
vn -0.0000 -0.1173 0.9931
vn -0.0000 0.4941 0.8694
vn 0.8600 -0.1173 0.4965
vn 0.7529 0.4941 0.4347
vn 0.7616 -0.4760 -0.4397
vn -0.0000 -0.4760 -0.8794
vn -0.7616 -0.4760 -0.4397
vn -0.7616 -0.4760 0.4397
vn -0.0000 -0.4760 0.8794
vn 0.7616 -0.4760 0.4397
vt 0.075000 0.253579
vt -0.105000 0.696636
vt -0.075000 0.253579
vt -0.105000 0.501332
vt 0.105000 0.501332
vt 0.000000 0.869402
vt 0.075000 0.253579
vt -0.105000 0.696636
vt -0.075000 0.253579
vt 0.105000 0.501332
vt -0.105000 0.501332
vt 0.075000 0.272901
vt -0.075000 0.272901
vt 0.000000 0.000000
vt 0.075000 0.272901
vt -0.075000 0.272901
vt 0.075000 0.272901
vt -0.075000 0.272901
vt 0.105000 0.696636
vt 0.105000 0.696636
s 0
usemtl crystal
f 2/1/1 7/2/1 1/3/1
f 7/4/2 8/5/2 13/6/2
f 3/7/3 8/8/3 2/9/3
f 8/4/4 9/10/4 13/6/4
f 4/1/5 9/2/5 3/3/5
f 9/11/6 10/10/6 13/6/6
f 5/1/7 10/2/7 4/3/7
f 10/4/8 11/5/8 13/6/8
f 6/7/9 11/8/9 5/9/9
f 11/4/10 12/10/10 13/6/10
f 1/1/11 12/2/11 6/3/11
f 12/11/12 7/10/12 13/6/12
f 2/12/13 1/13/13 14/14/13
f 3/15/14 2/16/14 14/14/14
f 4/17/15 3/18/15 14/14/15
f 5/12/16 4/13/16 14/14/16
f 6/15/17 5/16/17 14/14/17
f 1/17/18 6/18/18 14/14/18
f 2/1/1 8/19/1 7/2/1
f 3/7/3 9/20/3 8/8/3
f 4/1/5 10/19/5 9/2/5
f 5/1/7 11/19/7 10/2/7
f 6/7/9 12/20/9 11/8/9
f 1/1/11 7/19/11 12/2/11
