# Blender 5.2.1 LTS
# www.blender.org
mtllib crystal_b.mtl
o crystal_b
v 0.085000 0.000000 0.000000
v 0.042500 0.000000 -0.073612
v -0.042500 0.000000 -0.073612
v -0.085000 0.000000 -0.000000
v -0.042500 0.000000 0.073612
v 0.042500 0.000000 0.073612
v 0.090000 0.360000 -0.015000
v 0.055000 0.360000 -0.075622
v -0.015000 0.360000 -0.075622
v -0.050000 0.360000 -0.015000
v -0.015000 0.360000 0.045622
v 0.055000 0.360000 0.045622
v 0.030000 0.500000 -0.020000
v 0.156382 0.000000 0.019479
v 0.110419 0.000000 -0.019088
v 0.054037 0.000000 0.001433
v 0.043618 0.000000 0.060521
v 0.089581 0.000000 0.099088
v 0.145963 0.000000 0.078567
v 0.216985 0.220000 0.052899
v 0.178682 0.220000 0.020760
v 0.131698 0.220000 0.037861
v 0.123015 0.220000 0.087101
v 0.161318 0.220000 0.119240
v 0.208302 0.220000 0.102139
v 0.200000 0.330000 0.085000
v -0.041698 0.000000 -0.092139
v -0.088682 0.000000 -0.109240
v -0.126985 0.000000 -0.077101
v -0.118302 0.000000 -0.027861
v -0.071318 0.000000 -0.010760
v -0.033015 0.000000 -0.042899
v -0.107826 0.150000 -0.136997
v -0.147293 0.150000 -0.151362
v -0.179467 0.150000 -0.124365
v -0.172174 0.150000 -0.083003
v -0.132707 0.150000 -0.068638
v -0.100533 0.150000 -0.095635
v -0.165000 0.240000 -0.130000
vn 0.8656 -0.0328 -0.4997
vn 0.8166 0.3331 -0.4714
vn -0.0000 -0.0056 -1.0000
vn -0.0000 0.3692 -0.9293
vn -0.8643 0.0632 -0.4990
vn -0.7816 0.4305 -0.4513
vn -0.8613 0.1045 0.4973
vn -0.7706 0.4563 0.4449
vn -0.0000 0.0775 0.9970
vn -0.0000 0.4244 0.9055
vn 0.8660 0.0088 0.5000
vn 0.8071 0.3625 0.4660
vn -0.0000 -1.0000 -0.0000
vn 0.6416 -0.0606 -0.7646
vn 0.6117 0.3072 -0.7290
vn -0.3297 0.2663 -0.9057
vn -0.2913 0.5239 -0.8004
vn -0.9217 0.3523 -0.1625
vn -0.8121 0.5656 -0.1432
vn -0.6366 0.1381 0.7587
vn -0.5830 0.4213 0.6948
vn 0.3355 -0.1939 0.9219
vn 0.3371 0.1697 0.9261
vn 0.9439 -0.2853 0.1664
vn 0.9798 0.1009 0.1728
vn 0.3392 -0.1291 -0.9318
vn 0.3285 0.2788 -0.9024
vn -0.5826 -0.4226 -0.6943
vn -0.6418 0.0553 -0.7649
vn -0.9459 -0.2784 0.1668
vn -0.9710 0.1668 0.1712
vn -0.3338 0.2173 0.9172
vn -0.3037 0.4599 0.8344
vn 0.5612 0.4877 0.6688
vn 0.5135 0.6015 0.6120
vn 0.9199 0.3570 -0.1622
vn 0.8298 0.5385 -0.1463
vt 0.085000 0.004835
vt -0.064019 0.725224
vt -0.085000 0.004835
vt -0.064019 0.621953
vt 0.075981 0.621953
vt 0.004641 0.918913
vt -0.085000 0.000822
vt 0.030000 0.720833
vt -0.110000 0.720833
vt -0.110000 0.613282
vt 0.030000 0.613282
vt -0.060000 0.914571
vt -0.085000 -0.009310
vt 0.024019 0.712134
vt -0.115981 0.712134
vt -0.115981 0.606108
vt 0.024019 0.606108
vt -0.064641 0.916332
vt -0.085000 -0.015378
vt 0.064019 0.708582
vt -0.075981 0.708582
vt -0.075981 0.608024
vt 0.064019 0.608024
vt -0.004641 0.922683
vt 0.085000 -0.011412
vt -0.030000 0.710761
vt -0.085000 -0.011412
vt -0.030000 0.613211
vt 0.110000 0.613211
vt 0.060000 0.922444
vt 0.085000 -0.001296
vt -0.024019 0.718732
vt -0.085000 -0.001296
vt -0.024019 0.619939
vt 0.115981 0.619939
vt 0.064641 0.920379
vt 0.085000 -0.147224
vt 0.085000 0.147224
vt -0.170000 0.000000
vt -0.264632 0.010372
vt -0.300445 0.451182
vt -0.400445 0.451182
vt -0.400445 0.357930
vt -0.300445 0.357930
vt -0.415692 0.589108
vt -0.220577 0.010562
vt -0.221613 0.467052
vt -0.321613 0.467052
vt -0.321613 0.459257
vt -0.221613 0.459257
vt -0.317734 0.717540
vt 0.104055 0.037668
vt 0.028833 0.507803
vt -0.015945 0.037668
vt 0.028833 0.517008
vt 0.128833 0.517008
vt 0.097958 0.783787
vt 0.264632 -0.005061
vt 0.300445 0.439195
vt 0.144632 -0.005061
vt 0.300445 0.409457
vt 0.400445 0.409457
vt 0.415692 0.652032
vt 0.220577 0.047979
vt 0.221613 0.496486
vt 0.100577 0.047979
vt 0.221613 0.376850
vt 0.321613 0.376850
vt 0.317734 0.600089
vt -0.104055 0.089803
vt -0.028833 0.548882
vt -0.128833 0.548882
vt -0.128833 0.392794
vt -0.028833 0.392794
vt -0.097958 0.613922
vt -0.179162 -0.198177
vt -0.108075 -0.002865
vt -0.312763 -0.038958
vt 0.241393 0.018680
vt 0.296358 0.321213
vt 0.141393 0.018680
vt 0.296358 0.236881
vt 0.380358 0.236881
vt 0.399024 0.424314
vt 0.095433 0.118907
vt 0.031079 0.449916
vt -0.004567 0.118907
vt 0.031079 0.276256
vt 0.115079 0.276256
vt 0.085670 0.456531
vt -0.195961 0.062175
vt -0.223279 0.374523
vt -0.307279 0.374523
vt -0.307279 0.244039
vt -0.223279 0.244039
vt -0.313354 0.426596
vt -0.241393 -0.006206
vt -0.296358 0.301137
vt -0.380358 0.301137
vt -0.380358 0.283966
vt -0.296358 0.283966
vt -0.399024 0.486678
vt -0.095433 0.052755
vt -0.031079 0.396394
vt -0.115079 0.396394
vt -0.115079 0.405534
vt -0.031079 0.405534
vt -0.085670 0.630851
vt 0.195961 0.017898
vt 0.223279 0.339066
vt 0.095961 0.017898
vt 0.223279 0.341530
vt 0.307279 0.341530
vt 0.313354 0.555152
vt 0.142635 0.021519
vt 0.253969 0.154202
vt 0.083396 0.184279
vt 0.075981 0.725224
vt 0.085000 0.000822
vt 0.085000 -0.009310
vt 0.085000 -0.015378
vt 0.110000 0.710761
vt 0.115981 0.718732
vt -0.085000 -0.147224
vt 0.170000 0.000000
vt -0.085000 0.147224
vt -0.144632 0.010372
vt -0.100577 0.010562
vt 0.128833 0.507803
vt 0.400445 0.439195
vt 0.321613 0.496486
vt 0.015945 0.089803
vt -0.291925 -0.157135
vt -0.087237 -0.121042
vt -0.220838 0.038177
vt 0.380358 0.321213
vt 0.115079 0.449916
vt -0.095961 0.062175
vt -0.141393 -0.006206
vt 0.004567 0.052755
vt 0.307279 0.339066
vt 0.066031 0.085798
vt 0.236604 0.055721
vt 0.177365 0.218481
s 0
usemtl crystal
f 2/1/1 7/2/1 1/3/1
f 7/4/2 8/5/2 13/6/2
f 2/7/3 9/8/3 8/9/3
f 8/10/4 9/11/4 13/12/4
f 3/13/5 10/14/5 9/15/5
f 9/16/6 10/17/6 13/18/6
f 4/19/7 11/20/7 10/21/7
f 10/22/8 11/23/8 13/24/8
f 6/25/9 11/26/9 5/27/9
f 11/28/10 12/29/10 13/30/10
f 1/31/11 12/32/11 6/33/11
f 12/34/12 7/35/12 13/36/12
f 5/37/13 3/38/13 1/39/13
f 14/40/14 21/41/14 20/42/14
f 20/43/15 21/44/15 26/45/15
f 15/46/16 22/47/16 21/48/16
f 21/49/17 22/50/17 26/51/17
f 17/52/18 22/53/18 16/54/18
f 22/55/19 23/56/19 26/57/19
f 18/58/20 23/59/20 17/60/20
f 23/61/21 24/62/21 26/63/21
f 19/64/22 24/65/22 18/66/22
f 24/67/23 25/68/23 26/69/23
f 19/70/24 20/71/24 25/72/24
f 25/73/25 20/74/25 26/75/25
f 18/76/13 16/77/13 14/78/13
f 28/79/26 33/80/26 27/81/26
f 33/82/27 34/83/27 39/84/27
f 29/85/28 34/86/28 28/87/28
f 34/88/29 35/89/29 39/90/29
f 29/91/30 36/92/30 35/93/30
f 35/94/31 36/95/31 39/96/31
f 30/97/32 37/98/32 36/99/32
f 36/100/33 37/101/33 39/102/33
f 31/103/34 38/104/34 37/105/34
f 37/106/35 38/107/35 39/108/35
f 27/109/36 38/110/36 32/111/36
f 38/112/37 33/113/37 39/114/37
f 31/115/13 29/116/13 27/117/13
f 2/1/1 8/118/1 7/2/1
f 2/7/3 3/119/3 9/8/3
f 3/13/5 4/120/5 10/14/5
f 4/19/7 5/121/7 11/20/7
f 6/25/9 12/122/9 11/26/9
f 1/31/11 7/123/11 12/32/11
f 1/39/13 6/124/13 5/37/13
f 5/37/13 4/125/13 3/38/13
f 3/38/13 2/126/13 1/39/13
f 14/40/14 15/127/14 21/41/14
f 15/46/16 16/128/16 22/47/16
f 17/52/18 23/129/18 22/53/18
f 18/58/20 24/130/20 23/59/20
f 19/64/22 25/131/22 24/65/22
f 19/70/24 14/132/24 20/71/24
f 14/78/13 19/133/13 18/76/13
f 18/76/13 17/134/13 16/77/13
f 16/77/13 15/135/13 14/78/13
f 28/79/26 34/136/26 33/80/26
f 29/85/28 35/137/28 34/86/28
f 29/91/30 30/138/30 36/92/30
f 30/97/32 31/139/32 37/98/32
f 31/103/34 32/140/34 38/104/34
f 27/109/36 33/141/36 38/110/36
f 27/117/13 32/142/13 31/115/13
f 31/115/13 30/143/13 29/116/13
f 29/116/13 28/144/13 27/117/13
