# Blender 5.2.1 LTS
# www.blender.org
mtllib flask.mtl
o flask
v 0.046000 0.000000 0.000000
v 0.032527 0.000000 -0.020167
v 0.000000 0.000000 -0.028520
v -0.032527 0.000000 -0.020167
v -0.046000 0.000000 -0.000000
v -0.032527 0.000000 0.020167
v -0.000000 0.000000 0.028520
v 0.032527 0.000000 0.020167
v 0.078000 0.035000 0.000000
v 0.055154 0.035000 -0.034196
v 0.000000 0.035000 -0.048360
v -0.055154 0.035000 -0.034196
v -0.078000 0.035000 -0.000000
v -0.055154 0.035000 0.034196
v -0.000000 0.035000 0.048360
v 0.055154 0.035000 0.034196
v 0.088000 0.085000 0.000000
v 0.062225 0.085000 -0.038580
v 0.000000 0.085000 -0.054560
v -0.062225 0.085000 -0.038580
v -0.088000 0.085000 -0.000000
v -0.062225 0.085000 0.038580
v -0.000000 0.085000 0.054560
v 0.062225 0.085000 0.038580
v 0.070000 0.135000 0.000000
v 0.049497 0.135000 -0.032668
v 0.000000 0.135000 -0.046200
v -0.049497 0.135000 -0.032668
v -0.070000 0.135000 -0.000000
v -0.049497 0.135000 0.032668
v -0.000000 0.135000 0.046200
v 0.049497 0.135000 0.032668
v 0.034000 0.168000 0.000000
v 0.024042 0.168000 -0.020435
v 0.000000 0.168000 -0.028900
v -0.024042 0.168000 -0.020435
v -0.034000 0.168000 -0.000000
v -0.024042 0.168000 0.020435
v -0.000000 0.168000 0.028900
v 0.024042 0.168000 0.020435
v 0.024000 0.185000 0.000000
v 0.016971 0.185000 -0.016971
v 0.000000 0.185000 -0.024000
v -0.016971 0.185000 -0.016971
v -0.024000 0.185000 -0.000000
v -0.016971 0.185000 0.016971
v -0.000000 0.185000 0.024000
v 0.016971 0.185000 0.016971
v 0.030000 0.205000 0.000000
v 0.021213 0.205000 -0.021213
v 0.000000 0.205000 -0.030000
v -0.021213 0.205000 -0.021213
v -0.030000 0.205000 -0.000000
v -0.021213 0.205000 0.021213
v -0.000000 0.205000 0.030000
v 0.021213 0.205000 0.021213
v 0.028000 0.212000 0.000000
v 0.019799 0.212000 -0.019799
v 0.000000 0.212000 -0.028000
v -0.019799 0.212000 -0.019799
v -0.028000 0.212000 -0.000000
v -0.019799 0.212000 0.019799
v -0.000000 0.212000 0.028000
v 0.019799 0.212000 0.019799
v 0.019000 0.212000 0.000000
v 0.013435 0.212000 -0.013435
v 0.000000 0.212000 -0.019000
v -0.013435 0.212000 -0.013435
v -0.019000 0.212000 -0.000000
v -0.013435 0.212000 0.013435
v -0.000000 0.212000 0.019000
v 0.013435 0.212000 0.013435
v 0.021000 0.250000 0.000000
v 0.014849 0.250000 -0.014849
v 0.000000 0.250000 -0.021000
v -0.014849 0.250000 -0.014849
v -0.021000 0.250000 -0.000000
v -0.014849 0.250000 0.014849
v -0.000000 0.250000 0.021000
v 0.014849 0.250000 0.014849
v 0.088000 0.186000 0.000000
v 0.079000 0.186000 -0.005196
v 0.079000 0.186000 0.005196
v 0.070000 0.217177 0.000000
v 0.065500 0.209383 -0.005196
v 0.065500 0.209383 0.005196
v 0.034000 0.217177 0.000000
v 0.038500 0.209383 -0.005196
v 0.038500 0.209383 0.005196
v 0.016000 0.186000 0.000000
v 0.025000 0.186000 -0.005196
v 0.025000 0.186000 0.005196
v 0.034000 0.154823 0.000000
v 0.038500 0.162617 -0.005196
v 0.038500 0.162617 0.005196
v 0.070000 0.154823 0.000000
v 0.065500 0.162617 -0.005196
v 0.065500 0.162617 0.005196
vn 0.6619 -0.6052 -0.4422
vn 0.2180 -0.4813 -0.8490
vn -0.2180 -0.4813 -0.8490
vn -0.6619 -0.6052 -0.4422
vn -0.6619 -0.6052 0.4422
vn -0.2180 -0.4813 0.8490
vn 0.2180 -0.4813 0.8490
vn 0.6619 -0.6052 0.4422
vn 0.8202 -0.1640 -0.5480
vn 0.2470 -0.1192 -0.9617
vn -0.2470 -0.1192 -0.9617
vn -0.8202 -0.1640 -0.5480
vn -0.8202 -0.1640 0.5480
vn -0.2470 -0.1192 0.9617
vn 0.2470 -0.1192 0.9617
vn 0.8202 -0.1640 0.5480
vn 0.7966 0.2868 -0.5322
vn 0.2449 0.1751 -0.9536
vn -0.2603 0.1592 -0.9523
vn -0.8160 0.2683 -0.5121
vn -0.7966 0.2868 0.5322
vn -0.2449 0.1751 0.9536
vn 0.2603 0.1592 0.9523
vn 0.8160 0.2683 0.5121
vn 0.6221 0.6786 -0.3904
vn 0.2300 0.4893 -0.8413
vn -0.2977 0.4433 -0.8455
vn -0.6830 0.6502 -0.3328
vn -0.6221 0.6786 0.3904
vn -0.2300 0.4893 0.8413
vn 0.2977 0.4433 0.8455
vn 0.6830 0.6502 0.3328
vn 0.7947 0.4675 -0.3873
vn 0.3153 0.3137 -0.8956
vn -0.3698 0.2573 -0.8928
vn -0.8386 0.4196 -0.3474
vn -0.7947 0.4675 0.3873
vn -0.3153 0.3137 0.8956
vn 0.3698 0.2573 0.8928
vn 0.8386 0.4196 0.3474
vn 0.8903 -0.2671 -0.3688
vn 0.3688 -0.2671 -0.8903
vn -0.3688 -0.2671 -0.8903
vn -0.8903 -0.2671 -0.3688
vn -0.8903 -0.2671 0.3688
vn -0.3688 -0.2671 0.8903
vn 0.3688 -0.2671 0.8903
vn 0.8903 -0.2671 0.3688
vn 0.8933 0.2552 -0.3700
vn 0.3700 0.2552 -0.8933
vn -0.3700 0.2552 -0.8933
vn -0.8933 0.2552 -0.3700
vn -0.8933 0.2552 0.3700
vn -0.3700 0.2552 0.8933
vn 0.3700 0.2552 0.8933
vn 0.8933 0.2552 0.3700
vn -0.0000 -1.0000 -0.0000
vn -0.0000 1.0000 -0.0000
vn 0.9228 -0.0486 -0.3822
vn 0.3822 -0.0486 -0.9228
vn -0.3822 -0.0486 -0.9228
vn -0.9228 -0.0486 -0.3822
vn -0.9228 -0.0486 0.3822
vn -0.3822 -0.0486 0.9228
vn 0.3822 -0.0486 0.9228
vn 0.9228 -0.0486 0.3822
vn 0.4804 0.2774 -0.8320
vn -0.8660 -0.5000 -0.0000
vn 0.4804 0.2774 0.8321
vn -0.0000 0.5547 -0.8321
vn -0.0000 0.5547 0.8321
vn -0.4804 0.2774 -0.8321
vn 0.8660 -0.5000 -0.0000
vn -0.4804 0.2774 0.8321
vn -0.4804 -0.2774 -0.8321
vn 0.8660 0.5000 -0.0000
vn -0.4804 -0.2773 0.8321
vn -0.0000 -0.5547 -0.8321
vn -0.0000 -0.5547 0.8321
vn 0.4804 -0.2774 -0.8321
vn -0.8660 0.5000 -0.0000
vn 0.4804 -0.2773 0.8321
vn 0.8160 0.2683 -0.5121
vn 0.2603 0.1592 -0.9523
vn -0.2449 0.1751 -0.9536
vn -0.7966 0.2868 -0.5322
vn -0.8160 0.2683 0.5121
vn -0.2603 0.1592 0.9523
vn 0.2449 0.1751 0.9536
vn 0.7966 0.2868 0.5322
vn 0.6830 0.6502 -0.3328
vn 0.2977 0.4433 -0.8455
vn -0.2300 0.4893 -0.8413
vn -0.6221 0.6786 -0.3904
vn -0.6830 0.6502 0.3328
vn -0.2977 0.4433 0.8455
vn 0.2300 0.4893 0.8413
vn 0.6221 0.6786 0.3904
vn 0.8386 0.4196 -0.3474
vn 0.3698 0.2573 -0.8928
vn -0.3153 0.3137 -0.8956
vn -0.7947 0.4675 -0.3873
vn -0.8386 0.4196 0.3474
vn -0.3698 0.2573 0.8928
vn 0.3153 0.3137 0.8956
vn 0.7947 0.4675 0.3873
vn 0.4804 0.2774 -0.8321
vn 0.4804 0.2774 0.8320
vn -0.4804 -0.2773 -0.8321
vn -0.4804 -0.2774 0.8321
vn 0.4804 -0.2774 -0.8320
vn 0.4804 -0.2774 0.8320
vt 0.000000 0.000000
vt 0.125000 0.140000
vt 0.000000 0.140000
vt 0.125000 0.000000
vt 0.250000 0.140000
vt 0.375000 0.000000
vt 0.250000 0.000000
vt 0.500000 0.000000
vt 0.375000 0.140000
vt 0.625000 0.140000
vt 0.500000 0.140000
vt 0.625000 0.000000
vt 0.750000 0.140000
vt 0.875000 0.000000
vt 0.750000 0.000000
vt 1.000000 0.000000
vt 0.875000 0.140000
vt 0.125000 0.340000
vt 0.000000 0.340000
vt 0.250000 0.340000
vt 0.375000 0.340000
vt 0.625000 0.340000
vt 0.500000 0.340000
vt 0.750000 0.340000
vt 1.000000 0.140000
vt 0.875000 0.340000
vt 0.000000 0.540000
vt 0.125000 0.540000
vt 0.375000 0.540000
vt 0.250000 0.540000
vt 0.500000 0.540000
vt 0.625000 0.540000
vt 0.875000 0.540000
vt 0.750000 0.540000
vt 1.000000 0.540000
vt 0.000000 0.672000
vt 0.125000 0.672000
vt 0.375000 0.672000
vt 0.250000 0.672000
vt 0.500000 0.672000
vt 0.625000 0.672000
vt 0.875000 0.672000
vt 0.750000 0.672000
vt 1.000000 0.672000
vt 0.000000 0.740000
vt 0.125000 0.740000
vt 0.375000 0.740000
vt 0.250000 0.740000
vt 0.500000 0.740000
vt 0.625000 0.740000
vt 0.875000 0.740000
vt 0.750000 0.740000
vt 1.000000 0.740000
vt 0.000000 0.820000
vt 0.125000 0.820000
vt 0.250000 0.820000
vt 0.375000 0.820000
vt 0.500000 0.820000
vt 0.625000 0.820000
vt 0.750000 0.820000
vt 0.875000 0.820000
vt 0.000000 0.848000
vt 0.125000 0.848000
vt 0.250000 0.848000
vt 0.375000 0.848000
vt 0.500000 0.848000
vt 0.625000 0.848000
vt 0.750000 0.848000
vt 1.000000 0.820000
vt 0.875000 0.848000
vt 0.546000 0.100000
vt 0.500000 0.128520
vt 0.454000 0.100000
vt 0.519799 0.819799
vt 0.519000 0.800000
vt 0.528000 0.800000
vt 0.500000 0.828000
vt 0.513435 0.813435
vt 0.480201 0.819799
vt 0.500000 0.819000
vt 0.472000 0.800000
vt 0.486565 0.813435
vt 0.480201 0.780201
vt 0.481000 0.800000
vt 0.500000 0.772000
vt 0.486565 0.786565
vt 0.519799 0.780201
vt 0.500000 0.781000
vt 0.513435 0.786565
vt 0.125000 1.000000
vt 0.000000 1.000000
vt 0.250000 1.000000
vt 0.375000 1.000000
vt 0.500000 1.000000
vt 0.625000 1.000000
vt 0.750000 1.000000
vt 0.875000 1.000000
vt 1.000000 1.000000
vt 0.485151 0.944849
vt 0.485151 0.915151
vt 0.514849 0.915151
vt 0.000000 0.730000
vt 0.166667 0.690000
vt 0.000000 0.690000
vt 0.166667 0.730000
vt 0.333333 0.690000
vt 0.333333 0.730000
vt 0.500000 0.730000
vt 0.500000 0.690000
vt 0.666667 0.690000
vt 0.666667 0.730000
vt 0.833333 0.690000
vt 0.833333 0.730000
vt 1.000000 0.690000
vt 1.000000 0.340000
vt 1.000000 0.848000
vt 0.467473 0.079833
vt 0.500000 0.071480
vt 0.532527 0.079833
vt 0.532527 0.120167
vt 0.467473 0.120167
vt 0.521000 0.930000
vt 0.514849 0.944849
vt 0.500000 0.951000
vt 0.479000 0.930000
vt 0.500000 0.909000
vt 1.000000 0.730000
s 0
usemtl flask
f 1/1/1 10/2/1 9/3/1
f 2/4/2 11/5/2 10/2/2
f 4/6/3 11/5/3 3/7/3
f 5/8/4 12/9/4 4/6/4
f 5/8/5 14/10/5 13/11/5
f 6/12/6 15/13/6 14/10/6
f 8/14/7 15/13/7 7/15/7
f 1/16/8 16/17/8 8/14/8
f 9/3/9 18/18/9 17/19/9
f 10/2/10 19/20/10 18/18/10
f 12/9/11 19/20/11 11/5/11
f 13/11/12 20/21/12 12/9/12
f 13/11/13 22/22/13 21/23/13
f 14/10/14 23/24/14 22/22/14
f 16/17/15 23/24/15 15/13/15
f 9/25/16 24/26/16 16/17/16
f 18/18/17 25/27/17 17/19/17
f 19/20/18 26/28/18 18/18/18
f 19/20/19 28/29/19 27/30/19
f 20/21/20 29/31/20 28/29/20
f 22/22/21 29/31/21 21/23/21
f 23/24/22 30/32/22 22/22/22
f 23/24/23 32/33/23 31/34/23
f 24/26/24 25/35/24 32/33/24
f 26/28/25 33/36/25 25/27/25
f 27/30/26 34/37/26 26/28/26
f 27/30/27 36/38/27 35/39/27
f 28/29/28 37/40/28 36/38/28
f 30/32/29 37/40/29 29/31/29
f 31/34/30 38/41/30 30/32/30
f 31/34/31 40/42/31 39/43/31
f 32/33/32 33/44/32 40/42/32
f 34/37/33 41/45/33 33/36/33
f 35/39/34 42/46/34 34/37/34
f 35/39/35 44/47/35 43/48/35
f 36/38/36 45/49/36 44/47/36
f 38/41/37 45/49/37 37/40/37
f 39/43/38 46/50/38 38/41/38
f 39/43/39 48/51/39 47/52/39
f 40/42/40 41/53/40 48/51/40
f 42/46/41 49/54/41 41/45/41
f 43/48/42 50/55/42 42/46/42
f 44/47/43 51/56/43 43/48/43
f 45/49/44 52/57/44 44/47/44
f 46/50/45 53/58/45 45/49/45
f 47/52/46 54/59/46 46/50/46
f 48/51/47 55/60/47 47/52/47
f 41/53/48 56/61/48 48/51/48
f 50/55/49 57/62/49 49/54/49
f 51/56/50 58/63/50 50/55/50
f 52/57/51 59/64/51 51/56/51
f 53/58/52 60/65/52 52/57/52
f 54/59/53 61/66/53 53/58/53
f 55/60/54 62/67/54 54/59/54
f 56/61/55 63/68/55 55/60/55
f 49/69/56 64/70/56 56/61/56
f 5/71/57 3/72/57 1/73/57
f 58/74/58 65/75/58 57/76/58
f 59/77/58 66/78/58 58/74/58
f 60/79/58 67/80/58 59/77/58
f 61/81/58 68/82/58 60/79/58
f 62/83/58 69/84/58 61/81/58
f 63/85/58 70/86/58 62/83/58
f 64/87/58 71/88/58 63/85/58
f 57/76/58 72/89/58 64/87/58
f 65/62/59 74/90/59 73/91/59
f 66/63/60 75/92/60 74/90/60
f 67/64/61 76/93/61 75/92/61
f 68/65/62 77/94/62 76/93/62
f 69/66/63 78/95/63 77/94/63
f 70/67/64 79/96/64 78/95/64
f 71/68/65 80/97/65 79/96/65
f 72/70/66 73/98/66 80/97/66
f 76/99/58 78/100/58 80/101/58
f 82/102/67 84/103/67 81/104/67
f 83/102/68 85/103/68 82/104/68
f 83/104/69 84/105/69 86/103/69
f 85/105/70 87/106/70 84/103/70
f 86/105/57 88/106/57 85/103/57
f 86/103/71 87/107/71 89/106/71
f 87/106/72 91/108/72 90/109/72
f 89/107/73 91/109/73 88/106/73
f 89/106/74 90/108/74 92/109/74
f 91/108/75 93/110/75 90/109/75
f 92/108/76 94/110/76 91/109/76
f 90/108/77 95/110/77 92/109/77
f 94/111/78 96/112/78 93/110/78
f 95/111/58 97/112/58 94/110/58
f 93/111/79 98/112/79 95/110/79
f 97/113/80 81/114/80 96/112/80
f 98/113/81 82/114/81 97/112/81
f 96/113/82 83/114/82 98/112/82
f 1/1/1 2/4/1 10/2/1
f 2/4/2 3/7/2 11/5/2
f 4/6/3 12/9/3 11/5/3
f 5/8/4 13/11/4 12/9/4
f 5/8/5 6/12/5 14/10/5
f 6/12/6 7/15/6 15/13/6
f 8/14/7 16/17/7 15/13/7
f 1/16/8 9/25/8 16/17/8
f 9/3/9 10/2/9 18/18/9
f 10/2/10 11/5/10 19/20/10
f 12/9/11 20/21/11 19/20/11
f 13/11/12 21/23/12 20/21/12
f 13/11/13 14/10/13 22/22/13
f 14/10/14 15/13/14 23/24/14
f 16/17/15 24/26/15 23/24/15
f 9/25/16 17/115/16 24/26/16
f 18/18/83 26/28/83 25/27/83
f 19/20/84 27/30/84 26/28/84
f 19/20/85 20/21/85 28/29/85
f 20/21/86 21/23/86 29/31/86
f 22/22/87 30/32/87 29/31/87
f 23/24/88 31/34/88 30/32/88
f 23/24/89 24/26/89 32/33/89
f 24/26/90 17/115/90 25/35/90
f 26/28/91 34/37/91 33/36/91
f 27/30/92 35/39/92 34/37/92
f 27/30/93 28/29/93 36/38/93
f 28/29/94 29/31/94 37/40/94
f 30/32/95 38/41/95 37/40/95
f 31/34/96 39/43/96 38/41/96
f 31/34/97 32/33/97 40/42/97
f 32/33/98 25/35/98 33/44/98
f 34/37/99 42/46/99 41/45/99
f 35/39/100 43/48/100 42/46/100
f 35/39/101 36/38/101 44/47/101
f 36/38/102 37/40/102 45/49/102
f 38/41/103 46/50/103 45/49/103
f 39/43/104 47/52/104 46/50/104
f 39/43/105 40/42/105 48/51/105
f 40/42/106 33/44/106 41/53/106
f 42/46/41 50/55/41 49/54/41
f 43/48/42 51/56/42 50/55/42
f 44/47/43 52/57/43 51/56/43
f 45/49/44 53/58/44 52/57/44
f 46/50/45 54/59/45 53/58/45
f 47/52/46 55/60/46 54/59/46
f 48/51/47 56/61/47 55/60/47
f 41/53/48 49/69/48 56/61/48
f 50/55/49 58/63/49 57/62/49
f 51/56/50 59/64/50 58/63/50
f 52/57/51 60/65/51 59/64/51
f 53/58/52 61/66/52 60/65/52
f 54/59/53 62/67/53 61/66/53
f 55/60/54 63/68/54 62/67/54
f 56/61/55 64/70/55 63/68/55
f 49/69/56 57/116/56 64/70/56
f 1/73/57 8/117/57 7/118/57
f 7/118/57 6/119/57 5/71/57
f 5/71/57 4/120/57 3/72/57
f 3/72/57 2/121/57 1/73/57
f 1/73/57 7/118/57 5/71/57
f 58/74/58 66/78/58 65/75/58
f 59/77/58 67/80/58 66/78/58
f 60/79/58 68/82/58 67/80/58
f 61/81/58 69/84/58 68/82/58
f 62/83/58 70/86/58 69/84/58
f 63/85/58 71/88/58 70/86/58
f 64/87/58 72/89/58 71/88/58
f 57/76/58 65/75/58 72/89/58
f 65/62/59 66/63/59 74/90/59
f 66/63/60 67/64/60 75/92/60
f 67/64/61 68/65/61 76/93/61
f 68/65/62 69/66/62 77/94/62
f 69/66/63 70/67/63 78/95/63
f 70/67/64 71/68/64 79/96/64
f 71/68/65 72/70/65 80/97/65
f 72/70/66 65/116/66 73/98/66
f 80/101/58 73/122/58 74/123/58
f 74/123/58 75/124/58 76/99/58
f 76/99/58 77/125/58 78/100/58
f 78/100/58 79/126/58 80/101/58
f 80/101/58 74/123/58 76/99/58
f 82/102/107 85/105/107 84/103/107
f 83/102/68 86/105/68 85/103/68
f 83/104/108 81/102/108 84/105/108
f 85/105/70 88/107/70 87/106/70
f 86/105/57 89/107/57 88/106/57
f 86/103/71 84/105/71 87/107/71
f 87/106/72 88/107/72 91/108/72
f 89/107/73 92/108/73 91/109/73
f 89/106/74 87/107/74 90/108/74
f 91/108/109 94/111/109 93/110/109
f 92/108/76 95/111/76 94/110/76
f 90/108/110 93/111/110 95/110/110
f 94/111/78 97/113/78 96/112/78
f 95/111/58 98/113/58 97/112/58
f 93/111/79 96/113/79 98/112/79
f 97/113/111 82/127/111 81/114/111
f 98/113/81 83/127/81 82/114/81
f 96/113/112 81/127/112 83/114/112
