# Blender 5.2.1 LTS
# www.blender.org
mtllib gate_bell.mtl
o gate_bell
v -0.130000 -0.060000 0.035000
v 0.130000 -0.060000 0.035000
v -0.130000 -0.060000 -0.035000
v 0.130000 -0.060000 -0.035000
v -0.130000 0.000000 0.035000
v 0.130000 0.000000 0.035000
v -0.130000 0.000000 -0.035000
v 0.130000 0.000000 -0.035000
v 0.000000 -0.060000 0.000000
v 0.055000 -0.060000 0.000000
v 0.047631 -0.060000 -0.027500
v 0.027500 -0.060000 -0.047631
v 0.000000 -0.060000 -0.055000
v -0.027500 -0.060000 -0.047631
v -0.047631 -0.060000 -0.027500
v -0.055000 -0.060000 -0.000000
v -0.047631 -0.060000 0.027500
v -0.027500 -0.060000 0.047631
v -0.000000 -0.060000 0.055000
v 0.027500 -0.060000 0.047631
v 0.047631 -0.060000 0.027500
v 0.085000 -0.080000 0.000000
v 0.073612 -0.080000 -0.042500
v 0.042500 -0.080000 -0.073612
v 0.000000 -0.080000 -0.085000
v -0.042500 -0.080000 -0.073612
v -0.073612 -0.080000 -0.042500
v -0.085000 -0.080000 -0.000000
v -0.073612 -0.080000 0.042500
v -0.042500 -0.080000 0.073612
v -0.000000 -0.080000 0.085000
v 0.042500 -0.080000 0.073612
v 0.073612 -0.080000 0.042500
v 0.100000 -0.130000 0.000000
v 0.086603 -0.130000 -0.050000
v 0.050000 -0.130000 -0.086603
v 0.000000 -0.130000 -0.100000
v -0.050000 -0.130000 -0.086603
v -0.086603 -0.130000 -0.050000
v -0.100000 -0.130000 -0.000000
v -0.086603 -0.130000 0.050000
v -0.050000 -0.130000 0.086603
v -0.000000 -0.130000 0.100000
v 0.050000 -0.130000 0.086603
v 0.086603 -0.130000 0.050000
v 0.108000 -0.200000 0.000000
v 0.093531 -0.200000 -0.054000
v 0.054000 -0.200000 -0.093531
v 0.000000 -0.200000 -0.108000
v -0.054000 -0.200000 -0.093531
v -0.093531 -0.200000 -0.054000
v -0.108000 -0.200000 -0.000000
v -0.093531 -0.200000 0.054000
v -0.054000 -0.200000 0.093531
v -0.000000 -0.200000 0.108000
v 0.054000 -0.200000 0.093531
v 0.093531 -0.200000 0.054000
v 0.135000 -0.290000 0.000000
v 0.116913 -0.290000 -0.067500
v 0.067500 -0.290000 -0.116913
v 0.000000 -0.290000 -0.135000
v -0.067500 -0.290000 -0.116913
v -0.116913 -0.290000 -0.067500
v -0.135000 -0.290000 -0.000000
v -0.116913 -0.290000 0.067500
v -0.067500 -0.290000 0.116913
v -0.000000 -0.290000 0.135000
v 0.067500 -0.290000 0.116913
v 0.116913 -0.290000 0.067500
v 0.172000 -0.350000 0.000000
v 0.148956 -0.350000 -0.086000
v 0.086000 -0.350000 -0.148956
v 0.000000 -0.350000 -0.172000
v -0.086000 -0.350000 -0.148956
v -0.148956 -0.350000 -0.086000
v -0.172000 -0.350000 -0.000000
v -0.148956 -0.350000 0.086000
v -0.086000 -0.350000 0.148956
v -0.000000 -0.350000 0.172000
v 0.086000 -0.350000 0.148956
v 0.148956 -0.350000 0.086000
v 0.168000 -0.365000 0.000000
v 0.145492 -0.365000 -0.084000
v 0.084000 -0.365000 -0.145492
v 0.000000 -0.365000 -0.168000
v -0.084000 -0.365000 -0.145492
v -0.145492 -0.365000 -0.084000
v -0.168000 -0.365000 -0.000000
v -0.145492 -0.365000 0.084000
v -0.084000 -0.365000 0.145492
v -0.000000 -0.365000 0.168000
v 0.084000 -0.365000 0.145492
v 0.145492 -0.365000 0.084000
v 0.150000 -0.360000 0.000000
v 0.129904 -0.360000 -0.075000
v 0.075000 -0.360000 -0.129904
v 0.000000 -0.360000 -0.150000
v -0.075000 -0.360000 -0.129904
v -0.129904 -0.360000 -0.075000
v -0.150000 -0.360000 -0.000000
v -0.129904 -0.360000 0.075000
v -0.075000 -0.360000 0.129904
v -0.000000 -0.360000 0.150000
v 0.075000 -0.360000 0.129904
v 0.129904 -0.360000 0.075000
v 0.122000 -0.310000 0.000000
v 0.105655 -0.310000 -0.061000
v 0.061000 -0.310000 -0.105655
v 0.000000 -0.310000 -0.122000
v -0.061000 -0.310000 -0.105655
v -0.105655 -0.310000 -0.061000
v -0.122000 -0.310000 -0.000000
v -0.105655 -0.310000 0.061000
v -0.061000 -0.310000 0.105655
v -0.000000 -0.310000 0.122000
v 0.061000 -0.310000 0.105655
v 0.105655 -0.310000 0.061000
v 0.094000 -0.220000 0.000000
v 0.081406 -0.220000 -0.047000
v 0.047000 -0.220000 -0.081406
v 0.000000 -0.220000 -0.094000
v -0.047000 -0.220000 -0.081406
v -0.081406 -0.220000 -0.047000
v -0.094000 -0.220000 -0.000000
v -0.081406 -0.220000 0.047000
v -0.047000 -0.220000 0.081406
v -0.000000 -0.220000 0.094000
v 0.047000 -0.220000 0.081406
v 0.081406 -0.220000 0.047000
v 0.075000 -0.120000 0.000000
v 0.064952 -0.120000 -0.037500
v 0.037500 -0.120000 -0.064952
v 0.000000 -0.120000 -0.075000
v -0.037500 -0.120000 -0.064952
v -0.064952 -0.120000 -0.037500
v -0.075000 -0.120000 -0.000000
v -0.064952 -0.120000 0.037500
v -0.037500 -0.120000 0.064952
v -0.000000 -0.120000 0.075000
v 0.037500 -0.120000 0.064952
v 0.064952 -0.120000 0.037500
v 0.000000 -0.100000 0.000000
v -0.008000 -0.320000 0.008000
v 0.008000 -0.320000 0.008000
v -0.008000 -0.320000 -0.008000
v 0.008000 -0.320000 -0.008000
v -0.008000 -0.100000 0.008000
v 0.008000 -0.100000 0.008000
v -0.008000 -0.100000 -0.008000
v 0.008000 -0.100000 -0.008000
v -0.028000 -0.370000 0.028000
v 0.028000 -0.370000 0.028000
v -0.028000 -0.370000 -0.028000
v 0.028000 -0.370000 -0.028000
v -0.028000 -0.310000 0.028000
v 0.028000 -0.310000 0.028000
v -0.028000 -0.310000 -0.028000
v 0.028000 -0.310000 -0.028000
vn -1.0000 -0.0000 -0.0000
vn 1.0000 -0.0000 -0.0000
vn -0.0000 -0.0000 1.0000
vn -0.0000 -0.0000 -1.0000
vn -0.0000 -1.0000 -0.0000
vn -0.0000 1.0000 -0.0000
vn 0.5487 0.8230 -0.1470
vn 0.4017 0.8230 -0.4017
vn 0.1470 0.8230 -0.5487
vn -0.1470 0.8230 -0.5487
vn -0.4017 0.8230 -0.4017
vn -0.5487 0.8230 -0.1470
vn -0.5487 0.8230 0.1470
vn -0.4017 0.8230 0.4017
vn -0.1470 0.8230 0.5487
vn 0.1470 0.8230 0.5487
vn 0.4017 0.8230 0.4017
vn 0.5487 0.8230 0.1470
vn 0.9278 0.2783 -0.2486
vn 0.6792 0.2783 -0.6792
vn 0.2486 0.2783 -0.9278
vn -0.2486 0.2783 -0.9278
vn -0.6792 0.2783 -0.6792
vn -0.9278 0.2783 -0.2486
vn -0.9278 0.2783 0.2486
vn -0.6792 0.2783 0.6792
vn -0.2486 0.2783 0.9278
vn 0.2486 0.2783 0.9278
vn 0.6792 0.2783 0.6792
vn 0.9278 0.2783 0.2486
vn 0.9601 0.1097 -0.2573
vn 0.7028 0.1097 -0.7028
vn 0.2573 0.1097 -0.9601
vn -0.2573 0.1097 -0.9601
vn -0.7028 0.1097 -0.7028
vn -0.9601 0.1097 -0.2573
vn -0.9601 0.1097 0.2573
vn -0.7028 0.1097 0.7028
vn -0.2573 0.1097 0.9601
vn 0.2573 0.1097 0.9601
vn 0.7028 0.1097 0.7028
vn 0.9601 0.1097 0.2573
vn 0.8299 0.5117 -0.2224
vn 0.6075 0.5117 -0.6075
vn 0.2224 0.5117 -0.8299
vn -0.2224 0.5117 -0.8299
vn -0.6075 0.5117 -0.6075
vn -0.8299 0.5117 -0.2224
vn -0.8299 0.5117 0.2224
vn -0.6075 0.5117 0.6075
vn -0.2224 0.5117 0.8299
vn 0.2224 0.5117 0.8299
vn 0.6075 0.5117 0.6075
vn 0.8299 0.5117 0.2224
vn 0.9354 -0.2494 -0.2506
vn 0.6848 -0.2494 -0.6848
vn 0.2506 -0.2494 -0.9354
vn -0.2506 -0.2494 -0.9354
vn -0.6848 -0.2494 -0.6848
vn -0.9354 -0.2494 -0.2506
vn -0.9354 -0.2494 0.2506
vn -0.6848 -0.2494 0.6848
vn -0.2506 -0.2494 0.9354
vn 0.2506 -0.2494 0.9354
vn 0.6848 -0.2494 0.6848
vn 0.9354 -0.2494 0.2506
vn -0.2670 -0.9610 0.0715
vn -0.1954 -0.9610 0.1954
vn -0.0715 -0.9610 0.2670
vn 0.0715 -0.9610 0.2670
vn 0.1954 -0.9611 0.1954
vn 0.2670 -0.9610 0.0715
vn 0.2670 -0.9610 -0.0715
vn 0.1954 -0.9610 -0.1954
vn 0.0715 -0.9610 -0.2670
vn -0.0715 -0.9610 -0.2670
vn -0.1954 -0.9611 -0.1954
vn -0.2670 -0.9610 -0.0715
vn -0.8496 -0.4758 0.2276
vn -0.6219 -0.4758 0.6219
vn -0.2276 -0.4758 0.8496
vn 0.2276 -0.4758 0.8496
vn 0.6219 -0.4758 0.6219
vn 0.8496 -0.4758 0.2276
vn 0.8496 -0.4758 -0.2276
vn 0.6219 -0.4758 -0.6219
vn 0.2276 -0.4758 -0.8496
vn -0.2276 -0.4758 -0.8496
vn -0.6219 -0.4758 -0.6219
vn -0.8496 -0.4758 -0.2276
vn -0.9251 -0.2878 0.2479
vn -0.6772 -0.2878 0.6772
vn -0.2479 -0.2878 0.9251
vn 0.2479 -0.2878 0.9251
vn 0.6772 -0.2878 0.6772
vn 0.9251 -0.2878 0.2479
vn 0.9251 -0.2878 -0.2479
vn 0.6772 -0.2878 -0.6772
vn 0.2479 -0.2878 -0.9251
vn -0.2479 -0.2878 -0.9251
vn -0.6772 -0.2878 -0.6772
vn -0.9251 -0.2878 -0.2479
vn -0.9501 -0.1805 0.2546
vn -0.6955 -0.1805 0.6955
vn -0.2546 -0.1805 0.9501
vn 0.2546 -0.1805 0.9501
vn 0.6955 -0.1805 0.6955
vn 0.9501 -0.1805 0.2546
vn 0.9501 -0.1805 -0.2546
vn 0.6955 -0.1805 -0.6955
vn 0.2546 -0.1805 -0.9501
vn -0.2546 -0.1805 -0.9501
vn -0.6955 -0.1805 -0.6955
vn -0.9501 -0.1805 -0.2546
vn -0.2571 -0.9639 0.0689
vn -0.1882 -0.9639 0.1882
vn -0.0689 -0.9639 0.2571
vn 0.0689 -0.9639 0.2571
vn 0.1882 -0.9639 0.1882
vn 0.2571 -0.9639 0.0689
vn 0.2571 -0.9639 -0.0689
vn 0.1882 -0.9639 -0.1882
vn 0.0689 -0.9639 -0.2571
vn -0.0689 -0.9639 -0.2571
vn -0.1882 -0.9639 -0.1882
vn -0.2571 -0.9639 -0.0689
vn -0.2670 -0.9611 0.0715
vn -0.1954 -0.9611 0.1954
vn 0.1954 -0.9610 0.1954
vn 0.2670 -0.9611 0.0715
vn 0.2670 -0.9611 -0.0715
vn 0.1954 -0.9611 -0.1954
vn -0.1954 -0.9610 -0.1954
vn -0.2670 -0.9611 -0.0715
vt 0.070000 0.000000
vt -0.070000 -0.120000
vt 0.070000 -0.120000
vt -0.070000 0.000000
vt 0.260000 -0.120000
vt -0.260000 0.000000
vt -0.260000 -0.120000
vt 0.260000 0.000000
vt 0.260000 0.070000
vt -0.260000 -0.070000
vt 0.260000 -0.070000
vt -0.260000 0.070000
vt 0.110000 0.000000
vt 0.095263 0.055000
vt 0.000000 0.000000
vt 0.055000 0.095263
vt 0.000000 0.110000
vt -0.055000 0.095263
vt -0.095263 0.055000
vt -0.110000 0.000000
vt -0.095263 -0.055000
vt -0.055000 -0.095263
vt -0.000000 -0.110000
vt 0.055000 -0.095263
vt 0.095263 -0.055000
vt 0.043999 -0.226029
vt -0.028470 -0.155610
vt -0.043999 -0.226029
vt -0.043999 -0.226029
vt 0.028470 -0.155610
vt -0.028470 -0.155610
vt -0.043999 -0.226029
vt 0.028470 -0.155610
vt -0.028470 -0.155610
vt 0.051764 -0.303495
vt -0.043999 -0.199381
vt -0.051764 -0.303495
vt 0.051764 -0.303495
vt -0.043999 -0.199381
vt -0.051764 -0.303495
vt -0.043999 -0.199381
vt 0.055905 -0.420478
vt -0.051764 -0.279627
vt -0.055905 -0.420478
vt -0.051764 -0.279627
vt -0.055905 -0.420478
vt 0.055905 -0.420478
vt 0.069881 -0.629670
vt -0.055905 -0.442265
vt -0.069881 -0.629670
vt -0.055905 -0.442265
vt -0.069881 -0.629670
vt 0.069881 -0.629670
vt -0.055905 -0.442265
vt 0.089034 -0.771438
vt -0.069881 -0.631762
vt -0.089034 -0.771438
vt 0.089034 -0.771438
vt -0.069881 -0.631763
vt -0.089034 -0.771438
vt 0.089034 -0.771438
vt -0.069881 -0.631762
vt -0.089034 -0.771438
vt 0.086963 -0.625970
vt -0.089034 -0.594991
vt -0.086963 -0.625970
vt 0.086963 -0.625970
vt -0.086963 -0.625970
vt 0.086963 -0.625970
vt -0.089034 -0.594991
vt -0.086963 -0.625970
vt -0.077646 -0.477481
vt 0.086963 -0.513664
vt 0.077646 -0.477481
vt -0.077646 -0.477481
vt 0.086963 -0.513663
vt 0.077646 -0.477481
vt -0.077646 -0.477481
vt 0.077646 -0.477481
vt 0.063152 -0.657465
vt -0.077646 -0.771157
vt 0.077646 -0.771157
vt -0.063152 -0.657465
vt 0.077646 -0.771157
vt 0.063152 -0.657465
vt -0.063152 -0.657465
vt 0.077646 -0.771157
vt 0.063152 -0.657465
vt -0.048658 -0.473646
vt 0.063152 -0.661598
vt 0.048658 -0.473646
vt -0.048658 -0.473646
vt 0.063152 -0.661598
vt 0.048658 -0.473646
vt -0.048658 -0.473646
vt 0.048658 -0.473646
vt 0.038823 -0.262212
vt -0.048658 -0.465552
vt 0.048658 -0.465552
vt -0.038823 -0.262212
vt 0.048658 -0.465552
vt 0.038823 -0.262212
vt -0.038823 -0.262212
vt 0.048658 -0.465552
vt 0.038823 -0.262212
vt 0.000000 -0.053224
vt -0.038823 -0.203533
vt 0.038823 -0.203533
vt -0.038823 -0.203533
vt 0.038823 -0.203533
vt -0.038823 -0.203533
vt 0.038823 -0.203533
vt 0.016000 -0.200000
vt -0.016000 -0.640000
vt 0.016000 -0.640000
vt -0.016000 -0.200000
vt 0.056000 -0.620000
vt -0.056000 -0.740000
vt 0.056000 -0.740000
vt -0.056000 -0.620000
vt 0.056000 0.056000
vt -0.056000 -0.056000
vt 0.056000 -0.056000
vt -0.056000 0.056000
vt 0.028470 -0.155610
vt 0.043999 -0.226029
vt 0.043999 -0.226029
vt 0.043999 -0.199381
vt 0.043999 -0.199381
vt 0.043999 -0.199381
vt 0.051764 -0.279627
vt 0.051764 -0.279627
vt 0.055905 -0.442265
vt 0.055905 -0.442265
vt 0.055905 -0.442265
vt 0.069881 -0.631762
vt 0.069881 -0.631763
vt 0.069881 -0.631762
vt 0.089034 -0.594991
vt 0.089034 -0.594991
vt -0.086963 -0.513664
vt -0.086963 -0.513663
vt -0.063152 -0.657465
vt -0.077646 -0.771157
vt -0.077646 -0.771157
vt -0.063152 -0.661598
vt -0.063152 -0.661598
vt -0.038823 -0.262212
vt -0.048658 -0.465552
vt -0.048658 -0.465552
s 0
usemtl lever_brass
f 5/1/1 3/2/1 1/3/1
f 4/3/2 6/4/2 2/2/2
f 2/5/3 5/6/3 1/7/3
f 7/8/4 4/7/4 3/5/4
f 3/9/5 2/10/5 1/11/5
f 6/11/6 7/12/6 5/10/6
f 10/13/6 11/14/6 9/15/6
f 11/14/6 12/16/6 9/15/6
f 12/16/6 13/17/6 9/15/6
f 13/17/6 14/18/6 9/15/6
f 14/18/6 15/19/6 9/15/6
f 15/19/6 16/20/6 9/15/6
f 16/20/6 17/21/6 9/15/6
f 17/21/6 18/22/6 9/15/6
f 18/22/6 19/23/6 9/15/6
f 19/23/6 20/24/6 9/15/6
f 20/24/6 21/25/6 9/15/6
f 21/25/6 10/13/6 9/15/6
f 23/26/7 10/27/7 22/28/7
f 23/29/8 12/30/8 11/31/8
f 24/32/9 13/33/9 12/34/9
f 26/26/10 13/27/10 25/28/10
f 26/29/11 15/30/11 14/31/11
f 27/32/12 16/33/12 15/34/12
f 29/26/13 16/27/13 28/28/13
f 29/29/14 18/30/14 17/31/14
f 30/32/15 19/33/15 18/34/15
f 32/26/16 19/27/16 31/28/16
f 32/29/17 21/30/17 20/31/17
f 33/32/18 10/33/18 21/34/18
f 35/35/19 22/36/19 34/37/19
f 36/38/20 23/39/20 35/40/20
f 37/35/21 24/41/21 36/37/21
f 38/35/22 25/36/22 37/37/22
f 39/38/23 26/39/23 38/40/23
f 40/35/24 27/41/24 39/37/24
f 41/35/25 28/36/25 40/37/25
f 42/38/26 29/39/26 41/40/26
f 43/35/27 30/41/27 42/37/27
f 44/35/28 31/36/28 43/37/28
f 45/38/29 32/39/29 44/40/29
f 34/35/30 33/41/30 45/37/30
f 47/42/31 34/43/31 46/44/31
f 48/42/32 35/45/32 47/46/32
f 49/47/33 36/43/33 48/46/33
f 50/42/34 37/43/34 49/44/34
f 51/42/35 38/45/35 50/46/35
f 52/47/36 39/43/36 51/46/36
f 53/42/37 40/43/37 52/44/37
f 54/42/38 41/45/38 53/46/38
f 55/47/39 42/43/39 54/46/39
f 56/42/40 43/43/40 55/44/40
f 57/42/41 44/45/41 56/46/41
f 46/47/42 45/43/42 57/46/42
f 59/48/19 46/49/19 58/50/19
f 60/48/20 47/51/20 59/52/20
f 61/53/21 48/54/21 60/52/21
f 62/48/22 49/49/22 61/50/22
f 63/48/23 50/51/23 62/52/23
f 64/53/24 51/54/24 63/52/24
f 65/48/25 52/49/25 64/50/25
f 66/48/26 53/51/26 65/52/26
f 67/53/27 54/54/27 66/52/27
f 68/48/28 55/49/28 67/50/28
f 69/48/29 56/51/29 68/52/29
f 58/53/30 57/54/30 69/52/30
f 71/55/43 58/56/43 70/57/43
f 72/58/44 59/59/44 71/60/44
f 73/61/45 60/62/45 72/63/45
f 74/55/46 61/56/46 73/57/46
f 75/58/47 62/59/47 74/60/47
f 76/61/48 63/62/48 75/63/48
f 77/55/49 64/56/49 76/57/49
f 78/58/50 65/59/50 77/60/50
f 79/61/51 66/62/51 78/63/51
f 80/55/52 67/56/52 79/57/52
f 81/58/53 68/59/53 80/60/53
f 70/61/54 69/62/54 81/63/54
f 83/64/55 70/65/55 82/66/55
f 84/67/56 71/65/56 83/68/56
f 85/69/57 72/70/57 84/71/57
f 86/64/58 73/65/58 85/66/58
f 87/67/59 74/65/59 86/68/59
f 88/69/60 75/70/60 87/71/60
f 89/64/61 76/65/61 88/66/61
f 90/67/62 77/65/62 89/68/62
f 91/69/63 78/70/63 90/71/63
f 92/64/64 79/65/64 91/66/64
f 93/67/65 80/65/65 92/68/65
f 82/69/66 81/70/66 93/71/66
f 95/72/67 82/73/67 94/74/67
f 96/75/68 83/76/68 95/77/68
f 97/78/69 84/73/69 96/79/69
f 98/72/70 85/73/70 97/74/70
f 99/75/71 86/76/71 98/77/71
f 100/78/72 87/73/72 99/79/72
f 101/72/73 88/73/73 100/74/73
f 102/75/74 89/76/74 101/77/74
f 103/78/75 90/73/75 102/79/75
f 104/72/76 91/73/76 103/74/76
f 105/75/77 92/76/77 104/77/77
f 94/78/78 93/73/78 105/79/78
f 106/80/79 95/81/79 94/82/79
f 108/83/80 95/84/80 107/85/80
f 109/86/81 96/87/81 108/88/81
f 109/80/82 98/81/82 97/82/82
f 111/83/83 98/84/83 110/85/83
f 112/86/84 99/87/84 111/88/84
f 112/80/85 101/81/85 100/82/85
f 114/83/86 101/84/86 113/85/86
f 115/86/87 102/87/87 114/88/87
f 115/80/88 104/81/88 103/82/88
f 117/83/89 104/84/89 116/85/89
f 106/86/90 105/87/90 117/88/90
f 119/89/91 106/90/91 118/91/91
f 120/92/92 107/93/92 119/94/92
f 121/95/93 108/93/93 120/96/93
f 122/89/94 109/90/94 121/91/94
f 123/92/95 110/93/95 122/94/95
f 124/95/96 111/93/96 123/96/96
f 125/89/97 112/90/97 124/91/97
f 126/92/98 113/93/98 125/94/98
f 127/95/99 114/93/99 126/96/99
f 128/89/100 115/90/100 127/91/100
f 129/92/101 116/93/101 128/94/101
f 118/95/102 117/93/102 129/96/102
f 130/97/103 119/98/103 118/99/103
f 132/100/104 119/101/104 131/102/104
f 133/103/105 120/104/105 132/105/105
f 133/97/106 122/98/106 121/99/106
f 135/100/107 122/101/107 134/102/107
f 136/103/108 123/104/108 135/105/108
f 136/97/109 125/98/109 124/99/109
f 138/100/110 125/101/110 137/102/110
f 139/103/111 126/104/111 138/105/111
f 139/97/112 128/98/112 127/99/112
f 141/100/113 128/101/113 140/102/113
f 130/103/114 129/104/114 141/105/114
f 142/106/115 131/107/115 130/108/115
f 142/106/116 132/109/116 131/110/116
f 142/106/117 133/111/117 132/112/117
f 142/106/118 134/107/118 133/108/118
f 142/106/119 135/109/119 134/110/119
f 142/106/120 136/111/120 135/112/120
f 142/106/121 137/107/121 136/108/121
f 142/106/122 138/109/122 137/110/122
f 142/106/123 139/111/123 138/112/123
f 142/106/124 140/107/124 139/108/124
f 142/106/125 141/109/125 140/110/125
f 142/106/126 130/111/126 141/112/126
f 147/113/1 145/114/1 143/115/1
f 146/115/2 148/116/2 144/114/2
f 144/115/3 147/116/3 143/114/3
f 149/113/4 146/114/4 145/115/4
f 155/117/1 153/118/1 151/119/1
f 154/119/2 156/120/2 152/118/2
f 152/119/3 155/120/3 151/118/3
f 157/117/4 154/118/4 153/119/4
f 153/121/5 152/122/5 151/123/5
f 156/123/6 157/124/6 155/122/6
f 5/1/1 7/4/1 3/2/1
f 4/3/2 8/1/2 6/4/2
f 2/5/3 6/8/3 5/6/3
f 7/8/4 8/6/4 4/7/4
f 3/9/5 4/12/5 2/10/5
f 6/11/6 8/9/6 7/12/6
f 23/26/7 11/125/7 10/27/7
f 23/29/8 24/126/8 12/30/8
f 24/32/9 25/127/9 13/33/9
f 26/26/10 14/125/10 13/27/10
f 26/29/11 27/126/11 15/30/11
f 27/32/12 28/127/12 16/33/12
f 29/26/13 17/125/13 16/27/13
f 29/29/14 30/126/14 18/30/14
f 30/32/15 31/127/15 19/33/15
f 32/26/16 20/125/16 19/27/16
f 32/29/17 33/126/17 21/30/17
f 33/32/18 22/127/18 10/33/18
f 35/35/19 23/128/19 22/36/19
f 36/38/20 24/129/20 23/39/20
f 37/35/21 25/130/21 24/41/21
f 38/35/22 26/128/22 25/36/22
f 39/38/23 27/129/23 26/39/23
f 40/35/24 28/130/24 27/41/24
f 41/35/25 29/128/25 28/36/25
f 42/38/26 30/129/26 29/39/26
f 43/35/27 31/130/27 30/41/27
f 44/35/28 32/128/28 31/36/28
f 45/38/29 33/129/29 32/39/29
f 34/35/30 22/130/30 33/41/30
f 47/42/31 35/131/31 34/43/31
f 48/42/32 36/132/32 35/45/32
f 49/47/33 37/131/33 36/43/33
f 50/42/34 38/131/34 37/43/34
f 51/42/35 39/132/35 38/45/35
f 52/47/36 40/131/36 39/43/36
f 53/42/37 41/131/37 40/43/37
f 54/42/38 42/132/38 41/45/38
f 55/47/39 43/131/39 42/43/39
f 56/42/40 44/131/40 43/43/40
f 57/42/41 45/132/41 44/45/41
f 46/47/42 34/131/42 45/43/42
f 59/48/19 47/133/19 46/49/19
f 60/48/20 48/134/20 47/51/20
f 61/53/21 49/135/21 48/54/21
f 62/48/22 50/133/22 49/49/22
f 63/48/23 51/134/23 50/51/23
f 64/53/24 52/135/24 51/54/24
f 65/48/25 53/133/25 52/49/25
f 66/48/26 54/134/26 53/51/26
f 67/53/27 55/135/27 54/54/27
f 68/48/28 56/133/28 55/49/28
f 69/48/29 57/134/29 56/51/29
f 58/53/30 46/135/30 57/54/30
f 71/55/43 59/136/43 58/56/43
f 72/58/44 60/137/44 59/59/44
f 73/61/45 61/138/45 60/62/45
f 74/55/46 62/136/46 61/56/46
f 75/58/47 63/137/47 62/59/47
f 76/61/48 64/138/48 63/62/48
f 77/55/49 65/136/49 64/56/49
f 78/58/50 66/137/50 65/59/50
f 79/61/51 67/138/51 66/62/51
f 80/55/52 68/136/52 67/56/52
f 81/58/53 69/137/53 68/59/53
f 70/61/54 58/138/54 69/62/54
f 83/64/55 71/139/55 70/65/55
f 84/67/56 72/140/56 71/65/56
f 85/69/57 73/140/57 72/70/57
f 86/64/58 74/139/58 73/65/58
f 87/67/59 75/140/59 74/65/59
f 88/69/60 76/140/60 75/70/60
f 89/64/61 77/139/61 76/65/61
f 90/67/62 78/140/62 77/65/62
f 91/69/63 79/140/63 78/70/63
f 92/64/64 80/139/64 79/65/64
f 93/67/65 81/140/65 80/65/65
f 82/69/66 70/140/66 81/70/66
f 95/72/127 83/141/127 82/73/127
f 96/75/128 84/142/128 83/76/128
f 97/78/69 85/141/69 84/73/69
f 98/72/70 86/141/70 85/73/70
f 99/75/129 87/142/129 86/76/129
f 100/78/130 88/141/130 87/73/130
f 101/72/131 89/141/131 88/73/131
f 102/75/132 90/142/132 89/76/132
f 103/78/75 91/141/75 90/73/75
f 104/72/76 92/141/76 91/73/76
f 105/75/133 93/142/133 92/76/133
f 94/78/134 82/141/134 93/73/134
f 106/80/79 107/143/79 95/81/79
f 108/83/80 96/144/80 95/84/80
f 109/86/81 97/145/81 96/87/81
f 109/80/82 110/143/82 98/81/82
f 111/83/83 99/144/83 98/84/83
f 112/86/84 100/145/84 99/87/84
f 112/80/85 113/143/85 101/81/85
f 114/83/86 102/144/86 101/84/86
f 115/86/87 103/145/87 102/87/87
f 115/80/88 116/143/88 104/81/88
f 117/83/89 105/144/89 104/84/89
f 106/86/90 94/145/90 105/87/90
f 119/89/91 107/146/91 106/90/91
f 120/92/92 108/146/92 107/93/92
f 121/95/93 109/147/93 108/93/93
f 122/89/94 110/146/94 109/90/94
f 123/92/95 111/146/95 110/93/95
f 124/95/96 112/147/96 111/93/96
f 125/89/97 113/146/97 112/90/97
f 126/92/98 114/146/98 113/93/98
f 127/95/99 115/147/99 114/93/99
f 128/89/100 116/146/100 115/90/100
f 129/92/101 117/146/101 116/93/101
f 118/95/102 106/147/102 117/93/102
f 130/97/103 131/148/103 119/98/103
f 132/100/104 120/149/104 119/101/104
f 133/103/105 121/150/105 120/104/105
f 133/97/106 134/148/106 122/98/106
f 135/100/107 123/149/107 122/101/107
f 136/103/108 124/150/108 123/104/108
f 136/97/109 137/148/109 125/98/109
f 138/100/110 126/149/110 125/101/110
f 139/103/111 127/150/111 126/104/111
f 139/97/112 140/148/112 128/98/112
f 141/100/113 129/149/113 128/101/113
f 130/103/114 118/150/114 129/104/114
f 147/113/1 149/116/1 145/114/1
f 146/115/2 150/113/2 148/116/2
f 144/115/3 148/113/3 147/116/3
f 149/113/4 150/116/4 146/114/4
f 155/117/1 157/120/1 153/118/1
f 154/119/2 158/117/2 156/120/2
f 152/119/3 156/117/3 155/120/3
f 157/117/4 158/120/4 154/118/4
f 153/121/5 154/124/5 152/122/5
f 156/123/6 158/121/6 157/124/6
