# Blender 5.2.1 LTS
# www.blender.org
mtllib gate_arch.mtl
o gate_arch
v -1.200000 -0.400000 0.200000
v -0.800000 -0.400000 0.200000
v -1.200000 -0.400000 -0.200000
v -0.800000 -0.400000 -0.200000
v -1.200000 2.300000 0.200000
v -0.800000 2.300000 0.200000
v -1.200000 2.300000 -0.200000
v -0.800000 2.300000 -0.200000
v -1.270000 2.300000 0.270000
v -0.730000 2.300000 0.270000
v -1.270000 2.300000 -0.270000
v -0.730000 2.300000 -0.270000
v -1.270000 3.500000 0.270000
v -0.730000 3.500000 0.270000
v -1.270000 3.500000 -0.270000
v -0.730000 3.500000 -0.270000
v -1.330000 3.500000 0.330000
v -0.670000 3.500000 0.330000
v -1.330000 3.500000 -0.330000
v -0.670000 3.500000 -0.330000
v -1.330000 3.650000 0.330000
v -0.670000 3.650000 0.330000
v -1.330000 3.650000 -0.330000
v -0.670000 3.650000 -0.330000
v -1.330000 3.650000 0.330000
v -0.670000 3.650000 0.330000
v -0.670000 3.650000 -0.330000
v -1.330000 3.650000 -0.330000
v -1.000000 3.850000 0.000000
v -0.730000 2.350000 0.200000
v -0.730000 2.850000 0.200000
v -0.250000 2.850000 0.200000
v -0.730000 2.350000 -0.200000
v -0.730000 2.850000 -0.200000
v -0.250000 2.850000 -0.200000
v -0.760000 2.600000 0.560000
v -0.640000 2.600000 0.560000
v -0.760000 2.600000 0.270000
v -0.640000 2.600000 0.270000
v -0.760000 2.740000 0.560000
v -0.640000 2.740000 0.560000
v -0.760000 2.740000 0.270000
v -0.640000 2.740000 0.270000
v -0.760000 2.600000 -0.270000
v -0.640000 2.600000 -0.270000
v -0.760000 2.600000 -0.560000
v -0.640000 2.600000 -0.560000
v -0.760000 2.740000 -0.270000
v -0.640000 2.740000 -0.270000
v -0.760000 2.740000 -0.560000
v -0.640000 2.740000 -0.560000
v 0.800000 -0.400000 0.200000
v 1.200000 -0.400000 0.200000
v 0.800000 -0.400000 -0.200000
v 1.200000 -0.400000 -0.200000
v 0.800000 2.300000 0.200000
v 1.200000 2.300000 0.200000
v 0.800000 2.300000 -0.200000
v 1.200000 2.300000 -0.200000
v 0.730000 2.300000 0.270000
v 1.270000 2.300000 0.270000
v 0.730000 2.300000 -0.270000
v 1.270000 2.300000 -0.270000
v 0.730000 3.500000 0.270000
v 1.270000 3.500000 0.270000
v 0.730000 3.500000 -0.270000
v 1.270000 3.500000 -0.270000
v 0.670000 3.500000 0.330000
v 1.330000 3.500000 0.330000
v 0.670000 3.500000 -0.330000
v 1.330000 3.500000 -0.330000
v 0.670000 3.650000 0.330000
v 1.330000 3.650000 0.330000
v 0.670000 3.650000 -0.330000
v 1.330000 3.650000 -0.330000
v 0.670000 3.650000 0.330000
v 1.330000 3.650000 0.330000
v 1.330000 3.650000 -0.330000
v 0.670000 3.650000 -0.330000
v 1.000000 3.850000 0.000000
v 0.730000 2.350000 0.200000
v 0.730000 2.850000 0.200000
v 0.250000 2.850000 0.200000
v 0.730000 2.350000 -0.200000
v 0.730000 2.850000 -0.200000
v 0.250000 2.850000 -0.200000
v 0.640000 2.600000 0.560000
v 0.760000 2.600000 0.560000
v 0.640000 2.600000 0.270000
v 0.760000 2.600000 0.270000
v 0.640000 2.740000 0.560000
v 0.760000 2.740000 0.560000
v 0.640000 2.740000 0.270000
v 0.760000 2.740000 0.270000
v 0.640000 2.600000 -0.270000
v 0.760000 2.600000 -0.270000
v 0.640000 2.600000 -0.560000
v 0.760000 2.600000 -0.560000
v 0.640000 2.740000 -0.270000
v 0.760000 2.740000 -0.270000
v 0.640000 2.740000 -0.560000
v 0.760000 2.740000 -0.560000
v -0.730000 2.850000 0.250000
v 0.730000 2.850000 0.250000
v -0.730000 2.850000 -0.250000
v 0.730000 2.850000 -0.250000
v -0.730000 3.500000 0.250000
v 0.730000 3.500000 0.250000
v -0.730000 3.500000 -0.250000
v 0.730000 3.500000 -0.250000
v -0.110000 2.780000 0.290000
v 0.110000 2.780000 0.290000
v -0.110000 2.780000 -0.290000
v 0.110000 2.780000 -0.290000
v -0.110000 3.300000 0.290000
v 0.110000 3.300000 0.290000
v -0.110000 3.300000 -0.290000
v 0.110000 3.300000 -0.290000
v -1.300000 3.400000 0.290000
v 1.300000 3.400000 0.290000
v -1.300000 3.400000 -0.290000
v 1.300000 3.400000 -0.290000
v -1.300000 3.500000 0.290000
v 1.300000 3.500000 0.290000
v -1.300000 3.500000 -0.290000
v 1.300000 3.500000 -0.290000
v -1.330000 3.500000 0.300000
v 1.330000 3.500000 0.300000
v 1.330000 3.500000 -0.300000
v -1.330000 3.500000 -0.300000
v 0.000000 4.200000 0.300000
v 0.000000 4.200000 -0.300000
v -0.820000 3.620000 0.190000
v 0.820000 3.620000 0.190000
v -0.820000 3.620000 -0.190000
v 0.820000 3.620000 -0.190000
v -0.820000 3.980000 0.190000
v 0.820000 3.980000 0.190000
v -0.820000 3.980000 -0.190000
v 0.820000 3.980000 -0.190000
v -0.860000 3.980000 0.200000
v 0.860000 3.980000 0.200000
v -0.860000 3.980000 -0.200000
v 0.860000 3.980000 -0.200000
v -0.860000 4.120000 0.200000
v 0.860000 4.120000 0.200000
v -0.860000 4.120000 -0.200000
v 0.860000 4.120000 -0.200000
v -0.790000 4.120000 0.070000
v -0.650000 4.120000 0.070000
v -0.790000 4.120000 -0.070000
v -0.650000 4.120000 -0.070000
v -0.790000 5.580000 0.070000
v -0.650000 5.580000 0.070000
v -0.790000 5.580000 -0.070000
v -0.650000 5.580000 -0.070000
v -0.070000 4.120000 0.070000
v 0.070000 4.120000 0.070000
v -0.070000 4.120000 -0.070000
v 0.070000 4.120000 -0.070000
v -0.070000 5.580000 0.070000
v 0.070000 5.580000 0.070000
v -0.070000 5.580000 -0.070000
v 0.070000 5.580000 -0.070000
v 0.650000 4.120000 0.070000
v 0.790000 4.120000 0.070000
v 0.650000 4.120000 -0.070000
v 0.790000 4.120000 -0.070000
v 0.650000 5.580000 0.070000
v 0.790000 5.580000 0.070000
v 0.650000 5.580000 -0.070000
v 0.790000 5.580000 -0.070000
v -0.720000 5.500000 0.050000
v 0.720000 5.500000 0.050000
v -0.720000 5.500000 -0.050000
v 0.720000 5.500000 -0.050000
v -0.720000 5.580000 0.050000
v 0.720000 5.580000 0.050000
v -0.720000 5.580000 -0.050000
v 0.720000 5.580000 -0.050000
v -0.940000 5.580000 0.350000
v 0.940000 5.580000 0.350000
v 0.940000 5.580000 -0.350000
v -0.940000 5.580000 -0.350000
v 0.000000 5.980000 0.350000
v 0.000000 5.980000 -0.350000
vn -1.0000 -0.0000 -0.0000
vn 1.0000 -0.0000 -0.0000
vn -0.0000 -0.0000 1.0000
vn -0.0000 -0.0000 -1.0000
vn -0.0000 -1.0000 -0.0000
vn -0.0000 0.8552 0.5183
vn 0.5183 0.8552 -0.0000
vn -0.0000 0.8552 -0.5183
vn -0.5183 0.8552 -0.0000
vn 0.7214 -0.6925 -0.0000
vn -0.0000 1.0000 -0.0000
vn -0.7214 -0.6925 -0.0000
vn -0.4657 0.8849 -0.0000
vn 0.4657 0.8849 -0.0000
vn -0.3916 0.9202 -0.0000
vn 0.3916 0.9202 -0.0000
vt 0.100000 1.150000
vt -0.100000 -0.200000
vt 0.100000 -0.200000
vt -0.100000 1.150000
vt -0.400000 -0.200000
vt -0.600000 1.150000
vt -0.600000 -0.200000
vt 0.600000 1.150000
vt 0.400000 -0.200000
vt 0.600000 -0.200000
vt 0.135000 1.750000
vt -0.135000 1.150000
vt 0.135000 1.150000
vt -0.135000 1.750000
vt -0.365000 1.150000
vt -0.635000 1.750000
vt -0.635000 1.150000
vt 0.635000 1.750000
vt 0.365000 1.150000
vt 0.635000 1.150000
vt 0.635000 0.135000
vt 0.365000 -0.135000
vt 0.635000 -0.135000
vt 0.165000 1.825000
vt -0.165000 1.750000
vt 0.165000 1.750000
vt -0.165000 1.825000
vt -0.335000 1.750000
vt -0.665000 1.825000
vt -0.665000 1.750000
vt 0.665000 1.825000
vt 0.335000 1.750000
vt 0.665000 1.750000
vt 0.665000 0.165000
vt 0.335000 -0.165000
vt 0.665000 -0.165000
vt -0.665000 0.804792
vt -0.335000 0.804792
vt -0.500000 0.997730
vt -0.165000 1.232392
vt 0.165000 1.232392
vt 0.000000 1.425329
vt 0.335000 0.804792
vt 0.665000 0.804792
vt 0.500000 0.997730
vt -0.165000 0.377193
vt 0.165000 0.377193
vt 0.000000 0.570130
vt 0.100000 0.941410
vt -0.100000 0.594856
vt 0.100000 0.594856
vt -0.125000 1.425000
vt -0.365000 1.425000
vt -0.365000 1.175000
vt 0.365000 1.425000
vt 0.125000 1.425000
vt 0.365000 1.175000
vt 0.280000 1.370000
vt 0.135000 1.300000
vt 0.280000 1.300000
vt -0.135000 1.300000
vt -0.280000 1.370000
vt -0.280000 1.300000
vt -0.320000 1.300000
vt -0.380000 1.370000
vt -0.380000 1.300000
vt 0.380000 -0.135000
vt 0.320000 -0.280000
vt 0.380000 -0.280000
vt -0.320000 -0.280000
vt -0.380000 -0.135000
vt -0.380000 -0.280000
vt -0.135000 1.370000
vt 0.135000 1.370000
vt 0.380000 1.370000
vt 0.320000 1.300000
vt 0.380000 1.300000
vt 0.380000 0.280000
vt 0.320000 0.135000
vt 0.380000 0.135000
vt -0.320000 0.135000
vt -0.380000 0.280000
vt -0.380000 0.135000
vt 0.400000 1.150000
vt -0.400000 1.150000
vt 0.365000 1.750000
vt -0.365000 1.750000
vt -0.365000 0.135000
vt -0.635000 -0.135000
vt -0.365000 -0.135000
vt 0.335000 1.825000
vt -0.335000 1.825000
vt -0.335000 0.165000
vt -0.665000 -0.165000
vt -0.335000 -0.165000
vt 0.320000 1.370000
vt -0.320000 -0.135000
vt 0.320000 -0.135000
vt -0.320000 1.370000
vt -0.320000 0.280000
vt 0.320000 0.280000
vt 0.365000 0.125000
vt -0.365000 -0.125000
vt 0.365000 -0.125000
vt 0.145000 1.650000
vt -0.145000 1.390000
vt 0.145000 1.390000
vt -0.145000 1.650000
vt 0.055000 1.390000
vt -0.055000 1.650000
vt -0.055000 1.390000
vt 0.055000 1.650000
vt 0.055000 0.145000
vt -0.055000 -0.145000
vt 0.055000 -0.145000
vt -0.055000 0.145000
vt 0.650000 1.700000
vt -0.650000 1.750000
vt -0.650000 1.700000
vt 0.650000 1.750000
vt 0.650000 0.145000
vt -0.650000 -0.145000
vt 0.650000 -0.145000
vt 0.150000 0.978067
vt -0.150000 0.226585
vt 0.150000 0.226585
vt -0.150000 0.978067
vt 0.000000 2.100000
vt 0.095000 1.990000
vt -0.095000 1.810000
vt 0.095000 1.810000
vt -0.095000 1.990000
vt 0.410000 1.810000
vt -0.410000 1.990000
vt -0.410000 1.810000
vt 0.410000 1.990000
vt 0.410000 -0.095000
vt -0.410000 0.095000
vt -0.410000 -0.095000
vt 0.100000 2.060000
vt -0.100000 1.990000
vt 0.100000 1.990000
vt -0.100000 2.060000
vt 0.430000 1.990000
vt -0.430000 2.060000
vt -0.430000 1.990000
vt 0.430000 2.060000
vt 0.430000 0.100000
vt -0.430000 -0.100000
vt 0.430000 -0.100000
vt -0.430000 0.100000
vt 0.035000 2.790000
vt -0.035000 2.060000
vt 0.035000 2.060000
vt -0.035000 2.790000
vt -0.325000 2.060000
vt -0.395000 2.790000
vt -0.395000 2.060000
vt 0.395000 2.790000
vt 0.325000 2.060000
vt 0.395000 2.060000
vt 0.325000 2.790000
vt -0.325000 2.790000
vt 0.360000 2.750000
vt -0.360000 2.790000
vt -0.360000 2.750000
vt 0.360000 2.790000
vt 0.360000 0.025000
vt -0.360000 -0.025000
vt 0.360000 -0.025000
vt 0.175000 1.170751
vt -0.175000 0.659968
vt 0.175000 0.659968
vt -0.175000 1.170751
vt -0.470000 2.790000
vt 0.470000 2.790000
vt 0.000000 2.990000
vt 0.470000 0.175000
vt -0.470000 -0.175000
vt 0.470000 -0.175000
vt 0.365000 0.135000
vt 0.335000 0.165000
vt -0.100000 0.941410
vt -0.635000 0.135000
vt -0.665000 0.165000
vt -0.365000 0.125000
vt -0.650000 0.145000
vt 0.410000 0.095000
vt -0.360000 0.025000
vt -0.470000 0.175000
s 0
usemtl wall_stone
f 5/1/1 3/2/1 1/3/1
f 4/3/2 6/4/2 2/2/2
f 2/5/3 5/6/3 1/7/3
f 7/8/4 4/9/4 3/10/4
f 13/11/1 11/12/1 9/13/1
f 12/13/2 14/14/2 10/12/2
f 10/15/3 13/16/3 9/17/3
f 15/18/4 12/19/4 11/20/4
f 11/21/5 10/22/5 9/23/5
f 21/24/1 19/25/1 17/26/1
f 20/26/2 22/27/2 18/25/2
f 18/28/3 21/29/3 17/30/3
f 23/31/4 20/32/4 19/33/4
f 19/34/5 18/35/5 17/36/5
f 25/37/6 26/38/6 29/39/6
f 26/40/7 27/41/7 29/42/7
f 27/43/8 28/44/8 29/45/8
f 28/46/9 25/47/9 29/48/9
f 35/49/10 30/50/10 33/51/10
f 32/52/3 31/53/3 30/54/3
f 34/55/4 35/56/4 33/57/4
f 40/58/1 38/59/1 36/60/1
f 39/61/2 41/62/2 37/63/2
f 37/64/3 40/65/3 36/66/3
f 38/67/5 37/68/5 36/69/5
f 41/70/11 42/71/11 40/72/11
f 48/73/1 46/63/1 44/61/1
f 47/60/2 49/74/2 45/59/2
f 50/75/4 47/76/4 46/77/4
f 46/78/5 45/79/5 44/80/5
f 49/81/11 50/82/11 48/83/11
f 56/1/1 54/2/1 52/3/1
f 55/3/2 57/4/2 53/2/2
f 53/10/3 56/84/3 52/9/3
f 58/85/4 55/7/4 54/5/4
f 64/11/1 62/12/1 60/13/1
f 63/13/2 65/14/2 61/12/2
f 61/20/3 64/86/3 60/19/3
f 66/87/4 63/17/4 62/15/4
f 62/88/5 61/89/5 60/90/5
f 72/24/1 70/25/1 68/26/1
f 71/26/2 73/27/2 69/25/2
f 69/33/3 72/91/3 68/32/3
f 74/92/4 71/30/4 70/28/4
f 70/93/5 69/94/5 68/95/5
f 76/43/6 77/44/6 80/45/6
f 77/46/7 78/47/7 80/48/7
f 78/37/8 79/38/8 80/39/8
f 79/40/9 76/41/9 80/42/9
f 83/49/12 84/50/12 81/51/12
f 81/57/3 82/55/3 83/56/3
f 84/54/4 86/52/4 85/53/4
f 91/58/1 89/59/1 87/60/1
f 90/61/2 92/62/2 88/63/2
f 88/77/3 91/96/3 87/76/3
f 89/97/5 88/72/5 87/70/5
f 92/69/11 93/98/11 91/68/11
f 99/73/1 97/63/1 95/61/1
f 98/60/2 100/74/2 96/59/2
f 101/99/4 98/66/4 97/64/4
f 97/100/5 96/83/5 95/81/5
f 100/80/11 101/101/11 99/79/11
f 104/55/3 107/87/3 103/53/3
f 109/86/4 106/53/4 105/55/4
f 105/102/5 104/103/5 103/104/5
f 115/105/1 113/106/1 111/107/1
f 114/107/2 116/108/2 112/106/2
f 112/109/3 115/110/3 111/111/3
f 117/112/4 114/111/4 113/109/4
f 113/113/5 112/114/5 111/115/5
f 116/115/11 117/116/11 115/114/11
f 120/117/3 123/118/3 119/119/3
f 125/120/4 122/119/4 121/117/4
f 121/121/5 120/122/5 119/123/5
f 131/124/13 130/125/13 127/126/13
f 129/126/14 131/127/14 128/125/14
f 127/30/3 128/33/3 131/128/3
f 129/30/4 130/33/4 132/128/4
f 137/129/1 135/130/1 133/131/1
f 136/131/2 138/132/2 134/130/2
f 134/133/3 137/134/3 133/135/3
f 139/136/4 136/135/4 135/133/4
f 138/137/11 139/138/11 137/139/11
f 145/140/1 143/141/1 141/142/1
f 144/142/2 146/143/2 142/141/2
f 142/144/3 145/145/3 141/146/3
f 147/147/4 144/146/4 143/144/4
f 143/148/5 142/149/5 141/150/5
f 146/150/11 147/151/11 145/149/11
f 153/152/1 151/153/1 149/154/1
f 152/154/2 154/155/2 150/153/2
f 150/156/3 153/157/3 149/158/3
f 155/159/4 152/160/4 151/161/4
f 161/152/1 159/153/1 157/154/1
f 160/154/2 162/155/2 158/153/2
f 158/154/3 161/155/3 157/153/3
f 163/152/4 160/153/4 159/154/4
f 169/152/1 167/153/1 165/154/1
f 168/154/2 170/155/2 166/153/2
f 166/161/3 169/162/3 165/160/3
f 171/163/4 168/158/4 167/156/4
f 174/164/3 177/165/3 173/166/3
f 179/167/4 176/166/4 175/164/4
f 175/168/5 174/169/5 173/170/5
f 185/171/15 184/172/15 181/173/15
f 183/173/16 185/174/16 182/172/16
f 181/175/3 182/176/3 185/177/3
f 183/175/4 184/176/4 186/177/4
f 184/178/5 182/179/5 181/180/5
f 5/1/1 7/4/1 3/2/1
f 4/3/2 8/1/2 6/4/2
f 2/5/3 6/85/3 5/6/3
f 7/8/4 8/84/4 4/9/4
f 13/11/1 15/14/1 11/12/1
f 12/13/2 16/11/2 14/14/2
f 10/15/3 14/87/3 13/16/3
f 15/18/4 16/86/4 12/19/4
f 11/21/5 12/181/5 10/22/5
f 21/24/1 23/27/1 19/25/1
f 20/26/2 24/24/2 22/27/2
f 18/28/3 22/92/3 21/29/3
f 23/31/4 24/91/4 20/32/4
f 19/34/5 20/182/5 18/35/5
f 35/49/10 32/183/10 30/50/10
f 40/58/1 42/74/1 38/59/1
f 39/61/2 43/73/2 41/62/2
f 37/64/3 41/99/3 40/65/3
f 38/67/5 39/98/5 37/68/5
f 41/70/11 43/97/11 42/71/11
f 48/73/1 50/62/1 46/63/1
f 47/60/2 51/58/2 49/74/2
f 50/75/4 51/96/4 47/76/4
f 46/78/5 47/101/5 45/79/5
f 49/81/11 51/100/11 50/82/11
f 56/1/1 58/4/1 54/2/1
f 55/3/2 59/1/2 57/4/2
f 53/10/3 57/8/3 56/84/3
f 58/85/4 59/6/4 55/7/4
f 64/11/1 66/14/1 62/12/1
f 63/13/2 67/11/2 65/14/2
f 61/20/3 65/18/3 64/86/3
f 66/87/4 67/16/4 63/17/4
f 62/88/5 63/184/5 61/89/5
f 72/24/1 74/27/1 70/25/1
f 71/26/2 75/24/2 73/27/2
f 69/33/3 73/31/3 72/91/3
f 74/92/4 75/29/4 71/30/4
f 70/93/5 71/185/5 69/94/5
f 83/49/12 86/183/12 84/50/12
f 91/58/1 93/74/1 89/59/1
f 90/61/2 94/73/2 92/62/2
f 88/77/3 92/75/3 91/96/3
f 89/97/5 90/71/5 88/72/5
f 92/69/11 94/67/11 93/98/11
f 99/73/1 101/62/1 97/63/1
f 98/60/2 102/58/2 100/74/2
f 101/99/4 102/65/4 98/66/4
f 97/100/5 98/82/5 96/83/5
f 100/80/11 102/78/11 101/101/11
f 104/55/3 108/86/3 107/87/3
f 109/86/4 110/87/4 106/53/4
f 105/102/5 106/186/5 104/103/5
f 115/105/1 117/108/1 113/106/1
f 114/107/2 118/105/2 116/108/2
f 112/109/3 116/112/3 115/110/3
f 117/112/4 118/110/4 114/111/4
f 113/113/5 114/116/5 112/114/5
f 116/115/11 118/113/11 117/116/11
f 120/117/3 124/120/3 123/118/3
f 125/120/4 126/118/4 122/119/4
f 121/121/5 122/187/5 120/122/5
f 131/124/13 132/127/13 130/125/13
f 129/126/14 132/124/14 131/127/14
f 137/129/1 139/132/1 135/130/1
f 136/131/2 140/129/2 138/132/2
f 134/133/3 138/136/3 137/134/3
f 139/136/4 140/134/4 136/135/4
f 138/137/11 140/188/11 139/138/11
f 145/140/1 147/143/1 143/141/1
f 144/142/2 148/140/2 146/143/2
f 142/144/3 146/147/3 145/145/3
f 147/147/4 148/145/4 144/146/4
f 143/148/5 144/151/5 142/149/5
f 146/150/11 148/148/11 147/151/11
f 153/152/1 155/155/1 151/153/1
f 152/154/2 156/152/2 154/155/2
f 150/156/3 154/163/3 153/157/3
f 155/159/4 156/162/4 152/160/4
f 161/152/1 163/155/1 159/153/1
f 160/154/2 164/152/2 162/155/2
f 158/154/3 162/152/3 161/155/3
f 163/152/4 164/155/4 160/153/4
f 169/152/1 171/155/1 167/153/1
f 168/154/2 172/152/2 170/155/2
f 166/161/3 170/159/3 169/162/3
f 171/163/4 172/157/4 168/158/4
f 174/164/3 178/167/3 177/165/3
f 179/167/4 180/165/4 176/166/4
f 175/168/5 176/189/5 174/169/5
f 185/171/15 186/174/15 184/172/15
f 183/173/16 186/171/16 185/174/16
f 184/178/5 183/190/5 182/179/5
