# Blender 5.2.1 LTS
# www.blender.org
mtllib gate.mtl
o gate
v -1.000000 0.000000 0.040000
v 1.000000 0.000000 0.040000
v -1.000000 0.000000 -0.040000
v 1.000000 0.000000 -0.040000
v -1.000000 2.750000 0.040000
v 1.000000 2.750000 0.040000
v -1.000000 2.750000 -0.040000
v 1.000000 2.750000 -0.040000
v -1.000000 0.296875 0.040000
v -1.000000 0.326875 0.060000
v -1.000000 0.423125 0.060000
v -1.000000 0.453125 0.040000
v 1.000000 0.296875 0.040000
v 1.000000 0.326875 0.060000
v 1.000000 0.423125 0.060000
v 1.000000 0.453125 0.040000
v -1.000000 0.296875 -0.040000
v -1.000000 0.326875 -0.060000
v -1.000000 0.423125 -0.060000
v -1.000000 0.453125 -0.040000
v 1.000000 0.296875 -0.040000
v 1.000000 0.326875 -0.060000
v 1.000000 0.423125 -0.060000
v 1.000000 0.453125 -0.040000
v -1.000000 1.296875 0.040000
v -1.000000 1.326875 0.060000
v -1.000000 1.423125 0.060000
v -1.000000 1.453125 0.040000
v 1.000000 1.296875 0.040000
v 1.000000 1.326875 0.060000
v 1.000000 1.423125 0.060000
v 1.000000 1.453125 0.040000
v -1.000000 1.296875 -0.040000
v -1.000000 1.326875 -0.060000
v -1.000000 1.423125 -0.060000
v -1.000000 1.453125 -0.040000
v 1.000000 1.296875 -0.040000
v 1.000000 1.326875 -0.060000
v 1.000000 1.423125 -0.060000
v 1.000000 1.453125 -0.040000
v -1.000000 2.296875 0.040000
v -1.000000 2.326875 0.060000
v -1.000000 2.423125 0.060000
v -1.000000 2.453125 0.040000
v 1.000000 2.296875 0.040000
v 1.000000 2.326875 0.060000
v 1.000000 2.423125 0.060000
v 1.000000 2.453125 0.040000
v -1.000000 2.296875 -0.040000
v -1.000000 2.326875 -0.060000
v -1.000000 2.423125 -0.060000
v -1.000000 2.453125 -0.040000
v 1.000000 2.296875 -0.040000
v 1.000000 2.326875 -0.060000
v 1.000000 2.423125 -0.060000
v 1.000000 2.453125 -0.040000
vn -1.0000 -0.0000 -0.0000
vn 1.0000 -0.0000 -0.0000
vn -0.0000 -0.0000 1.0000
vn -0.0000 -0.0000 -1.0000
vn -0.0000 1.0000 -0.0000
vn -0.0000 -0.5547 0.8321
vn -0.0000 0.5547 0.8321
vn -0.0000 -0.5547 -0.8321
vn -0.0000 0.5547 -0.8321
vn -0.0000 0.5547 0.8320
vn -0.0000 -0.5547 0.8320
vt 0.020000 1.375000
vt -0.020000 0.000000
vt 0.020000 0.000000
vt -0.020000 1.375000
vt 0.500000 0.000000
vt -0.500000 1.375000
vt -0.500000 0.000000
vt 0.500000 1.375000
vt 0.500000 -0.020000
vt -0.500000 0.020000
vt -0.500000 -0.020000
vt 0.500000 0.148438
vt -0.500000 0.163438
vt -0.500000 0.148438
vt 0.500000 0.163438
vt -0.500000 0.211562
vt 0.500000 0.211562
vt -0.500000 0.226562
vt 0.030000 0.163438
vt 0.020000 0.226562
vt 0.020000 0.148438
vt -0.020000 0.226562
vt -0.030000 0.163438
vt -0.020000 0.148438
vt 0.500000 0.226562
vt -0.030000 0.211562
vt 0.030000 0.211562
vt 0.500000 0.648438
vt -0.500000 0.663437
vt -0.500000 0.648438
vt 0.500000 0.663437
vt -0.500000 0.711563
vt 0.500000 0.711563
vt -0.500000 0.726562
vt 0.030000 0.663437
vt 0.020000 0.726562
vt 0.020000 0.648438
vt -0.020000 0.726562
vt -0.030000 0.663437
vt -0.020000 0.648438
vt 0.500000 0.726562
vt -0.030000 0.711563
vt 0.030000 0.711563
vt 0.500000 1.148438
vt -0.500000 1.163437
vt -0.500000 1.148438
vt 0.500000 1.163437
vt -0.500000 1.211563
vt 0.500000 1.211563
vt -0.500000 1.226562
vt 0.030000 1.163437
vt 0.020000 1.226562
vt 0.020000 1.148438
vt -0.020000 1.226562
vt -0.030000 1.163437
vt -0.020000 1.148438
vt 0.500000 1.226562
vt -0.030000 1.211563
vt 0.030000 1.211563
vt 0.500000 0.020000
s 0
usemtl gate_wood
f 5/1/1 3/2/1 1/3/1
f 4/3/2 6/4/2 2/2/2
f 2/5/3 5/6/3 1/7/3
f 7/8/4 4/7/4 3/5/4
f 6/9/5 7/10/5 5/11/5
f 13/12/6 10/13/6 9/14/6
f 14/15/3 11/16/3 10/13/3
f 15/17/7 12/18/7 11/16/7
f 10/19/1 12/20/1 9/21/1
f 16/22/2 14/23/2 13/24/2
f 22/13/8 17/12/8 18/15/8
f 23/16/4 18/15/4 19/17/4
f 24/18/9 19/17/9 20/25/9
f 19/26/1 17/24/1 20/22/1
f 23/27/2 21/21/2 22/19/2
f 29/28/6 26/29/6 25/30/6
f 30/31/3 27/32/3 26/29/3
f 31/33/10 28/34/10 27/32/10
f 26/35/1 28/36/1 25/37/1
f 32/38/2 30/39/2 29/40/2
f 38/29/8 33/28/8 34/31/8
f 39/32/4 34/31/4 35/33/4
f 40/34/9 35/33/9 36/41/9
f 35/42/1 33/40/1 36/38/1
f 39/43/2 37/37/2 38/35/2
f 45/44/6 42/45/6 41/46/6
f 46/47/3 43/48/3 42/45/3
f 47/49/10 44/50/10 43/48/10
f 42/51/1 44/52/1 41/53/1
f 48/54/2 46/55/2 45/56/2
f 54/45/8 49/44/8 50/47/8
f 55/48/4 50/47/4 51/49/4
f 56/50/9 51/49/9 52/57/9
f 51/58/1 49/56/1 52/54/1
f 55/59/2 53/53/2 54/51/2
f 5/1/1 7/4/1 3/2/1
f 4/3/2 8/1/2 6/4/2
f 2/5/3 6/8/3 5/6/3
f 7/8/4 8/6/4 4/7/4
f 6/9/5 8/60/5 7/10/5
f 13/12/6 14/15/6 10/13/6
f 14/15/3 15/17/3 11/16/3
f 15/17/7 16/25/7 12/18/7
f 10/19/1 11/27/1 12/20/1
f 16/22/2 15/26/2 14/23/2
f 22/13/8 21/14/8 17/12/8
f 23/16/4 22/13/4 18/15/4
f 24/18/9 23/16/9 19/17/9
f 19/26/1 18/23/1 17/24/1
f 23/27/2 24/20/2 21/21/2
f 29/28/11 30/31/11 26/29/11
f 30/31/3 31/33/3 27/32/3
f 31/33/7 32/41/7 28/34/7
f 26/35/1 27/43/1 28/36/1
f 32/38/2 31/42/2 30/39/2
f 38/29/8 37/30/8 33/28/8
f 39/32/4 38/29/4 34/31/4
f 40/34/9 39/32/9 35/33/9
f 35/42/1 34/39/1 33/40/1
f 39/43/2 40/36/2 37/37/2
f 45/44/11 46/47/11 42/45/11
f 46/47/3 47/49/3 43/48/3
f 47/49/7 48/57/7 44/50/7
f 42/51/1 43/59/1 44/52/1
f 48/54/2 47/58/2 46/55/2
f 54/45/8 53/46/8 49/44/8
f 55/48/4 54/45/4 50/47/4
f 56/50/9 55/48/9 51/49/9
f 51/58/1 50/55/1 49/56/1
f 55/59/2 56/52/2 53/53/2
