# Blender 5.2.1 LTS
# www.blender.org
mtllib gate_lantern.mtl
o gate_lantern
v -0.100000 0.000000 0.100000
v 0.100000 0.000000 0.100000
v -0.100000 0.000000 -0.100000
v 0.100000 0.000000 -0.100000
v -0.100000 0.030000 0.100000
v 0.100000 0.030000 0.100000
v -0.100000 0.030000 -0.100000
v 0.100000 0.030000 -0.100000
v -0.080000 0.030000 0.080000
v 0.080000 0.030000 0.080000
v -0.080000 0.030000 -0.080000
v 0.080000 0.030000 -0.080000
v -0.080000 0.230000 0.080000
v 0.080000 0.230000 0.080000
v -0.080000 0.230000 -0.080000
v 0.080000 0.230000 -0.080000
v -0.092000 0.030000 0.092000
v -0.068000 0.030000 0.092000
v -0.092000 0.030000 0.068000
v -0.068000 0.030000 0.068000
v -0.092000 0.230000 0.092000
v -0.068000 0.230000 0.092000
v -0.092000 0.230000 0.068000
v -0.068000 0.230000 0.068000
v -0.092000 0.030000 -0.068000
v -0.068000 0.030000 -0.068000
v -0.092000 0.030000 -0.092000
v -0.068000 0.030000 -0.092000
v -0.092000 0.230000 -0.068000
v -0.068000 0.230000 -0.068000
v -0.092000 0.230000 -0.092000
v -0.068000 0.230000 -0.092000
v 0.068000 0.030000 0.092000
v 0.092000 0.030000 0.092000
v 0.068000 0.030000 0.068000
v 0.092000 0.030000 0.068000
v 0.068000 0.230000 0.092000
v 0.092000 0.230000 0.092000
v 0.068000 0.230000 0.068000
v 0.092000 0.230000 0.068000
v 0.068000 0.030000 -0.068000
v 0.092000 0.030000 -0.068000
v 0.068000 0.030000 -0.092000
v 0.092000 0.030000 -0.092000
v 0.068000 0.230000 -0.068000
v 0.092000 0.230000 -0.068000
v 0.068000 0.230000 -0.092000
v 0.092000 0.230000 -0.092000
v -0.068000 0.120000 0.088000
v 0.068000 0.120000 0.088000
v -0.068000 0.120000 0.080000
v 0.068000 0.120000 0.080000
v -0.068000 0.140000 0.088000
v 0.068000 0.140000 0.088000
v -0.068000 0.140000 0.080000
v 0.068000 0.140000 0.080000
v -0.068000 0.120000 -0.080000
v 0.068000 0.120000 -0.080000
v -0.068000 0.120000 -0.088000
v 0.068000 0.120000 -0.088000
v -0.068000 0.140000 -0.080000
v 0.068000 0.140000 -0.080000
v -0.068000 0.140000 -0.088000
v 0.068000 0.140000 -0.088000
v -0.088000 0.120000 0.068000
v -0.080000 0.120000 0.068000
v -0.088000 0.120000 -0.068000
v -0.080000 0.120000 -0.068000
v -0.088000 0.140000 0.068000
v -0.080000 0.140000 0.068000
v -0.088000 0.140000 -0.068000
v -0.080000 0.140000 -0.068000
v 0.080000 0.120000 0.068000
v 0.088000 0.120000 0.068000
v 0.080000 0.120000 -0.068000
v 0.088000 0.120000 -0.068000
v 0.080000 0.140000 0.068000
v 0.088000 0.140000 0.068000
v 0.080000 0.140000 -0.068000
v 0.088000 0.140000 -0.068000
v -0.120000 0.230000 0.120000
v 0.120000 0.230000 0.120000
v -0.120000 0.230000 -0.120000
v 0.120000 0.230000 -0.120000
v -0.120000 0.250000 0.120000
v 0.120000 0.250000 0.120000
v -0.120000 0.250000 -0.120000
v 0.120000 0.250000 -0.120000
v -0.110000 0.250000 0.110000
v 0.110000 0.250000 0.110000
v 0.110000 0.250000 -0.110000
v -0.110000 0.250000 -0.110000
v 0.000000 0.330000 0.000000
v -0.015000 0.310000 0.015000
v 0.015000 0.310000 0.015000
v -0.015000 0.310000 -0.015000
v 0.015000 0.310000 -0.015000
v -0.015000 0.360000 0.015000
v 0.015000 0.360000 0.015000
v -0.015000 0.360000 -0.015000
v 0.015000 0.360000 -0.015000
vn -1.0000 -0.0000 -0.0000
vn 1.0000 -0.0000 -0.0000
vn -0.0000 -0.0000 1.0000
vn -0.0000 -0.0000 -1.0000
vn -0.0000 -1.0000 -0.0000
vn -0.0000 1.0000 -0.0000
vn -0.0000 0.8087 0.5882
vn 0.5882 0.8087 -0.0000
vn -0.0000 0.8087 -0.5882
vn -0.5882 0.8087 -0.0000
vt 0.850000 0.515000
vt 0.650000 0.485000
vt 0.850000 0.485000
vt 0.650000 0.515000
vt 0.850000 0.600000
vt 0.650000 0.400000
vt 0.850000 0.400000
vt 0.650000 0.600000
vt 0.330000 0.600000
vt 0.170000 0.400000
vt 0.330000 0.400000
vt 0.170000 0.600000
vt 0.762000 0.600000
vt 0.738000 0.400000
vt 0.762000 0.400000
vt 0.762000 0.400000
vt 0.738000 0.600000
vt 0.738000 0.400000
vt 0.738000 0.600000
vt 0.818000 0.490000
vt 0.682000 0.510000
vt 0.682000 0.490000
vt 0.818000 0.504000
vt 0.682000 0.496000
vt 0.818000 0.496000
vt 0.682000 0.504000
vt 0.818000 0.510000
vt 0.754000 0.568000
vt 0.746000 0.432000
vt 0.754000 0.432000
vt 0.746000 0.568000
vt 0.870000 0.510000
vt 0.630000 0.490000
vt 0.870000 0.490000
vt 0.630000 0.510000
vt 0.870000 0.620000
vt 0.630000 0.380000
vt 0.870000 0.380000
vt 0.630000 0.620000
vt 0.640000 0.454662
vt 0.860000 0.454662
vt 0.750000 0.590676
vt 0.765000 0.525000
vt 0.735000 0.475000
vt 0.765000 0.475000
vt 0.765000 0.475000
vt 0.735000 0.525000
vt 0.735000 0.475000
vt 0.765000 0.485000
vt 0.735000 0.515000
vt 0.735000 0.485000
vt 0.762000 0.600000
vt 0.735000 0.525000
vt 0.765000 0.525000
vt 0.765000 0.515000
s 0
usemtl lantern
f 5/1/1 3/2/1 1/3/1
f 4/3/2 6/4/2 2/2/2
f 2/3/3 5/4/3 1/2/3
f 7/1/4 4/2/4 3/3/4
f 3/5/5 2/6/5 1/7/5
f 6/7/6 7/8/6 5/6/6
f 13/9/1 11/10/1 9/11/1
f 12/11/2 14/12/2 10/10/2
f 10/11/3 13/12/3 9/10/3
f 15/9/4 12/10/4 11/11/4
f 21/13/1 19/14/1 17/15/1
f 20/16/2 22/17/2 18/18/2
f 18/16/3 21/17/3 17/18/3
f 23/13/4 20/14/4 19/15/4
f 29/13/1 27/14/1 25/15/1
f 28/15/2 30/19/2 26/14/2
f 26/16/3 29/17/3 25/18/3
f 31/13/4 28/14/4 27/15/4
f 37/13/1 35/14/1 33/15/1
f 36/16/2 38/17/2 34/18/2
f 34/15/3 37/19/3 33/14/3
f 39/13/4 36/14/4 35/15/4
f 45/13/1 43/14/1 41/15/1
f 44/15/2 46/19/2 42/14/2
f 42/15/3 45/19/3 41/14/3
f 47/13/4 44/14/4 43/15/4
f 50/20/3 53/21/3 49/22/3
f 51/23/5 50/24/5 49/25/5
f 54/25/6 55/26/6 53/24/6
f 63/27/4 60/22/4 59/20/4
f 59/23/5 58/24/5 57/25/5
f 62/25/6 63/26/6 61/24/6
f 69/27/1 67/22/1 65/20/1
f 67/28/5 66/29/5 65/30/5
f 70/30/6 71/31/6 69/29/6
f 76/20/2 78/21/2 74/22/2
f 75/28/5 74/29/5 73/30/5
f 78/30/6 79/31/6 77/29/6
f 85/32/1 83/33/1 81/34/1
f 84/34/2 86/35/2 82/33/2
f 82/34/3 85/35/3 81/33/3
f 87/32/4 84/33/4 83/34/4
f 83/36/5 82/37/5 81/38/5
f 86/38/6 87/39/6 85/37/6
f 89/40/7 90/41/7 93/42/7
f 90/40/8 91/41/8 93/42/8
f 91/40/9 92/41/9 93/42/9
f 92/40/10 89/41/10 93/42/10
f 98/43/1 96/44/1 94/45/1
f 97/46/2 99/47/2 95/48/2
f 95/46/3 98/47/3 94/48/3
f 100/43/4 97/44/4 96/45/4
f 99/49/6 100/50/6 98/51/6
f 5/1/1 7/4/1 3/2/1
f 4/3/2 8/1/2 6/4/2
f 2/3/3 6/1/3 5/4/3
f 7/1/4 8/4/4 4/2/4
f 3/5/5 4/8/5 2/6/5
f 6/7/6 8/5/6 7/8/6
f 13/9/1 15/12/1 11/10/1
f 12/11/2 16/9/2 14/12/2
f 10/11/3 14/9/3 13/12/3
f 15/9/4 16/12/4 12/10/4
f 21/13/1 23/19/1 19/14/1
f 20/16/2 24/52/2 22/17/2
f 18/16/3 22/52/3 21/17/3
f 23/13/4 24/19/4 20/14/4
f 29/13/1 31/19/1 27/14/1
f 28/15/2 32/13/2 30/19/2
f 26/16/3 30/52/3 29/17/3
f 31/13/4 32/19/4 28/14/4
f 37/13/1 39/19/1 35/14/1
f 36/16/2 40/52/2 38/17/2
f 34/15/3 38/13/3 37/19/3
f 39/13/4 40/19/4 36/14/4
f 45/13/1 47/19/1 43/14/1
f 44/15/2 48/13/2 46/19/2
f 42/15/3 46/13/3 45/19/3
f 47/13/4 48/19/4 44/14/4
f 50/20/3 54/27/3 53/21/3
f 51/23/5 52/26/5 50/24/5
f 54/25/6 56/23/6 55/26/6
f 63/27/4 64/21/4 60/22/4
f 59/23/5 60/26/5 58/24/5
f 62/25/6 64/23/6 63/26/6
f 69/27/1 71/21/1 67/22/1
f 67/28/5 68/31/5 66/29/5
f 70/30/6 72/28/6 71/31/6
f 76/20/2 80/27/2 78/21/2
f 75/28/5 76/31/5 74/29/5
f 78/30/6 80/28/6 79/31/6
f 85/32/1 87/35/1 83/33/1
f 84/34/2 88/32/2 86/35/2
f 82/34/3 86/32/3 85/35/3
f 87/32/4 88/35/4 84/33/4
f 83/36/5 84/39/5 82/37/5
f 86/38/6 88/36/6 87/39/6
f 98/43/1 100/53/1 96/44/1
f 97/46/2 101/54/2 99/47/2
f 95/46/3 99/54/3 98/47/3
f 100/43/4 101/53/4 97/44/4
f 99/49/6 101/55/6 100/50/6
