# Blender 5.2.1 LTS
# www.blender.org
mtllib heartstone.mtl
o heartstone
v 0.000000 0.000003 0.000139
v -0.032458 0.093022 0.063452
v 0.006596 0.091625 0.091245
v 0.044892 0.089107 0.061063
v 0.038847 0.087237 -0.047567
v -0.032088 0.090838 -0.044814
v -0.037466 0.292293 0.100105
v 0.025775 0.290155 0.151329
v 0.089691 0.285859 0.096291
v 0.064747 0.283523 -0.082824
v -0.051423 0.289531 -0.072874
v -0.031539 0.526948 0.130722
v 0.047150 0.523373 0.148716
v 0.112619 0.518907 0.089077
v 0.076840 0.516871 -0.102181
v -0.041481 0.523467 -0.068175
v 0.005840 0.722210 0.072960
v 0.055493 0.720098 0.091479
v 0.095808 0.717158 0.045265
v 0.065955 0.716203 -0.077144
v -0.018643 0.720893 -0.054113
v 0.044935 0.898608 -0.022443
v 0.028999 0.020000 0.022337
v 0.099625 0.053341 0.006183
v 0.092719 0.068085 -0.026853
v 0.063916 0.087133 -0.023139
v 0.037574 0.083119 0.051707
v 0.068826 0.056000 0.069182
v 0.212099 0.142547 0.017896
v 0.195231 0.170912 -0.037295
v 0.145930 0.202532 -0.027659
v 0.086804 0.207281 0.094472
v 0.143478 0.156900 0.130166
v 0.310012 0.263316 0.062285
v 0.289282 0.293913 0.008665
v 0.243766 0.327255 0.003729
v 0.174182 0.339290 0.125977
v 0.227407 0.283784 0.186803
v 0.356950 0.385527 0.116903
v 0.355695 0.401576 0.066333
v 0.321843 0.427949 0.057412
v 0.272124 0.436086 0.146297
v 0.300842 0.402257 0.192054
v 0.377124 0.513246 0.163653
v -0.030595 0.020000 -0.029472
v -0.096694 0.047379 -0.041893
v -0.093089 0.063304 -0.019407
v -0.068348 0.077480 -0.018489
v -0.024883 0.074262 -0.062236
v -0.045679 0.048654 -0.085092
v -0.175457 0.134092 -0.085640
v -0.174852 0.161187 -0.042474
v -0.127705 0.187898 -0.041217
v -0.042823 0.178565 -0.131568
v -0.094505 0.125823 -0.170788
v -0.253623 0.243271 -0.139767
v -0.232831 0.276213 -0.105079
v -0.179789 0.299258 -0.114963
v -0.103277 0.285513 -0.205006
v -0.161648 0.234575 -0.235385
v -0.275632 0.346289 -0.207561
v -0.263950 0.369766 -0.180059
v -0.222069 0.383468 -0.195112
v -0.171745 0.371239 -0.259478
v -0.217757 0.335710 -0.275965
v -0.264305 0.443466 -0.291308
v 0.000621 0.000000 -0.039931
v -0.031091 0.008270 -0.092255
v -0.047147 0.026475 -0.081902
v -0.029998 0.043321 -0.068766
v 0.025676 0.038461 -0.065821
v 0.028371 0.007722 -0.086013
v -0.056958 0.053998 -0.184134
v -0.064142 0.087385 -0.162675
v -0.047175 0.120302 -0.138845
v 0.062220 0.103825 -0.137675
v 0.048829 0.047891 -0.176452
v -0.044494 0.126615 -0.275555
v -0.071473 0.161989 -0.254970
v -0.018919 0.182094 -0.235727
v 0.072188 0.161824 -0.239117
v 0.053668 0.108506 -0.276720
v -0.021980 0.189177 -0.350836
v -0.033735 0.216478 -0.333941
v 0.007800 0.227614 -0.321902
v 0.073689 0.209965 -0.326347
v 0.048773 0.173268 -0.353580
v 0.038176 0.248555 -0.413194
vn -0.4771 -0.6022 0.6401
vn 0.4451 -0.6473 0.6188
vn 0.9037 -0.4259 -0.0430
vn -0.0577 -0.4591 -0.8865
vn -0.9434 -0.3316 0.0035
vn -0.5741 -0.1859 0.7974
vn -0.6249 -0.1564 0.7649
vn 0.5850 -0.2701 0.7648
vn 0.6150 -0.2822 0.7363
vn 0.9888 -0.1399 -0.0526
vn 0.9713 -0.1974 -0.1327
vn -0.0457 -0.1440 -0.9885
vn -0.0926 -0.1642 -0.9821
vn -0.9997 -0.0246 -0.0029
vn -0.9930 -0.0851 0.0815
vn -0.6267 0.0661 0.7765
vn -0.2265 -0.1204 0.9665
vn 0.6504 -0.0405 0.7585
vn 0.6705 -0.0532 0.7400
vn 0.9886 -0.0626 -0.1369
vn 0.9780 -0.1019 -0.1819
vn -0.0841 0.0236 -0.9962
vn -0.2790 -0.0650 -0.9581
vn -0.9967 0.0147 0.0802
vn -0.9979 0.0414 0.0492
vn -0.2017 0.2815 0.9381
vn -0.3184 0.3244 0.8907
vn 0.6657 0.2144 0.7147
vn 0.7493 0.1555 0.6437
vn 0.9799 0.0766 -0.1841
vn 0.9710 0.0300 -0.2370
vn -0.2697 0.0994 -0.9578
vn -0.2557 0.1067 -0.9609
vn -0.9786 0.2008 0.0454
vn -0.9772 0.0997 0.1873
vn -0.2829 0.5040 0.8160
vn 0.6989 0.4137 0.5834
vn 0.9553 0.1804 -0.2344
vn -0.2410 0.2532 -0.9369
vn -0.9362 0.3034 0.1772
vn 0.2989 -0.8466 -0.4404
vn -0.3640 -0.3851 -0.8480
vn -0.9134 0.2670 -0.3072
vn -0.6311 -0.2551 0.7326
vn 0.4603 -0.8486 0.2608
vn 0.6194 -0.6606 -0.4243
vn 0.5674 -0.6489 -0.5069
vn -0.1047 0.0355 -0.9939
vn -0.1567 0.0561 -0.9860
vn -0.8563 0.4353 -0.2780
vn -0.7585 0.5239 -0.3876
vn -0.5482 -0.0965 0.8307
vn -0.5681 -0.0575 0.8209
vn 0.5705 -0.7601 0.3110
vn 0.5745 -0.6906 0.4394
vn 0.7806 -0.4259 -0.4575
vn 0.7457 -0.4122 -0.5235
vn -0.0219 0.2601 -0.9653
vn 0.2341 0.1781 -0.9558
vn -0.7292 0.5722 -0.3753
vn -0.6531 0.6213 -0.4329
vn -0.5428 -0.0157 0.8397
vn -0.6186 0.2301 0.7513
vn 0.6038 -0.6560 0.4529
vn 0.6017 -0.6218 0.5014
vn 0.8396 -0.2635 -0.4750
vn 0.9436 -0.3082 -0.1212
vn 0.2926 0.2633 -0.9193
vn 0.4073 0.2232 -0.8856
vn -0.5975 0.6903 -0.4081
vn -0.6071 0.6852 -0.4023
vn -0.5565 0.3108 0.7705
vn -0.5775 0.4400 0.6877
vn 0.6813 -0.5004 0.5342
vn 0.6692 -0.4413 0.5979
vn 0.9890 -0.1319 -0.0664
vn 0.5550 0.4834 -0.6769
vn -0.5136 0.7795 -0.3586
vn -0.4966 0.5193 0.6956
vn 0.7171 -0.3367 0.6103
vn -0.4035 -0.7150 0.5710
vn 0.0519 -0.1544 0.9866
vn 0.6830 0.3235 0.6548
vn 0.8526 -0.3329 -0.4027
vn -0.2942 -0.8798 -0.3734
vn -0.7289 -0.4982 0.4697
vn -0.7749 -0.5304 0.3438
vn -0.1165 0.1397 0.9833
vn -0.1070 0.1425 0.9840
vn 0.6319 0.5015 0.5909
vn 0.6650 0.4759 0.5756
vn 0.8036 -0.1352 -0.5796
vn 0.7439 -0.2765 -0.6084
vn -0.4548 -0.6944 -0.5576
vn -0.5021 -0.7652 -0.4030
vn -0.9138 -0.3381 0.2250
vn -0.7377 -0.2100 0.6416
vn -0.2719 0.4397 0.8560
vn -0.0364 0.4635 0.8853
vn 0.5818 0.6576 0.4787
vn 0.6488 0.6072 0.4586
vn 0.6409 -0.0589 -0.7654
vn 0.5871 -0.2058 -0.7830
vn -0.5783 -0.6551 -0.4862
vn -0.5763 -0.6500 -0.4953
vn -0.8849 0.0742 0.4599
vn -0.9313 0.0393 0.3621
vn -0.1401 0.6448 0.7514
vn 0.0673 0.6375 0.7675
vn 0.5843 0.7130 0.3876
vn 0.6386 0.6740 0.3713
vn 0.5049 -0.0652 -0.8607
vn 0.4566 -0.1878 -0.8696
vn -0.6416 -0.5126 -0.5706
vn -0.6709 -0.5650 -0.4803
vn -0.9481 0.2637 0.1777
vn -0.0740 0.8313 0.5509
vn 0.5347 0.8022 0.2656
vn 0.3313 0.0088 -0.9435
vn -0.7306 -0.3949 -0.5571
vn -0.6389 -0.7190 0.2736
vn -0.6413 0.0561 0.7652
vn 0.0046 0.5563 0.8309
vn 0.8495 -0.2356 0.4721
vn 0.0078 -0.9870 -0.1607
vn -0.7924 -0.5555 -0.2522
vn -0.9502 -0.2852 0.1256
vn -0.7586 0.3379 0.5571
vn -0.9108 0.2140 0.3530
vn 0.0279 0.7323 0.6804
vn 0.0949 0.6816 0.7255
vn 0.9785 -0.0462 0.2009
vn 0.9270 -0.3366 0.1653
vn 0.0395 -0.8901 -0.4541
vn -0.0229 -0.9117 -0.4101
vn -0.9832 -0.1722 -0.0611
vn -0.8231 -0.3847 -0.4178
vn -0.8952 0.4450 0.0227
vn -0.4675 0.6690 0.5779
vn 0.1236 0.8562 0.5017
vn 0.1989 0.7989 0.5676
vn 0.9798 -0.1884 -0.0666
vn 0.9564 -0.2840 -0.0684
vn -0.0000 -0.7830 -0.6220
vn -0.1613 -0.8411 -0.5163
vn -0.7826 -0.2706 -0.5607
vn -0.9074 -0.1471 -0.3936
vn -0.4367 0.8443 0.3106
vn -0.3459 0.8414 0.4152
vn 0.2079 0.8549 0.4754
vn 0.2543 0.8204 0.5122
vn 0.9596 -0.1820 -0.2145
vn 0.8753 -0.4296 -0.2220
vn -0.1442 -0.7394 -0.6576
vn -0.1943 -0.7562 -0.6248
vn -0.7540 0.0789 -0.6522
vn -0.2897 0.9494 0.1214
vn 0.2657 0.9166 0.2987
vn 0.8558 -0.2417 -0.4573
vn -0.1703 -0.6263 -0.7607
vt 0.209459 -0.081056
vt 0.311005 0.114041
vt 0.229536 0.117015
vt 0.276622 -0.084360
vt 0.278094 0.114372
vt 0.195283 0.119988
vt 0.759735 -0.060445
vt 0.837608 0.103465
vt 0.652658 0.106980
vt 0.757233 -0.063584
vt 0.806703 0.110238
vt 0.686064 0.103346
vt 0.739731 -0.060431
vt 0.847159 0.107183
vt 0.663110 0.103248
vt 0.179263 0.039983
vt 0.260673 0.037044
vt 0.349197 0.379909
vt 0.210868 0.383064
vt 0.212895 0.037029
vt 0.295779 0.033209
vt 0.317324 0.380761
vt 0.174002 0.389002
vt 0.660761 0.041072
vt 0.845494 0.039541
vt 0.900502 0.376828
vt 0.593243 0.382559
vt 0.694524 0.036662
vt 0.815121 0.043411
vt 0.844279 0.384859
vt 0.646076 0.375068
vt 0.654965 0.038385
vt 0.838762 0.042693
vt 0.900575 0.381519
vt 0.605698 0.377403
vt 0.166931 0.252455
vt 0.301764 0.249695
vt 0.332458 0.645448
vt 0.198847 0.652402
vt 0.161427 0.255225
vt 0.304807 0.248010
vt 0.342150 0.644534
vt 0.191616 0.652231
vt 0.587573 0.252778
vt 0.894924 0.249413
vt 0.924096 0.646858
vt 0.593408 0.650950
vt 0.661757 0.246030
vt 0.858958 0.256682
vt 0.843831 0.654034
vt 0.635454 0.643254
vt 0.587102 0.248347
vt 0.882080 0.253184
vt 0.934667 0.652125
vt 0.596151 0.646345
vt 0.175426 0.517502
vt 0.312544 0.513305
vt 0.300865 0.861629
vt 0.211165 0.867564
vt 0.146694 0.523530
vt 0.297008 0.514454
vt 0.330189 0.859132
vt 0.226109 0.862883
vt 0.574424 0.522677
vt 0.905123 0.518800
vt 0.867267 0.858653
vt 0.653186 0.859870
vt 0.645853 0.514787
vt 0.855128 0.526185
vt 0.824035 0.863460
vt 0.674985 0.855569
vt 0.596811 0.519407
vt 0.934885 0.522351
vt 0.843729 0.861782
vt 0.624574 0.856461
vt 0.216756 0.785650
vt 0.306822 0.781492
vt 0.226422 1.132858
vt 0.169530 0.790722
vt 0.273762 0.785233
vt 0.306709 1.124045
vt 0.634470 0.796014
vt 0.848663 0.794363
vt 0.766866 1.109623
vt 0.681063 0.790408
vt 0.830099 0.798650
vt 0.738838 1.110942
vt 0.652334 0.793531
vt 0.872329 0.795881
vt 0.725337 1.110588
vt 0.292190 -0.036694
vt 0.249533 0.116895
vt 0.208277 0.069799
vt 0.322523 -0.020747
vt 0.237481 0.102917
vt 0.189996 0.067830
vt 0.766506 -0.026591
vt 0.809184 0.084754
vt 0.674310 0.091836
vt 0.701031 -0.008090
vt 0.804305 0.055205
vt 0.744663 0.102885
vt 0.734272 -0.024274
vt 0.817360 0.082864
vt 0.698368 0.091410
vt 0.282610 0.084041
vt 0.333578 0.120232
vt 0.237341 0.348197
vt 0.146470 0.287530
vt 0.303868 0.100985
vt 0.353236 0.133305
vt 0.214083 0.329814
vt 0.128813 0.275896
vt 0.690138 0.093560
vt 0.824667 0.092461
vt 0.857843 0.328256
vt 0.627351 0.325723
vt 0.651347 0.137288
vt 0.711982 0.090923
vt 0.875230 0.263035
vt 0.761440 0.348753
vt 0.671404 0.102031
vt 0.789310 0.086267
vt 0.881322 0.312997
vt 0.657964 0.338705
vt 0.279213 0.308409
vt 0.373638 0.363353
vt 0.221439 0.591852
vt 0.125709 0.536386
vt 0.293803 0.313013
vt 0.375388 0.371029
vt 0.204320 0.585603
vt 0.126489 0.530355
vt 0.651768 0.305157
vt 0.881716 0.322551
vt 0.852813 0.595249
vt 0.613703 0.577043
vt 0.612384 0.381242
vt 0.725945 0.297163
vt 0.897925 0.512206
vt 0.763746 0.609388
vt 0.624551 0.331428
vt 0.846558 0.295182
vt 0.890994 0.566378
vt 0.637897 0.607013
vt 0.262225 0.563457
vt 0.359914 0.612453
vt 0.229803 0.808960
vt 0.148058 0.775129
vt 0.286529 0.568759
vt 0.361859 0.628515
vt 0.205400 0.803854
vt 0.146212 0.758872
vt 0.646528 0.560663
vt 0.884970 0.587974
vt 0.820520 0.815657
vt 0.647982 0.795706
vt 0.618210 0.640689
vt 0.752915 0.542932
vt 0.857463 0.755573
vt 0.771411 0.820807
vt 0.610716 0.595183
vt 0.863348 0.551924
vt 0.842590 0.792082
vt 0.683346 0.820811
vt 0.248559 0.817813
vt 0.334477 0.845337
vt 0.166965 1.036849
vt 0.276317 0.810640
vt 0.330435 0.861856
vt 0.143248 1.027504
vt 0.661149 0.815473
vt 0.833429 0.837558
vt 0.755422 1.046969
vt 0.667550 0.871269
vt 0.752480 0.803976
vt 0.829970 1.024755
vt 0.656690 0.843276
vt 0.815802 0.813071
vt 0.777508 1.043653
vt 0.310283 -0.007287
vt 0.233391 0.098004
vt 0.206326 0.059283
vt 0.307354 -0.007804
vt 0.242283 0.091098
vt 0.200363 0.066706
vt 0.753655 -0.016919
vt 0.800582 0.080569
vt 0.695763 0.086350
vt 0.702445 0.000172
vt 0.798894 0.051830
vt 0.748661 0.097998
vt 0.737727 -0.016787
vt 0.812922 0.081114
vt 0.699351 0.085673
vt 0.287975 0.103472
vt 0.324792 0.132825
vt 0.226504 0.329987
vt 0.160729 0.273716
vt 0.290785 0.108420
vt 0.332757 0.132721
vt 0.228174 0.322386
vt 0.148284 0.276472
vt 0.690215 0.109499
vt 0.794887 0.101864
vt 0.862781 0.305940
vt 0.652117 0.322696
vt 0.654459 0.152331
vt 0.706852 0.109100
vt 0.872695 0.242439
vt 0.765994 0.336130
vt 0.696265 0.102080
vt 0.809207 0.109973
vt 0.847129 0.318901
vt 0.647400 0.309046
vt 0.288280 0.323915
vt 0.353593 0.377521
vt 0.213392 0.575650
vt 0.144735 0.522914
vt 0.266224 0.319114
vt 0.345582 0.364754
vt 0.237113 0.582748
vt 0.151081 0.533384
vt 0.624457 0.343052
vt 0.834100 0.317119
vt 0.871018 0.557528
vt 0.670425 0.582300
vt 0.615923 0.402103
vt 0.726192 0.312920
vt 0.883861 0.498167
vt 0.774025 0.586810
vt 0.648711 0.318859
vt 0.848135 0.336716
vt 0.864138 0.582312
vt 0.639015 0.562113
vt 0.280372 0.578140
vt 0.348732 0.634478
vt 0.210834 0.793563
vt 0.160062 0.753819
vt 0.240943 0.568876
vt 0.329839 0.613388
vt 0.249306 0.807488
vt 0.179912 0.770248
vt 0.627182 0.607611
vt 0.825988 0.570829
vt 0.842496 0.778363
vt 0.704333 0.803197
vt 0.628156 0.653241
vt 0.739967 0.566832
vt 0.856906 0.739164
vt 0.774971 0.800763
vt 0.652236 0.576248
vt 0.877049 0.598447
vt 0.811509 0.800938
vt 0.659206 0.784367
vt 0.278925 0.829122
vt 0.328536 0.870496
vt 0.142539 1.000381
vt 0.236199 0.810901
vt 0.303360 0.852805
vt 0.210441 1.036293
vt 0.666476 0.854659
vt 0.802534 0.819836
vt 0.780990 1.025505
vt 0.666840 0.879204
vt 0.749929 0.818802
vt 0.833232 1.001994
vt 0.690211 0.827011
vt 0.842339 0.846587
vt 0.717450 1.026402
vt 0.316849 0.021670
vt 0.219293 0.086431
vt 0.213858 0.041899
vt 0.309817 0.010387
vt 0.238436 0.084148
vt 0.201747 0.055465
vt 0.752981 -0.005771
vt 0.795818 0.072914
vt 0.701201 0.082857
vt 0.699816 0.023071
vt 0.791208 0.036580
vt 0.758977 0.090349
vt 0.745060 -0.006324
vt 0.803210 0.081053
vt 0.701730 0.075270
vt 0.313870 0.140974
vt 0.332058 0.180108
vt 0.195404 0.287749
vt 0.158667 0.231170
vt 0.297177 0.133316
vt 0.330292 0.165136
vt 0.210856 0.298729
vt 0.161674 0.242819
vt 0.688857 0.133434
vt 0.782505 0.117318
vt 0.856722 0.277312
vt 0.671915 0.311936
vt 0.660447 0.189388
vt 0.695030 0.138216
vt 0.852554 0.205900
vt 0.791969 0.306496
vt 0.697259 0.119290
vt 0.798331 0.129397
vt 0.842115 0.303875
vt 0.662294 0.287438
vt 0.306453 0.357140
vt 0.344886 0.411864
vt 0.197458 0.549319
vt 0.151202 0.481678
vt 0.292361 0.352327
vt 0.341644 0.400509
vt 0.218280 0.556699
vt 0.147716 0.490465
vt 0.621570 0.388976
vt 0.799272 0.327788
vt 0.864633 0.516002
vt 0.714525 0.567233
vt 0.631246 0.446464
vt 0.698590 0.349785
vt 0.868062 0.454654
vt 0.802102 0.549097
vt 0.680122 0.334002
vt 0.856530 0.370432
vt 0.814476 0.565114
vt 0.648872 0.530451
vt 0.292731 0.607258
vt 0.346197 0.670703
vt 0.197983 0.763934
vt 0.163089 0.718105
vt 0.242181 0.582411
vt 0.326075 0.638611
vt 0.247014 0.791052
vt 0.184731 0.747926
vt 0.636658 0.650971
vt 0.779611 0.581966
vt 0.844270 0.738495
vt 0.739461 0.788568
vt 0.647070 0.685525
vt 0.716515 0.594161
vt 0.845599 0.705861
vt 0.790816 0.774453
vt 0.692261 0.583621
vt 0.854391 0.633640
vt 0.785506 0.789840
vt 0.667842 0.752900
vt 0.287428 0.850728
vt 0.322223 0.897285
vt 0.140349 0.951987
vt 0.260289 0.822044
vt 0.306449 0.882311
vt 0.183262 0.995645
vt 0.673185 0.895332
vt 0.761899 0.820274
vt 0.814916 0.984394
vt 0.676845 0.898895
vt 0.737641 0.834604
vt 0.835513 0.966502
vt 0.712057 0.833709
vt 0.830450 0.868401
vt 0.707493 0.997889
s 0
usemtl splinter
f 1/1/1 3/2/1 2/3/1
f 1/4/2 4/5/2 3/6/2
f 1/7/3 5/8/3 4/9/3
f 1/10/4 6/11/4 5/12/4
f 1/13/5 2/14/5 6/15/5
f 2/16/6 3/17/6 8/18/6
f 2/16/7 8/18/7 7/19/7
f 3/20/8 4/21/8 9/22/8
f 3/20/9 9/22/9 8/23/9
f 4/24/10 5/25/10 10/26/10
f 4/24/11 10/26/11 9/27/11
f 5/28/12 6/29/12 11/30/12
f 5/28/13 11/30/13 10/31/13
f 6/32/14 2/33/14 7/34/14
f 6/32/15 7/34/15 11/35/15
f 7/36/16 8/37/16 13/38/16
f 7/36/17 13/38/17 12/39/17
f 8/40/18 9/41/18 14/42/18
f 8/40/19 14/42/19 13/43/19
f 9/44/20 10/45/20 15/46/20
f 9/44/21 15/46/21 14/47/21
f 10/48/22 11/49/22 16/50/22
f 10/48/23 16/50/23 15/51/23
f 11/52/24 7/53/24 12/54/24
f 11/52/25 12/54/25 16/55/25
f 12/56/26 13/57/26 18/58/26
f 12/56/27 18/58/27 17/59/27
f 13/60/28 14/61/28 19/62/28
f 13/60/29 19/62/29 18/63/29
f 14/64/30 15/65/30 20/66/30
f 14/64/31 20/66/31 19/67/31
f 15/68/32 16/69/32 21/70/32
f 15/68/33 21/70/33 20/71/33
f 16/72/34 12/73/34 17/74/34
f 16/72/35 17/74/35 21/75/35
f 17/76/36 18/77/36 22/78/36
f 18/79/37 19/80/37 22/81/37
f 19/82/38 20/83/38 22/84/38
f 20/85/39 21/86/39 22/87/39
f 21/88/40 17/89/40 22/90/40
f 23/91/41 25/92/41 24/93/41
f 23/94/42 26/95/42 25/96/42
f 23/97/43 27/98/43 26/99/43
f 23/100/44 28/101/44 27/102/44
f 23/103/45 24/104/45 28/105/45
f 24/106/46 25/107/46 30/108/46
f 24/106/47 30/108/47 29/109/47
f 25/110/48 26/111/48 31/112/48
f 25/110/49 31/112/49 30/113/49
f 26/114/50 27/115/50 32/116/50
f 26/114/51 32/116/51 31/117/51
f 27/118/52 28/119/52 33/120/52
f 27/118/53 33/120/53 32/121/53
f 28/122/54 24/123/54 29/124/54
f 28/122/55 29/124/55 33/125/55
f 29/126/56 30/127/56 35/128/56
f 29/126/57 35/128/57 34/129/57
f 30/130/58 31/131/58 36/132/58
f 30/130/59 36/132/59 35/133/59
f 31/134/60 32/135/60 37/136/60
f 31/134/61 37/136/61 36/137/61
f 32/138/62 33/139/62 38/140/62
f 32/138/63 38/140/63 37/141/63
f 33/142/64 29/143/64 34/144/64
f 33/142/65 34/144/65 38/145/65
f 34/146/66 35/147/66 40/148/66
f 34/146/67 40/148/67 39/149/67
f 35/150/68 36/151/68 41/152/68
f 35/150/69 41/152/69 40/153/69
f 36/154/70 37/155/70 42/156/70
f 36/154/71 42/156/71 41/157/71
f 37/158/72 38/159/72 43/160/72
f 37/158/73 43/160/73 42/161/73
f 38/162/74 34/163/74 39/164/74
f 38/162/75 39/164/75 43/165/75
f 39/166/76 40/167/76 44/168/76
f 40/169/77 41/170/77 44/171/77
f 41/172/78 42/173/78 44/174/78
f 42/175/79 43/176/79 44/177/79
f 43/178/80 39/179/80 44/180/80
f 45/181/81 47/182/81 46/183/81
f 45/184/82 48/185/82 47/186/82
f 45/187/83 49/188/83 48/189/83
f 45/190/84 50/191/84 49/192/84
f 45/193/85 46/194/85 50/195/85
f 46/196/86 47/197/86 52/198/86
f 46/196/87 52/198/87 51/199/87
f 47/200/88 48/201/88 53/202/88
f 47/200/89 53/202/89 52/203/89
f 48/204/90 49/205/90 54/206/90
f 48/204/91 54/206/91 53/207/91
f 49/208/92 50/209/92 55/210/92
f 49/208/93 55/210/93 54/211/93
f 50/212/94 46/213/94 51/214/94
f 50/212/95 51/214/95 55/215/95
f 51/216/96 52/217/96 57/218/96
f 51/216/97 57/218/97 56/219/97
f 52/220/98 53/221/98 58/222/98
f 52/220/99 58/222/99 57/223/99
f 53/224/100 54/225/100 59/226/100
f 53/224/101 59/226/101 58/227/101
f 54/228/102 55/229/102 60/230/102
f 54/228/103 60/230/103 59/231/103
f 55/232/104 51/233/104 56/234/104
f 55/232/105 56/234/105 60/235/105
f 56/236/106 57/237/106 62/238/106
f 56/236/107 62/238/107 61/239/107
f 57/240/108 58/241/108 63/242/108
f 57/240/109 63/242/109 62/243/109
f 58/244/110 59/245/110 64/246/110
f 58/244/111 64/246/111 63/247/111
f 59/248/112 60/249/112 65/250/112
f 59/248/113 65/250/113 64/251/113
f 60/252/114 56/253/114 61/254/114
f 60/252/115 61/254/115 65/255/115
f 61/256/116 62/257/116 66/258/116
f 62/259/117 63/260/117 66/261/117
f 63/262/118 64/263/118 66/264/118
f 64/265/119 65/266/119 66/267/119
f 65/268/120 61/269/120 66/270/120
f 67/271/121 69/272/121 68/273/121
f 67/274/122 70/275/122 69/276/122
f 67/277/123 71/278/123 70/279/123
f 67/280/124 72/281/124 71/282/124
f 67/283/125 68/284/125 72/285/125
f 68/286/126 69/287/126 74/288/126
f 68/286/127 74/288/127 73/289/127
f 69/290/128 70/291/128 75/292/128
f 69/290/129 75/292/129 74/293/129
f 70/294/130 71/295/130 76/296/130
f 70/294/131 76/296/131 75/297/131
f 71/298/132 72/299/132 77/300/132
f 71/298/133 77/300/133 76/301/133
f 72/302/134 68/303/134 73/304/134
f 72/302/135 73/304/135 77/305/135
f 73/306/136 74/307/136 79/308/136
f 73/306/137 79/308/137 78/309/137
f 74/310/138 75/311/138 80/312/138
f 74/310/139 80/312/139 79/313/139
f 75/314/140 76/315/140 81/316/140
f 75/314/141 81/316/141 80/317/141
f 76/318/142 77/319/142 82/320/142
f 76/318/143 82/320/143 81/321/143
f 77/322/144 73/323/144 78/324/144
f 77/322/145 78/324/145 82/325/145
f 78/326/146 79/327/146 84/328/146
f 78/326/147 84/328/147 83/329/147
f 79/330/148 80/331/148 85/332/148
f 79/330/149 85/332/149 84/333/149
f 80/334/150 81/335/150 86/336/150
f 80/334/151 86/336/151 85/337/151
f 81/338/152 82/339/152 87/340/152
f 81/338/153 87/340/153 86/341/153
f 82/342/154 78/343/154 83/344/154
f 82/342/155 83/344/155 87/345/155
f 83/346/156 84/347/156 88/348/156
f 84/349/157 85/350/157 88/351/157
f 85/352/158 86/353/158 88/354/158
f 86/355/159 87/356/159 88/357/159
f 87/358/160 83/359/160 88/360/160
