# Blender 5.2.1 LTS
# www.blender.org
mtllib lever.mtl
o lever
v -0.080000 -0.150000 0.020000
v 0.080000 -0.150000 0.020000
v -0.080000 -0.150000 0.000000
v 0.080000 -0.150000 0.000000
v -0.080000 0.150000 0.020000
v 0.080000 0.150000 0.020000
v -0.080000 0.150000 0.000000
v 0.080000 0.150000 0.000000
v -0.080000 -0.150000 0.040000
v 0.080000 -0.150000 0.040000
v -0.080000 -0.150000 0.020000
v 0.080000 -0.150000 0.020000
v -0.080000 -0.130000 0.040000
v 0.080000 -0.130000 0.040000
v -0.080000 -0.130000 0.020000
v 0.080000 -0.130000 0.020000
v -0.080000 0.130000 0.040000
v 0.080000 0.130000 0.040000
v -0.080000 0.130000 0.020000
v 0.080000 0.130000 0.020000
v -0.080000 0.150000 0.040000
v 0.080000 0.150000 0.040000
v -0.080000 0.150000 0.020000
v 0.080000 0.150000 0.020000
v -0.080000 -0.130000 0.040000
v -0.060000 -0.130000 0.040000
v -0.080000 -0.130000 0.020000
v -0.060000 -0.130000 0.020000
v -0.080000 0.130000 0.040000
v -0.060000 0.130000 0.040000
v -0.080000 0.130000 0.020000
v -0.060000 0.130000 0.020000
v 0.060000 -0.130000 0.040000
v 0.080000 -0.130000 0.040000
v 0.060000 -0.130000 0.020000
v 0.080000 -0.130000 0.020000
v 0.060000 0.130000 0.040000
v 0.080000 0.130000 0.040000
v 0.060000 0.130000 0.020000
v 0.080000 0.130000 0.020000
v -0.030000 -0.040000 0.070000
v 0.030000 -0.040000 0.070000
v -0.030000 -0.040000 0.020000
v 0.030000 -0.040000 0.020000
v -0.030000 0.040000 0.070000
v 0.030000 0.040000 0.070000
v -0.030000 0.040000 0.020000
v 0.030000 0.040000 0.020000
vn -1.0000 -0.0000 -0.0000
vn 1.0000 -0.0000 -0.0000
vn -0.0000 -0.0000 1.0000
vn -0.0000 -1.0000 -0.0000
vn -0.0000 1.0000 -0.0000
vt 0.040000 0.300000
vt 0.000000 -0.300000
vt 0.040000 -0.300000
vt -0.040000 0.300000
vt -0.040000 -0.300000
vt 0.160000 -0.300000
vt -0.160000 0.300000
vt -0.160000 -0.300000
vt 0.160000 0.000000
vt -0.160000 -0.040000
vt 0.160000 -0.040000
vt -0.160000 0.000000
vt 0.080000 -0.260000
vt 0.080000 -0.300000
vt -0.080000 -0.260000
vt -0.080000 -0.300000
vt -0.160000 -0.260000
vt -0.160000 -0.080000
vt 0.160000 -0.080000
vt 0.080000 0.300000
vt 0.040000 0.260000
vt 0.080000 0.260000
vt -0.040000 0.260000
vt -0.080000 0.300000
vt -0.080000 0.260000
vt 0.160000 0.260000
vt -0.160000 0.260000
vt 0.040000 -0.260000
vt -0.040000 -0.260000
vt -0.120000 -0.260000
vt 0.160000 -0.260000
vt 0.120000 0.260000
vt 0.120000 -0.260000
vt 0.140000 0.080000
vt 0.040000 -0.080000
vt 0.140000 -0.080000
vt -0.040000 -0.080000
vt -0.140000 0.080000
vt -0.140000 -0.080000
vt 0.060000 -0.080000
vt -0.060000 0.080000
vt -0.060000 -0.080000
vt 0.060000 -0.040000
vt -0.060000 -0.140000
vt 0.060000 -0.140000
vt -0.060000 -0.040000
vt 0.000000 0.300000
vt 0.160000 0.300000
vt -0.120000 0.260000
vt 0.040000 0.080000
vt -0.040000 0.080000
vt 0.060000 0.080000
s 0
usemtl lever_iron
f 5/1/1 3/2/1 1/3/1
f 4/2/2 6/4/2 2/5/2
f 2/6/3 5/7/3 1/8/3
f 3/9/4 2/10/4 1/11/4
f 6/11/5 7/12/5 5/10/5
f 13/13/1 11/3/1 9/14/1
f 12/5/2 14/15/2 10/16/2
f 10/6/3 13/17/3 9/8/3
f 11/11/4 10/18/4 9/19/4
f 14/19/5 15/10/5 13/18/5
f 21/20/1 19/21/1 17/22/1
f 20/23/2 22/24/2 18/25/2
f 18/26/3 21/7/3 17/27/3
f 19/11/4 18/18/4 17/19/4
f 22/19/5 23/10/5 21/18/5
f 29/22/1 27/28/1 25/13/1
f 28/29/2 30/25/2 26/15/2
f 26/30/3 29/27/3 25/17/3
f 37/22/1 35/28/1 33/13/1
f 36/29/2 38/25/2 34/15/2
f 34/31/3 37/32/3 33/33/3
f 45/34/1 43/35/1 41/36/1
f 44/37/2 46/38/2 42/39/2
f 42/40/3 45/41/3 41/42/3
f 43/43/4 42/44/4 41/45/4
f 46/45/5 47/46/5 45/44/5
f 5/1/1 7/47/1 3/2/1
f 4/2/2 8/47/2 6/4/2
f 2/6/3 6/48/3 5/7/3
f 3/9/4 4/12/4 2/10/4
f 6/11/5 8/9/5 7/12/5
f 13/13/1 15/28/1 11/3/1
f 12/5/2 16/29/2 14/15/2
f 10/6/3 14/31/3 13/17/3
f 11/11/4 12/10/4 10/18/4
f 14/19/5 16/11/5 15/10/5
f 21/20/1 23/1/1 19/21/1
f 20/23/2 24/4/2 22/24/2
f 18/26/3 22/48/3 21/7/3
f 19/11/4 20/10/4 18/18/4
f 22/19/5 24/11/5 23/10/5
f 29/22/1 31/21/1 27/28/1
f 28/29/2 32/23/2 30/25/2
f 26/30/3 30/49/3 29/27/3
f 37/22/1 39/21/1 35/28/1
f 36/29/2 40/23/2 38/25/2
f 34/31/3 38/26/3 37/32/3
f 45/34/1 47/50/1 43/35/1
f 44/37/2 48/51/2 46/38/2
f 42/40/3 46/52/3 45/41/3
f 43/43/4 44/46/4 42/44/4
f 46/45/5 48/43/5 47/46/5
