# Blender 5.2.1 LTS
# www.blender.org
mtllib lever_handle.mtl
o lever_handle
v -0.015000 -0.015000 0.140000
v 0.015000 -0.015000 0.140000
v -0.015000 -0.015000 0.000000
v 0.015000 -0.015000 0.000000
v -0.015000 0.015000 0.140000
v 0.015000 0.015000 0.140000
v -0.015000 0.015000 0.000000
v 0.015000 0.015000 0.000000
v -0.035000 -0.035000 0.200000
v 0.035000 -0.035000 0.200000
v -0.035000 -0.035000 0.130000
v 0.035000 -0.035000 0.130000
v -0.035000 0.035000 0.200000
v 0.035000 0.035000 0.200000
v -0.035000 0.035000 0.130000
v 0.035000 0.035000 0.130000
vn -1.0000 -0.0000 -0.0000
vn 1.0000 -0.0000 -0.0000
vn -0.0000 -1.0000 -0.0000
vn -0.0000 1.0000 -0.0000
vn -0.0000 -0.0000 1.0000
vn -0.0000 -0.0000 -1.0000
vt 0.280000 0.030000
vt 0.000000 -0.030000
vt 0.280000 -0.030000
vt -0.280000 0.030000
vt -0.280000 -0.030000
vt 0.030000 0.000000
vt -0.030000 -0.280000
vt 0.030000 -0.280000
vt -0.030000 0.000000
vt 0.400000 0.070000
vt 0.260000 -0.070000
vt 0.400000 -0.070000
vt -0.260000 -0.070000
vt -0.400000 0.070000
vt -0.400000 -0.070000
vt 0.070000 -0.070000
vt -0.070000 0.070000
vt -0.070000 -0.070000
vt 0.070000 0.070000
vt 0.070000 -0.260000
vt -0.070000 -0.400000
vt 0.070000 -0.400000
vt -0.070000 -0.260000
vt 0.000000 0.030000
vt 0.260000 0.070000
vt -0.260000 0.070000
s 0
usemtl lever_brass
f 5/1/1 3/2/1 1/3/1
f 4/2/2 6/4/2 2/5/2
f 3/6/3 2/7/3 1/8/3
f 6/8/4 7/9/4 5/7/4
f 13/10/1 11/11/1 9/12/1
f 12/13/2 14/14/2 10/15/2
f 10/16/5 13/17/5 9/18/5
f 15/19/6 12/18/6 11/16/6
f 11/20/3 10/21/3 9/22/3
f 14/22/4 15/23/4 13/21/4
f 5/1/1 7/24/1 3/2/1
f 4/2/2 8/24/2 6/4/2
f 3/6/3 4/9/3 2/7/3
f 6/8/4 8/6/4 7/9/4
f 13/10/1 15/25/1 11/11/1
f 12/13/2 16/26/2 14/14/2
f 10/16/5 14/19/5 13/17/5
f 15/19/6 16/17/6 12/18/6
f 11/20/3 12/23/3 10/21/3
f 14/22/4 16/20/4 15/23/4
