# Blender 5.2.1 LTS
# www.blender.org
mtllib milestone.mtl
o milestone
v -0.160000 -0.150000 0.160000
v 0.160000 -0.150000 0.160000
v -0.160000 -0.150000 -0.160000
v 0.160000 -0.150000 -0.160000
v -0.160000 0.080000 0.160000
v 0.160000 0.080000 0.160000
v -0.160000 0.080000 -0.160000
v 0.160000 0.080000 -0.160000
v -0.125000 -0.150000 0.125000
v 0.125000 -0.150000 0.125000
v -0.125000 -0.150000 -0.125000
v 0.125000 -0.150000 -0.125000
v -0.125000 0.500000 0.125000
v 0.125000 0.500000 0.125000
v -0.125000 0.500000 -0.125000
v 0.125000 0.500000 -0.125000
v -0.125000 0.500000 0.125000
v 0.125000 0.500000 0.125000
v 0.125000 0.500000 -0.125000
v -0.125000 0.500000 -0.125000
v -0.070000 0.620000 0.070000
v 0.070000 0.620000 0.070000
v 0.070000 0.620000 -0.070000
v -0.070000 0.620000 -0.070000
vn -1.0000 -0.0000 -0.0000
vn 1.0000 -0.0000 -0.0000
vn -0.0000 -0.0000 1.0000
vn -0.0000 -0.0000 -1.0000
vn -0.0000 1.0000 -0.0000
vn -0.0000 0.4167 0.9091
vn 0.9091 0.4167 -0.0000
vn -0.0000 0.4167 -0.9091
vn -0.9091 0.4167 -0.0000
vt 0.080000 0.040000
vt -0.080000 -0.075000
vt 0.080000 -0.075000
vt -0.080000 0.040000
vt 0.080000 -0.080000
vt -0.080000 0.080000
vt -0.080000 -0.080000
vt 0.062500 0.250000
vt -0.062500 -0.075000
vt 0.062500 -0.075000
vt -0.062500 0.250000
vt 0.062500 0.201225
vt -0.035000 0.267227
vt -0.062500 0.201225
vt 0.035000 -0.035000
vt -0.035000 0.035000
vt -0.035000 -0.035000
vt 0.080000 0.080000
vt 0.035000 0.267227
vt 0.035000 0.035000
s 0
usemtl wall_stone
f 5/1/1 3/2/1 1/3/1
f 4/3/2 6/4/2 2/2/2
f 2/3/3 5/4/3 1/2/3
f 7/1/4 4/2/4 3/3/4
f 6/5/5 7/6/5 5/7/5
f 13/8/1 11/9/1 9/10/1
f 12/10/2 14/11/2 10/9/2
f 10/10/3 13/11/3 9/9/3
f 15/8/4 12/9/4 11/10/4
f 18/12/6 21/13/6 17/14/6
f 19/12/7 22/13/7 18/14/7
f 20/12/8 23/13/8 19/14/8
f 17/12/9 24/13/9 20/14/9
f 22/15/5 24/16/5 21/17/5
f 5/1/1 7/4/1 3/2/1
f 4/3/2 8/1/2 6/4/2
f 2/3/3 6/1/3 5/4/3
f 7/1/4 8/4/4 4/2/4
f 6/5/5 8/18/5 7/6/5
f 13/8/1 15/11/1 11/9/1
f 12/10/2 16/8/2 14/11/2
f 10/10/3 14/8/3 13/11/3
f 15/8/4 16/11/4 12/9/4
f 18/12/6 22/19/6 21/13/6
f 19/12/7 23/19/7 22/13/7
f 20/12/8 24/19/8 23/13/8
f 17/12/9 21/19/9 24/13/9
f 22/15/5 23/20/5 24/16/5
