# Blender 5.2.1 LTS
# www.blender.org
mtllib note.mtl
o note
v -0.150000 -0.200000 0.012000
v 0.150000 -0.200000 0.012000
v -0.150000 -0.200000 0.004000
v 0.150000 -0.200000 0.004000
v -0.150000 0.200000 0.012000
v 0.150000 0.200000 0.012000
v -0.150000 0.200000 0.004000
v 0.150000 0.200000 0.004000
vn -1.0000 -0.0000 -0.0000
vn 1.0000 -0.0000 -0.0000
vn -0.0000 -0.0000 1.0000
vn -0.0000 -1.0000 -0.0000
vn -0.0000 1.0000 -0.0000
vt 0.020000 1.000000
vt 0.000000 -0.000000
vt 0.020000 -0.000000
vt 1.000000 -0.000000
vt 0.980000 1.000000
vt 0.980000 -0.000000
vt -0.000000 1.000000
vt -0.000000 -0.000000
vt -0.000000 0.000000
vt 1.000000 0.020000
vt -0.000000 0.020000
vt 1.000000 0.980000
vt -0.000000 0.980000
vt 0.000000 1.000000
vt 1.000000 1.000000
vt 1.000000 0.000000
s 0
usemtl note_paper
f 5/1/1 3/2/1 1/3/1
f 4/4/2 6/5/2 2/6/2
f 2/4/3 5/7/3 1/8/3
f 3/9/4 2/10/4 1/11/4
f 6/12/5 7/7/5 5/13/5
f 5/1/1 7/14/1 3/2/1
f 4/4/2 8/15/2 6/5/2
f 2/4/3 6/15/3 5/7/3
f 3/9/4 4/16/4 2/10/4
f 6/12/5 8/15/5 7/7/5
