# Blender 5.2.1 LTS
# www.blender.org
mtllib shade_hollow.mtl
o shade_hollow
v -0.054094 1.690000 0.081930
v -0.029275 1.690000 0.097850
v -0.000000 1.690000 0.103440
v 0.029275 1.690000 0.097850
v 0.054094 1.690000 0.081930
v -0.050912 1.810000 0.103966
v -0.027553 1.810000 0.120510
v -0.000000 1.810000 0.126320
v 0.027553 1.810000 0.120510
v 0.050912 1.810000 0.103966
v -0.044548 1.920000 0.089002
v -0.024109 1.920000 0.104025
v -0.000000 1.920000 0.109300
v 0.024109 1.920000 0.104025
v 0.044548 1.920000 0.089002
v 0.498132 0.775547 0.077442
v 0.448635 0.765323 -0.008845
v 0.348797 0.759618 -0.008845
v 0.298458 0.764137 0.077442
v 0.347955 0.774362 0.163729
v 0.447792 0.780067 0.163729
v -0.298458 0.764137 0.077442
v -0.348797 0.759618 -0.008845
v -0.448635 0.765323 -0.008845
v -0.498132 0.775547 0.077442
v -0.447792 0.780067 0.163729
v -0.347955 0.774362 0.163729
vn -0.5347 -0.1389 0.8336
vn -0.1845 -0.1798 0.9662
vn 0.2028 -0.1834 0.9619
vn 0.5719 -0.1443 0.8075
vn -0.5862 0.1424 0.7976
vn -0.2113 0.1513 0.9656
vn 0.2040 0.1497 0.9675
vn 0.5724 0.1390 0.8081
vn 0.0568 -0.9947 0.0853
vn -0.0568 -0.9947 0.0853
vn -0.5719 -0.1443 0.8075
vn -0.2028 -0.1834 0.9619
vn 0.1845 -0.1798 0.9662
vn 0.5347 -0.1389 0.8336
vn -0.5724 0.1390 0.8081
vn -0.2040 0.1497 0.9675
vn 0.2113 0.1513 0.9656
vn 0.5862 0.1424 0.7976
vt 0.687500 0.813636
vt 0.625000 0.868182
vt 0.625000 0.813636
vt 0.750000 0.813636
vt 0.687500 0.868182
vt 0.812500 0.868182
vt 0.750000 0.868182
vt 0.812500 0.813636
vt 0.875000 0.868182
vt 0.687500 0.918182
vt 0.625000 0.918182
vt 0.750000 0.918182
vt 0.812500 0.918182
vt 0.709205 0.880047
vt 0.753036 0.814647
vt 0.787759 0.885306
vt 0.753036 0.905353
vt 0.709205 0.839953
vt 0.787759 0.834694
vt 0.875000 0.813636
vt 0.875000 0.918182
vt 0.746964 0.905353
vt 0.712241 0.834694
vt 0.790795 0.839953
vt 0.790795 0.880047
vt 0.712241 0.885306
vt 0.746964 0.814647
s 0
usemtl shade
f 2/1/1 6/2/1 1/3/1
f 3/4/2 7/5/2 2/1/2
f 3/4/3 9/6/3 8/7/3
f 4/8/4 10/9/4 9/6/4
f 6/2/5 12/10/5 11/11/5
f 7/5/6 13/12/6 12/10/6
f 9/6/7 13/12/7 8/7/7
f 10/9/8 14/13/8 9/6/8
f 20/14/9 18/15/9 16/16/9
f 26/17/10 24/18/10 22/19/10
f 2/1/11 7/5/11 6/2/11
f 3/4/12 8/7/12 7/5/12
f 3/4/13 4/8/13 9/6/13
f 4/8/14 5/20/14 10/9/14
f 6/2/15 7/5/15 12/10/15
f 7/5/16 8/7/16 13/12/16
f 9/6/17 14/13/17 13/12/17
f 10/9/18 15/21/18 14/13/18
f 16/16/9 21/22/9 20/14/9
f 20/14/9 19/23/9 18/15/9
f 18/15/9 17/24/9 16/16/9
f 22/19/10 27/25/10 26/17/10
f 26/17/10 25/26/10 24/18/10
f 24/18/10 23/27/10 22/19/10
