# Blender 5.2.1 LTS
# www.blender.org
mtllib shade.mtl
o shade
v 0.492200 -0.100000 0.000000
v 0.410110 0.040000 -0.142693
v 0.299475 -0.060000 -0.251559
v 0.167233 0.100000 -0.339138
v 0.000000 -0.080000 -0.411381
v -0.170753 0.020000 -0.346277
v -0.285863 0.120000 -0.240125
v -0.419672 -0.050000 -0.146021
v -0.471281 0.070000 -0.000000
v -0.424985 -0.100000 0.147869
v -0.294938 0.000000 0.247748
v -0.167673 0.090000 0.340030
v -0.000000 -0.070000 0.410347
v 0.169433 0.050000 0.343600
v 0.301744 -0.090000 0.253465
v 0.415422 -0.010000 0.144542
v 0.475998 0.000000 0.000000
v 0.385337 0.140000 -0.134074
v 0.296816 0.040000 -0.249326
v 0.170063 0.200000 -0.344878
v 0.000000 0.020000 -0.397839
v -0.160439 0.120000 -0.325361
v -0.283325 0.220000 -0.237993
v -0.426776 0.050000 -0.148492
v -0.455768 0.170000 -0.000000
v -0.399313 0.000000 0.138937
v -0.292319 0.100000 0.245548
v -0.170511 0.190000 0.345786
v -0.000000 0.030000 0.396840
v 0.159199 0.150000 0.322845
v 0.299065 0.010000 0.251215
v 0.422454 0.090000 0.146988
v 0.407714 0.350000 0.000000
v 0.351221 0.350000 -0.119294
v 0.277388 0.350000 -0.227458
v 0.160666 0.350000 -0.318064
v 0.000000 0.350000 -0.334325
v -0.145481 0.350000 -0.288001
v -0.277388 0.350000 -0.227458
v -0.387882 0.350000 -0.131746
v -0.407714 0.350000 -0.000000
v -0.351221 0.350000 0.119294
v -0.277388 0.350000 0.227458
v -0.160666 0.350000 0.318064
v -0.000000 0.350000 0.334325
v 0.145481 0.350000 0.288001
v 0.277388 0.350000 0.227458
v 0.387882 0.350000 0.131746
v 0.337556 0.800000 0.000000
v 0.304439 0.800000 -0.095838
v 0.242145 0.800000 -0.184030
v 0.134122 0.800000 -0.246087
v 0.000000 0.800000 -0.256542
v -0.126103 0.800000 -0.231374
v -0.242145 0.800000 -0.184030
v -0.323799 0.800000 -0.101933
v -0.337556 0.800000 -0.000000
v -0.304439 0.800000 0.095838
v -0.242145 0.800000 0.184030
v -0.134122 0.800000 0.246087
v -0.000000 0.800000 0.256542
v 0.126103 0.800000 0.231374
v 0.242145 0.800000 0.184030
v 0.323799 0.800000 0.101933
v 0.307150 1.200000 0.000000
v 0.283991 1.200000 -0.082343
v 0.221218 1.200000 -0.154853
v 0.119631 1.200000 -0.202170
v 0.000000 1.200000 -0.215005
v -0.117633 1.200000 -0.198794
v -0.221218 1.200000 -0.154853
v -0.288814 1.200000 -0.083742
v -0.307150 1.200000 -0.000000
v -0.283991 1.200000 0.082343
v -0.221218 1.200000 0.154853
v -0.119631 1.200000 0.202170
v -0.000000 1.200000 0.215005
v 0.117633 1.200000 0.198794
v 0.221218 1.200000 0.154853
v 0.288814 1.200000 0.083742
v 0.370000 1.460000 0.000000
v 0.341835 1.460000 -0.084956
v 0.261630 1.460000 -0.156978
v 0.141593 1.460000 -0.205101
v 0.000000 1.460000 -0.222000
v -0.141593 1.460000 -0.205101
v -0.261630 1.460000 -0.156978
v -0.341835 1.460000 -0.084956
v -0.370000 1.460000 -0.000000
v -0.341835 1.460000 0.084956
v -0.261630 1.460000 0.156978
v -0.141593 1.460000 0.205101
v -0.000000 1.460000 0.222000
v 0.141593 1.460000 0.205101
v 0.261630 1.460000 0.156978
v 0.341835 1.460000 0.084956
v 0.310000 1.580000 0.010000
v 0.286403 1.580000 -0.075415
v 0.219203 1.580000 -0.147826
v 0.118632 1.580000 -0.196210
v 0.000000 1.580000 -0.213200
v -0.118632 1.580000 -0.196210
v -0.219203 1.580000 -0.147826
v -0.286403 1.580000 -0.075415
v -0.310000 1.580000 0.010000
v -0.286403 1.580000 0.095415
v -0.219203 1.580000 0.167826
v -0.118632 1.580000 0.216210
v -0.000000 1.580000 0.233200
v 0.118632 1.580000 0.216210
v 0.219203 1.580000 0.167826
v 0.286403 1.580000 0.095415
v 0.255000 1.690000 0.030000
v 0.235589 1.690000 -0.063681
v 0.180312 1.690000 -0.143100
v 0.097584 1.690000 -0.196166
v 0.000000 1.690000 -0.214800
v -0.097584 1.690000 -0.196166
v -0.180312 1.690000 -0.143100
v -0.235589 1.690000 -0.063681
v -0.255000 1.690000 0.030000
v -0.235589 1.690000 0.123681
v -0.054094 1.690000 0.081930
v -0.029275 1.690000 0.097850
v -0.000000 1.690000 0.103440
v 0.029275 1.690000 0.097850
v 0.054094 1.690000 0.081930
v 0.235589 1.690000 0.123681
v 0.240000 1.810000 0.050000
v 0.221731 1.810000 -0.047355
v 0.169706 1.810000 -0.129888
v 0.091844 1.810000 -0.185035
v 0.000000 1.810000 -0.204400
v -0.091844 1.810000 -0.185035
v -0.169706 1.810000 -0.129888
v -0.221731 1.810000 -0.047355
v -0.240000 1.810000 0.050000
v -0.221731 1.810000 0.147355
v -0.050912 1.810000 0.103966
v 0.050912 1.810000 0.103966
v 0.221731 1.810000 0.147355
v 0.210000 1.920000 0.040000
v 0.194015 1.920000 -0.048400
v 0.148492 1.920000 -0.123342
v 0.080364 1.920000 -0.173416
v 0.000000 1.920000 -0.191000
v -0.080364 1.920000 -0.173416
v -0.148492 1.920000 -0.123342
v -0.194015 1.920000 -0.048400
v -0.210000 1.920000 0.040000
v -0.194015 1.920000 0.128400
v -0.044548 1.920000 0.089002
v -0.024109 1.920000 0.104025
v -0.000000 1.920000 0.109300
v 0.024109 1.920000 0.104025
v 0.044548 1.920000 0.089002
v 0.194015 1.920000 0.128400
v 0.150000 2.010000 0.010000
v 0.138582 2.010000 -0.053143
v 0.106066 2.010000 -0.106673
v 0.057403 2.010000 -0.142440
v 0.000000 2.010000 -0.155000
v -0.057403 2.010000 -0.142440
v -0.106066 2.010000 -0.106673
v -0.138582 2.010000 -0.053143
v -0.150000 2.010000 0.010000
v -0.138582 2.010000 0.073143
v -0.106066 2.010000 0.126673
v -0.057403 2.010000 0.162440
v -0.000000 2.010000 0.175000
v 0.057403 2.010000 0.162440
v 0.106066 2.010000 0.126673
v 0.138582 2.010000 0.073143
v 0.080000 2.070000 -0.030000
v 0.073910 2.070000 -0.063676
v 0.056569 2.070000 -0.092225
v 0.030615 2.070000 -0.111301
v 0.000000 2.070000 -0.118000
v -0.030615 2.070000 -0.111301
v -0.056569 2.070000 -0.092225
v -0.073910 2.070000 -0.063676
v -0.080000 2.070000 -0.030000
v -0.073910 2.070000 0.003676
v -0.056569 2.070000 0.032225
v -0.030615 2.070000 0.051301
v -0.000000 2.070000 0.058000
v 0.030615 2.070000 0.051301
v 0.056569 2.070000 0.032225
v 0.073910 2.070000 0.003676
v 0.030000 2.100000 -0.070000
v 0.027716 2.100000 -0.081481
v 0.021213 2.100000 -0.091213
v 0.011481 2.100000 -0.097716
v 0.000000 2.100000 -0.100000
v -0.011481 2.100000 -0.097716
v -0.021213 2.100000 -0.091213
v -0.027716 2.100000 -0.081481
v -0.030000 2.100000 -0.070000
v -0.027716 2.100000 -0.058519
v -0.021213 2.100000 -0.048787
v -0.011481 2.100000 -0.042284
v -0.000000 2.100000 -0.040000
v 0.011481 2.100000 -0.042284
v 0.021213 2.100000 -0.048787
v 0.027716 2.100000 -0.058519
v 0.492200 -0.100000 0.000000
v 0.410110 0.040000 -0.142693
v 0.299475 -0.060000 -0.251559
v 0.167233 0.100000 -0.339138
v 0.000000 -0.080000 -0.411381
v -0.170753 0.020000 -0.346277
v -0.285863 0.120000 -0.240125
v -0.419672 -0.050000 -0.146021
v -0.471281 0.070000 -0.000000
v -0.424985 -0.100000 0.147869
v -0.294938 0.000000 0.247748
v -0.167673 0.090000 0.340030
v -0.000000 -0.070000 0.410347
v 0.169433 0.050000 0.343600
v 0.301744 -0.090000 0.253465
v 0.415422 -0.010000 0.144542
v 0.475998 0.000000 0.000000
v 0.385337 0.140000 -0.134074
v 0.296816 0.040000 -0.249326
v 0.170063 0.200000 -0.344878
v 0.000000 0.020000 -0.397839
v -0.160439 0.120000 -0.325361
v -0.283325 0.220000 -0.237993
v -0.426776 0.050000 -0.148492
v -0.455768 0.170000 -0.000000
v -0.399313 0.000000 0.138937
v -0.292319 0.100000 0.245548
v -0.170511 0.190000 0.345786
v -0.000000 0.030000 0.396840
v 0.159199 0.150000 0.322845
v 0.299065 0.010000 0.251215
v 0.422454 0.090000 0.146988
v 0.407714 0.350000 0.000000
v 0.351221 0.350000 -0.119294
v 0.277388 0.350000 -0.227458
v 0.160666 0.350000 -0.318064
v 0.000000 0.350000 -0.334325
v -0.145481 0.350000 -0.288001
v -0.277388 0.350000 -0.227458
v -0.387882 0.350000 -0.131746
v -0.407714 0.350000 -0.000000
v -0.351221 0.350000 0.119294
v -0.277388 0.350000 0.227458
v -0.160666 0.350000 0.318064
v -0.000000 0.350000 0.334325
v 0.145481 0.350000 0.288001
v 0.277388 0.350000 0.227458
v 0.387882 0.350000 0.131746
v 0.375915 1.451416 -0.000614
v 0.326342 1.437438 -0.048018
v 0.260427 1.426022 -0.027404
v 0.244085 1.428584 0.040614
v 0.293658 1.442562 0.088018
v 0.359573 1.453978 0.067404
v 0.467942 1.098972 0.022763
v 0.401318 1.085037 -0.039873
v 0.313375 1.076065 -0.012636
v 0.292058 1.081028 0.077237
v 0.358682 1.094963 0.139873
v 0.446625 1.103935 0.112636
v 0.509850 0.743375 0.046139
v 0.426004 0.731909 -0.031729
v 0.316154 0.728534 0.002132
v 0.290150 0.736625 0.113861
v 0.373996 0.748091 0.191729
v 0.483846 0.751466 0.157868
v -0.244765 1.425186 -0.000614
v -0.295901 1.431350 -0.048018
v -0.361136 1.446164 -0.027404
v -0.375235 1.454814 0.040614
v -0.324099 1.448650 0.088018
v -0.258864 1.433836 0.067404
v -0.292648 1.076434 0.022763
v -0.360631 1.079806 -0.039873
v -0.447983 1.093372 -0.012636
v -0.467352 1.103566 0.077237
v -0.399369 1.100194 0.139873
v -0.312017 1.086628 0.112636
v -0.290481 0.730839 0.046139
v -0.375087 0.729000 -0.031729
v -0.484606 0.738160 0.002132
v -0.509520 0.749161 0.113861
v -0.424913 0.751000 0.191729
v -0.315394 0.741840 0.157868
vn 0.9130 0.1479 -0.3801
vn 0.6676 0.2265 -0.7093
vn 0.5798 0.0336 -0.8141
vn 0.3575 -0.0636 -0.9317
vn -0.2867 0.1286 -0.9494
vn -0.5477 0.2250 -0.8059
vn -0.5559 0.0318 -0.8306
vn -0.9579 -0.0749 -0.2770
vn -0.8514 0.1321 0.5076
vn -0.7006 0.2399 0.6720
vn -0.6020 0.0333 0.7978
vn -0.3406 -0.0637 0.9381
vn 0.2835 0.1284 0.9504
vn 0.6103 0.2204 0.7609
vn 0.6786 0.0347 0.7337
vn 0.9216 -0.0741 0.3811
vn 0.8904 0.1737 -0.4207
vn 0.8137 0.1713 -0.5554
vn 0.6722 0.0939 -0.7344
vn 0.0990 0.1811 -0.9785
vn -0.3098 0.1797 -0.9337
vn -0.4746 0.1711 -0.8634
vn -0.6520 0.0908 -0.7527
vn -0.9448 0.1391 -0.2968
vn -0.8786 0.2346 0.4161
vn -0.7615 0.1402 0.6328
vn -0.6728 0.0933 0.7339
vn -0.0991 0.1758 0.9794
vn 0.2975 0.1830 0.9370
vn 0.4100 0.1838 0.8934
vn 0.6062 0.0938 0.7897
vn 0.9793 0.1389 0.1474
vn 0.8949 0.1395 -0.4238
vn 0.8114 0.1142 -0.5732
vn 0.4944 0.1218 -0.8606
vn 0.0994 0.1629 -0.9816
vn -0.2994 0.1625 -0.9402
vn -0.3745 0.1316 -0.9178
vn -0.7037 0.1227 -0.6999
vn -0.9778 0.1490 -0.1472
vn -0.8949 0.1395 0.4238
vn -0.8114 0.1142 0.5732
vn -0.4944 0.1218 0.8606
vn -0.0994 0.1629 0.9816
vn 0.2994 0.1625 0.9402
vn 0.3745 0.1316 0.9178
vn 0.7037 0.1227 0.6999
vn 0.9778 0.1490 0.1472
vn 0.9427 0.0717 -0.3258
vn 0.7547 0.0606 -0.6533
vn 0.4206 0.0879 -0.9030
vn 0.0772 0.1116 -0.9908
vn -0.1947 0.1013 -0.9756
vn -0.3892 0.0830 -0.9174
vn -0.7220 0.0878 -0.6863
vn -0.9868 0.0924 -0.1332
vn -0.9427 0.0717 0.3258
vn -0.7547 0.0606 0.6533
vn -0.4206 0.0879 0.9030
vn -0.0772 0.1116 0.9908
vn 0.1947 0.1013 0.9756
vn 0.3892 0.0830 0.9174
vn 0.7220 0.0878 0.6863
vn 0.9868 0.0924 0.1332
vn 0.9252 -0.2236 -0.3067
vn 0.6601 -0.1543 -0.7351
vn 0.3713 -0.0653 -0.9262
vn 0.1185 -0.0212 -0.9927
vn -0.1365 -0.0266 -0.9903
vn -0.3899 -0.0582 -0.9190
vn -0.7198 -0.1175 -0.6842
vn -0.9578 -0.1963 -0.2097
vn -0.9252 -0.2236 0.3067
vn -0.6601 -0.1543 0.7351
vn -0.3713 -0.0653 0.9262
vn -0.1185 -0.0212 0.9927
vn 0.1365 -0.0266 0.9903
vn 0.3899 -0.0582 0.9190
vn 0.7198 -0.1175 0.6842
vn 0.9578 -0.1963 0.2097
vn 0.8487 0.4478 -0.2814
vn 0.6271 0.3452 -0.6983
vn 0.3647 0.1983 -0.9097
vn 0.1180 0.0958 -0.9884
vn -0.1414 0.0724 -0.9873
vn -0.4287 0.1481 -0.8912
vn -0.6999 0.2970 -0.6495
vn -0.8735 0.4227 -0.2413
vn -0.8661 0.4091 0.2871
vn -0.6491 0.2368 0.7229
vn -0.3717 0.0476 0.9271
vn -0.1182 -0.0691 0.9906
vn 0.1412 -0.0920 0.9857
vn 0.4335 -0.0005 0.9011
vn 0.7191 0.1939 0.6673
vn 0.8880 0.3888 0.2453
vn 0.8665 0.4659 -0.1795
vn 0.6779 0.3803 -0.6291
vn 0.4258 0.1886 -0.8850
vn 0.1417 0.0275 -0.9895
vn -0.1875 -0.0143 -0.9822
vn -0.5370 0.1031 -0.8372
vn -0.7829 0.3002 -0.5449
vn -0.8711 0.4281 -0.2407
vn -0.8844 0.3978 0.2443
vn -0.7234 0.1616 0.6713
vn -0.2575 0.8045 0.5353
vn -0.0916 0.7630 0.6399
vn 0.1226 0.7570 0.6418
vn 0.3223 0.8023 0.5024
vn -0.2064 0.3908 0.8971
vn 0.9091 0.3715 0.1884
vn 0.9715 0.1518 -0.1823
vn 0.8340 0.1678 -0.5257
vn 0.5723 0.1396 -0.8081
vn 0.1866 0.0996 -0.9774
vn -0.2056 0.0845 -0.9750
vn -0.5370 0.1033 -0.8372
vn -0.8133 0.1342 -0.5661
vn -0.9697 0.1393 -0.2009
vn -0.9754 0.0882 0.2021
vn 0.2190 -0.2131 0.9522
vn -0.2421 -0.1815 0.9531
vn 0.9799 0.0769 0.1839
vn 0.9532 0.2437 -0.1789
vn 0.8282 0.2037 -0.5221
vn 0.5707 0.1580 -0.8058
vn 0.2047 0.1239 -0.9709
vn -0.2122 0.1182 -0.9700
vn -0.5859 0.1454 -0.7972
vn -0.8388 0.1921 -0.5095
vn -0.9555 0.2391 -0.1728
vn -0.9465 0.2737 0.1711
vn 0.2448 0.1044 0.9639
vn -0.2532 0.1160 0.9604
vn 0.9466 0.2691 0.1776
vn 0.8450 0.5124 -0.1528
vn 0.7647 0.4465 -0.4645
vn 0.5444 0.3938 -0.7407
vn 0.1991 0.3640 -0.9099
vn -0.1991 0.3640 -0.9099
vn -0.5444 0.3938 -0.7407
vn -0.7647 0.4465 -0.4645
vn -0.8450 0.5124 -0.1528
vn -0.8003 0.5818 0.1447
vn -0.6528 0.6455 0.3965
vn -0.4756 -0.5959 0.6471
vn -0.1740 -0.5806 0.7954
vn 0.1740 -0.5806 0.7954
vn 0.4756 -0.5959 0.6471
vn -0.2484 -0.2246 0.9423
vn 0.8003 0.5818 0.1447
vn 0.6857 0.7173 -0.1240
vn 0.6576 0.6387 -0.3995
vn 0.4891 0.5638 -0.6655
vn 0.1831 0.5160 -0.8368
vn -0.1831 0.5160 -0.8368
vn -0.4891 0.5638 -0.6655
vn -0.6576 0.6387 -0.3995
vn -0.6857 0.7173 -0.1240
vn -0.6097 0.7849 0.1103
vn -0.4692 0.8358 0.2850
vn -0.2930 0.8691 0.3986
vn -0.0994 0.8854 0.4541
vn 0.0993 0.8854 0.4541
vn 0.2930 0.8691 0.3986
vn 0.4693 0.8358 0.2850
vn 0.6098 0.7849 0.1103
vn 0.5712 0.8143 -0.1033
vn 0.6020 0.7099 -0.3657
vn 0.4795 0.5870 -0.6523
vn 0.1850 0.5009 -0.8455
vn -0.1681 0.5072 -0.8453
vn -0.4485 0.5901 -0.6713
vn -0.5883 0.7066 -0.3931
vn -0.5716 0.8126 -0.1137
vn -0.4578 0.8844 0.0911
vn -0.3162 0.9249 0.2113
vn -0.1811 0.9454 0.2710
vn -0.0585 0.9541 0.2939
vn 0.0639 0.9542 0.2921
vn 0.1936 0.9451 0.2634
vn 0.3276 0.9236 0.1990
vn 0.4613 0.8833 0.0834
vn -0.0000 1.0000 -0.0000
vn -0.9033 -0.2536 0.3460
vn -0.6850 -0.0345 0.7278
vn -0.5485 0.0634 0.8337
vn -0.2729 -0.1291 0.9533
vn 0.2817 -0.2242 0.9329
vn 0.5618 -0.0319 0.8267
vn 0.5237 0.0582 0.8499
vn 0.9420 -0.1461 0.3020
vn 0.8006 -0.2540 -0.5427
vn 0.7212 -0.0341 -0.6918
vn 0.6061 0.0628 -0.7929
vn 0.2766 -0.1286 -0.9523
vn -0.2683 -0.2220 -0.9374
vn -0.5870 -0.0339 -0.8089
vn -0.6682 0.0651 -0.7411
vn -0.9086 -0.1472 -0.3910
vn -0.8900 -0.1742 0.4214
vn -0.7489 -0.0932 0.6561
vn -0.6035 -0.1768 0.7775
vn -0.1052 -0.1879 0.9765
vn 0.2989 -0.1719 0.9387
vn 0.4154 -0.0923 0.9050
vn 0.6270 -0.1242 0.7690
vn 0.9561 -0.2553 0.1439
vn 0.8421 -0.1449 -0.5194
vn 0.8226 -0.0898 -0.5615
vn 0.6040 -0.1720 -0.7782
vn 0.1132 -0.1905 -0.9751
vn -0.2982 -0.1836 -0.9367
vn -0.5257 -0.0926 -0.8456
vn -0.6492 -0.1303 -0.7494
vn -0.9543 -0.1862 -0.2336
vn 0.6656 0.1250 -0.7358
vn -0.2871 -0.0831 -0.9543
vn -0.9631 -0.1550 -0.2199
vn -0.6883 -0.0186 0.7252
vn 0.2629 0.1903 0.9459
vn 0.9406 0.2618 0.2161
vn 0.6810 0.0322 -0.7316
vn -0.2916 -0.0424 -0.9556
vn -0.9731 -0.0175 -0.2298
vn -0.6842 0.0809 0.7248
vn 0.2867 0.1540 0.9455
vn 0.9678 0.1299 0.2158
vn -0.1954 0.9771 -0.0838
vn 0.6640 -0.1404 -0.7345
vn -0.2945 0.0321 -0.9551
vn -0.9482 0.2240 -0.2250
vn -0.6502 0.2455 0.7190
vn 0.3074 0.0748 0.9486
vn 0.9677 -0.1192 0.2221
vn 0.6770 -0.0454 -0.7345
vn -0.2961 -0.0100 -0.9551
vn -0.9701 0.0907 -0.2252
vn -0.6653 0.1546 0.7304
vn 0.3122 0.1172 0.9428
vn 0.9778 0.0178 0.2087
vn 0.1954 0.9771 -0.0838
vn 0.9033 0.2536 -0.3460
vn 0.6850 0.0345 -0.7278
vn 0.5485 -0.0634 -0.8337
vn 0.2729 0.1291 -0.9533
vn -0.2817 0.2242 -0.9329
vn -0.5618 0.0319 -0.8267
vn -0.5237 -0.0582 -0.8499
vn -0.9420 0.1461 -0.3020
vn -0.8006 0.2540 0.5427
vn -0.7212 0.0341 0.6918
vn -0.6061 -0.0628 0.7929
vn -0.2766 0.1286 0.9523
vn 0.2683 0.2220 0.9374
vn 0.5870 0.0339 0.8089
vn 0.6682 -0.0651 0.7411
vn 0.9086 0.1472 0.3910
vn 0.8900 0.1742 -0.4214
vn 0.7489 0.0932 -0.6561
vn 0.6035 0.1768 -0.7775
vn 0.1052 0.1879 -0.9765
vn -0.2989 0.1719 -0.9387
vn -0.4154 0.0923 -0.9050
vn -0.6270 0.1242 -0.7690
vn -0.9561 0.2553 -0.1439
vn -0.8421 0.1449 0.5194
vn -0.8226 0.0898 0.5615
vn -0.6040 0.1720 0.7782
vn -0.1132 0.1905 0.9751
vn 0.2982 0.1836 0.9367
vn 0.5257 0.0926 0.8456
vn 0.6492 0.1303 0.7494
vn 0.9543 0.1862 0.2336
vn 0.9389 0.1145 -0.3244
vn 0.8201 0.1183 -0.5598
vn 0.6052 0.1604 -0.7797
vn 0.0766 0.1698 -0.9825
vn -0.1940 0.1307 -0.9722
vn -0.4142 0.1195 -0.9023
vn -0.6481 0.1419 -0.7482
vn -0.9794 0.1527 -0.1322
vn -0.9389 0.1145 0.3244
vn -0.8201 0.1183 0.5598
vn -0.6052 0.1604 0.7797
vn -0.0766 0.1698 0.9825
vn 0.1940 0.1307 0.9722
vn 0.4142 0.1195 0.9023
vn 0.6481 0.1419 0.7482
vn 0.9794 0.1527 0.1322
vn 0.9610 0.0582 -0.2703
vn 0.8139 0.0845 -0.5749
vn 0.4950 0.1125 -0.8616
vn 0.1061 0.1027 -0.9890
vn -0.1360 0.0833 -0.9872
vn -0.3763 0.0870 -0.9224
vn -0.7059 0.0937 -0.7021
vn -0.9742 0.0740 -0.2133
vn -0.9610 0.0582 0.2703
vn -0.8139 0.0845 0.5749
vn -0.4950 0.1125 0.8616
vn -0.1061 0.1027 0.9890
vn 0.1360 0.0833 0.9872
vn 0.3763 0.0870 0.9224
vn 0.7059 0.0937 0.7021
vn 0.9742 0.0740 0.2133
vn 0.9408 -0.2120 -0.2646
vn 0.7504 -0.1219 -0.6496
vn 0.4218 -0.0458 -0.9055
vn 0.1066 -0.0267 -0.9939
vn -0.1184 -0.0350 -0.9923
vn -0.3713 -0.0653 -0.9262
vn -0.6617 -0.1384 -0.7369
vn -0.9252 -0.2236 -0.3067
vn -0.9408 -0.2120 0.2646
vn -0.7504 -0.1219 0.6496
vn -0.4218 -0.0458 0.9055
vn -0.1066 -0.0267 0.9939
vn 0.1184 -0.0350 0.9923
vn 0.3713 -0.0653 0.9262
vn 0.6617 -0.1384 0.7369
vn 0.9252 -0.2236 0.3067
vn 0.8735 0.4227 -0.2413
vn 0.6999 0.2970 -0.6495
vn 0.4287 0.1481 -0.8912
vn 0.1414 0.0724 -0.9873
vn -0.1180 0.0958 -0.9884
vn -0.3647 0.1983 -0.9097
vn -0.6271 0.3452 -0.6983
vn -0.8487 0.4478 -0.2814
vn -0.8880 0.3888 0.2453
vn -0.7191 0.1939 0.6673
vn -0.4335 -0.0005 0.9011
vn -0.1412 -0.0920 0.9857
vn 0.1182 -0.0691 0.9906
vn 0.3717 0.0476 0.9271
vn 0.6491 0.2368 0.7229
vn 0.8661 0.4091 0.2871
vn 0.8711 0.4281 -0.2407
vn 0.7829 0.3002 -0.5449
vn 0.5370 0.1031 -0.8372
vn 0.1875 -0.0143 -0.9822
vn -0.1417 0.0275 -0.9895
vn -0.4258 0.1886 -0.8850
vn -0.6779 0.3803 -0.6291
vn -0.8665 0.4659 -0.1795
vn -0.9091 0.3715 0.1884
vn 0.2064 0.3908 0.8971
vn -0.3223 0.8023 0.5024
vn -0.1226 0.7570 0.6418
vn 0.0916 0.7630 0.6399
vn 0.2575 0.8045 0.5353
vn 0.7234 0.1616 0.6713
vn 0.8844 0.3978 0.2443
vn 0.9697 0.1393 -0.2009
vn 0.8133 0.1342 -0.5661
vn 0.5370 0.1033 -0.8372
vn 0.2056 0.0845 -0.9750
vn -0.1866 0.0996 -0.9774
vn -0.5723 0.1396 -0.8081
vn -0.8340 0.1678 -0.5257
vn -0.9715 0.1518 -0.1823
vn -0.9799 0.0769 0.1839
vn 0.2421 -0.1815 0.9531
vn -0.2190 -0.2131 0.9522
vn 0.9754 0.0882 0.2021
vn 0.9555 0.2391 -0.1728
vn 0.8388 0.1921 -0.5095
vn 0.5859 0.1454 -0.7972
vn 0.2122 0.1182 -0.9700
vn -0.2047 0.1239 -0.9709
vn -0.5707 0.1580 -0.8058
vn -0.8282 0.2037 -0.5221
vn -0.9532 0.2437 -0.1789
vn -0.9466 0.2691 0.1776
vn 0.2532 0.1160 0.9604
vn -0.2448 0.1044 0.9639
vn 0.9465 0.2737 0.1711
vn 0.2484 -0.2246 0.9423
vn 0.6528 0.6455 0.3965
vn -0.6098 0.7849 0.1103
vn -0.4693 0.8358 0.2850
vn -0.0993 0.8854 0.4541
vn 0.0994 0.8854 0.4541
vn 0.4692 0.8358 0.2850
vn 0.6097 0.7849 0.1103
vn 0.5716 0.8126 -0.1137
vn 0.5883 0.7066 -0.3931
vn 0.4485 0.5901 -0.6713
vn 0.1681 0.5072 -0.8453
vn -0.1850 0.5009 -0.8455
vn -0.4795 0.5870 -0.6523
vn -0.6020 0.7099 -0.3657
vn -0.5712 0.8143 -0.1033
vn -0.4613 0.8833 0.0834
vn -0.3276 0.9236 0.1990
vn -0.1936 0.9451 0.2634
vn -0.0639 0.9542 0.2921
vn 0.0585 0.9541 0.2939
vn 0.1811 0.9454 0.2710
vn 0.3162 0.9249 0.2113
vn 0.4578 0.8844 0.0911
vn -0.9130 -0.1479 0.3801
vn -0.6676 -0.2265 0.7093
vn -0.5798 -0.0336 0.8141
vn -0.3575 0.0636 0.9317
vn 0.2867 -0.1286 0.9494
vn 0.5477 -0.2250 0.8059
vn 0.5559 -0.0318 0.8306
vn 0.9579 0.0749 0.2770
vn 0.8514 -0.1321 -0.5076
vn 0.7006 -0.2399 -0.6720
vn 0.6020 -0.0333 -0.7978
vn 0.3406 0.0637 -0.9381
vn -0.2835 -0.1284 -0.9504
vn -0.6103 -0.2204 -0.7609
vn -0.6786 -0.0347 -0.7337
vn -0.9216 0.0741 -0.3811
vn -0.8904 -0.1737 0.4207
vn -0.8137 -0.1713 0.5554
vn -0.6722 -0.0939 0.7344
vn -0.0990 -0.1811 0.9785
vn 0.3098 -0.1797 0.9337
vn 0.4746 -0.1711 0.8634
vn 0.6520 -0.0908 0.7527
vn 0.9448 -0.1391 0.2968
vn 0.8786 -0.2346 -0.4161
vn 0.7615 -0.1402 -0.6328
vn 0.6728 -0.0933 -0.7339
vn 0.0991 -0.1758 -0.9794
vn -0.2975 -0.1830 -0.9370
vn -0.4100 -0.1838 -0.8934
vn -0.6062 -0.0938 -0.7897
vn -0.9793 -0.1389 -0.1474
vn 0.6671 0.1250 -0.7344
vn -0.2843 -0.0833 -0.9551
vn -0.9617 -0.1565 -0.2252
vn -0.6828 -0.0188 0.7304
vn 0.2728 0.1897 0.9432
vn 0.9427 0.2600 0.2092
vn 0.6779 0.0305 -0.7345
vn -0.2931 -0.0429 -0.9551
vn -0.9741 -0.0186 -0.2254
vn -0.6914 0.0769 0.7184
vn 0.2784 0.1511 0.9485
vn 0.9665 0.1285 0.2222
vn 0.6672 -0.1398 -0.7317
vn -0.2930 0.0321 -0.9556
vn -0.9471 0.2244 -0.2296
vn -0.6427 0.2468 0.7253
vn 0.3159 0.0749 0.9458
vn 0.9692 -0.1186 0.2160
vn 0.6757 -0.0449 -0.7358
vn -0.2989 -0.0089 -0.9542
vn -0.9711 0.0928 -0.2198
vn -0.6707 0.1567 0.7250
vn 0.3024 0.1211 0.9454
vn 0.9763 0.0207 0.2156
vt 0.062500 0.000000
vt 0.000000 0.045455
vt 0.000000 0.000000
vt 0.125000 0.045455
vt 0.062500 0.045455
vt 0.187500 0.000000
vt 0.125000 0.000000
vt 0.250000 0.045455
vt 0.187500 0.045455
vt 0.312500 0.000000
vt 0.250000 0.000000
vt 0.375000 0.000000
vt 0.312500 0.045455
vt 0.437500 0.045455
vt 0.375000 0.045455
vt 0.500000 0.000000
vt 0.437500 0.000000
vt 0.562500 0.045455
vt 0.500000 0.045455
vt 0.625000 0.000000
vt 0.562500 0.000000
vt 0.687500 0.000000
vt 0.625000 0.045455
vt 0.750000 0.045455
vt 0.687500 0.045455
vt 0.812500 0.000000
vt 0.750000 0.000000
vt 0.875000 0.045455
vt 0.812500 0.045455
vt 0.937500 0.000000
vt 0.875000 0.000000
vt 1.000000 0.045455
vt 0.937500 0.045455
vt 0.000000 0.204545
vt 0.125000 0.204545
vt 0.062500 0.204545
vt 0.250000 0.204545
vt 0.187500 0.204545
vt 0.312500 0.204545
vt 0.437500 0.204545
vt 0.375000 0.204545
vt 0.562500 0.204545
vt 0.500000 0.204545
vt 0.625000 0.204545
vt 0.750000 0.204545
vt 0.687500 0.204545
vt 0.875000 0.204545
vt 0.812500 0.204545
vt 1.000000 0.204545
vt 0.937500 0.204545
vt 0.000000 0.409091
vt 0.125000 0.409091
vt 0.062500 0.409091
vt 0.187500 0.409091
vt 0.250000 0.409091
vt 0.375000 0.409091
vt 0.312500 0.409091
vt 0.437500 0.409091
vt 0.500000 0.409091
vt 0.625000 0.409091
vt 0.562500 0.409091
vt 0.687500 0.409091
vt 0.750000 0.409091
vt 0.875000 0.409091
vt 0.812500 0.409091
vt 0.937500 0.409091
vt 0.000000 0.590909
vt 0.125000 0.590909
vt 0.062500 0.590909
vt 0.187500 0.590909
vt 0.250000 0.590909
vt 0.375000 0.590909
vt 0.312500 0.590909
vt 0.437500 0.590909
vt 0.500000 0.590909
vt 0.625000 0.590909
vt 0.562500 0.590909
vt 0.687500 0.590909
vt 0.750000 0.590909
vt 0.875000 0.590909
vt 0.812500 0.590909
vt 0.937500 0.590909
vt 1.000000 0.409091
vt 0.062500 0.709091
vt 0.000000 0.709091
vt 0.125000 0.709091
vt 0.187500 0.709091
vt 0.250000 0.709091
vt 0.312500 0.709091
vt 0.375000 0.709091
vt 0.437500 0.709091
vt 0.562500 0.709091
vt 0.500000 0.709091
vt 0.625000 0.709091
vt 0.687500 0.709091
vt 0.750000 0.709091
vt 0.812500 0.709091
vt 0.875000 0.709091
vt 1.000000 0.590909
vt 0.937500 0.709091
vt 0.000000 0.763636
vt 0.062500 0.763636
vt 0.125000 0.763636
vt 0.187500 0.763636
vt 0.312500 0.763636
vt 0.250000 0.763636
vt 0.375000 0.763636
vt 0.437500 0.763636
vt 0.500000 0.763636
vt 0.562500 0.763636
vt 0.625000 0.763636
vt 0.687500 0.763636
vt 0.812500 0.763636
vt 0.750000 0.763636
vt 0.875000 0.763636
vt 0.937500 0.763636
vt 1.000000 0.763636
vt 0.062500 0.813636
vt 0.000000 0.813636
vt 0.125000 0.813636
vt 0.187500 0.813636
vt 0.312500 0.813636
vt 0.250000 0.813636
vt 0.375000 0.813636
vt 0.437500 0.813636
vt 0.500000 0.813636
vt 0.562500 0.813636
vt 0.625000 0.813636
vt 0.687500 0.813636
vt 0.812500 0.813636
vt 0.750000 0.813636
vt 0.875000 0.813636
vt 0.937500 0.813636
vt 1.000000 0.813636
vt 0.062500 0.868182
vt 0.000000 0.868182
vt 0.125000 0.868182
vt 0.187500 0.868182
vt 0.312500 0.868182
vt 0.250000 0.868182
vt 0.375000 0.868182
vt 0.437500 0.868182
vt 0.500000 0.868182
vt 0.562500 0.868182
vt 0.937500 0.868182
vt 0.875000 0.868182
vt 1.000000 0.868182
vt 0.000000 0.918182
vt 0.062500 0.918182
vt 0.125000 0.918182
vt 0.187500 0.918182
vt 0.312500 0.918182
vt 0.250000 0.918182
vt 0.375000 0.918182
vt 0.437500 0.918182
vt 0.500000 0.918182
vt 0.562500 0.918182
vt 0.625000 0.868182
vt 0.937500 0.918182
vt 0.875000 0.918182
vt 0.000000 0.959091
vt 0.062500 0.959091
vt 0.125000 0.959091
vt 0.187500 0.959091
vt 0.312500 0.959091
vt 0.250000 0.959091
vt 0.375000 0.959091
vt 0.437500 0.959091
vt 0.500000 0.959091
vt 0.562500 0.959091
vt 0.625000 0.959091
vt 0.625000 0.918182
vt 0.687500 0.959091
vt 0.687500 0.918182
vt 0.750000 0.959091
vt 0.812500 0.918182
vt 0.750000 0.918182
vt 0.812500 0.959091
vt 0.875000 0.959091
vt 1.000000 0.918182
vt 0.937500 0.959091
vt 0.000000 0.986364
vt 0.062500 0.986364
vt 0.125000 0.986364
vt 0.187500 0.986364
vt 0.312500 0.986364
vt 0.250000 0.986364
vt 0.375000 0.986364
vt 0.437500 0.986364
vt 0.500000 0.986364
vt 0.562500 0.986364
vt 0.625000 0.986364
vt 0.687500 0.986364
vt 0.750000 0.986364
vt 0.812500 0.986364
vt 0.875000 0.986364
vt 1.000000 0.959091
vt 0.937500 0.986364
vt 0.000000 1.000000
vt 0.062500 1.000000
vt 0.125000 1.000000
vt 0.187500 1.000000
vt 0.312500 1.000000
vt 0.250000 1.000000
vt 0.375000 1.000000
vt 0.437500 1.000000
vt 0.500000 1.000000
vt 0.562500 1.000000
vt 0.625000 1.000000
vt 0.687500 1.000000
vt 0.750000 1.000000
vt 0.812500 1.000000
vt 0.875000 1.000000
vt 1.000000 0.986364
vt 0.937500 1.000000
vt 1.000000 0.000000
vt 0.087645 0.536536
vt 0.084218 0.704387
vt 0.046086 0.542915
vt 0.257744 0.538315
vt 0.247484 0.703147
vt 0.215898 0.542412
vt 0.440770 0.541348
vt 0.397658 0.700098
vt 0.398786 0.539080
vt 0.578792 0.538280
vt 0.582680 0.702642
vt 0.551503 0.696285
vt 0.742687 0.537612
vt 0.752086 0.703827
vt 0.720704 0.698577
vt 0.892543 0.538915
vt 0.935696 0.702524
vt 0.903902 0.703765
vt 0.049342 0.383393
vt 0.112101 0.538770
vt 0.070536 0.545110
vt 0.221653 0.382439
vt 0.273146 0.539016
vt 0.231299 0.543097
vt 0.396260 0.380884
vt 0.431995 0.541134
vt 0.390010 0.538876
vt 0.617374 0.385186
vt 0.554514 0.536997
vt 0.565366 0.379940
vt 0.778685 0.381742
vt 0.726516 0.539730
vt 0.726437 0.380158
vt 0.937116 0.378376
vt 0.901297 0.543654
vt 0.884974 0.382065
vt 0.051990 0.694523
vt 0.103748 0.675594
vt 0.094262 0.729882
vt 0.069388 0.539304
vt 0.092117 0.702235
vt 0.060424 0.699416
vt 0.246434 0.537291
vt 0.248319 0.703903
vt 0.217222 0.697165
vt 0.406206 0.535991
vt 0.422018 0.704577
vt 0.390459 0.700523
vt 0.596889 0.537608
vt 0.574940 0.703911
vt 0.554875 0.539234
vt 0.753486 0.538082
vt 0.751759 0.703100
vt 0.711900 0.544277
vt 0.927419 0.538476
vt 0.911023 0.702093
vt 0.885632 0.543129
vt 0.108069 0.381729
vt 0.063722 0.539815
vt 0.055802 0.382564
vt 0.282369 0.383213
vt 0.222888 0.538514
vt 0.230263 0.379048
vt 0.450378 0.382889
vt 0.388079 0.540010
vt 0.398346 0.377880
vt 0.558336 0.380012
vt 0.603207 0.541544
vt 0.561189 0.543068
vt 0.717414 0.384046
vt 0.777329 0.537702
vt 0.735741 0.543883
vt 0.883003 0.385398
vt 0.945209 0.537516
vt 0.903419 0.542147
vt 0.109226 0.681508
vt 0.086402 0.731670
vt 0.054372 0.686822
vt 1.000000 0.709091
vt 1.000000 1.000000
vt 0.115384 0.697979
vt 0.278874 0.697944
vt 0.429453 0.701292
vt 0.620358 0.544612
vt 0.784523 0.541801
vt 0.934525 0.536614
vt 0.101354 0.378182
vt 0.273903 0.380902
vt 0.448403 0.384560
vt 0.596079 0.543332
vt 0.768362 0.543824
vt 0.943280 0.541360
vt 0.062919 0.724406
vt 0.072405 0.670118
vt 0.114677 0.705477
vt 0.111405 0.540863
vt 0.288025 0.543459
vt 0.447984 0.540727
vt 0.606630 0.701065
vt 0.782854 0.696359
vt 0.942592 0.698120
vt 0.105740 0.541347
vt 0.264479 0.544679
vt 0.429864 0.544675
vt 0.610602 0.380830
vt 0.769516 0.379823
vt 0.935035 0.380394
vt 0.080265 0.668330
vt 0.112294 0.713178
vt 0.057441 0.718492
s 0
usemtl shade
f 2/1/1 17/2/1 1/3/1
f 2/1/2 19/4/2 18/5/2
f 4/6/3 19/4/3 3/7/3
f 4/6/4 21/8/4 20/9/4
f 6/10/5 21/8/5 5/11/5
f 7/12/6 22/13/6 6/10/6
f 7/12/7 24/14/7 23/15/7
f 9/16/8 24/14/8 8/17/8
f 9/16/9 26/18/9 25/19/9
f 11/20/10 26/18/10 10/21/10
f 12/22/11 27/23/11 11/20/11
f 12/22/12 29/24/12 28/25/12
f 14/26/13 29/24/13 13/27/13
f 14/26/14 31/28/14 30/29/14
f 16/30/15 31/28/15 15/31/15
f 16/30/16 17/32/16 32/33/16
f 18/5/17 33/34/17 17/2/17
f 18/5/18 35/35/18 34/36/18
f 20/9/19 35/35/19 19/4/19
f 20/9/20 37/37/20 36/38/20
f 22/13/21 37/37/21 21/8/21
f 23/15/22 38/39/22 22/13/22
f 23/15/23 40/40/23 39/41/23
f 25/19/24 40/40/24 24/14/24
f 25/19/25 42/42/25 41/43/25
f 27/23/26 42/42/26 26/18/26
f 28/25/27 43/44/27 27/23/27
f 28/25/28 45/45/28 44/46/28
f 30/29/29 45/45/29 29/24/29
f 30/29/30 47/47/30 46/48/30
f 32/33/31 47/47/31 31/28/31
f 32/33/32 33/49/32 48/50/32
f 34/36/33 49/51/33 33/34/33
f 34/36/34 51/52/34 50/53/34
f 35/35/35 52/54/35 51/52/35
f 37/37/36 52/54/36 36/38/36
f 38/39/37 53/55/37 37/37/37
f 38/39/38 55/56/38 54/57/38
f 39/41/39 56/58/39 55/56/39
f 41/43/40 56/58/40 40/40/40
f 42/42/41 57/59/41 41/43/41
f 42/42/42 59/60/42 58/61/42
f 43/44/43 60/62/43 59/60/43
f 45/45/44 60/62/44 44/46/44
f 46/48/45 61/63/45 45/45/45
f 46/48/46 63/64/46 62/65/46
f 47/47/47 64/66/47 63/64/47
f 33/49/48 64/66/48 48/50/48
f 50/53/49 65/67/49 49/51/49
f 50/53/50 67/68/50 66/69/50
f 51/52/51 68/70/51 67/68/51
f 53/55/52 68/70/52 52/54/52
f 54/57/53 69/71/53 53/55/53
f 54/57/54 71/72/54 70/73/54
f 55/56/55 72/74/55 71/72/55
f 57/59/56 72/74/56 56/58/56
f 58/61/57 73/75/57 57/59/57
f 58/61/58 75/76/58 74/77/58
f 59/60/59 76/78/59 75/76/59
f 61/63/60 76/78/60 60/62/60
f 62/65/61 77/79/61 61/63/61
f 62/65/62 79/80/62 78/81/62
f 63/64/63 80/82/63 79/80/63
f 49/83/64 80/82/64 64/66/64
f 65/67/65 82/84/65 81/85/65
f 66/69/66 83/86/66 82/84/66
f 67/68/67 84/87/67 83/86/67
f 68/70/68 85/88/68 84/87/68
f 70/73/69 85/88/69 69/71/69
f 71/72/70 86/89/70 70/73/70
f 72/74/71 87/90/71 71/72/71
f 73/75/72 88/91/72 72/74/72
f 73/75/73 90/92/73 89/93/73
f 74/77/74 91/94/74 90/92/74
f 75/76/75 92/95/75 91/94/75
f 76/78/76 93/96/76 92/95/76
f 78/81/77 93/96/77 77/79/77
f 79/80/78 94/97/78 78/81/78
f 80/82/79 95/98/79 79/80/79
f 65/99/80 96/100/80 80/82/80
f 82/84/81 97/101/81 81/85/81
f 83/86/82 98/102/82 82/84/82
f 84/87/83 99/103/83 83/86/83
f 85/88/84 100/104/84 84/87/84
f 85/88/85 102/105/85 101/106/85
f 86/89/86 103/107/86 102/105/86
f 87/90/87 104/108/87 103/107/87
f 88/91/88 105/109/88 104/108/88
f 90/92/89 105/109/89 89/93/89
f 91/94/90 106/110/90 90/92/90
f 92/95/91 107/111/91 91/94/91
f 93/96/92 108/112/92 92/95/92
f 93/96/93 110/113/93 109/114/93
f 94/97/94 111/115/94 110/113/94
f 95/98/95 112/116/95 111/115/95
f 96/100/96 97/117/96 112/116/96
f 97/101/97 114/118/97 113/119/97
f 99/103/98 114/118/98 98/102/98
f 100/104/99 115/120/99 99/103/99
f 101/106/100 116/121/100 100/104/100
f 101/106/101 118/122/101 117/123/101
f 102/105/102 119/124/102 118/122/102
f 103/107/103 120/125/103 119/124/103
f 105/109/104 120/125/104 104/108/104
f 106/110/105 121/126/105 105/109/105
f 107/111/106 122/127/106 106/110/106
f 108/112/107 123/128/107 107/111/107
f 109/114/108 124/129/108 108/112/108
f 109/114/109 126/130/109 125/131/109
f 110/113/110 127/132/110 126/130/110
f 111/115/111 128/133/111 127/132/111
f 112/116/112 113/134/112 128/133/112
f 113/119/113 130/135/113 129/136/113
f 114/118/114 131/137/114 130/135/114
f 115/120/115 132/138/115 131/137/115
f 117/123/116 132/138/116 116/121/116
f 117/123/117 134/139/117 133/140/117
f 119/124/118 134/139/118 118/122/118
f 120/125/119 135/141/119 119/124/119
f 121/126/120 136/142/120 120/125/120
f 122/127/121 137/143/121 121/126/121
f 123/128/122 138/144/122 122/127/122
f 127/132/123 141/145/123 140/146/123
f 128/133/124 129/147/124 141/145/124
f 130/135/125 142/148/125 129/136/125
f 131/137/126 143/149/126 130/135/126
f 132/138/127 144/150/127 131/137/127
f 133/140/128 145/151/128 132/138/128
f 133/140/129 147/152/129 146/153/129
f 134/139/130 148/154/130 147/152/130
f 135/141/131 149/155/131 148/154/131
f 136/142/132 150/156/132 149/155/132
f 137/143/133 151/157/133 150/156/133
f 139/158/134 151/157/134 138/144/134
f 140/146/135 157/159/135 156/160/135
f 129/147/136 157/159/136 141/145/136
f 143/149/137 158/161/137 142/148/137
f 144/150/138 159/162/138 143/149/138
f 145/151/139 160/163/139 144/150/139
f 146/153/140 161/164/140 145/151/140
f 146/153/141 163/165/141 162/166/141
f 147/152/142 164/167/142 163/165/142
f 148/154/143 165/168/143 164/167/143
f 149/155/144 166/169/144 165/168/144
f 150/156/145 167/170/145 166/169/145
f 151/157/146 168/171/146 167/170/146
f 152/172/147 169/173/147 168/171/147
f 153/174/148 170/175/148 169/173/148
f 155/176/149 170/175/149 154/177/149
f 156/160/150 171/178/150 155/176/150
f 157/159/151 172/179/151 156/160/151
f 142/180/152 173/181/152 157/159/152
f 159/162/153 174/182/153 158/161/153
f 160/163/154 175/183/154 159/162/154
f 161/164/155 176/184/155 160/163/155
f 162/166/156 177/185/156 161/164/156
f 162/166/157 179/186/157 178/187/157
f 163/165/158 180/188/158 179/186/158
f 164/167/159 181/189/159 180/188/159
f 165/168/160 182/190/160 181/189/160
f 166/169/161 183/191/161 182/190/161
f 167/170/162 184/192/162 183/191/162
f 168/171/163 185/193/163 184/192/163
f 169/173/164 186/194/164 185/193/164
f 171/178/165 186/194/165 170/175/165
f 172/179/166 187/195/166 171/178/166
f 173/181/167 188/196/167 172/179/167
f 158/197/168 189/198/168 173/181/168
f 175/183/169 190/199/169 174/182/169
f 176/184/170 191/200/170 175/183/170
f 177/185/171 192/201/171 176/184/171
f 178/187/172 193/202/172 177/185/172
f 178/187/173 195/203/173 194/204/173
f 179/186/174 196/205/174 195/203/174
f 180/188/175 197/206/175 196/205/175
f 181/189/176 198/207/176 197/206/176
f 182/190/177 199/208/177 198/207/177
f 183/191/178 200/209/178 199/208/178
f 184/192/179 201/210/179 200/209/179
f 185/193/180 202/211/180 201/210/180
f 187/195/181 202/211/181 186/194/181
f 188/196/182 203/212/182 187/195/182
f 189/198/183 204/213/183 188/196/183
f 174/214/184 205/215/184 189/198/184
f 197/206/185 201/210/185 205/215/185
f 207/3/186 222/5/186 223/2/186
f 207/7/187 224/5/187 208/1/187
f 209/7/188 224/9/188 225/4/188
f 209/11/189 226/9/189 210/6/189
f 211/11/190 226/13/190 227/8/190
f 212/10/191 227/15/191 228/13/191
f 212/17/192 229/15/192 213/12/192
f 214/17/193 229/19/193 230/14/193
f 214/21/194 231/19/194 215/16/194
f 216/21/195 231/23/195 232/18/195
f 217/20/196 232/25/196 233/23/196
f 217/27/197 234/25/197 218/22/197
f 219/27/198 234/29/198 235/24/198
f 219/31/199 236/29/199 220/26/199
f 221/31/200 236/33/200 237/28/200
f 221/216/201 222/33/201 206/30/201
f 223/2/202 238/36/202 239/34/202
f 223/4/203 240/36/203 224/5/203
f 225/4/204 240/38/204 241/35/204
f 225/8/205 242/38/205 226/9/205
f 227/8/206 242/39/206 243/37/206
f 228/13/207 243/41/207 244/39/207
f 228/14/208 245/41/208 229/15/208
f 230/14/209 245/43/209 246/40/209
f 230/18/210 247/43/210 231/19/210
f 232/18/211 247/44/211 248/42/211
f 233/23/212 248/46/212 249/44/212
f 233/24/213 250/46/213 234/25/213
f 235/24/214 250/48/214 251/45/214
f 235/28/215 252/48/215 236/29/215
f 237/28/216 252/50/216 253/47/216
f 237/32/217 238/50/217 222/33/217
f 261/217/218 254/218/218 260/219/218
f 262/220/219 255/221/219 261/222/219
f 263/223/220 256/224/220 262/225/220
f 263/226/221 258/227/221 257/228/221
f 264/229/222 259/230/222 258/231/222
f 265/232/223 254/233/223 259/234/223
f 266/235/224 261/236/224 260/237/224
f 267/238/225 262/239/225 261/240/225
f 268/241/226 263/242/226 262/243/226
f 270/244/227 263/245/227 269/246/227
f 271/247/228 264/248/228 270/249/228
f 266/250/229 265/251/229 271/252/229
f 255/253/230 257/254/230 259/255/230
f 278/256/231 273/257/231 272/258/231
f 279/259/232 274/260/232 273/261/232
f 280/262/233 275/263/233 274/264/233
f 282/265/234 275/266/234 281/267/234
f 283/268/235 276/269/235 282/270/235
f 278/271/236 277/272/236 283/273/236
f 285/274/237 278/275/237 284/276/237
f 286/277/238 279/278/238 285/279/238
f 287/280/239 280/281/239 286/282/239
f 287/283/240 282/284/240 281/285/240
f 288/286/241 283/287/241 282/288/241
f 289/289/242 278/290/242 283/291/242
f 273/292/243 275/293/243 277/294/243
f 2/1/244 18/5/244 17/2/244
f 2/1/245 3/7/245 19/4/245
f 4/6/246 20/9/246 19/4/246
f 4/6/247 5/11/247 21/8/247
f 6/10/248 22/13/248 21/8/248
f 7/12/249 23/15/249 22/13/249
f 7/12/250 8/17/250 24/14/250
f 9/16/251 25/19/251 24/14/251
f 9/16/252 10/21/252 26/18/252
f 11/20/253 27/23/253 26/18/253
f 12/22/254 28/25/254 27/23/254
f 12/22/255 13/27/255 29/24/255
f 14/26/256 30/29/256 29/24/256
f 14/26/257 15/31/257 31/28/257
f 16/30/258 32/33/258 31/28/258
f 16/30/259 1/216/259 17/32/259
f 18/5/260 34/36/260 33/34/260
f 18/5/261 19/4/261 35/35/261
f 20/9/262 36/38/262 35/35/262
f 20/9/263 21/8/263 37/37/263
f 22/13/264 38/39/264 37/37/264
f 23/15/265 39/41/265 38/39/265
f 23/15/266 24/14/266 40/40/266
f 25/19/267 41/43/267 40/40/267
f 25/19/268 26/18/268 42/42/268
f 27/23/269 43/44/269 42/42/269
f 28/25/270 44/46/270 43/44/270
f 28/25/271 29/24/271 45/45/271
f 30/29/272 46/48/272 45/45/272
f 30/29/273 31/28/273 47/47/273
f 32/33/274 48/50/274 47/47/274
f 32/33/275 17/32/275 33/49/275
f 34/36/276 50/53/276 49/51/276
f 34/36/277 35/35/277 51/52/277
f 35/35/278 36/38/278 52/54/278
f 37/37/279 53/55/279 52/54/279
f 38/39/280 54/57/280 53/55/280
f 38/39/281 39/41/281 55/56/281
f 39/41/282 40/40/282 56/58/282
f 41/43/283 57/59/283 56/58/283
f 42/42/284 58/61/284 57/59/284
f 42/42/285 43/44/285 59/60/285
f 43/44/286 44/46/286 60/62/286
f 45/45/287 61/63/287 60/62/287
f 46/48/288 62/65/288 61/63/288
f 46/48/289 47/47/289 63/64/289
f 47/47/290 48/50/290 64/66/290
f 33/49/291 49/83/291 64/66/291
f 50/53/292 66/69/292 65/67/292
f 50/53/293 51/52/293 67/68/293
f 51/52/294 52/54/294 68/70/294
f 53/55/295 69/71/295 68/70/295
f 54/57/296 70/73/296 69/71/296
f 54/57/297 55/56/297 71/72/297
f 55/56/298 56/58/298 72/74/298
f 57/59/299 73/75/299 72/74/299
f 58/61/300 74/77/300 73/75/300
f 58/61/301 59/60/301 75/76/301
f 59/60/302 60/62/302 76/78/302
f 61/63/303 77/79/303 76/78/303
f 62/65/304 78/81/304 77/79/304
f 62/65/305 63/64/305 79/80/305
f 63/64/306 64/66/306 80/82/306
f 49/83/307 65/99/307 80/82/307
f 65/67/308 66/69/308 82/84/308
f 66/69/309 67/68/309 83/86/309
f 67/68/310 68/70/310 84/87/310
f 68/70/311 69/71/311 85/88/311
f 70/73/312 86/89/312 85/88/312
f 71/72/313 87/90/313 86/89/313
f 72/74/314 88/91/314 87/90/314
f 73/75/315 89/93/315 88/91/315
f 73/75/316 74/77/316 90/92/316
f 74/77/317 75/76/317 91/94/317
f 75/76/318 76/78/318 92/95/318
f 76/78/319 77/79/319 93/96/319
f 78/81/320 94/97/320 93/96/320
f 79/80/321 95/98/321 94/97/321
f 80/82/322 96/100/322 95/98/322
f 65/99/323 81/295/323 96/100/323
f 82/84/324 98/102/324 97/101/324
f 83/86/325 99/103/325 98/102/325
f 84/87/326 100/104/326 99/103/326
f 85/88/327 101/106/327 100/104/327
f 85/88/328 86/89/328 102/105/328
f 86/89/329 87/90/329 103/107/329
f 87/90/330 88/91/330 104/108/330
f 88/91/331 89/93/331 105/109/331
f 90/92/332 106/110/332 105/109/332
f 91/94/333 107/111/333 106/110/333
f 92/95/334 108/112/334 107/111/334
f 93/96/335 109/114/335 108/112/335
f 93/96/336 94/97/336 110/113/336
f 94/97/337 95/98/337 111/115/337
f 95/98/338 96/100/338 112/116/338
f 96/100/339 81/295/339 97/117/339
f 97/101/340 98/102/340 114/118/340
f 99/103/341 115/120/341 114/118/341
f 100/104/342 116/121/342 115/120/342
f 101/106/343 117/123/343 116/121/343
f 101/106/344 102/105/344 118/122/344
f 102/105/345 103/107/345 119/124/345
f 103/107/346 104/108/346 120/125/346
f 105/109/347 121/126/347 120/125/347
f 106/110/348 122/127/348 121/126/348
f 107/111/349 123/128/349 122/127/349
f 108/112/350 124/129/350 123/128/350
f 109/114/351 125/131/351 124/129/351
f 109/114/352 110/113/352 126/130/352
f 110/113/353 111/115/353 127/132/353
f 111/115/354 112/116/354 128/133/354
f 112/116/355 97/117/355 113/134/355
f 113/119/356 114/118/356 130/135/356
f 114/118/357 115/120/357 131/137/357
f 115/120/358 116/121/358 132/138/358
f 117/123/359 133/140/359 132/138/359
f 117/123/360 118/122/360 134/139/360
f 119/124/361 135/141/361 134/139/361
f 120/125/362 136/142/362 135/141/362
f 121/126/363 137/143/363 136/142/363
f 122/127/364 138/144/364 137/143/364
f 123/128/365 139/158/365 138/144/365
f 127/132/366 128/133/366 141/145/366
f 128/133/367 113/134/367 129/147/367
f 130/135/368 143/149/368 142/148/368
f 131/137/369 144/150/369 143/149/369
f 132/138/370 145/151/370 144/150/370
f 133/140/371 146/153/371 145/151/371
f 133/140/372 134/139/372 147/152/372
f 134/139/373 135/141/373 148/154/373
f 135/141/374 136/142/374 149/155/374
f 136/142/375 137/143/375 150/156/375
f 137/143/376 138/144/376 151/157/376
f 139/158/377 152/172/377 151/157/377
f 140/146/378 141/145/378 157/159/378
f 129/147/379 142/180/379 157/159/379
f 143/149/137 159/162/137 158/161/137
f 144/150/138 160/163/138 159/162/138
f 145/151/139 161/164/139 160/163/139
f 146/153/140 162/166/140 161/164/140
f 146/153/141 147/152/141 163/165/141
f 147/152/142 148/154/142 164/167/142
f 148/154/143 149/155/143 165/168/143
f 149/155/144 150/156/144 166/169/144
f 150/156/145 151/157/145 167/170/145
f 151/157/380 152/172/380 168/171/380
f 152/172/147 153/174/147 169/173/147
f 153/174/148 154/177/148 170/175/148
f 155/176/149 171/178/149 170/175/149
f 156/160/150 172/179/150 171/178/150
f 157/159/381 173/181/381 172/179/381
f 142/180/152 158/197/152 173/181/152
f 159/162/153 175/183/153 174/182/153
f 160/163/154 176/184/154 175/183/154
f 161/164/155 177/185/155 176/184/155
f 162/166/156 178/187/156 177/185/156
f 162/166/157 163/165/157 179/186/157
f 163/165/158 164/167/158 180/188/158
f 164/167/159 165/168/159 181/189/159
f 165/168/160 166/169/160 182/190/160
f 166/169/382 167/170/382 183/191/382
f 167/170/383 168/171/383 184/192/383
f 168/171/163 169/173/163 185/193/163
f 169/173/384 170/175/384 186/194/384
f 171/178/385 187/195/385 186/194/385
f 172/179/166 188/196/166 187/195/166
f 173/181/386 189/198/386 188/196/386
f 158/197/387 174/214/387 189/198/387
f 175/183/388 191/200/388 190/199/388
f 176/184/389 192/201/389 191/200/389
f 177/185/390 193/202/390 192/201/390
f 178/187/391 194/204/391 193/202/391
f 178/187/392 179/186/392 195/203/392
f 179/186/393 180/188/393 196/205/393
f 180/188/394 181/189/394 197/206/394
f 181/189/395 182/190/395 198/207/395
f 182/190/396 183/191/396 199/208/396
f 183/191/397 184/192/397 200/209/397
f 184/192/398 185/193/398 201/210/398
f 185/193/399 186/194/399 202/211/399
f 187/195/400 203/212/400 202/211/400
f 188/196/401 204/213/401 203/212/401
f 189/198/402 205/215/402 204/213/402
f 174/214/403 190/296/403 205/215/403
f 205/215/185 190/199/185 191/200/185
f 191/200/185 192/201/185 193/202/185
f 193/202/185 194/204/185 195/203/185
f 195/203/185 196/205/185 197/206/185
f 197/206/185 198/207/185 199/208/185
f 199/208/185 200/209/185 201/210/185
f 201/210/185 202/211/185 203/212/185
f 203/212/185 204/213/185 205/215/185
f 205/215/185 191/200/185 193/202/185
f 193/202/185 195/203/185 197/206/185
f 197/206/185 199/208/185 201/210/185
f 201/210/185 203/212/185 205/215/185
f 205/215/185 193/202/185 197/206/185
f 207/3/404 206/1/404 222/5/404
f 207/7/405 223/4/405 224/5/405
f 209/7/406 208/6/406 224/9/406
f 209/11/407 225/8/407 226/9/407
f 211/11/408 210/10/408 226/13/408
f 212/10/409 211/12/409 227/15/409
f 212/17/410 228/14/410 229/15/410
f 214/17/411 213/16/411 229/19/411
f 214/21/412 230/18/412 231/19/412
f 216/21/413 215/20/413 231/23/413
f 217/20/414 216/22/414 232/25/414
f 217/27/415 233/24/415 234/25/415
f 219/27/416 218/26/416 234/29/416
f 219/31/417 235/28/417 236/29/417
f 221/31/418 220/30/418 236/33/418
f 221/216/419 237/32/419 222/33/419
f 223/2/420 222/5/420 238/36/420
f 223/4/421 239/35/421 240/36/421
f 225/4/422 224/9/422 240/38/422
f 225/8/423 241/37/423 242/38/423
f 227/8/424 226/13/424 242/39/424
f 228/13/425 227/15/425 243/41/425
f 228/14/426 244/40/426 245/41/426
f 230/14/427 229/19/427 245/43/427
f 230/18/428 246/42/428 247/43/428
f 232/18/429 231/23/429 247/44/429
f 233/23/430 232/25/430 248/46/430
f 233/24/431 249/45/431 250/46/431
f 235/24/432 234/29/432 250/48/432
f 235/28/433 251/47/433 252/48/433
f 237/28/434 236/33/434 252/50/434
f 237/32/435 253/49/435 238/50/435
f 261/217/436 255/297/436 254/218/436
f 262/220/437 256/298/437 255/221/437
f 263/223/438 257/299/438 256/224/438
f 263/226/439 264/300/439 258/227/439
f 264/229/440 265/301/440 259/230/440
f 265/232/441 260/302/441 254/233/441
f 266/235/442 267/303/442 261/236/442
f 267/238/443 268/304/443 262/239/443
f 268/241/444 269/305/444 263/242/444
f 270/244/445 264/306/445 263/245/445
f 271/247/446 265/307/446 264/248/446
f 266/250/447 260/308/447 265/251/447
f 259/255/230 254/309/230 255/253/230
f 255/253/230 256/310/230 257/254/230
f 257/254/230 258/311/230 259/255/230
f 278/256/448 279/312/448 273/257/448
f 279/259/449 280/313/449 274/260/449
f 280/262/450 281/314/450 275/263/450
f 282/265/451 276/315/451 275/266/451
f 283/268/452 277/316/452 276/269/452
f 278/271/453 272/317/453 277/272/453
f 285/274/454 279/318/454 278/275/454
f 286/277/455 280/319/455 279/278/455
f 287/280/456 281/320/456 280/281/456
f 287/283/457 288/321/457 282/284/457
f 288/286/458 289/322/458 283/287/458
f 289/289/459 284/323/459 278/290/459
f 277/294/243 272/324/243 273/292/243
f 273/292/243 274/325/243 275/293/243
f 275/293/243 276/326/243 277/294/243
