# Blender 5.2.1 LTS
# www.blender.org
mtllib slab_ring.mtl
o slab_ring
v -0.035000 -0.030000 0.012000
v 0.035000 -0.030000 0.012000
v -0.035000 -0.030000 0.000000
v 0.035000 -0.030000 0.000000
v -0.035000 0.030000 0.012000
v 0.035000 0.030000 0.012000
v -0.035000 0.030000 0.000000
v 0.035000 0.030000 0.000000
v -0.013000 -0.013000 0.034000
v 0.013000 -0.013000 0.034000
v -0.013000 -0.013000 0.012000
v 0.013000 -0.013000 0.012000
v -0.013000 0.013000 0.034000
v 0.013000 0.013000 0.034000
v -0.013000 0.013000 0.012000
v 0.013000 0.013000 0.012000
v 0.064000 -0.075000 0.023000
v 0.071601 -0.075000 0.012538
v 0.083899 -0.075000 0.016534
v 0.083899 -0.075000 0.029466
v 0.071601 -0.075000 0.033462
v 0.055426 -0.043000 0.023000
v 0.062008 -0.039200 0.012538
v 0.072659 -0.033050 0.016534
v 0.072659 -0.033050 0.029466
v 0.062008 -0.039200 0.033462
v 0.032000 -0.019574 0.023000
v 0.035800 -0.012992 0.012538
v 0.041950 -0.002341 0.016534
v 0.041950 -0.002341 0.029466
v 0.035800 -0.012992 0.033462
v 0.000000 -0.011000 0.023000
v 0.000000 -0.003399 0.012538
v 0.000000 0.008899 0.016534
v 0.000000 0.008899 0.029466
v 0.000000 -0.003399 0.033462
v -0.032000 -0.019574 0.023000
v -0.035800 -0.012992 0.012538
v -0.041950 -0.002341 0.016534
v -0.041950 -0.002341 0.029466
v -0.035800 -0.012992 0.033462
v -0.055426 -0.043000 0.023000
v -0.062008 -0.039200 0.012538
v -0.072659 -0.033050 0.016534
v -0.072659 -0.033050 0.029466
v -0.062008 -0.039200 0.033462
v -0.064000 -0.075000 0.023000
v -0.071601 -0.075000 0.012538
v -0.083899 -0.075000 0.016534
v -0.083899 -0.075000 0.029466
v -0.071601 -0.075000 0.033462
v -0.055426 -0.107000 0.023000
v -0.062008 -0.110800 0.012538
v -0.072659 -0.116950 0.016534
v -0.072659 -0.116950 0.029466
v -0.062008 -0.110800 0.033462
v -0.032000 -0.130426 0.023000
v -0.035800 -0.137008 0.012538
v -0.041950 -0.147659 0.016534
v -0.041950 -0.147659 0.029466
v -0.035800 -0.137008 0.033462
v -0.000000 -0.139000 0.023000
v -0.000000 -0.146601 0.012538
v -0.000000 -0.158899 0.016534
v -0.000000 -0.158899 0.029466
v -0.000000 -0.146601 0.033462
v 0.032000 -0.130426 0.023000
v 0.035800 -0.137008 0.012538
v 0.041950 -0.147659 0.016534
v 0.041950 -0.147659 0.029466
v 0.035800 -0.137008 0.033462
v 0.055426 -0.107000 0.023000
v 0.062008 -0.110800 0.012538
v 0.072659 -0.116950 0.016534
v 0.072659 -0.116950 0.029466
v 0.062008 -0.110800 0.033462
vn -1.0000 -0.0000 -0.0000
vn 1.0000 -0.0000 -0.0000
vn -0.0000 -0.0000 1.0000
vn -0.0000 -1.0000 -0.0000
vn -0.0000 1.0000 -0.0000
vn -0.7907 -0.2119 -0.5744
vn 0.3080 0.0825 -0.9478
vn 0.9659 0.2588 -0.0000
vn 0.3080 0.0825 0.9478
vn -0.7907 -0.2119 0.5744
vn -0.5788 -0.5788 -0.5744
vn 0.2254 0.2254 -0.9478
vn 0.7071 0.7071 -0.0000
vn 0.2254 0.2254 0.9478
vn -0.5788 -0.5788 0.5744
vn -0.2119 -0.7907 -0.5744
vn 0.0825 0.3080 -0.9478
vn 0.2588 0.9659 -0.0000
vn 0.0825 0.3080 0.9478
vn -0.2119 -0.7907 0.5744
vn 0.2119 -0.7907 -0.5744
vn -0.0825 0.3080 -0.9478
vn -0.2588 0.9659 -0.0000
vn -0.0825 0.3080 0.9478
vn 0.2119 -0.7907 0.5744
vn 0.5788 -0.5788 -0.5744
vn -0.2254 0.2254 -0.9478
vn -0.7071 0.7071 -0.0000
vn -0.2254 0.2254 0.9478
vn 0.5788 -0.5788 0.5744
vn 0.7907 -0.2119 -0.5744
vn -0.3080 0.0825 -0.9478
vn -0.9659 0.2588 -0.0000
vn -0.3080 0.0825 0.9478
vn 0.7907 -0.2119 0.5744
vn 0.7907 0.2119 -0.5744
vn -0.3080 -0.0825 -0.9478
vn -0.9659 -0.2588 -0.0000
vn -0.3080 -0.0825 0.9478
vn 0.7907 0.2119 0.5744
vn 0.5788 0.5788 -0.5744
vn -0.2254 -0.2254 -0.9478
vn -0.7071 -0.7071 -0.0000
vn -0.2254 -0.2254 0.9478
vn 0.5788 0.5788 0.5744
vn 0.2119 0.7907 -0.5744
vn -0.0825 -0.3080 -0.9478
vn -0.2588 -0.9659 -0.0000
vn -0.0825 -0.3080 0.9478
vn 0.2119 0.7907 0.5744
vn -0.2119 0.7907 -0.5744
vn 0.0825 -0.3080 -0.9478
vn 0.2588 -0.9659 -0.0000
vn 0.0825 -0.3080 0.9478
vn -0.2119 0.7907 0.5744
vn -0.5788 0.5788 -0.5744
vn 0.2254 -0.2254 -0.9478
vn 0.7071 -0.7071 -0.0000
vn 0.2254 -0.2254 0.9478
vn -0.5788 0.5788 0.5744
vn -0.7907 0.2119 -0.5744
vn 0.3080 -0.0825 -0.9478
vn 0.9659 -0.2588 -0.0000
vn 0.3080 -0.0825 0.9478
vn -0.7907 0.2119 0.5744
vt 0.510000 0.550000
vt 0.490000 0.450000
vt 0.510000 0.450000
vt 0.490000 0.550000
vt 0.558333 0.450000
vt 0.441667 0.550000
vt 0.441667 0.450000
vt 0.558333 0.510000
vt 0.441667 0.490000
vt 0.558333 0.490000
vt 0.441667 0.510000
vt 0.518333 0.521667
vt 0.481667 0.478333
vt 0.518333 0.478333
vt 0.481667 0.521667
vt 0.521667 0.478333
vt 0.478333 0.521667
vt 0.478333 0.478333
vt 0.521667 0.518333
vt 0.478333 0.481667
vt 0.521667 0.481667
vt 0.478333 0.518333
vt 0.176476 0.467672
vt 0.111771 0.446120
vt 0.176476 0.446120
vt 0.111771 0.489224
vt 0.111771 0.467672
vt 0.176476 0.510776
vt 0.176476 0.489224
vt 0.176476 0.532328
vt 0.111771 0.510776
vt 0.176476 0.553880
vt 0.111771 0.532328
vt 0.241181 0.446120
vt 0.241181 0.489224
vt 0.241181 0.467672
vt 0.241181 0.510776
vt 0.241181 0.553880
vt 0.241181 0.532328
vt 0.305886 0.446120
vt 0.305886 0.489224
vt 0.305886 0.467672
vt 0.305886 0.510776
vt 0.305886 0.553880
vt 0.305886 0.532328
vt 0.370590 0.467672
vt 0.370590 0.446120
vt 0.370590 0.489224
vt 0.370590 0.510776
vt 0.370590 0.532328
vt 0.370590 0.553880
vt 0.435295 0.467672
vt 0.435295 0.446120
vt 0.435295 0.489224
vt 0.435295 0.510776
vt 0.435295 0.532328
vt 0.435295 0.553880
vt 0.500000 0.446120
vt 0.500000 0.489224
vt 0.500000 0.467672
vt 0.500000 0.510776
vt 0.500000 0.553880
vt 0.500000 0.532328
vt 0.564705 0.467672
vt 0.564705 0.446120
vt 0.564705 0.489224
vt 0.564705 0.510776
vt 0.564705 0.532328
vt 0.629410 0.467672
vt 0.629410 0.446120
vt 0.629410 0.489224
vt 0.629410 0.510776
vt 0.629410 0.532328
vt 0.564705 0.553880
vt 0.694114 0.446120
vt 0.694114 0.489224
vt 0.694114 0.467672
vt 0.694114 0.510776
vt 0.694114 0.532328
vt 0.694114 0.553880
vt 0.758819 0.467672
vt 0.758819 0.446120
vt 0.758819 0.489224
vt 0.758819 0.510776
vt 0.758819 0.553880
vt 0.758819 0.532328
vt 0.823524 0.446120
vt 0.823524 0.489224
vt 0.823524 0.467672
vt 0.823524 0.510776
vt 0.823524 0.532328
vt 0.823524 0.553880
vt 0.888229 0.467672
vt 0.888229 0.446120
vt 0.888229 0.489224
vt 0.888229 0.510776
vt 0.888229 0.532328
vt 0.558333 0.550000
vt 0.521667 0.521667
vt 0.111771 0.553880
vt 0.629410 0.553880
vt 0.888229 0.553880
s 0
usemtl lever_iron
f 5/1/1 3/2/1 1/3/1
f 4/3/2 6/4/2 2/2/2
f 2/5/3 5/6/3 1/7/3
f 3/8/4 2/9/4 1/10/4
f 6/10/5 7/11/5 5/9/5
f 13/12/1 11/13/1 9/14/1
f 12/14/2 14/15/2 10/13/2
f 10/16/3 13/17/3 9/18/3
f 11/19/4 10/20/4 9/21/4
f 14/21/5 15/22/5 13/20/5
f 23/23/6 17/24/6 22/25/6
f 23/23/7 19/26/7 18/27/7
f 25/28/8 19/26/8 24/29/8
f 26/30/9 20/31/9 25/28/9
f 22/32/10 21/33/10 26/30/10
f 27/34/11 23/23/11 22/25/11
f 29/35/12 23/23/12 28/36/12
f 30/37/13 24/29/13 29/35/13
f 30/37/14 26/30/14 25/28/14
f 27/38/15 26/30/15 31/39/15
f 32/40/16 28/36/16 27/34/16
f 34/41/17 28/36/17 33/42/17
f 35/43/18 29/35/18 34/41/18
f 35/43/19 31/39/19 30/37/19
f 32/44/20 31/39/20 36/45/20
f 38/46/21 32/40/21 37/47/21
f 39/48/22 33/42/22 38/46/22
f 40/49/23 34/41/23 39/48/23
f 41/50/24 35/43/24 40/49/24
f 37/51/25 36/45/25 41/50/25
f 43/52/26 37/47/26 42/53/26
f 44/54/27 38/46/27 43/52/27
f 45/55/28 39/48/28 44/54/28
f 46/56/29 40/49/29 45/55/29
f 42/57/30 41/50/30 46/56/30
f 47/58/31 43/52/31 42/53/31
f 49/59/32 43/52/32 48/60/32
f 50/61/33 44/54/33 49/59/33
f 50/61/34 46/56/34 45/55/34
f 47/62/35 46/56/35 51/63/35
f 53/64/36 47/58/36 52/65/36
f 54/66/37 48/60/37 53/64/37
f 55/67/38 49/59/38 54/66/38
f 56/68/39 50/61/39 55/67/39
f 56/68/40 47/62/40 51/63/40
f 58/69/41 52/65/41 57/70/41
f 59/71/42 53/64/42 58/69/42
f 60/72/43 54/66/43 59/71/43
f 60/72/44 56/68/44 55/67/44
f 61/73/45 52/74/45 56/68/45
f 62/75/46 58/69/46 57/70/46
f 64/76/47 58/69/47 63/77/47
f 65/78/48 59/71/48 64/76/48
f 66/79/49 60/72/49 65/78/49
f 62/80/50 61/73/50 66/79/50
f 68/81/51 62/75/51 67/82/51
f 69/83/52 63/77/52 68/81/52
f 70/84/53 64/76/53 69/83/53
f 70/84/54 66/79/54 65/78/54
f 67/85/55 66/79/55 71/86/55
f 72/87/56 68/81/56 67/82/56
f 74/88/57 68/81/57 73/89/57
f 75/90/58 69/83/58 74/88/58
f 76/91/59 70/84/59 75/90/59
f 72/92/60 71/86/60 76/91/60
f 18/93/61 72/87/61 17/94/61
f 19/95/62 73/89/62 18/93/62
f 20/96/63 74/88/63 19/95/63
f 21/97/64 75/90/64 20/96/64
f 21/97/65 72/92/65 76/91/65
f 5/1/1 7/4/1 3/2/1
f 4/3/2 8/1/2 6/4/2
f 2/5/3 6/98/3 5/6/3
f 3/8/4 4/11/4 2/9/4
f 6/10/5 8/8/5 7/11/5
f 13/12/1 15/15/1 11/13/1
f 12/14/2 16/12/2 14/15/2
f 10/16/3 14/99/3 13/17/3
f 11/19/4 12/22/4 10/20/4
f 14/21/5 16/19/5 15/22/5
f 23/23/6 18/27/6 17/24/6
f 23/23/7 24/29/7 19/26/7
f 25/28/8 20/31/8 19/26/8
f 26/30/9 21/33/9 20/31/9
f 22/32/10 17/100/10 21/33/10
f 27/34/11 28/36/11 23/23/11
f 29/35/12 24/29/12 23/23/12
f 30/37/13 25/28/13 24/29/13
f 30/37/14 31/39/14 26/30/14
f 27/38/15 22/32/15 26/30/15
f 32/40/16 33/42/16 28/36/16
f 34/41/17 29/35/17 28/36/17
f 35/43/18 30/37/18 29/35/18
f 35/43/19 36/45/19 31/39/19
f 32/44/20 27/38/20 31/39/20
f 38/46/21 33/42/21 32/40/21
f 39/48/22 34/41/22 33/42/22
f 40/49/23 35/43/23 34/41/23
f 41/50/24 36/45/24 35/43/24
f 37/51/25 32/44/25 36/45/25
f 43/52/26 38/46/26 37/47/26
f 44/54/27 39/48/27 38/46/27
f 45/55/28 40/49/28 39/48/28
f 46/56/29 41/50/29 40/49/29
f 42/57/30 37/51/30 41/50/30
f 47/58/31 48/60/31 43/52/31
f 49/59/32 44/54/32 43/52/32
f 50/61/33 45/55/33 44/54/33
f 50/61/34 51/63/34 46/56/34
f 47/62/35 42/57/35 46/56/35
f 53/64/36 48/60/36 47/58/36
f 54/66/37 49/59/37 48/60/37
f 55/67/38 50/61/38 49/59/38
f 56/68/39 51/63/39 50/61/39
f 56/68/40 52/74/40 47/62/40
f 58/69/41 53/64/41 52/65/41
f 59/71/42 54/66/42 53/64/42
f 60/72/43 55/67/43 54/66/43
f 60/72/44 61/73/44 56/68/44
f 61/73/45 57/101/45 52/74/45
f 62/75/46 63/77/46 58/69/46
f 64/76/47 59/71/47 58/69/47
f 65/78/48 60/72/48 59/71/48
f 66/79/49 61/73/49 60/72/49
f 62/80/50 57/101/50 61/73/50
f 68/81/51 63/77/51 62/75/51
f 69/83/52 64/76/52 63/77/52
f 70/84/53 65/78/53 64/76/53
f 70/84/54 71/86/54 66/79/54
f 67/85/55 62/80/55 66/79/55
f 72/87/56 73/89/56 68/81/56
f 74/88/57 69/83/57 68/81/57
f 75/90/58 70/84/58 69/83/58
f 76/91/59 71/86/59 70/84/59
f 72/92/60 67/85/60 71/86/60
f 18/93/61 73/89/61 72/87/61
f 19/95/62 74/88/62 73/89/62
f 20/96/63 75/90/63 74/88/63
f 21/97/64 76/91/64 75/90/64
f 21/97/65 17/102/65 72/92/65
