# Blender 5.2.1 LTS
# www.blender.org
mtllib splinter_b.mtl
o splinter_b
v 0.000000 0.000102 0.005083
v -0.016035 0.051523 0.032440
v 0.003856 0.050762 0.044121
v 0.021690 0.049553 0.028246
v 0.018157 0.048718 -0.022305
v -0.017047 0.050455 -0.023497
v -0.018267 0.162235 0.054478
v 0.016936 0.161166 0.089068
v 0.049581 0.158743 0.049503
v 0.035355 0.157504 -0.048003
v -0.030445 0.160960 -0.039712
v -0.010018 0.292196 0.063768
v 0.030552 0.290580 0.084388
v 0.065167 0.288074 0.045612
v 0.038498 0.287393 -0.055129
v -0.028498 0.291091 -0.037713
v 0.005940 0.401150 0.043354
v 0.034505 0.399855 0.050055
v 0.056520 0.398200 0.022340
v 0.035811 0.397828 -0.048033
v -0.013145 0.400689 -0.027376
v 0.024964 0.499270 -0.010329
v 0.020913 0.000000 0.007914
v 0.064655 0.015382 0.000533
v 0.056608 0.026250 -0.012121
v 0.042434 0.037123 -0.010790
v 0.027188 0.035479 0.028753
v 0.043587 0.017780 0.041840
v 0.128992 0.064410 0.013815
v 0.120081 0.081708 -0.015242
v 0.095513 0.102263 -0.017813
v 0.063568 0.103070 0.052898
v 0.089143 0.071982 0.083264
v 0.187435 0.131113 0.044686
v 0.183436 0.147247 0.007731
v 0.155630 0.167244 0.014151
v 0.117675 0.176869 0.073407
v 0.141474 0.145893 0.107513
v 0.223125 0.196703 0.076124
v 0.219296 0.208206 0.052009
v 0.204986 0.222946 0.042604
v 0.173366 0.232175 0.088511
v 0.188188 0.210642 0.116156
v 0.234621 0.271168 0.110197
v -0.020211 0.000000 -0.019774
v -0.052246 0.014398 -0.024035
v -0.054256 0.021856 -0.009027
v -0.039349 0.029307 -0.012116
v -0.017552 0.028235 -0.037263
v -0.030627 0.014301 -0.047311
v -0.095446 0.057511 -0.042844
v -0.098834 0.071292 -0.015462
v -0.071909 0.086143 -0.018638
v -0.036938 0.078421 -0.069334
v -0.059337 0.052406 -0.090245
v -0.135221 0.113030 -0.069255
v -0.125418 0.128363 -0.053298
v -0.101674 0.140094 -0.058453
v -0.067939 0.133916 -0.105167
v -0.096757 0.106627 -0.121413
v -0.154288 0.163916 -0.100461
v -0.146804 0.175681 -0.088176
v -0.127572 0.183977 -0.094431
v -0.106844 0.176693 -0.129147
v -0.127771 0.157658 -0.139595
v -0.155987 0.213448 -0.139899
vn -0.4459 -0.5248 0.7251
vn 0.5392 -0.5394 0.6468
vn 0.9240 -0.3780 -0.0583
vn 0.0052 -0.4923 -0.8704
vn -0.9508 -0.3088 0.0231
vn -0.4944 -0.2769 0.8239
vn -0.6949 -0.1538 0.7025
vn 0.6229 -0.2998 0.7226
vn 0.7169 -0.3341 0.6120
vn 0.9831 -0.1710 -0.0659
vn 0.9657 -0.2198 -0.1381
vn 0.0265 -0.1420 -0.9895
vn -0.1330 -0.2079 -0.9691
vn -0.9995 -0.0238 0.0185
vn -0.9865 -0.1007 0.1289
vn -0.6959 0.0989 0.7113
vn -0.4539 -0.0348 0.8904
vn 0.7671 -0.0733 0.6374
vn 0.7432 -0.0541 0.6669
vn 0.9891 -0.0318 -0.1439
vn 0.9595 -0.1233 -0.2532
vn -0.1241 0.0171 -0.9921
vn -0.2537 -0.0469 -0.9661
vn -0.9904 0.0538 0.1273
vn -0.9838 0.0120 0.1790
vn -0.4252 0.2853 0.8590
vn -0.2142 0.2101 0.9539
vn 0.7380 0.1945 0.6462
vn 0.7773 0.1628 0.6077
vn 0.9659 0.0399 -0.2560
vn 0.9592 0.0157 -0.2823
vn -0.2432 0.1248 -0.9619
vn -0.3858 0.0498 -0.9212
vn -0.9690 0.1746 0.1746
vn -0.9598 0.1101 0.2583
vn -0.1765 0.4986 0.8487
vn 0.7273 0.4060 0.5534
vn 0.9390 0.2035 -0.2774
vn -0.3573 0.2916 -0.8873
vn -0.9177 0.3123 0.2456
vn 0.1324 -0.7088 -0.6929
vn -0.3026 -0.2831 -0.9101
vn -0.8800 0.3465 -0.3249
vn -0.7477 -0.2330 0.6218
vn 0.3575 -0.9039 0.2348
vn 0.4291 -0.5322 -0.7299
vn 0.5775 -0.6113 -0.5410
vn -0.1080 -0.0191 -0.9940
vn 0.0293 -0.0895 -0.9956
vn -0.7977 0.5313 -0.2854
vn -0.7459 0.5707 -0.3435
vn -0.6476 -0.0373 0.7610
vn -0.6949 0.1208 0.7089
vn 0.5325 -0.7847 0.3172
vn 0.5365 -0.7486 0.3895
vn 0.7005 -0.4979 -0.5112
vn 0.7811 -0.5368 -0.3189
vn 0.2732 0.2091 -0.9390
vn 0.0118 0.3206 -0.9472
vn -0.7152 0.6161 -0.3301
vn -0.5303 0.7148 -0.4558
vn -0.6349 0.2052 0.7448
vn -0.6494 0.2796 0.7071
vn 0.5830 -0.7009 0.4109
vn 0.5771 -0.5929 0.5617
vn 0.9029 -0.3494 -0.2502
vn 0.8905 -0.3392 -0.3032
vn 0.0762 0.3992 -0.9137
vn 0.6503 0.1572 -0.7432
vn -0.5558 0.6873 -0.4676
vn -0.5105 0.7043 -0.4932
vn -0.6008 0.3367 0.7250
vn -0.6098 0.4327 0.6640
vn 0.5817 -0.5866 0.5635
vn 0.5624 -0.4942 0.6629
vn 0.9802 -0.0658 -0.1870
vn 0.7393 0.3511 -0.5746
vn -0.3748 0.8245 -0.4239
vn -0.5508 0.4891 0.6763
vn 0.6145 -0.4047 0.6772
vn -0.4220 -0.8331 0.3575
vn 0.2458 -0.0917 0.9650
vn 0.7244 0.3124 0.6145
vn 0.7830 -0.3792 -0.4931
vn -0.3519 -0.8785 -0.3231
vn -0.7387 -0.6378 0.2180
vn -0.7358 -0.6371 0.2296
vn 0.1139 0.1774 0.9775
vn 0.0304 0.1560 0.9873
vn 0.6296 0.5762 0.5211
vn 0.7535 0.4829 0.4462
vn 0.7225 -0.2010 -0.6615
vn 0.7506 -0.1247 -0.6489
vn -0.5113 -0.7182 -0.4719
vn -0.5396 -0.7756 -0.3275
vn -0.9223 -0.3789 0.0766
vn -0.7285 -0.2121 0.6514
vn -0.1855 0.5152 0.8368
vn -0.0760 0.5261 0.8470
vn 0.6838 0.6251 0.3765
vn 0.6556 0.6479 0.3878
vn 0.6640 0.0288 -0.7471
vn 0.6006 -0.1691 -0.7815
vn -0.6353 -0.6520 -0.4138
vn -0.6383 -0.6642 -0.3892
vn -0.8522 0.0004 0.5232
vn -0.8538 -0.0006 0.5207
vn -0.1165 0.5877 0.8007
vn 0.0049 0.5948 0.8039
vn 0.5964 0.7298 0.3342
vn 0.7051 0.6495 0.2847
vn 0.4965 -0.0075 -0.8680
vn 0.4828 -0.0510 -0.8742
vn -0.7062 -0.5431 -0.4541
vn -0.7167 -0.5758 -0.3935
vn -0.9136 0.2336 0.3328
vn -0.1442 0.7868 0.6001
vn 0.5664 0.8067 0.1689
vn 0.3223 0.1579 -0.9334
vn -0.7870 -0.4006 -0.4692
vt 0.225596 -0.069924
vt 0.296797 0.108621
vt 0.227607 0.111303
vt 0.270205 -0.068894
vt 0.275693 0.107293
vt 0.204102 0.111601
vt 0.748295 -0.055925
vt 0.826863 0.101611
vt 0.674842 0.104314
vt 0.750777 -0.063701
vt 0.802427 0.109843
vt 0.696796 0.103859
vt 0.752025 -0.057004
vt 0.832905 0.105187
vt 0.665070 0.101818
vt 0.177206 0.043184
vt 0.245381 0.038622
vt 0.362539 0.378580
vt 0.214875 0.379614
vt 0.229417 0.036606
vt 0.300767 0.035219
vt 0.311685 0.379021
vt 0.158131 0.389154
vt 0.674694 0.043529
vt 0.826552 0.042522
vt 0.897124 0.374302
vt 0.601630 0.379648
vt 0.702854 0.038943
vt 0.807844 0.046289
vt 0.844029 0.381637
vt 0.645273 0.373131
vt 0.662980 0.041622
vt 0.830399 0.045677
vt 0.895660 0.377847
vt 0.610961 0.374854
vt 0.161482 0.257333
vt 0.307924 0.253362
vt 0.332706 0.642608
vt 0.197888 0.646696
vt 0.153898 0.259286
vt 0.307740 0.251808
vt 0.347140 0.640782
vt 0.191223 0.648124
vt 0.597174 0.256152
vt 0.892293 0.253797
vt 0.911337 0.643314
vt 0.599196 0.646738
vt 0.655222 0.249675
vt 0.853741 0.260248
vt 0.849151 0.650484
vt 0.641886 0.639593
vt 0.598041 0.253040
vt 0.882866 0.256621
vt 0.914222 0.646951
vt 0.604871 0.643388
vt 0.182854 0.524775
vt 0.318638 0.516423
vt 0.292862 0.859058
vt 0.205646 0.859743
vt 0.141194 0.526812
vt 0.297050 0.518508
vt 0.333952 0.855144
vt 0.227804 0.859536
vt 0.579732 0.525580
vt 0.892345 0.523429
vt 0.873982 0.854990
vt 0.653941 0.856001
vt 0.651363 0.519295
vt 0.858683 0.529227
vt 0.824379 0.860654
vt 0.665575 0.850824
vt 0.597774 0.523381
vt 0.907051 0.525135
vt 0.857340 0.857240
vt 0.637835 0.854244
vt 0.212972 0.788302
vt 0.300967 0.783823
vt 0.236061 1.127875
vt 0.172339 0.793030
vt 0.278498 0.787597
vt 0.299163 1.119373
vt 0.636373 0.797151
vt 0.856442 0.796011
vt 0.757185 1.106839
vt 0.672724 0.790960
vt 0.832111 0.799932
vt 0.745165 1.109108
vt 0.650420 0.795745
vt 0.870201 0.797199
vt 0.729379 1.107056
vt 0.322883 -0.009018
vt 0.228977 0.102618
vt 0.198140 0.056401
vt 0.316516 -0.016075
vt 0.237546 0.100043
vt 0.195937 0.066032
vt 0.757623 -0.027396
vt 0.809751 0.086070
vt 0.682626 0.091326
vt 0.689382 -0.004766
vt 0.811131 0.050082
vt 0.749487 0.104683
vt 0.735728 -0.027537
vt 0.826274 0.080361
vt 0.687998 0.097176
vt 0.305951 0.096152
vt 0.349044 0.130126
vt 0.211121 0.342094
vt 0.133885 0.271627
vt 0.316254 0.103188
vt 0.358848 0.135539
vt 0.199216 0.331701
vt 0.125682 0.269572
vt 0.700745 0.091038
vt 0.827820 0.089193
vt 0.852069 0.329296
vt 0.619366 0.330474
vt 0.640139 0.144800
vt 0.702897 0.092126
vt 0.887602 0.254539
vt 0.769363 0.348535
vt 0.668678 0.099238
vt 0.806714 0.081436
vt 0.882071 0.315451
vt 0.642537 0.343875
vt 0.284712 0.306780
vt 0.373993 0.360709
vt 0.222129 0.598073
vt 0.119166 0.534439
vt 0.310552 0.318249
vt 0.384600 0.378435
vt 0.192308 0.584735
vt 0.112539 0.518582
vt 0.646520 0.298878
vt 0.877247 0.321262
vt 0.843662 0.599774
vt 0.632572 0.580086
vt 0.609059 0.383134
vt 0.726890 0.288446
vt 0.892663 0.515578
vt 0.771388 0.612842
vt 0.610114 0.333516
vt 0.846606 0.288887
vt 0.888155 0.566986
vt 0.655125 0.610611
vt 0.265085 0.562594
vt 0.374681 0.615128
vt 0.216405 0.809048
vt 0.143830 0.773231
vt 0.292868 0.561861
vt 0.364620 0.633583
vt 0.196259 0.801372
vt 0.146253 0.763185
vt 0.673953 0.552127
vt 0.882368 0.596245
vt 0.804787 0.823093
vt 0.638893 0.788535
vt 0.619792 0.641556
vt 0.740724 0.543924
vt 0.863684 0.750998
vt 0.775801 0.823521
vt 0.610989 0.602968
vt 0.840753 0.542964
vt 0.853478 0.785462
vt 0.694781 0.828606
vt 0.261217 0.813846
vt 0.334434 0.848430
vt 0.154349 1.037724
vt 0.289138 0.817014
vt 0.337762 0.864242
vt 0.123100 1.018743
vt 0.673334 0.798468
vt 0.835622 0.847397
vt 0.741044 1.054135
vt 0.659860 0.879982
vt 0.746709 0.805919
vt 0.843431 1.014099
vt 0.658835 0.849054
vt 0.817156 0.803325
vt 0.774010 1.047621
vt 0.287764 -0.015550
vt 0.246346 0.103003
vt 0.215890 0.062547
vt 0.306080 -0.001379
vt 0.244772 0.086913
vt 0.199148 0.064466
vt 0.753164 -0.010574
vt 0.798333 0.078595
vt 0.698502 0.081979
vt 0.707766 0.004032
vt 0.794322 0.050395
vt 0.747912 0.095573
vt 0.744707 -0.010073
vt 0.800296 0.080341
vt 0.704997 0.079732
vt 0.266725 0.105265
vt 0.308014 0.134580
vt 0.250418 0.326764
vt 0.174843 0.273391
vt 0.284551 0.117647
vt 0.329754 0.140765
vt 0.233450 0.313146
vt 0.152244 0.268443
vt 0.697941 0.120896
vt 0.796965 0.111573
vt 0.844915 0.293020
vt 0.660180 0.314511
vt 0.659674 0.164386
vt 0.708228 0.121628
vt 0.861797 0.237746
vt 0.770300 0.316240
vt 0.709203 0.111836
vt 0.803701 0.121383
vt 0.832883 0.310581
vt 0.654213 0.296200
vt 0.276693 0.334890
vt 0.349420 0.386747
vt 0.214599 0.559374
vt 0.159288 0.518989
vt 0.261800 0.327654
vt 0.340057 0.377231
vt 0.233020 0.569487
vt 0.165123 0.525628
vt 0.631232 0.357583
vt 0.815313 0.329630
vt 0.862661 0.543346
vt 0.690794 0.569441
vt 0.632558 0.406199
vt 0.724315 0.328778
vt 0.870414 0.491045
vt 0.772714 0.573978
vt 0.666674 0.329642
vt 0.844728 0.351648
vt 0.841247 0.571289
vt 0.647351 0.547421
vt 0.280020 0.593348
vt 0.336202 0.639346
vt 0.213467 0.781301
vt 0.170312 0.746005
vt 0.254565 0.584754
vt 0.324385 0.625516
vt 0.238559 0.791755
vt 0.182491 0.757974
vt 0.645786 0.616063
vt 0.816144 0.582319
vt 0.829474 0.769467
vt 0.708596 0.792152
vt 0.639168 0.660542
vt 0.738412 0.578700
vt 0.846251 0.731792
vt 0.776170 0.788966
vt 0.665527 0.584955
vt 0.859113 0.610938
vt 0.808488 0.791934
vt 0.666872 0.772174
vt 0.273534 0.836958
vt 0.315847 0.873258
vt 0.160619 0.989784
vt 0.253775 0.825367
vt 0.305490 0.865690
vt 0.190735 1.008943
vt 0.675357 0.862460
vt 0.792932 0.825485
vt 0.781711 1.012055
vt 0.676848 0.882053
vt 0.746421 0.824225
vt 0.826730 0.993722
vt 0.688621 0.832282
vt 0.830197 0.852770
vt 0.731182 1.014948
s 0
usemtl splinter
f 1/1/1 3/2/1 2/3/1
f 1/4/2 4/5/2 3/6/2
f 1/7/3 5/8/3 4/9/3
f 1/10/4 6/11/4 5/12/4
f 1/13/5 2/14/5 6/15/5
f 2/16/6 3/17/6 8/18/6
f 2/16/7 8/18/7 7/19/7
f 3/20/8 4/21/8 9/22/8
f 3/20/9 9/22/9 8/23/9
f 4/24/10 5/25/10 10/26/10
f 4/24/11 10/26/11 9/27/11
f 5/28/12 6/29/12 11/30/12
f 5/28/13 11/30/13 10/31/13
f 6/32/14 2/33/14 7/34/14
f 6/32/15 7/34/15 11/35/15
f 7/36/16 8/37/16 13/38/16
f 7/36/17 13/38/17 12/39/17
f 8/40/18 9/41/18 14/42/18
f 8/40/19 14/42/19 13/43/19
f 9/44/20 10/45/20 15/46/20
f 9/44/21 15/46/21 14/47/21
f 10/48/22 11/49/22 16/50/22
f 10/48/23 16/50/23 15/51/23
f 11/52/24 7/53/24 12/54/24
f 11/52/25 12/54/25 16/55/25
f 12/56/26 13/57/26 18/58/26
f 12/56/27 18/58/27 17/59/27
f 13/60/28 14/61/28 19/62/28
f 13/60/29 19/62/29 18/63/29
f 14/64/30 15/65/30 20/66/30
f 14/64/31 20/66/31 19/67/31
f 15/68/32 16/69/32 21/70/32
f 15/68/33 21/70/33 20/71/33
f 16/72/34 12/73/34 17/74/34
f 16/72/35 17/74/35 21/75/35
f 17/76/36 18/77/36 22/78/36
f 18/79/37 19/80/37 22/81/37
f 19/82/38 20/83/38 22/84/38
f 20/85/39 21/86/39 22/87/39
f 21/88/40 17/89/40 22/90/40
f 23/91/41 25/92/41 24/93/41
f 23/94/42 26/95/42 25/96/42
f 23/97/43 27/98/43 26/99/43
f 23/100/44 28/101/44 27/102/44
f 23/103/45 24/104/45 28/105/45
f 24/106/46 25/107/46 30/108/46
f 24/106/47 30/108/47 29/109/47
f 25/110/48 26/111/48 31/112/48
f 25/110/49 31/112/49 30/113/49
f 26/114/50 27/115/50 32/116/50
f 26/114/51 32/116/51 31/117/51
f 27/118/52 28/119/52 33/120/52
f 27/118/53 33/120/53 32/121/53
f 28/122/54 24/123/54 29/124/54
f 28/122/55 29/124/55 33/125/55
f 29/126/56 30/127/56 35/128/56
f 29/126/57 35/128/57 34/129/57
f 30/130/58 31/131/58 36/132/58
f 30/130/59 36/132/59 35/133/59
f 31/134/60 32/135/60 37/136/60
f 31/134/61 37/136/61 36/137/61
f 32/138/62 33/139/62 38/140/62
f 32/138/63 38/140/63 37/141/63
f 33/142/64 29/143/64 34/144/64
f 33/142/65 34/144/65 38/145/65
f 34/146/66 35/147/66 40/148/66
f 34/146/67 40/148/67 39/149/67
f 35/150/68 36/151/68 41/152/68
f 35/150/69 41/152/69 40/153/69
f 36/154/70 37/155/70 42/156/70
f 36/154/71 42/156/71 41/157/71
f 37/158/72 38/159/72 43/160/72
f 37/158/73 43/160/73 42/161/73
f 38/162/74 34/163/74 39/164/74
f 38/162/75 39/164/75 43/165/75
f 39/166/76 40/167/76 44/168/76
f 40/169/77 41/170/77 44/171/77
f 41/172/78 42/173/78 44/174/78
f 42/175/79 43/176/79 44/177/79
f 43/178/80 39/179/80 44/180/80
f 45/181/81 47/182/81 46/183/81
f 45/184/82 48/185/82 47/186/82
f 45/187/83 49/188/83 48/189/83
f 45/190/84 50/191/84 49/192/84
f 45/193/85 46/194/85 50/195/85
f 46/196/86 47/197/86 52/198/86
f 46/196/87 52/198/87 51/199/87
f 47/200/88 48/201/88 53/202/88
f 47/200/89 53/202/89 52/203/89
f 48/204/90 49/205/90 54/206/90
f 48/204/91 54/206/91 53/207/91
f 49/208/92 50/209/92 55/210/92
f 49/208/93 55/210/93 54/211/93
f 50/212/94 46/213/94 51/214/94
f 50/212/95 51/214/95 55/215/95
f 51/216/96 52/217/96 57/218/96
f 51/216/97 57/218/97 56/219/97
f 52/220/98 53/221/98 58/222/98
f 52/220/99 58/222/99 57/223/99
f 53/224/100 54/225/100 59/226/100
f 53/224/101 59/226/101 58/227/101
f 54/228/102 55/229/102 60/230/102
f 54/228/103 60/230/103 59/231/103
f 55/232/104 51/233/104 56/234/104
f 55/232/105 56/234/105 60/235/105
f 56/236/106 57/237/106 62/238/106
f 56/236/107 62/238/107 61/239/107
f 57/240/108 58/241/108 63/242/108
f 57/240/109 63/242/109 62/243/109
f 58/244/110 59/245/110 64/246/110
f 58/244/111 64/246/111 63/247/111
f 59/248/112 60/249/112 65/250/112
f 59/248/113 65/250/113 64/251/113
f 60/252/114 56/253/114 61/254/114
f 60/252/115 61/254/115 65/255/115
f 61/256/116 62/257/116 66/258/116
f 62/259/117 63/260/117 66/261/117
f 63/262/118 64/263/118 66/264/118
f 64/265/119 65/266/119 66/267/119
f 65/268/120 61/269/120 66/270/120
