# Blender 5.2.1 LTS
# www.blender.org
mtllib splinter_a.mtl
o splinter_a
v 0.000000 -0.000132 0.002639
v -0.012019 0.050080 0.035660
v 0.007727 0.046832 0.053229
v 0.026341 0.045604 0.033121
v 0.024606 0.048644 -0.023516
v -0.014676 0.053227 -0.020899
v -0.010631 0.158773 0.076992
v 0.028127 0.153551 0.088398
v 0.060106 0.151252 0.057632
v 0.046286 0.157750 -0.039169
v -0.016839 0.164590 -0.024454
v 0.012474 0.286721 0.084444
v 0.054162 0.280515 0.108519
v 0.084746 0.279221 0.060992
v 0.059847 0.287406 -0.042953
v -0.013262 0.294909 -0.017541
v 0.035282 0.395424 0.074153
v 0.066245 0.391270 0.082922
v 0.083365 0.391075 0.045742
v 0.061762 0.397032 -0.021548
v 0.015339 0.401326 0.003977
v 0.059499 0.495629 0.028767
vn -0.6100 -0.5321 0.5872
vn 0.5308 -0.6600 0.5317
vn 0.8800 -0.4720 -0.0523
vn -0.1095 -0.4262 -0.8979
vn -0.9672 -0.2522 0.0314
vn -0.6708 -0.1133 0.7330
vn -0.3072 -0.3348 0.8908
vn 0.6722 -0.3644 0.6445
vn 0.6367 -0.3484 0.6879
vn 0.9789 -0.2003 -0.0407
vn 0.9510 -0.2683 -0.1538
vn -0.0703 -0.0332 -0.9970
vn -0.2355 -0.0920 -0.9675
vn -0.9989 -0.0050 0.0466
vn -0.9980 -0.0175 0.0601
vn -0.2924 -0.0909 0.9520
vn -0.4954 0.0389 0.8678
vn 0.6799 -0.1498 0.7179
vn 0.8111 -0.2501 0.5288
vn 0.9832 -0.1071 -0.1476
vn 0.9538 -0.1773 -0.2424
vn -0.2207 0.0577 -0.9736
vn -0.3277 0.0067 -0.9448
vn -0.9824 0.1733 0.0701
vn -0.9693 0.0136 0.2457
vn -0.4567 0.2473 0.8546
vn -0.2518 0.1434 0.9571
vn 0.8390 0.0837 0.5376
vn 0.9083 -0.0024 0.4183
vn 0.9726 0.0281 -0.2308
vn 0.9509 -0.0303 -0.3080
vn -0.2923 0.2644 -0.9190
vn -0.4615 0.1778 -0.8692
vn -0.9411 0.2216 0.2553
vn -0.9390 0.1951 0.2833
vn -0.1889 0.4427 0.8766
vn 0.8763 0.2653 0.4021
vn 0.9428 0.1685 -0.2878
vn -0.4109 0.4069 -0.8158
vn -0.8950 0.3446 0.2833
vt 0.192741 -0.064777
vt 0.318156 0.101634
vt 0.239102 0.113143
vt 0.283168 -0.073395
vt 0.274485 0.109245
vt 0.192347 0.114150
vt 0.757341 -0.057205
vt 0.831290 0.108775
vt 0.661370 0.098430
vt 0.765875 -0.062905
vt 0.801028 0.114052
vt 0.683098 0.098853
vt 0.741389 -0.057029
vt 0.839229 0.098637
vt 0.669382 0.108392
vt 0.169826 0.045247
vt 0.246975 0.040510
vt 0.350896 0.366349
vt 0.232303 0.387895
vt 0.210924 0.042168
vt 0.293004 0.037136
vt 0.314599 0.377205
vt 0.181472 0.383492
vt 0.676754 0.037710
vt 0.846116 0.050116
vt 0.885192 0.384638
vt 0.591937 0.367536
vt 0.708222 0.036931
vt 0.825631 0.051547
vt 0.830160 0.385629
vt 0.635987 0.365893
vt 0.636813 0.049655
vt 0.806672 0.040234
vt 0.930707 0.366319
vt 0.625807 0.383792
vt 0.147846 0.266770
vt 0.267999 0.250781
vt 0.363885 0.632074
vt 0.220269 0.650375
vt 0.173661 0.256214
vt 0.305784 0.252858
vt 0.344541 0.641632
vt 0.176014 0.649296
vt 0.608991 0.243847
vt 0.901826 0.265640
vt 0.904826 0.656618
vt 0.584357 0.633895
vt 0.664602 0.244836
vt 0.858767 0.265027
vt 0.854263 0.656495
vt 0.622369 0.633642
vt 0.584462 0.265575
vt 0.887815 0.245353
vt 0.921065 0.633549
vt 0.606659 0.655523
vt 0.164642 0.532740
vt 0.307904 0.510737
vt 0.311644 0.853377
vt 0.215809 0.863147
vt 0.134737 0.525031
vt 0.303987 0.520670
vt 0.341837 0.857094
vt 0.219439 0.857205
vt 0.594303 0.511634
vt 0.914817 0.536142
vt 0.851338 0.865071
vt 0.639542 0.847152
vt 0.643292 0.513782
vt 0.875235 0.533178
vt 0.819618 0.865007
vt 0.661856 0.848033
vt 0.573669 0.537927
vt 0.889083 0.511973
vt 0.878055 0.846407
vt 0.659192 0.863693
vt 0.203771 0.792882
vt 0.300115 0.778985
vt 0.246114 1.128133
vt 0.162661 0.791965
vt 0.285459 0.791357
vt 0.301880 1.116678
vt 0.656132 0.787886
vt 0.868129 0.806016
vt 0.725739 1.106097
vt 0.672401 0.787362
vt 0.831230 0.801466
vt 0.746369 1.111171
vt 0.640116 0.805831
vt 0.858883 0.786969
vt 0.751001 1.107200
s 0
usemtl splinter
f 1/1/1 3/2/1 2/3/1
f 1/4/2 4/5/2 3/6/2
f 1/7/3 5/8/3 4/9/3
f 1/10/4 6/11/4 5/12/4
f 1/13/5 2/14/5 6/15/5
f 2/16/6 3/17/6 8/18/6
f 2/16/7 8/18/7 7/19/7
f 3/20/8 4/21/8 9/22/8
f 3/20/9 9/22/9 8/23/9
f 4/24/10 5/25/10 10/26/10
f 4/24/11 10/26/11 9/27/11
f 5/28/12 6/29/12 11/30/12
f 5/28/13 11/30/13 10/31/13
f 6/32/14 2/33/14 7/34/14
f 6/32/15 7/34/15 11/35/15
f 7/36/16 8/37/16 13/38/16
f 7/36/17 13/38/17 12/39/17
f 8/40/18 9/41/18 14/42/18
f 8/40/19 14/42/19 13/43/19
f 9/44/20 10/45/20 15/46/20
f 9/44/21 15/46/21 14/47/21
f 10/48/22 11/49/22 16/50/22
f 10/48/23 16/50/23 15/51/23
f 11/52/24 7/53/24 12/54/24
f 11/52/25 12/54/25 16/55/25
f 12/56/26 13/57/26 18/58/26
f 12/56/27 18/58/27 17/59/27
f 13/60/28 14/61/28 19/62/28
f 13/60/29 19/62/29 18/63/29
f 14/64/30 15/65/30 20/66/30
f 14/64/31 20/66/31 19/67/31
f 15/68/32 16/69/32 21/70/32
f 15/68/33 21/70/33 20/71/33
f 16/72/34 12/73/34 17/74/34
f 16/72/35 17/74/35 21/75/35
f 17/76/36 18/77/36 22/78/36
f 18/79/37 19/80/37 22/81/37
f 19/82/38 20/83/38 22/84/38
f 20/85/39 21/86/39 22/87/39
f 21/88/40 17/89/40 22/90/40
