# Blender 5.2.1 LTS
# www.blender.org
mtllib stile.mtl
o stile
v -1.000000 0.000000 0.140000
v 1.000000 0.000000 0.140000
v -1.000000 0.000000 -0.140000
v 1.000000 0.000000 -0.140000
v -1.000000 0.250000 0.140000
v 1.000000 0.250000 0.140000
v -1.000000 0.250000 -0.140000
v 1.000000 0.250000 -0.140000
v -1.000000 0.250000 0.100000
v 0.150000 0.250000 0.100000
v -1.000000 0.250000 -0.100000
v 0.150000 0.250000 -0.100000
v -1.000000 2.850000 0.100000
v 0.150000 2.850000 0.100000
v -1.000000 2.850000 -0.100000
v 0.150000 2.850000 -0.100000
v 0.150000 0.250000 0.100000
v 0.850000 0.250000 0.100000
v 0.150000 0.250000 -0.100000
v 0.850000 0.250000 -0.100000
v 0.150000 2.250000 0.100000
v 0.850000 2.250000 0.100000
v 0.150000 2.250000 -0.100000
v 0.850000 2.250000 -0.100000
v 0.850000 0.250000 0.100000
v 1.000000 0.250000 0.100000
v 0.850000 0.250000 -0.100000
v 1.000000 0.250000 -0.100000
v 0.850000 2.850000 0.100000
v 1.000000 2.850000 0.100000
v 0.850000 2.850000 -0.100000
v 1.000000 2.850000 -0.100000
v -1.000000 2.850000 0.140000
v 0.150000 2.850000 0.140000
v -1.000000 2.850000 -0.140000
v 0.150000 2.850000 -0.140000
v -1.000000 3.000000 0.140000
v 0.150000 3.000000 0.140000
v -1.000000 3.000000 -0.140000
v 0.150000 3.000000 -0.140000
v 0.850000 2.850000 0.140000
v 1.000000 2.850000 0.140000
v 0.850000 2.850000 -0.140000
v 1.000000 2.850000 -0.140000
v 0.850000 3.000000 0.140000
v 1.000000 3.000000 0.140000
v 0.850000 3.000000 -0.140000
v 1.000000 3.000000 -0.140000
v 0.150000 2.250000 0.150000
v 0.520000 2.250000 0.150000
v 0.150000 2.250000 -0.150000
v 0.520000 2.250000 -0.150000
v 0.150000 2.400000 0.150000
v 0.520000 2.400000 0.150000
v 0.150000 2.400000 -0.150000
v 0.520000 2.400000 -0.150000
v 0.520000 2.250000 0.140000
v 0.850000 2.250000 0.140000
v 0.520000 2.250000 -0.140000
v 0.850000 2.250000 -0.140000
v 0.520000 2.390000 0.140000
v 0.850000 2.390000 0.140000
v 0.520000 2.390000 -0.140000
v 0.850000 2.390000 -0.140000
v -0.790797 0.456314 0.422129
v -0.250877 0.446969 0.422129
v -0.791181 0.434085 -0.117413
v -0.251262 0.424740 -0.117413
v -0.788895 0.566204 0.417600
v -0.248975 0.556859 0.417600
v -0.789279 0.543976 -0.121942
v -0.249360 0.534631 -0.121942
v -0.462144 0.912800 0.400294
v 0.017265 0.888985 0.400294
v -0.462297 0.909717 -0.119696
v 0.017112 0.885902 -0.119696
v -0.457182 1.012675 0.399701
v 0.022226 0.988860 0.399701
v -0.457336 1.009592 -0.120290
v 0.022073 0.985777 -0.120290
v -0.198516 1.329496 0.438488
v 0.361348 1.341816 0.438488
v -0.198816 1.343111 -0.121347
v 0.361049 1.355432 -0.121347
v -0.201156 1.449431 0.441406
v 0.358709 1.461752 0.441406
v -0.201455 1.463046 -0.118428
v 0.358409 1.475367 -0.118428
v 0.150150 1.803078 0.391404
v 0.610147 1.804556 0.391404
v 0.150197 1.788187 -0.118378
v 0.610195 1.789665 -0.118378
v 0.149828 1.903035 0.388485
v 0.609826 1.904513 0.388485
v 0.149876 1.888144 -0.121298
v 0.609874 1.889622 -0.121298
vn -1.0000 -0.0000 -0.0000
vn 1.0000 -0.0000 -0.0000
vn -0.0000 -0.0000 1.0000
vn -0.0000 -0.0000 -1.0000
vn -0.0000 1.0000 -0.0000
vn -0.0000 -1.0000 -0.0000
vn -0.9999 0.0173 -0.0000
vn 0.9999 -0.0173 -0.0000
vn 0.0007 0.0412 0.9992
vn -0.0007 -0.0412 -0.9992
vn -0.0173 -0.9990 0.0412
vn 0.0173 0.9990 -0.0412
vn -0.9988 0.0496 -0.0000
vn 0.9988 -0.0496 -0.0000
vn 0.0003 0.0059 1.0000
vn -0.0003 -0.0059 -1.0000
vn -0.0496 -0.9988 0.0059
vn 0.0496 0.9988 -0.0059
vn -0.9998 -0.0220 -0.0000
vn 0.9998 0.0220 -0.0000
vn 0.0005 -0.0243 0.9997
vn -0.0005 0.0243 -0.9997
vn 0.0220 -0.9995 -0.0243
vn -0.0220 0.9995 0.0243
vn -1.0000 -0.0032 -0.0000
vn 1.0000 0.0032 -0.0000
vn -0.0001 0.0292 0.9996
vn 0.0001 -0.0292 -0.9996
vn 0.0032 -0.9996 0.0292
vn -0.0032 0.9996 -0.0292
vt 0.070000 0.125000
vt -0.070000 0.000000
vt 0.070000 0.000000
vt -0.070000 0.125000
vt 0.500000 0.000000
vt -0.500000 0.125000
vt -0.500000 0.000000
vt 0.500000 0.125000
vt 0.500000 -0.070000
vt -0.500000 0.070000
vt -0.500000 -0.070000
vt 0.050000 1.425000
vt -0.050000 0.125000
vt 0.050000 0.125000
vt -0.050000 1.425000
vt 0.075000 0.125000
vt -0.500000 1.425000
vt 0.500000 1.425000
vt -0.075000 0.125000
vt 0.050000 1.125000
vt -0.050000 1.125000
vt 0.425000 0.125000
vt 0.075000 1.125000
vt -0.075000 1.125000
vt -0.425000 0.125000
vt 0.425000 1.425000
vt -0.425000 1.425000
vt 0.070000 1.500000
vt -0.070000 1.425000
vt 0.070000 1.425000
vt -0.070000 1.500000
vt 0.075000 1.425000
vt -0.500000 1.500000
vt 0.500000 1.500000
vt -0.075000 1.425000
vt 0.500000 0.070000
vt -0.075000 -0.070000
vt 0.075000 -0.070000
vt 0.425000 1.500000
vt -0.425000 1.500000
vt -0.425000 0.070000
vt -0.425000 -0.070000
vt 0.425000 0.070000
vt 0.425000 -0.070000
vt 0.075000 1.200000
vt -0.075000 1.200000
vt 0.260000 1.125000
vt 0.075000 1.200000
vt 0.075000 1.125000
vt -0.075000 1.200000
vt -0.260000 1.125000
vt -0.075000 1.125000
vt -0.075000 0.075000
vt -0.260000 -0.075000
vt -0.075000 -0.075000
vt 0.260000 -0.075000
vt 0.075000 0.075000
vt 0.075000 -0.075000
vt 0.070000 1.195000
vt -0.070000 1.125000
vt 0.070000 1.125000
vt -0.070000 1.195000
vt 0.425000 1.125000
vt 0.260000 1.195000
vt 0.260000 1.125000
vt -0.260000 1.195000
vt -0.425000 1.125000
vt -0.260000 1.125000
vt -0.260000 0.070000
vt -0.425000 -0.070000
vt -0.260000 -0.070000
vt 0.425000 -0.070000
vt 0.260000 0.070000
vt 0.260000 -0.070000
vt 0.208800 0.276233
vt -0.058707 0.210164
vt 0.211064 0.221280
vt -0.211064 0.221280
vt 0.060971 0.265118
vt -0.208800 0.276233
vt -0.395549 0.219287
vt -0.124637 0.269602
vt -0.394596 0.274279
vt 0.394596 0.274279
vt 0.125589 0.214610
vt 0.395549 0.219287
vt -0.282822 0.357548
vt -0.138563 0.004009
vt -0.033923 0.252908
vt 0.033923 0.252908
vt 0.387461 0.108649
vt 0.282822 0.357548
vt 0.199850 0.494372
vt -0.059848 0.442830
vt 0.200147 0.444373
vt 0.059848 0.442830
vt -0.199850 0.494372
vt -0.200147 0.444373
vt 0.008574 0.443298
vt -0.228650 0.505144
vt -0.231131 0.455206
vt 0.228650 0.505144
vt -0.008574 0.443298
vt 0.231131 0.455206
vt -0.086887 0.244853
vt 0.199755 0.037401
vt 0.171276 0.275705
vt -0.199755 0.037401
vt 0.086887 0.244853
vt -0.171276 0.275705
vt 0.220703 0.726753
vt -0.060673 0.673580
vt 0.219244 0.666771
vt 0.060673 0.673580
vt -0.220703 0.726753
vt -0.219244 0.666771
vt 0.180557 0.676043
vt -0.100696 0.729866
vt -0.099375 0.669881
vt 0.099375 0.669880
vt -0.179236 0.736028
vt -0.180557 0.676043
vt 0.114425 0.000349
vt -0.281062 -0.019394
vt -0.073447 -0.207266
vt 0.281062 -0.019393
vt -0.114425 0.000348
vt 0.073448 -0.207266
vt 0.194242 0.951272
vt -0.059189 0.893848
vt 0.195702 0.901293
vt 0.059189 0.893848
vt -0.194242 0.951272
vt -0.195702 0.901293
vt 0.305092 0.896180
vt 0.074932 0.945441
vt 0.075093 0.895441
vt -0.075093 0.895441
vt -0.304931 0.946180
vt -0.305092 0.896180
vt 0.081121 -0.024339
vt 0.281843 0.254293
vt 0.053224 0.229131
vt -0.281843 0.254293
vt -0.081121 -0.024339
vt -0.053224 0.229130
vt 0.075000 1.500000
vt -0.075000 1.500000
vt -0.075000 0.070000
vt 0.075000 0.070000
vt 0.260000 1.200000
vt -0.260000 1.200000
vt -0.260000 0.075000
vt 0.260000 0.075000
vt 0.425000 1.195000
vt -0.425000 1.195000
vt -0.425000 0.070000
vt 0.425000 0.070000
vt -0.060971 0.265118
vt 0.058707 0.210164
vt -0.125589 0.214610
vt 0.124637 0.269602
vt -0.387461 0.108649
vt 0.138563 0.004010
vt -0.060145 0.492829
vt 0.060145 0.492829
vt 0.011054 0.493236
vt -0.011054 0.493236
vt -0.058408 0.006548
vt 0.058408 0.006549
vt -0.059214 0.733562
vt 0.059214 0.733562
vt 0.179236 0.736028
vt 0.100696 0.729866
vt -0.093190 0.188221
vt 0.093189 0.188222
vt -0.060649 0.943826
vt 0.060649 0.943826
vt 0.304931 0.946180
vt -0.074932 0.945441
vt 0.309740 0.000823
vt -0.309740 0.000823
s 0
usemtl wall_stone
f 5/1/1 3/2/1 1/3/1
f 4/3/2 6/4/2 2/2/2
f 2/5/3 5/6/3 1/7/3
f 7/8/4 4/7/4 3/5/4
f 6/9/5 7/10/5 5/11/5
f 13/12/1 11/13/1 9/14/1
f 12/14/2 14/15/2 10/13/2
f 10/16/3 13/17/3 9/6/3
f 15/18/4 12/19/4 11/8/4
f 21/20/1 19/13/1 17/14/1
f 20/14/2 22/21/2 18/13/2
f 18/22/3 21/23/3 17/16/3
f 23/24/4 20/25/4 19/19/4
f 29/12/1 27/13/1 25/14/1
f 28/14/2 30/15/2 26/13/2
f 26/8/3 29/26/3 25/22/3
f 31/27/4 28/6/4 27/25/4
f 37/28/1 35/29/1 33/30/1
f 36/30/2 38/31/2 34/29/2
f 34/32/3 37/33/3 33/17/3
f 39/34/4 36/35/4 35/18/4
f 35/36/6 34/37/6 33/9/6
f 38/38/5 39/10/5 37/11/5
f 45/28/1 43/29/1 41/30/1
f 44/30/2 46/31/2 42/29/2
f 42/18/3 45/39/3 41/26/3
f 47/40/4 44/17/4 43/27/4
f 43/41/6 42/11/6 41/42/6
f 46/9/5 47/43/5 45/44/5
f 53/45/1 51/24/1 49/23/1
f 52/23/2 54/46/2 50/24/2
f 50/47/3 53/48/3 49/49/3
f 55/50/4 52/51/4 51/52/4
f 51/53/6 50/54/6 49/55/6
f 54/56/5 55/57/5 53/58/5
f 61/59/1 59/60/1 57/61/1
f 60/61/2 62/62/2 58/60/2
f 58/63/3 61/64/3 57/65/3
f 63/66/4 60/67/4 59/68/4
f 59/69/6 58/70/6 57/71/6
f 62/72/5 63/73/5 61/74/5
f 69/75/7 67/76/7 65/77/7
f 66/78/8 72/79/8 70/80/8
f 65/81/9 70/82/9 69/83/9
f 71/84/10 68/85/10 67/86/10
f 65/87/11 68/88/11 66/89/11
f 70/90/12 71/91/12 69/92/12
f 77/93/13 75/94/13 73/95/13
f 76/96/14 78/97/14 74/98/14
f 74/99/15 77/100/15 73/101/15
f 79/102/16 76/103/16 75/104/16
f 75/105/17 74/106/17 73/107/17
f 78/108/18 79/109/18 77/110/18
f 85/111/19 83/112/19 81/113/19
f 84/114/20 86/115/20 82/116/20
f 82/117/21 85/118/21 81/119/21
f 83/120/22 88/121/22 84/122/22
f 83/123/23 82/124/23 81/125/23
f 86/126/24 87/127/24 85/128/24
f 93/129/25 91/130/25 89/131/25
f 92/132/26 94/133/26 90/134/26
f 90/135/27 93/136/27 89/137/27
f 91/138/28 96/139/28 92/140/28
f 91/141/29 90/142/29 89/143/29
f 94/144/30 95/145/30 93/146/30
f 5/1/1 7/4/1 3/2/1
f 4/3/2 8/1/2 6/4/2
f 2/5/3 6/8/3 5/6/3
f 7/8/4 8/6/4 4/7/4
f 6/9/5 8/36/5 7/10/5
f 13/12/1 15/15/1 11/13/1
f 12/14/2 16/12/2 14/15/2
f 10/16/3 14/32/3 13/17/3
f 15/18/4 16/35/4 12/19/4
f 21/20/1 23/21/1 19/13/1
f 20/14/2 24/20/2 22/21/2
f 18/22/3 22/63/3 21/23/3
f 23/24/4 24/67/4 20/25/4
f 29/12/1 31/15/1 27/13/1
f 28/14/2 32/12/2 30/15/2
f 26/8/3 30/18/3 29/26/3
f 31/27/4 32/17/4 28/6/4
f 37/28/1 39/31/1 35/29/1
f 36/30/2 40/28/2 38/31/2
f 34/32/3 38/147/3 37/33/3
f 39/34/4 40/148/4 36/35/4
f 35/36/6 36/149/6 34/37/6
f 38/38/5 40/150/5 39/10/5
f 45/28/1 47/31/1 43/29/1
f 44/30/2 48/28/2 46/31/2
f 42/18/3 46/34/3 45/39/3
f 47/40/4 48/33/4 44/17/4
f 43/41/6 44/10/6 42/11/6
f 46/9/5 48/36/5 47/43/5
f 53/45/1 55/46/1 51/24/1
f 52/23/2 56/45/2 54/46/2
f 50/47/3 54/151/3 53/48/3
f 55/50/4 56/152/4 52/51/4
f 51/53/6 52/153/6 50/54/6
f 54/56/5 56/154/5 55/57/5
f 61/59/1 63/62/1 59/60/1
f 60/61/2 64/59/2 62/62/2
f 58/63/3 62/155/3 61/64/3
f 63/66/4 64/156/4 60/67/4
f 59/69/6 60/157/6 58/70/6
f 62/72/5 64/158/5 63/73/5
f 69/75/7 71/159/7 67/76/7
f 66/78/8 68/160/8 72/79/8
f 65/81/9 66/161/9 70/82/9
f 71/84/10 72/162/10 68/85/10
f 65/87/11 67/163/11 68/88/11
f 70/90/12 72/164/12 71/91/12
f 77/93/13 79/165/13 75/94/13
f 76/96/14 80/166/14 78/97/14
f 74/99/15 78/167/15 77/100/15
f 79/102/16 80/168/16 76/103/16
f 75/105/17 76/169/17 74/106/17
f 78/108/18 80/170/18 79/109/18
f 85/111/19 87/171/19 83/112/19
f 84/114/20 88/172/20 86/115/20
f 82/117/21 86/173/21 85/118/21
f 83/120/22 87/174/22 88/121/22
f 83/123/23 84/175/23 82/124/23
f 86/126/24 88/176/24 87/127/24
f 93/129/25 95/177/25 91/130/25
f 92/132/26 96/178/26 94/133/26
f 90/135/27 94/179/27 93/136/27
f 91/138/28 95/180/28 96/139/28
f 91/141/29 92/181/29 90/142/29
f 94/144/30 96/182/30 95/145/30
