# Blender 5.2.1 LTS
# www.blender.org
mtllib stile_post.mtl
o stile_post
v 0.750000 -0.150000 0.370000
v 0.850000 -0.150000 0.370000
v 0.750000 -0.150000 0.270000
v 0.850000 -0.150000 0.270000
v 0.750000 2.901875 0.370000
v 0.850000 2.901875 0.370000
v 0.750000 2.901875 0.270000
v 0.850000 2.901875 0.270000
v 0.750000 2.901875 0.370000
v 0.850000 2.901875 0.370000
v 0.750000 2.901875 0.270000
v 0.850000 2.901875 0.270000
v 0.750000 3.058125 0.370000
v 0.850000 3.058125 0.370000
v 0.750000 3.058125 0.270000
v 0.850000 3.058125 0.270000
v 0.750000 3.058125 0.370000
v 0.850000 3.058125 0.370000
v 0.750000 3.058125 0.270000
v 0.850000 3.058125 0.270000
v 0.750000 3.250000 0.370000
v 0.850000 3.250000 0.370000
v 0.750000 3.250000 0.270000
v 0.850000 3.250000 0.270000
v 0.730000 3.250000 0.390000
v 0.870000 3.250000 0.390000
v 0.730000 3.250000 0.250000
v 0.870000 3.250000 0.250000
v 0.730000 3.290000 0.390000
v 0.870000 3.290000 0.390000
v 0.730000 3.290000 0.250000
v 0.870000 3.290000 0.250000
v 0.750000 2.972000 0.320000
v 0.750000 2.980000 0.312000
v 0.750000 2.988000 0.320000
v 0.750000 2.980000 0.328000
v 0.682105 2.972282 0.320000
v 0.680000 2.980000 0.312000
v 0.677895 2.987718 0.320000
v 0.680000 2.980000 0.328000
v 0.646784 2.945760 0.320000
v 0.640000 2.950000 0.312000
v 0.633216 2.954240 0.320000
v 0.640000 2.950000 0.328000
v 0.637951 2.900883 0.320000
v 0.630000 2.900000 0.312000
v 0.622049 2.899117 0.320000
v 0.630000 2.900000 0.328000
v 0.654116 2.866860 0.320000
v 0.650000 2.860000 0.312000
v 0.645884 2.853140 0.320000
v 0.650000 2.860000 0.328000
v 0.674685 2.875979 0.320000
v 0.680000 2.870000 0.312000
v 0.685315 2.864021 0.320000
v 0.680000 2.870000 0.328000
v 0.687845 2.903578 0.320000
v 0.695000 2.900000 0.312000
v 0.702155 2.896422 0.320000
v 0.695000 2.900000 0.328000
vn -1.0000 -0.0000 -0.0000
vn 1.0000 -0.0000 -0.0000
vn -0.0000 -0.0000 1.0000
vn -0.0000 -0.0000 -1.0000
vn -0.0000 -1.0000 -0.0000
vn -0.0000 1.0000 -0.0000
vn -0.0000 -0.7071 -0.7071
vn -0.0030 -0.7201 -0.6939
vn -0.0028 0.7071 -0.7071
vn -0.0000 0.7197 -0.6943
vn -0.0000 0.7071 0.7071
vn -0.0028 0.7193 0.6947
vn -0.0029 -0.7071 0.7071
vn -0.0000 -0.7197 0.6943
vn 0.4394 -0.5859 -0.6809
vn 0.4390 -0.5847 -0.6822
vn -0.4391 0.5861 -0.6810
vn -0.4387 0.5850 -0.6821
vn -0.4394 0.5859 0.6809
vn -0.4385 0.5852 0.6820
vn 0.4398 -0.5857 0.6808
vn 0.4387 -0.5850 0.6821
vn 0.7161 -0.1432 -0.6832
vn 0.7100 -0.1397 -0.6902
vn -0.7154 0.1449 -0.6835
vn -0.7099 0.1420 -0.6899
vn -0.7161 0.1432 0.6831
vn -0.7098 0.1438 0.6896
vn 0.7169 -0.1411 0.6827
vn 0.7099 -0.1420 0.6899
vn 0.6522 0.3261 -0.6843
vn 0.6941 0.3298 -0.6399
vn -0.6491 -0.3365 -0.6823
vn -0.6836 -0.3418 -0.6448
vn -0.6522 -0.3261 0.6843
vn -0.6760 -0.3504 0.6483
vn 0.6564 0.3119 0.6869
vn 0.6836 0.3418 0.6448
vn -0.2650 0.7951 -0.5455
vn -0.2935 0.6619 -0.6897
vn 0.2190 -0.7935 -0.5678
vn 0.2328 -0.6985 -0.6767
vn 0.2650 -0.7951 0.5454
vn 0.1980 -0.7175 0.6678
vn -0.3513 0.7924 0.4987
vn -0.2328 0.6985 0.6767
vn -0.6555 0.3277 -0.6804
vn -0.6383 0.3044 -0.7070
vn 0.6484 -0.3370 -0.6826
vn 0.6325 -0.3162 -0.7071
vn 0.6555 -0.3277 0.6804
vn 0.6275 -0.3261 0.7071
vn -0.6638 0.3165 0.6776
vn -0.6325 0.3162 0.7071
vn 0.4472 0.8944 -0.0000
vt 0.462500 0.648438
vt 0.412500 0.238281
vt 0.462500 0.238281
vt 0.462500 0.238281
vt 0.412500 0.648438
vt 0.412500 0.238281
vt 0.462500 0.726562
vt 0.412500 0.648438
vt 0.462500 0.648438
vt 0.412500 0.726562
vt 0.462500 0.822500
vt 0.412500 0.726562
vt 0.462500 0.726562
vt 0.412500 0.822500
vt 0.472500 0.447500
vt 0.402500 0.427500
vt 0.472500 0.427500
vt 0.402500 0.447500
vt 0.472500 0.447500
vt 0.402500 0.427500
vt 0.472500 0.427500
vt 0.472500 0.472500
vt 0.402500 0.402500
vt 0.472500 0.402500
vt 0.472500 0.402500
vt 0.402500 0.472500
vt 0.402500 0.402500
vt 0.490130 0.689386
vt 0.455130 0.689386
vt 0.455130 0.683729
vt 0.477768 0.685714
vt 0.478803 0.691275
vt 0.443820 0.685511
vt 0.490837 0.689253
vt 0.454785 0.689452
vt 0.454769 0.683795
vt 0.478113 0.685647
vt 0.479165 0.691205
vt 0.443113 0.685647
vt 0.443464 0.685614
vt 0.478464 0.685614
vt 0.478464 0.691271
vt 0.454423 0.689284
vt 0.455492 0.683729
vt 0.490475 0.689487
vt 0.444160 0.685747
vt 0.478107 0.685548
vt 0.478124 0.691205
vt 0.454779 0.689353
vt 0.455832 0.683795
vt 0.489779 0.689353
vt 0.479017 0.676747
vt 0.462213 0.695257
vt 0.459160 0.690495
vt 0.470075 0.681180
vt 0.475092 0.683793
vt 0.455224 0.697526
vt 0.480330 0.675315
vt 0.461556 0.695974
vt 0.458504 0.691211
vt 0.470732 0.680464
vt 0.475748 0.683078
vt 0.453911 0.698959
vt 0.456612 0.673573
vt 0.473416 0.692083
vt 0.470363 0.696845
vt 0.458861 0.681490
vt 0.463878 0.678876
vt 0.477652 0.702134
vt 0.457926 0.675005
vt 0.472760 0.691367
vt 0.469705 0.696128
vt 0.459518 0.682206
vt 0.464534 0.679592
vt 0.476339 0.700701
vt 0.470843 0.671374
vt 0.467392 0.696634
vt 0.462156 0.694492
vt 0.465943 0.680095
vt 0.471583 0.679649
vt 0.462865 0.702756
vt 0.471113 0.669644
vt 0.467256 0.697500
vt 0.462021 0.695357
vt 0.466079 0.679230
vt 0.471718 0.678784
vt 0.462594 0.704486
vt 0.466241 0.669946
vt 0.469693 0.695206
vt 0.464457 0.697348
vt 0.463620 0.678067
vt 0.469259 0.678514
vt 0.467511 0.705919
vt 0.466512 0.671676
vt 0.469557 0.694341
vt 0.464322 0.696483
vt 0.463756 0.678933
vt 0.469395 0.679379
vt 0.467240 0.704189
vt 0.463850 0.673240
vt 0.471089 0.694396
vt 0.465451 0.694864
vt 0.463525 0.682704
vt 0.467861 0.679071
vt 0.469004 0.700724
vt 0.462920 0.671069
vt 0.471554 0.695481
vt 0.465917 0.695950
vt 0.463069 0.681623
vt 0.467391 0.677973
vt 0.469931 0.702905
vt 0.473502 0.673551
vt 0.466263 0.694708
vt 0.460626 0.694241
vt 0.468109 0.678098
vt 0.472421 0.681760
vt 0.459860 0.702642
vt 0.472572 0.675718
vt 0.466728 0.693623
vt 0.461091 0.693158
vt 0.467643 0.679189
vt 0.471965 0.682839
vt 0.460782 0.700471
vt 0.457837 0.691111
vt 0.471328 0.682867
vt 0.471225 0.688522
vt 0.464979 0.690857
vt 0.460968 0.686869
vt 0.474443 0.684774
vt 0.454694 0.691581
vt 0.473089 0.682641
vt 0.472608 0.688278
vt 0.463340 0.691221
vt 0.459526 0.687044
vt 0.477524 0.684235
vt 0.475825 0.694882
vt 0.462334 0.686637
vt 0.462231 0.680981
vt 0.474326 0.688673
vt 0.470641 0.692965
vt 0.455424 0.680862
vt 0.472195 0.694357
vt 0.463787 0.686883
vt 0.464408 0.681260
vt 0.472796 0.688436
vt 0.468982 0.692614
vt 0.458612 0.681450
vt 0.461633 0.697030
vt 0.467034 0.681153
vt 0.471723 0.684317
vt 0.466948 0.692955
vt 0.461612 0.691077
vt 0.471832 0.678468
vt 0.461166 0.697913
vt 0.467271 0.680706
vt 0.471953 0.683881
vt 0.466711 0.693399
vt 0.461378 0.691513
vt 0.472301 0.677588
vt 0.468835 0.699139
vt 0.463433 0.683262
vt 0.468122 0.680098
vt 0.470673 0.692582
vt 0.465342 0.694474
vt 0.464375 0.675444
vt 0.468364 0.698249
vt 0.463664 0.683701
vt 0.468362 0.680550
vt 0.470438 0.692142
vt 0.465105 0.694028
vt 0.464848 0.676330
vt 0.462797 0.687500
vt 0.470797 0.687500
vt 0.466797 0.691500
vt 0.412500 0.822500
vt 0.462500 0.822500
vt 0.402500 0.447500
vt 0.402500 0.472500
vt 0.472500 0.472500
vt 0.466797 0.683500
s 0
usemtl gate_wood
f 5/1/1 3/2/1 1/3/1
f 4/4/2 6/5/2 2/6/2
f 2/3/3 5/5/3 1/6/3
f 7/1/4 4/6/4 3/3/4
f 13/7/1 11/8/1 9/1/1
f 12/9/2 14/10/2 10/5/2
f 10/1/3 13/10/3 9/5/3
f 15/7/4 12/5/4 11/1/4
f 21/11/1 19/12/1 17/7/1
f 20/13/2 22/14/2 18/10/2
f 18/7/3 21/14/3 17/10/3
f 23/11/4 20/10/4 19/7/4
f 29/15/1 27/16/1 25/17/1
f 28/17/2 30/18/2 26/16/2
f 26/17/3 29/18/3 25/16/3
f 31/19/4 28/20/4 27/21/4
f 27/22/5 26/23/5 25/24/5
f 30/25/6 31/26/6 29/27/6
f 38/28/7 34/29/7 33/30/7
f 37/31/8 38/32/8 33/33/8
f 39/34/9 35/35/9 34/36/9
f 38/37/10 39/38/10 34/39/10
f 40/40/11 36/41/11 35/42/11
f 39/43/12 40/44/12 35/45/12
f 37/46/13 33/47/13 36/48/13
f 40/49/14 37/50/14 36/51/14
f 42/52/15 38/53/15 37/54/15
f 41/55/16 42/56/16 37/57/16
f 43/58/17 39/59/17 38/60/17
f 42/61/18 43/62/18 38/63/18
f 44/64/19 40/65/19 39/66/19
f 43/67/20 44/68/20 39/69/20
f 41/70/21 37/71/21 40/72/21
f 44/73/22 41/74/22 40/75/22
f 46/76/23 42/77/23 41/78/23
f 45/79/24 46/80/24 41/81/24
f 47/82/25 43/83/25 42/84/25
f 46/85/26 47/86/26 42/87/26
f 48/88/27 44/89/27 43/90/27
f 47/91/28 48/92/28 43/93/28
f 45/94/29 41/95/29 44/96/29
f 48/97/30 45/98/30 44/99/30
f 50/100/31 46/101/31 45/102/31
f 49/103/32 50/104/32 45/105/32
f 51/106/33 47/107/33 46/108/33
f 50/109/34 51/110/34 46/111/34
f 52/112/35 48/113/35 47/114/35
f 51/115/36 52/116/36 47/117/36
f 49/118/37 45/119/37 48/120/37
f 52/121/38 49/122/38 48/123/38
f 54/124/39 50/125/39 49/126/39
f 53/127/40 54/128/40 49/129/40
f 55/130/41 51/131/41 50/132/41
f 54/133/42 55/134/42 50/135/42
f 56/136/43 52/137/43 51/138/43
f 55/139/44 56/140/44 51/141/44
f 53/142/45 49/143/45 52/144/45
f 56/145/46 53/146/46 52/147/46
f 58/148/47 54/149/47 53/150/47
f 57/151/48 58/152/48 53/153/48
f 59/154/49 55/155/49 54/156/49
f 58/157/50 59/158/50 54/159/50
f 60/160/51 56/161/51 55/162/51
f 59/163/52 60/164/52 55/165/52
f 57/166/53 53/167/53 56/168/53
f 60/169/54 57/170/54 56/171/54
f 60/172/55 58/173/55 57/174/55
f 5/1/1 7/8/1 3/2/1
f 4/4/2 8/9/2 6/5/2
f 2/3/3 6/1/3 5/5/3
f 7/1/4 8/5/4 4/6/4
f 13/7/1 15/12/1 11/8/1
f 12/9/2 16/13/2 14/10/2
f 10/1/3 14/7/3 13/10/3
f 15/7/4 16/10/4 12/5/4
f 21/11/1 23/175/1 19/12/1
f 20/13/2 24/176/2 22/14/2
f 18/7/3 22/11/3 21/14/3
f 23/11/4 24/14/4 20/10/4
f 29/15/1 31/18/1 27/16/1
f 28/17/2 32/15/2 30/18/2
f 26/17/3 30/15/3 29/18/3
f 31/19/4 32/177/4 28/20/4
f 27/22/5 28/178/5 26/23/5
f 30/25/6 32/179/6 31/26/6
f 60/172/55 59/180/55 58/173/55
