# Blender 5.2.1 LTS
# www.blender.org
mtllib stone_sheep.mtl
o stone_sheep
v 0.284761 0.397835 0.000000
v 0.244978 0.295121 0.000000
v 0.244978 0.318773 -0.066341
v 0.244978 0.379548 -0.103711
v 0.244978 0.450249 -0.090783
v 0.244978 0.502927 -0.038250
v 0.244978 0.495023 0.035374
v 0.244978 0.443389 0.078902
v 0.244978 0.379910 0.101655
v 0.244978 0.317170 0.067686
v 0.149498 0.242348 0.000000
v 0.149498 0.277783 -0.100736
v 0.149498 0.368010 -0.169146
v 0.149498 0.474951 -0.133569
v 0.149498 0.552494 -0.056291
v 0.149498 0.552934 0.056452
v 0.149498 0.469589 0.124282
v 0.149498 0.372788 0.142050
v 0.149498 0.284247 0.095312
v 0.006277 0.225444 0.000000
v 0.006277 0.266452 -0.110244
v 0.006277 0.366391 -0.178325
v 0.006277 0.477783 -0.138474
v 0.006277 0.568628 -0.062164
v 0.006277 0.567730 0.061837
v 0.006277 0.484554 0.150202
v 0.006277 0.364276 0.190323
v 0.006277 0.251176 0.123062
v -0.136944 0.212304 0.000000
v -0.136944 0.271441 -0.106057
v -0.136944 0.366769 -0.176182
v -0.136944 0.478833 -0.140292
v -0.136944 0.541702 -0.052363
v -0.136944 0.570984 0.063021
v -0.136944 0.495353 0.168907
v -0.136944 0.369348 0.161558
v -0.136944 0.277405 0.101053
v -0.264251 0.230215 0.000000
v -0.264251 0.281993 -0.097203
v -0.264251 0.370094 -0.157327
v -0.264251 0.478192 -0.139183
v -0.264251 0.559310 -0.058772
v -0.264251 0.532005 0.048834
v -0.264251 0.483841 0.148967
v -0.264251 0.368177 0.168200
v -0.264251 0.280804 0.098200
v -0.351775 0.308196 0.000000
v -0.351775 0.328110 -0.058506
v -0.351775 0.378459 -0.109887
v -0.351775 0.448999 -0.088620
v -0.351775 0.494722 -0.035264
v -0.351775 0.488260 0.032912
v -0.351775 0.449063 0.088730
v -0.351775 0.378959 0.107050
v -0.351775 0.327859 0.058717
v -0.383601 0.397835 0.000000
v 0.238717 0.548987 -0.023514
v 0.219085 0.494017 -0.077586
v 0.193519 0.422432 -0.054073
v 0.187585 0.405817 0.023514
v 0.207217 0.460787 0.077586
v 0.232783 0.532372 0.054073
v 0.450000 0.437207 -0.012933
v 0.439202 0.406973 -0.042672
v 0.425141 0.367602 -0.029740
v 0.421877 0.358463 0.012933
v 0.432675 0.388697 0.042672
v 0.446736 0.428068 0.029740
v 0.292718 0.513601 0.043841
v 0.312565 0.492170 0.045508
v 0.292718 0.473030 0.035726
v 0.272872 0.494460 0.034059
v 0.268848 0.483644 0.120599
v 0.274955 0.477050 0.121112
v 0.268848 0.471160 0.118102
v 0.262741 0.477754 0.117589
v -0.269025 -0.103437 0.108211
v -0.211737 -0.103437 0.108211
v -0.269025 -0.103437 0.050923
v -0.211737 -0.103437 0.050923
v -0.269025 0.262571 0.108211
v -0.211737 0.262571 0.108211
v -0.269025 0.262571 0.050923
v -0.211737 0.262571 0.050923
v 0.096983 -0.103437 0.108211
v 0.154272 -0.103437 0.108211
v 0.096983 -0.103437 0.050923
v 0.154272 -0.103437 0.050923
v 0.096983 0.262571 0.108211
v 0.154272 0.262571 0.108211
v 0.096983 0.262571 0.050923
v 0.154272 0.262571 0.050923
v 0.292718 0.473030 -0.035726
v 0.312565 0.492170 -0.045508
v 0.292718 0.513601 -0.043841
v 0.272872 0.494460 -0.034059
v 0.268848 0.471160 -0.118102
v 0.274955 0.477050 -0.121112
v 0.268848 0.483644 -0.120599
v 0.262741 0.477754 -0.117589
v -0.269025 -0.103437 -0.050923
v -0.211737 -0.103437 -0.050923
v -0.269025 -0.103437 -0.108211
v -0.211737 -0.103437 -0.108211
v -0.269025 0.262571 -0.050923
v -0.211737 0.262571 -0.050923
v -0.269025 0.262571 -0.108211
v -0.211737 0.262571 -0.108211
v 0.096983 -0.103437 -0.050923
v 0.154272 -0.103437 -0.050923
v 0.096983 -0.103437 -0.108211
v 0.154272 -0.103437 -0.108211
v 0.096983 0.262571 -0.050923
v 0.154272 0.262571 -0.050923
v 0.096983 0.262571 -0.108211
v 0.154272 0.262571 -0.108211
v -0.359731 0.437618 0.039783
v -0.332977 0.410864 0.012294
v -0.343196 0.421083 -0.032186
v -0.376266 0.454154 -0.032186
v -0.386486 0.464373 0.012294
v -0.439298 0.358051 0.015913
v -0.428597 0.347350 0.004918
v -0.432684 0.351437 -0.012874
v -0.445912 0.364666 -0.012874
v -0.450000 0.368753 0.004918
vn 0.9249 -0.3582 -0.1277
vn 0.9265 -0.1972 -0.3206
vn 0.9275 0.0672 -0.3677
vn 0.9308 0.2581 -0.2589
vn 0.9297 0.3663 0.0393
vn 0.9141 0.2613 0.3100
vn 0.9140 0.1369 0.3818
vn 0.9265 -0.1792 0.3310
vn 0.9261 -0.3587 0.1169
vn 0.4645 -0.8354 -0.2939
vn 0.4618 -0.8355 -0.2979
vn 0.5264 -0.5137 -0.6775
vn 0.4695 -0.4625 -0.7521
vn 0.4521 0.2816 -0.8464
vn 0.5464 0.1506 -0.8239
vn 0.4474 0.6313 -0.6335
vn 0.4472 0.6316 -0.6333
vn 0.5181 0.8553 -0.0033
vn 0.4443 0.8907 0.0956
vn 0.4764 0.5550 0.6819
vn 0.4884 0.5624 0.6672
vn 0.3735 0.1675 0.9124
vn 0.4751 0.2969 0.8283
vn 0.3848 -0.4309 0.8163
vn 0.3774 -0.4409 0.8143
vn 0.4515 -0.8168 0.3591
vn 0.3853 -0.8774 0.2858
vn 0.0968 -0.9329 -0.3470
vn 0.1107 -0.9375 -0.3298
vn 0.0592 -0.5620 -0.8250
vn 0.1002 -0.6011 -0.7928
vn 0.0389 0.3366 -0.9408
vn 0.0571 0.3152 -0.9473
vn 0.1033 0.6398 -0.7616
vn 0.0382 0.7054 -0.7078
vn 0.1030 0.9947 0.0072
vn 0.1121 0.9937 -0.0039
vn 0.1962 0.7140 0.6721
vn 0.0940 0.6284 0.7722
vn 0.2882 0.3030 0.9084
vn 0.1932 0.1771 0.9650
vn 0.2737 -0.4916 0.8267
vn 0.3098 -0.4439 0.8408
vn 0.1148 -0.9724 0.2033
vn 0.2780 -0.8794 0.3866
vn -0.0446 -0.8725 -0.4865
vn 0.0857 -0.9338 -0.3474
vn -0.0136 -0.5925 -0.8055
vn -0.0437 -0.5625 -0.8257
vn 0.0143 0.3050 -0.9523
vn -0.0132 0.3368 -0.9415
vn -0.1893 0.7988 -0.5711
vn 0.0144 0.6431 -0.7656
vn 0.0200 0.9691 -0.2459
vn -0.1843 0.9828 0.0071
vn 0.1360 0.8062 0.5758
vn 0.0222 0.7280 0.6852
vn -0.1985 -0.0571 0.9784
vn 0.1462 0.3130 0.9384
vn -0.2233 -0.5358 0.8143
vn -0.1873 -0.5021 0.8443
vn 0.0769 -0.8382 0.5400
vn -0.2062 -0.9578 0.2003
vn -0.1053 -0.8777 -0.4675
vn -0.1220 -0.8669 -0.4834
vn -0.1358 -0.5585 -0.8183
vn -0.1046 -0.5893 -0.8011
vn -0.0094 0.1655 -0.9862
vn -0.1319 0.3023 -0.9440
vn 0.1320 0.6979 -0.7040
vn -0.0092 0.8134 -0.5816
vn -0.3084 0.9220 0.2340
vn 0.1449 0.9590 -0.2434
vn -0.1477 0.8913 0.4287
vn -0.2995 0.7764 0.5545
vn 0.0499 0.1638 0.9852
vn -0.1494 -0.0576 0.9871
vn -0.0342 -0.6249 0.7800
vn 0.0486 -0.5491 0.8344
vn -0.1241 -0.8821 0.4544
vn -0.0346 -0.8402 0.5413
vn -0.5398 -0.7969 -0.2712
vn -0.6181 -0.6938 -0.3696
vn -0.4086 -0.6519 -0.6388
vn -0.5521 -0.4700 -0.6887
vn -0.5446 0.2421 -0.8030
vn -0.4605 0.1469 -0.8754
vn -0.5923 0.6118 -0.5243
vn -0.5421 0.5916 -0.5968
vn -0.4577 0.8852 0.0839
vn -0.5445 0.8130 0.2063
vn -0.5847 0.6639 0.4662
vn -0.4678 0.7965 0.3831
vn -0.5419 0.2125 0.8131
vn -0.5970 0.1316 0.7914
vn -0.5719 -0.5637 0.5960
vn -0.5283 -0.5309 0.6626
vn -0.6454 -0.7243 0.2426
vn -0.5649 -0.7336 0.3779
vn -0.9363 -0.3324 -0.1132
vn -0.9436 -0.2364 -0.2316
vn -0.9526 0.0878 -0.2914
vn -0.9497 0.2378 -0.2038
vn -0.9463 0.3219 0.0305
vn -0.9460 0.2652 0.1862
vn -0.9518 0.0775 0.2967
vn -0.9436 -0.2274 0.2404
vn -0.9365 -0.3325 0.1114
vn 0.3490 0.5909 -0.7274
vn 0.0238 -0.3197 -0.9472
vn -0.2028 -0.9542 -0.2199
vn -0.1042 -0.6783 0.7274
vn 0.2209 0.2322 0.9472
vn 0.4476 0.8668 0.2199
vn 0.9417 -0.3363 -0.0000
vn -0.9417 0.3363 -0.0000
vn 0.6400 0.6272 0.4438
vn 0.6400 -0.7497 0.1684
vn -0.7071 -0.6720 -0.2201
vn -0.7071 0.7050 0.0552
vn -0.7071 0.7049 0.0552
vn -0.2822 -0.1881 0.9407
vn 0.2822 0.1881 -0.9407
vn -1.0000 -0.0000 -0.0000
vn 1.0000 -0.0000 -0.0000
vn -0.0000 -0.0000 1.0000
vn -0.0000 -0.0000 -1.0000
vn -0.0000 1.0000 -0.0000
vn 0.6400 -0.7497 -0.1684
vn 0.6400 0.6272 -0.4438
vn -0.7071 0.7049 -0.0552
vn -0.7071 -0.6720 0.2201
vn -0.2822 -0.1881 -0.9407
vn 0.2822 0.1881 0.9407
vn 0.2900 -0.5292 0.7974
vn 0.5432 -0.7824 -0.3046
vn -0.1196 -0.1196 -0.9856
vn -0.7824 0.5432 -0.3046
vn -0.5292 0.2900 0.7974
vn -0.7071 -0.7071 -0.0000
vn 0.7071 0.7071 -0.0000
vt -0.033511 0.362466
vt 0.032206 0.387800
vt -0.038953 0.472482
vt -0.017427 0.362435
vt 0.017888 0.424427
vt -0.093131 0.443080
vt 0.006141 0.360811
vt -0.005877 0.431672
vt -0.104931 0.379139
vt 0.021825 0.367783
vt -0.028787 0.422309
vt -0.076298 0.313530
vt 0.048568 0.378930
vt -0.024990 0.370436
vt 0.012033 0.265991
vt 0.045182 0.414216
vt 0.003960 0.360723
vt 0.091459 0.313529
vt 0.021629 0.404115
vt 0.000634 0.340033
vt 0.109769 0.358128
vt -0.013312 0.421231
vt 0.018677 0.357459
vt 0.095802 0.439450
vt -0.036486 0.386286
vt 0.030667 0.362664
vt 0.035648 0.472701
vt -0.079927 0.238748
vt 0.005203 0.303217
vt -0.074911 0.377792
vt -0.081037 0.238134
vt -0.077045 0.377212
vt -0.132793 0.334170
vt -0.056248 0.326311
vt -0.014276 0.431474
vt -0.129821 0.444922
vt -0.073478 0.322422
vt -0.152899 0.437199
vt -0.172687 0.368653
vt -0.052167 0.291278
vt -0.068930 0.402728
vt -0.173307 0.376984
vt -0.031096 0.330129
vt -0.153979 0.413317
vt -0.146834 0.341800
vt -0.045053 0.245024
vt -0.089635 0.345010
vt -0.178032 0.281097
vt -0.045079 0.244858
vt -0.178055 0.280941
vt -0.147754 0.212996
vt 0.055327 0.158047
vt -0.057414 0.158897
vt -0.036952 0.047112
vt 0.086484 0.131486
vt 0.016958 0.005041
vt 0.088934 0.022431
vt 0.090223 0.386762
vt 0.051377 0.286571
vt 0.155638 0.255074
vt 0.087282 0.381902
vt 0.151063 0.249415
vt 0.176775 0.311862
vt 0.091267 0.434212
vt 0.084536 0.336023
vt 0.188203 0.343248
vt 0.067835 0.394324
vt 0.161915 0.300411
vt 0.173237 0.366887
vt 0.074662 0.419236
vt 0.094590 0.321120
vt 0.192736 0.357604
vt 0.075907 0.419138
vt 0.193806 0.357172
vt 0.179522 0.427074
vt 0.018463 0.308007
vt 0.093058 0.235374
vt 0.152492 0.326857
vt 0.012532 0.291532
vt 0.145969 0.314200
vt 0.091610 0.360164
vt -0.006046 0.082792
vt 0.023588 0.196621
vt -0.116917 0.228073
vt -0.005951 0.080296
vt -0.109689 0.230753
vt -0.141733 0.128888
vt 0.001633 0.282442
vt 0.006508 0.403269
vt -0.137003 0.405226
vt 0.007594 0.279156
vt -0.127111 0.406239
vt -0.135688 0.293334
vt 0.001092 0.284953
vt -0.000554 0.403247
vt -0.143855 0.400239
vt 0.004473 0.291502
vt -0.141183 0.405890
vt -0.139040 0.293207
vt 0.012391 0.278889
vt 0.002135 0.397088
vt -0.140576 0.376096
vt 0.001193 0.240896
vt -0.146247 0.346296
vt -0.142084 0.236901
vt 0.062450 0.056812
vt -0.061248 0.048111
vt -0.045880 -0.095151
vt 0.061909 0.055410
vt -0.061589 -0.084505
vt 0.051087 -0.088429
vt -0.011306 0.353851
vt -0.036073 0.235052
vt 0.108672 0.213678
vt -0.001238 0.402564
vt 0.133392 0.276397
vt 0.141585 0.383544
vt -0.039435 0.417817
vt -0.051567 0.291606
vt 0.099546 0.300537
vt -0.023324 0.450586
vt 0.118711 0.337024
vt 0.122198 0.435381
vt -0.053860 0.407010
vt -0.032720 0.277130
vt 0.111965 0.315107
vt -0.059907 0.406658
vt 0.107329 0.317349
vt 0.091172 0.416156
vt -0.055025 0.165848
vt 0.005466 0.055634
vt 0.130190 0.128036
vt -0.066745 0.210677
vt 0.121378 0.192135
vt 0.065737 0.280135
vt 0.136372 0.114634
vt 0.126687 0.235677
vt -0.016318 0.225466
vt 0.132959 0.045331
vt 0.020306 0.196682
vt -0.006094 0.082059
vt 0.135131 0.282866
vt 0.133946 0.401203
vt -0.009290 0.400734
vt 0.131143 0.288077
vt -0.015699 0.402915
vt -0.012098 0.282043
vt 0.139578 0.296200
vt 0.139038 0.413869
vt -0.004194 0.412767
vt 0.134460 0.285356
vt -0.008217 0.403259
vt -0.008776 0.284955
vt 0.085864 0.147313
vt 0.113522 0.251808
vt -0.025512 0.296561
vt 0.139563 0.278121
vt -0.005104 0.395384
vt -0.003666 0.276750
vt 0.140735 0.093832
vt 0.131389 0.212506
vt -0.011265 0.199317
vt -0.057612 -0.032601
vt 0.062033 0.108524
vt -0.061875 0.113396
vt -0.147763 0.313763
vt -0.172100 0.185937
vt -0.028415 0.167684
vt -0.138913 0.348837
vt 0.001408 0.222771
vt 0.004271 0.344090
vt -0.100620 0.505546
vt -0.102082 0.379335
vt 0.043999 0.374254
vt -0.161307 0.424812
vt -0.023089 0.286798
vt -0.016914 0.413441
vt -0.089347 0.414739
vt -0.105347 0.305843
vt 0.038595 0.274777
vt -0.098692 0.413503
vt 0.032787 0.276858
vt 0.047359 0.407639
vt -0.149823 0.218971
vt -0.135576 0.099612
vt 0.006214 0.123703
vt -0.022926 0.241261
vt 0.004373 0.060489
vt 0.092649 0.150009
vt 0.257797 0.161271
vt 0.236446 0.269314
vt 0.110303 0.247295
vt 0.256220 0.170810
vt 0.106834 0.253506
vt 0.132782 0.134881
vt 0.244775 0.311630
vt 0.234934 0.417836
vt 0.106257 0.413828
vt 0.249448 0.304780
vt 0.112990 0.409713
vt 0.122065 0.291719
vt 0.262736 0.338531
vt 0.262909 0.448142
vt 0.135597 0.448791
vt 0.239934 0.294608
vt 0.116210 0.408686
vt 0.111243 0.291121
vt 0.285370 0.281009
vt 0.270555 0.394264
vt 0.144247 0.369680
vt 0.262027 0.161567
vt 0.136102 0.270752
vt 0.134718 0.162668
vt -0.206540 0.055149
vt -0.120814 -0.015389
vt -0.032564 0.085308
vt 0.257123 0.239635
vt 0.085431 0.280850
vt 0.144456 0.177472
vt -0.233919 0.123352
vt -0.201293 0.017135
vt -0.074436 0.042524
vt -0.209299 0.204446
vt -0.040225 0.146293
vt -0.090543 0.266292
vt -0.271447 0.455119
vt -0.272419 0.337871
vt -0.144939 0.339058
vt -0.238982 0.493794
vt -0.111224 0.379111
vt -0.110124 0.505326
vt -0.256638 0.399672
vt -0.259701 0.287759
vt -0.132391 0.283405
vt -0.273581 0.391477
vt -0.142586 0.282869
vt -0.146103 0.392878
vt -0.229044 0.277250
vt -0.254915 0.169857
vt -0.132106 0.131834
vt -0.257456 0.248777
vt -0.136665 0.122475
vt -0.130226 0.242510
vt 0.157943 0.436671
vt 0.105665 0.469635
vt 0.031791 0.393298
vt 0.180512 0.431430
vt 0.052170 0.395047
vt 0.135600 0.323152
vt 0.264826 0.404494
vt 0.237143 0.470892
vt 0.137849 0.459860
vt 0.237863 0.414483
vt 0.107762 0.462047
vt 0.145370 0.362236
vt 0.229442 0.297383
vt 0.241380 0.370086
vt 0.140563 0.400174
vt 0.260180 0.335999
vt 0.169080 0.436827
vt 0.160634 0.327542
vt 0.166800 0.158071
vt 0.206752 0.215874
vt 0.131139 0.297527
vt 0.200802 0.183268
vt 0.156085 0.320089
vt 0.102018 0.219477
vt -0.098111 -0.070455
vt -0.031052 -0.084342
vt 0.000389 0.009674
vt -0.157601 0.030793
vt -0.047950 0.094821
vt -0.148577 0.141713
vt -0.193584 0.168898
vt -0.149942 0.116481
vt -0.048278 0.162988
vt -0.197429 0.061852
vt -0.052187 0.054543
vt -0.129654 0.134199
vt -0.243513 0.381664
vt -0.233353 0.309921
vt -0.126609 0.298887
vt -0.227406 0.407958
vt -0.109675 0.326362
vt -0.121257 0.443041
vt -0.179690 0.493851
vt -0.213156 0.431985
vt -0.122668 0.375017
vt -0.208305 0.482007
vt -0.145390 0.366185
vt -0.101750 0.469284
vt -0.068808 0.479516
vt -0.123770 0.450995
vt -0.092975 0.337889
vt -0.146804 0.461247
vt -0.146938 0.317573
vt -0.065319 0.392010
vt 0.046025 0.501811
vt -0.015877 0.427882
vt 0.042207 0.406766
vt 0.091446 0.474622
vt -0.022860 0.454681
vt 0.027039 0.402863
vt 0.112209 0.364072
vt 0.018156 0.415435
vt -0.002181 0.344621
vt 0.080479 0.297232
vt 0.039323 0.396981
vt -0.012846 0.349908
vt -0.012363 0.253217
vt 0.021558 0.348728
vt -0.046583 0.355553
vt -0.074090 0.283777
vt 0.019117 0.336908
vt -0.035650 0.377561
vt -0.114141 0.368246
vt -0.002469 0.349313
vt -0.019960 0.419629
vt -0.094719 0.471951
vt -0.029961 0.400093
vt 0.016876 0.452568
vt -0.045293 0.501857
vt -0.041535 0.406809
vt 0.016771 0.427659
vt -0.400116 0.230814
vt -0.377515 0.193340
vt -0.163958 0.301231
vt -0.400116 0.230814
vt -0.163958 0.301231
vt -0.205050 0.369366
vt -0.437990 0.402790
vt -0.424258 0.361238
vt -0.192097 0.419105
vt -0.437990 0.402790
vt -0.192097 0.419105
vt -0.217064 0.494653
vt -0.332670 -0.144238
vt -0.301339 -0.174791
vt -0.121945 -0.016472
vt -0.332670 -0.144238
vt -0.121945 -0.016472
vt -0.178910 0.039079
vt 0.419445 0.231491
vt 0.434353 0.272635
vt 0.216128 0.370743
vt 0.419445 0.231491
vt 0.216128 0.370743
vt 0.189024 0.295935
vt 0.411671 0.345594
vt 0.428303 0.386073
vt 0.214415 0.493308
vt 0.184176 0.419711
vt 0.170274 -0.145467
vt 0.210014 -0.127141
vt 0.126356 0.097021
vt 0.170274 -0.145467
vt 0.126356 0.097021
vt 0.054101 0.063701
vt -0.042672 0.511576
vt 0.029740 0.489176
vt 0.012933 0.563087
vt -0.077586 0.538923
vt 0.023514 0.445267
vt 0.054073 0.579650
vt 0.054104 0.195000
vt 0.057162 0.186534
vt 0.140721 0.205948
vt 0.054104 0.195001
vt 0.140721 0.205949
vt 0.130782 0.233465
vt -0.047142 0.538160
vt -0.045786 0.529260
vt 0.039953 0.532085
vt -0.047142 0.538160
vt 0.039953 0.532085
vt 0.035544 0.561008
vt 0.032844 0.152850
vt 0.034170 0.161754
vt -0.048596 0.184312
vt 0.032845 0.152851
vt -0.048596 0.184313
vt -0.052903 0.155376
vt 0.137694 0.517052
vt 0.141170 0.525356
vt 0.066504 0.567593
vt 0.137693 0.517052
vt 0.066504 0.567593
vt 0.055206 0.540607
vt 0.285450 0.476208
vt 0.291446 0.469494
vt 0.298160 0.475491
vt 0.298160 0.475491
vt 0.292163 0.482205
vt -0.292971 0.496504
vt -0.312459 0.474684
vt -0.290639 0.455195
vt -0.292971 0.496504
vt -0.290639 0.455195
vt -0.271150 0.477015
vt 0.108211 0.262571
vt 0.050923 -0.103437
vt 0.108211 -0.103437
vt -0.050923 -0.103437
vt -0.108211 0.262571
vt -0.108211 -0.103437
vt -0.211737 -0.103437
vt -0.269025 0.262571
vt -0.269025 -0.103437
vt 0.269025 0.262571
vt 0.211737 -0.103437
vt 0.269025 -0.103437
vt -0.211737 -0.108211
vt -0.269025 -0.050923
vt -0.269025 -0.108211
vt 0.154272 -0.103437
vt 0.096983 0.262571
vt 0.096983 -0.103437
vt -0.096983 0.262571
vt -0.154272 -0.103437
vt -0.096983 -0.103437
vt 0.154272 -0.108211
vt 0.096983 -0.050923
vt 0.096983 -0.108211
vt 0.045786 0.529260
vt 0.047142 0.538160
vt -0.035544 0.561008
vt 0.045786 0.529260
vt -0.039953 0.532085
vt -0.057162 0.186534
vt -0.054104 0.195000
vt -0.130782 0.233465
vt -0.057162 0.186534
vt -0.130782 0.233465
vt -0.140721 0.205949
vt -0.141170 0.525356
vt -0.137694 0.517052
vt -0.055206 0.540606
vt -0.141170 0.525356
vt -0.055206 0.540607
vt -0.066504 0.567594
vt -0.034170 0.161754
vt -0.032845 0.152850
vt 0.052903 0.155375
vt -0.034170 0.161755
vt 0.052903 0.155376
vt 0.048596 0.184313
vt -0.285450 0.476208
vt -0.292164 0.482205
vt -0.298160 0.475491
vt -0.298160 0.475491
vt -0.291446 0.469494
vt 0.290639 0.455195
vt 0.312459 0.474684
vt 0.292971 0.496504
vt 0.290639 0.455195
vt 0.292971 0.496504
vt 0.271150 0.477015
vt -0.050923 0.262571
vt 0.050923 0.262571
vt -0.211737 0.050923
vt -0.269025 0.108211
vt -0.269025 0.050923
vt 0.154272 0.050923
vt 0.096983 0.108211
vt 0.096983 0.050923
vt -0.418275 0.232237
vt -0.404459 0.219624
vt -0.317121 0.294481
vt -0.418275 0.232237
vt -0.317121 0.294481
vt -0.351661 0.326014
vt 0.205318 -0.078067
vt 0.222836 -0.071503
vt 0.195916 0.040332
vt 0.205318 -0.078067
vt 0.195916 0.040332
vt 0.152121 0.023922
vt 0.427982 0.356678
vt 0.441114 0.370001
vt 0.369649 0.460136
vt 0.427982 0.356678
vt 0.369649 0.460136
vt 0.336819 0.426827
vt 0.149757 0.077913
vt 0.167820 0.082782
vt 0.151654 0.196669
vt 0.149757 0.077913
vt 0.151654 0.196669
vt 0.106497 0.184497
vt -0.372208 0.279538
vt -0.357211 0.268355
vt -0.277717 0.351496
vt -0.372208 0.279538
vt -0.277718 0.351496
vt -0.315211 0.379452
vt -0.012875 0.573165
vt 0.004917 0.548677
vt 0.015913 0.563811
vt -0.012294 0.525975
vt 0.032185 0.587196
vt -0.012294 0.601648
vt -0.029740 0.553383
vt -0.012933 0.479473
vt 0.042672 0.530984
vt -0.023514 0.597293
vt -0.054073 0.462910
vt 0.077586 0.503637
vt -0.211737 0.262571
vt 0.211737 0.262571
vt -0.211737 -0.050923
vt 0.154272 0.262571
vt -0.154272 0.262571
vt 0.154272 -0.050923
vt -0.211737 0.108211
vt 0.154272 0.108211
vt 0.004917 0.578946
vt -0.012875 0.554458
vt -0.039784 0.563811
vt 0.032185 0.540427
s 0
usemtl stone_sheep
f 2/1/1 3/2/1 1/3/1
f 3/4/2 4/5/2 1/6/2
f 4/7/3 5/8/3 1/9/3
f 5/10/4 6/11/4 1/12/4
f 6/13/5 7/14/5 1/15/5
f 7/16/6 8/17/6 1/18/6
f 8/19/7 9/20/7 1/21/7
f 9/22/8 10/23/8 1/24/8
f 10/25/9 2/26/9 1/27/9
f 11/28/10 12/29/10 3/30/10
f 11/31/11 3/32/11 2/33/11
f 12/34/12 13/35/12 4/36/12
f 12/37/13 4/38/13 3/39/13
f 13/40/14 14/41/14 5/42/14
f 13/43/15 5/44/15 4/45/15
f 14/46/16 15/47/16 6/48/16
f 14/49/17 6/50/17 5/51/17
f 15/52/18 16/53/18 7/54/18
f 15/55/19 7/56/19 6/57/19
f 16/58/20 17/59/20 8/60/20
f 16/61/21 8/62/21 7/63/21
f 17/64/22 18/65/22 9/66/22
f 17/67/23 9/68/23 8/69/23
f 18/70/24 19/71/24 10/72/24
f 18/73/25 10/74/25 9/75/25
f 19/76/26 11/77/26 2/78/26
f 19/79/27 2/80/27 10/81/27
f 20/82/28 21/83/28 12/84/28
f 20/85/29 12/86/29 11/87/29
f 21/88/30 22/89/30 13/90/30
f 21/91/31 13/92/31 12/93/31
f 22/94/32 23/95/32 14/96/32
f 22/97/33 14/98/33 13/99/33
f 23/100/34 24/101/34 15/102/34
f 23/103/35 15/104/35 14/105/35
f 24/106/36 25/107/36 16/108/36
f 24/109/37 16/110/37 15/111/37
f 25/112/38 26/113/38 17/114/38
f 25/115/39 17/116/39 16/117/39
f 26/118/40 27/119/40 18/120/40
f 26/121/41 18/122/41 17/123/41
f 27/124/42 28/125/42 19/126/42
f 27/127/43 19/128/43 18/129/43
f 28/130/44 20/131/44 11/132/44
f 28/133/45 11/134/45 19/135/45
f 29/136/46 30/137/46 21/138/46
f 29/139/47 21/140/47 20/141/47
f 30/142/48 31/143/48 22/144/48
f 30/145/49 22/146/49 21/147/49
f 31/148/50 32/149/50 23/150/50
f 31/151/51 23/152/51 22/153/51
f 32/154/52 33/155/52 24/156/52
f 32/157/53 24/158/53 23/159/53
f 33/160/54 34/161/54 25/162/54
f 33/163/55 25/164/55 24/165/55
f 34/166/56 35/167/56 26/168/56
f 34/169/57 26/170/57 25/171/57
f 35/172/58 36/173/58 27/174/58
f 35/175/59 27/176/59 26/177/59
f 36/178/60 37/179/60 28/180/60
f 36/181/61 28/182/61 27/183/61
f 37/184/62 29/185/62 20/186/62
f 37/187/63 20/188/63 28/189/63
f 38/190/64 39/191/64 30/192/64
f 38/193/65 30/194/65 29/195/65
f 39/196/66 40/197/66 31/198/66
f 39/199/67 31/200/67 30/201/67
f 40/202/68 41/203/68 32/204/68
f 40/205/69 32/206/69 31/207/69
f 41/208/70 42/209/70 33/210/70
f 41/211/71 33/212/71 32/213/71
f 42/214/72 43/215/72 34/216/72
f 42/217/73 34/218/73 33/219/73
f 43/220/74 44/221/74 35/222/74
f 43/223/75 35/224/75 34/225/75
f 44/226/76 45/227/76 36/228/76
f 44/229/77 36/230/77 35/231/77
f 45/232/78 46/233/78 37/234/78
f 45/235/79 37/236/79 36/237/79
f 46/238/80 38/239/80 29/240/80
f 46/241/81 29/242/81 37/243/81
f 47/244/82 48/245/82 39/246/82
f 47/247/83 39/248/83 38/249/83
f 48/250/84 49/251/84 40/252/84
f 48/253/85 40/254/85 39/255/85
f 49/256/86 50/257/86 41/258/86
f 49/259/87 41/260/87 40/261/87
f 50/262/88 51/263/88 42/264/88
f 50/265/89 42/266/89 41/267/89
f 51/268/90 52/269/90 43/270/90
f 51/271/91 43/272/91 42/273/91
f 52/274/92 53/275/92 44/276/92
f 52/277/93 44/278/93 43/279/93
f 53/280/94 54/281/94 45/282/94
f 53/283/95 45/284/95 44/285/95
f 54/286/96 55/287/96 46/288/96
f 54/289/97 46/290/97 45/291/97
f 55/292/98 47/293/98 38/294/98
f 55/295/99 38/296/99 46/297/99
f 56/298/100 48/299/100 47/300/100
f 56/301/101 49/302/101 48/303/101
f 56/304/102 50/305/102 49/306/102
f 56/307/103 51/308/103 50/309/103
f 56/310/104 52/311/104 51/312/104
f 56/313/105 53/314/105 52/315/105
f 56/316/106 54/317/106 53/318/106
f 56/319/107 55/320/107 54/321/107
f 56/322/108 47/323/108 55/324/108
f 63/325/109 64/326/109 58/327/109
f 63/328/109 58/329/109 57/330/109
f 64/331/110 65/332/110 59/333/110
f 64/334/110 59/335/110 58/336/110
f 65/337/111 66/338/111 60/339/111
f 65/340/111 60/341/111 59/342/111
f 66/343/112 67/344/112 61/345/112
f 66/346/112 61/347/112 60/348/112
f 67/349/113 68/350/113 62/351/113
f 67/349/113 62/351/113 61/352/113
f 68/353/114 63/354/114 57/355/114
f 68/356/114 57/357/114 62/358/114
f 67/359/115 65/360/115 63/361/115
f 58/362/116 60/363/116 62/364/116
f 73/365/117 74/366/117 70/367/117
f 73/368/117 70/369/117 69/370/117
f 74/371/118 75/372/118 71/373/118
f 74/374/118 71/375/118 70/376/118
f 75/377/119 76/378/119 72/379/119
f 75/380/119 72/381/119 71/382/119
f 76/383/120 73/384/120 69/385/120
f 76/386/121 69/387/121 72/388/121
f 76/389/122 75/390/122 74/391/122
f 76/389/122 74/392/122 73/393/122
f 69/394/123 70/395/123 71/396/123
f 69/397/123 71/398/123 72/399/123
f 81/400/124 79/401/124 77/402/124
f 80/403/125 82/404/125 78/405/125
f 78/406/126 81/407/126 77/408/126
f 83/409/127 80/410/127 79/411/127
f 82/412/128 83/413/128 81/414/128
f 89/400/124 87/401/124 85/402/124
f 88/403/125 90/404/125 86/405/125
f 86/415/126 89/416/126 85/417/126
f 91/418/127 88/419/127 87/420/127
f 90/421/128 91/422/128 89/423/128
f 97/424/129 98/425/129 94/426/129
f 97/427/129 94/426/129 93/428/129
f 98/429/130 99/430/130 95/431/130
f 98/432/130 95/433/130 94/434/130
f 99/435/131 100/436/131 96/437/131
f 99/438/131 96/439/131 95/440/131
f 100/441/132 97/442/132 93/443/132
f 100/444/132 93/445/132 96/446/132
f 100/447/133 99/448/133 98/449/133
f 100/447/133 98/450/133 97/451/133
f 93/452/134 94/453/134 95/454/134
f 93/455/134 95/456/134 96/457/134
f 105/458/124 103/405/124 101/403/124
f 104/402/125 106/459/125 102/401/125
f 102/406/126 105/407/126 101/408/126
f 107/409/127 104/410/127 103/411/127
f 106/460/128 107/461/128 105/462/128
f 113/458/124 111/405/124 109/403/124
f 112/402/125 114/459/125 110/401/125
f 110/415/126 113/416/126 109/417/126
f 115/418/127 112/419/127 111/420/127
f 114/463/128 115/464/128 113/465/128
f 122/466/135 123/467/135 118/468/135
f 122/469/135 118/470/135 117/471/135
f 123/472/136 124/473/136 119/474/136
f 123/475/136 119/476/136 118/477/136
f 124/478/137 125/479/137 120/480/137
f 124/481/137 120/482/137 119/483/137
f 125/484/138 126/485/138 121/486/138
f 125/487/138 121/488/138 120/489/138
f 126/490/139 122/491/139 117/492/139
f 126/493/139 117/494/139 121/495/139
f 125/496/140 123/497/140 122/498/140
f 118/499/141 120/500/141 121/501/141
f 63/361/115 68/502/115 67/359/115
f 67/359/115 66/503/115 65/360/115
f 65/360/115 64/504/115 63/361/115
f 62/364/116 57/505/116 58/362/116
f 58/362/116 59/506/116 60/363/116
f 60/363/116 61/507/116 62/364/116
f 81/400/124 83/459/124 79/401/124
f 80/403/125 84/458/125 82/404/125
f 78/406/126 82/508/126 81/407/126
f 83/409/127 84/509/127 80/410/127
f 82/412/128 84/510/128 83/413/128
f 89/400/124 91/459/124 87/401/124
f 88/403/125 92/458/125 90/404/125
f 86/415/126 90/511/126 89/416/126
f 91/418/127 92/512/127 88/419/127
f 90/421/128 92/513/128 91/422/128
f 105/458/124 107/404/124 103/405/124
f 104/402/125 108/400/125 106/459/125
f 102/406/126 106/508/126 105/407/126
f 107/409/127 108/509/127 104/410/127
f 106/460/128 108/514/128 107/461/128
f 113/458/124 115/404/124 111/405/124
f 112/402/125 116/400/125 114/459/125
f 110/415/126 114/511/126 113/416/126
f 115/418/127 116/512/127 112/419/127
f 114/463/128 116/515/128 115/464/128
f 122/498/140 126/516/140 125/496/140
f 125/496/140 124/517/140 123/497/140
f 121/501/141 117/518/141 118/499/141
f 118/499/141 119/519/141 120/500/141
