# Blender 5.2.1 LTS
# www.blender.org
mtllib village.mtl
o village
v -73.067169 -200.000000 -186.175156
v -100.000000 2.951393 -254.800003
v -66.610481 -200.000000 -188.581665
v -90.000000 2.845093 -254.800003
v -59.910793 -200.000000 -190.815872
v -80.000000 2.799087 -254.800003
v -52.982037 -200.000000 -192.854614
v -70.000000 2.815907 -254.800003
v -45.841934 -200.000000 -194.675415
v -60.000000 9.848928 -254.800003
v -38.511978 -200.000000 -196.257050
v -50.000000 18.229053 -254.800003
v -31.017296 -200.000000 -197.580185
v -40.000000 24.435505 -254.800003
v -23.386341 -200.000000 -198.627991
v -30.000000 27.000000 -254.800003
v -15.650449 -200.000000 -199.386719
v -20.000000 27.000000 -254.800003
v -7.843256 -200.000000 -199.846146
v -10.000000 27.000000 -254.800003
v 0.000000 -200.000000 -200.000000
v 0.000000 27.000000 -254.800003
v 7.843256 -200.000000 -199.846146
v 10.000000 27.000000 -254.800003
v 15.650449 -200.000000 -199.386719
v 20.000000 27.000000 -254.800003
v 23.386341 -200.000000 -198.627991
v 30.000000 27.000000 -254.800003
v 31.017296 -200.000000 -197.580185
v 40.000000 24.579071 -254.800003
v 38.511978 -200.000000 -196.257050
v 50.000000 17.928381 -254.800003
v 45.841934 -200.000000 -194.675415
v 60.000000 8.728331 -254.800003
v 52.982037 -200.000000 -192.854614
v 70.000000 6.409189 -254.800003
v 59.910793 -200.000000 -190.815872
v 80.000000 6.524596 -254.800003
v 66.610481 -200.000000 -188.581665
v 90.000000 6.589046 -254.800003
v 73.067169 -200.000000 -186.175156
v 100.000000 6.604659 -254.800003
v 104.020081 -200.000000 -170.821030
v 142.362274 5.534097 -233.786285
v 131.868439 -200.000000 -150.368607
v 180.475616 3.932457 -205.795013
v 155.781067 -200.000000 -125.428307
v 213.202530 2.924877 -171.661636
v 175.044281 -200.000000 -96.744507
v 239.566254 3.218973 -132.404892
v 189.083160 -200.000000 -65.173286
v 258.779907 4.608212 -89.196396
v 197.478714 -200.000000 -31.656918
v 270.270081 6.116862 -43.325771
v 199.980347 -200.000000 2.804278
v 273.693817 6.684893 3.837945
v 196.513397 -200.000000 37.181778
v 268.948944 5.913018 50.887115
v 187.181351 -200.000000 70.449554
v 256.177094 4.343788 96.417519
v 172.262741 -200.000000 101.614708
v 235.759415 3.079709 139.070267
v 152.202805 -200.000000 129.747101
v 208.305313 3.008573 177.572342
v 127.600243 -200.000000 154.007065
v 174.634155 4.180337 210.774643
v 99.189362 -200.000000 173.670578
v 135.750916 5.772059 237.686203
v 67.818085 -200.000000 188.150757
v 92.816086 6.665486 257.503815
v 34.422729 -200.000000 197.015427
v 47.111076 6.232650 269.636017
v 0.000000 -200.000000 200.000000
v 0.000000 4.777813 273.720734
v -34.422729 -200.000000 197.015427
v -47.111076 3.323246 269.636017
v -67.818085 -200.000000 188.150757
v -92.816086 2.890594 257.503815
v -99.189362 -200.000000 173.670578
v -135.750916 3.783693 237.686203
v -127.600243 -200.000000 154.007065
v -174.634155 5.375335 210.774643
v -152.202805 -200.000000 129.747101
v -208.305313 6.547452 177.572342
v -172.262741 -200.000000 101.614708
v -235.759415 6.476285 139.070267
v -187.181351 -200.000000 70.449554
v -256.177094 5.211862 96.417519
v -196.513397 -200.000000 37.181778
v -268.948944 3.642772 50.887115
v -199.980347 -200.000000 2.804278
v -273.693817 2.871197 3.837945
v -197.478714 -200.000000 -31.656918
v -270.270081 3.438993 -43.325771
v -189.083160 -200.000000 -65.173286
v -258.779907 4.947418 -89.196396
v -175.044281 -200.000000 -96.744507
v -239.566254 6.336964 -132.404892
v -155.781067 -200.000000 -125.428307
v -213.202530 6.631187 -171.661636
v -131.868439 -200.000000 -150.368607
v -180.475616 5.623260 -205.795013
v -104.020081 -200.000000 -170.821030
v -142.362274 4.021602 -233.786285
v -17.500000 26.700001 -264.200012
v -13.500000 26.700001 -264.200012
v -17.500000 26.700001 -268.399994
v -13.500000 26.700001 -268.399994
v -17.500000 30.400000 -264.200012
v -13.500000 30.400000 -264.200012
v -17.500000 30.400000 -268.399994
v -13.500000 30.400000 -268.399994
v -17.700001 30.400000 -263.899994
v -13.300000 30.400000 -263.899994
v -13.300000 30.400000 -268.700012
v -17.700001 30.400000 -268.700012
v -17.700001 32.500000 -266.299988
v -13.300000 32.500000 -266.299988
v -14.400000 31.240000 -266.700012
v -13.950000 31.240000 -266.700012
v -14.400000 31.240000 -267.149994
v -13.950000 31.240000 -267.149994
v -14.400000 33.099998 -266.700012
v -13.950000 33.099998 -266.700012
v -14.400000 33.099998 -267.149994
v -13.950000 33.099998 -267.149994
v -8.200000 26.700001 -264.399994
v -3.800000 26.700001 -264.399994
v -8.200000 26.700001 -268.799988
v -3.800000 26.700001 -268.799988
v -8.200000 30.600000 -264.399994
v -3.800000 30.600000 -264.399994
v -8.200000 30.600000 -268.799988
v -3.800000 30.600000 -268.799988
v -8.400000 30.600000 -264.100006
v -3.600000 30.600000 -264.100006
v -3.600000 30.600000 -269.100006
v -8.400000 30.600000 -269.100006
v -8.400000 32.799999 -266.600006
v -3.600000 32.799999 -266.600006
v -4.700000 31.480000 -267.000000
v -4.250000 31.480000 -267.000000
v -4.700000 31.480000 -267.450012
v -4.250000 31.480000 -267.450012
v -4.700000 33.400002 -267.000000
v -4.250000 33.400002 -267.000000
v -4.700000 33.400002 -267.450012
v -4.250000 33.400002 -267.450012
v -1.800000 26.700001 -265.000000
v 1.800000 26.700001 -265.000000
v -1.800000 26.700001 -269.000000
v 1.800000 26.700001 -269.000000
v -1.800000 30.400000 -265.000000
v 1.800000 30.400000 -265.000000
v -1.800000 30.400000 -269.000000
v 1.800000 30.400000 -269.000000
v -2.000000 30.400000 -264.799988
v 2.000000 30.400000 -264.799988
v 2.000000 30.400000 -269.200012
v -2.000000 30.400000 -269.200012
v 0.000000 32.700001 -264.799988
v 0.000000 32.700001 -269.200012
v 2.600000 26.700001 -264.200012
v 6.600000 26.700001 -264.200012
v 2.600000 26.700001 -268.600006
v 6.600000 26.700001 -268.600006
v 2.600000 30.600000 -264.200012
v 6.600000 30.600000 -264.200012
v 2.600000 30.600000 -268.600006
v 6.600000 30.600000 -268.600006
v 2.400000 30.600000 -263.899994
v 6.800000 30.600000 -263.899994
v 6.800000 30.600000 -268.899994
v 2.400000 30.600000 -268.899994
v 2.400000 32.700001 -266.399994
v 6.800000 32.700001 -266.399994
v 5.700000 31.440001 -266.799988
v 6.150000 31.440001 -266.799988
v 5.700000 31.440001 -267.250000
v 6.150000 31.440001 -267.250000
v 5.700000 33.299999 -266.799988
v 6.150000 33.299999 -266.799988
v 5.700000 33.299999 -267.250000
v 6.150000 33.299999 -267.250000
v 9.900000 26.700001 -264.500000
v 14.100000 26.700001 -264.500000
v 9.900000 26.700001 -268.700012
v 14.100000 26.700001 -268.700012
v 9.900000 30.400000 -264.500000
v 14.100000 30.400000 -264.500000
v 9.900000 30.400000 -268.700012
v 14.100000 30.400000 -268.700012
v 9.700000 30.400000 -264.200012
v 14.300000 30.400000 -264.200012
v 14.300000 30.400000 -269.000000
v 9.700000 30.400000 -269.000000
v 9.700000 32.599998 -266.600006
v 14.300000 32.599998 -266.600006
v 13.200000 31.280001 -267.000000
v 13.650000 31.280001 -267.000000
v 13.200000 31.280001 -267.450012
v 13.650000 31.280001 -267.450012
v 13.200000 33.200001 -267.000000
v 13.650000 33.200001 -267.000000
v 13.200000 33.200001 -267.450012
v 13.650000 33.200001 -267.450012
v 16.600000 26.700001 -264.799988
v 20.400000 26.700001 -264.799988
v 16.600000 26.700001 -268.799988
v 20.400000 26.700001 -268.799988
v 16.600000 30.200001 -264.799988
v 20.400000 30.200001 -264.799988
v 16.600000 30.200001 -268.799988
v 20.400000 30.200001 -268.799988
v 16.400000 30.200001 -264.600006
v 20.600000 30.200001 -264.600006
v 20.600000 30.200001 -269.000000
v 16.400000 30.200001 -269.000000
v 18.500000 32.400002 -264.600006
v 18.500000 32.400002 -269.000000
v -20.200001 26.700001 -257.299988
v -15.800000 26.700001 -257.299988
v -20.200001 26.700001 -262.299988
v -15.800000 26.700001 -262.299988
v -20.200001 30.400000 -257.299988
v -15.800000 30.400000 -257.299988
v -20.200001 30.400000 -262.299988
v -15.800000 30.400000 -262.299988
v -20.400000 30.400000 -257.000000
v -15.600000 30.400000 -257.000000
v -15.600000 30.400000 -262.600006
v -20.400000 30.400000 -262.600006
v -20.400000 32.599998 -259.799988
v -15.600000 32.599998 -259.799988
v -16.700001 31.280001 -260.200012
v -16.250000 31.280001 -260.200012
v -16.700001 31.280001 -260.649994
v -16.250000 31.280001 -260.649994
v -16.700001 33.200001 -260.200012
v -16.250000 33.200001 -260.200012
v -16.700001 33.200001 -260.649994
v -16.250000 33.200001 -260.649994
v -14.600000 26.700001 -258.799988
v -11.000000 26.700001 -258.799988
v -14.600000 26.700001 -263.200012
v -11.000000 26.700001 -263.200012
v -14.600000 30.000000 -258.799988
v -11.000000 30.000000 -258.799988
v -14.600000 30.000000 -263.200012
v -11.000000 30.000000 -263.200012
v -14.800000 30.000000 -258.600006
v -10.800000 30.000000 -258.600006
v -10.800000 30.000000 -263.399994
v -14.800000 30.000000 -263.399994
v -12.800000 32.500000 -258.600006
v -12.800000 32.500000 -263.399994
v -10.600000 26.700001 -257.000000
v -5.800000 26.700001 -257.000000
v -10.600000 26.700001 -261.799988
v -5.800000 26.700001 -261.799988
v -10.600000 30.600000 -257.000000
v -5.800000 30.600000 -257.000000
v -10.600000 30.600000 -261.799988
v -5.800000 30.600000 -261.799988
v -10.800000 30.600000 -256.700012
v -5.600000 30.600000 -256.700012
v -5.600000 30.600000 -262.100006
v -10.800000 30.600000 -262.100006
v -10.800000 32.599998 -259.399994
v -5.600000 32.599998 -259.399994
v -6.700000 31.400000 -259.799988
v -6.250000 31.400000 -259.799988
v -6.700000 31.400000 -260.250000
v -6.250000 31.400000 -260.250000
v -6.700000 33.200001 -259.799988
v -6.250000 33.200001 -259.799988
v -6.700000 33.200001 -260.250000
v -6.250000 33.200001 -260.250000
v -5.300000 26.700001 -259.200012
v -1.500000 26.700001 -259.200012
v -5.300000 26.700001 -263.600006
v -1.500000 26.700001 -263.600006
v -5.300000 30.200001 -259.200012
v -1.500000 30.200001 -259.200012
v -5.300000 30.200001 -263.600006
v -1.500000 30.200001 -263.600006
v -5.500000 30.200001 -259.000000
v -1.300000 30.200001 -259.000000
v -1.300000 30.200001 -263.799988
v -5.500000 30.200001 -263.799988
v -3.400000 32.599998 -259.000000
v -3.400000 32.599998 -263.799988
v -0.700000 26.700001 -257.500000
v 3.500000 26.700001 -257.500000
v -0.700000 26.700001 -262.100006
v 3.500000 26.700001 -262.100006
v -0.700000 30.400000 -257.500000
v 3.500000 30.400000 -257.500000
v -0.700000 30.400000 -262.100006
v 3.500000 30.400000 -262.100006
v -0.900000 30.400000 -257.200012
v 3.700000 30.400000 -257.200012
v 3.700000 30.400000 -262.399994
v -0.900000 30.400000 -262.399994
v -0.900000 32.500000 -259.799988
v 3.700000 32.500000 -259.799988
v 2.600000 31.240000 -260.200012
v 3.050000 31.240000 -260.200012
v 2.600000 31.240000 -260.649994
v 3.050000 31.240000 -260.649994
v 2.600000 33.099998 -260.200012
v 3.050000 33.099998 -260.200012
v 2.600000 33.099998 -260.649994
v 3.050000 33.099998 -260.649994
v 12.100000 26.700001 -257.899994
v 16.299999 26.700001 -257.899994
v 12.100000 26.700001 -262.500000
v 16.299999 26.700001 -262.500000
v 12.100000 30.299999 -257.899994
v 16.299999 30.299999 -257.899994
v 12.100000 30.299999 -262.500000
v 16.299999 30.299999 -262.500000
v 11.900000 30.299999 -257.600006
v 16.500000 30.299999 -257.600006
v 16.500000 30.299999 -262.799988
v 11.900000 30.299999 -262.799988
v 11.900000 32.500000 -260.200012
v 16.500000 32.500000 -260.200012
v 15.400000 31.180000 -260.600006
v 15.850000 31.180000 -260.600006
v 15.400000 31.180000 -261.049988
v 15.850000 31.180000 -261.049988
v 15.400000 33.099998 -260.600006
v 15.850000 33.099998 -260.600006
v 15.400000 33.099998 -261.049988
v 15.850000 33.099998 -261.049988
v 17.000000 26.700001 -259.899994
v 20.600000 26.700001 -259.899994
v 17.000000 26.700001 -264.100006
v 20.600000 26.700001 -264.100006
v 17.000000 30.000000 -259.899994
v 20.600000 30.000000 -259.899994
v 17.000000 30.000000 -264.100006
v 20.600000 30.000000 -264.100006
v 16.799999 30.000000 -259.700012
v 20.799999 30.000000 -259.700012
v 20.799999 30.000000 -264.299988
v 16.799999 30.000000 -264.299988
v 18.799999 32.400002 -259.700012
v 18.799999 32.400002 -264.299988
v 20.700001 26.700001 -257.299988
v 25.299999 26.700001 -257.299988
v 20.700001 26.700001 -262.299988
v 25.299999 26.700001 -262.299988
v 20.700001 31.400000 -257.299988
v 25.299999 31.400000 -257.299988
v 20.700001 31.400000 -262.299988
v 25.299999 31.400000 -262.299988
v 20.500000 31.400000 -257.000000
v 25.500000 31.400000 -257.000000
v 25.500000 31.400000 -262.600006
v 20.500000 31.400000 -262.600006
v 20.500000 33.599998 -259.799988
v 25.500000 33.599998 -259.799988
v 24.400000 32.279999 -260.200012
v 24.850000 32.279999 -260.200012
v 24.400000 32.279999 -260.649994
v 24.850000 32.279999 -260.649994
v 24.400000 34.200001 -260.200012
v 24.850000 34.200001 -260.200012
v 24.400000 34.200001 -260.649994
v 24.850000 34.200001 -260.649994
v 5.700000 26.700001 -257.899994
v 10.300000 26.700001 -257.899994
v 5.700000 26.700001 -264.899994
v 10.300000 26.700001 -264.899994
v 5.700000 32.599998 -257.899994
v 10.300000 32.599998 -257.899994
v 5.700000 32.599998 -264.899994
v 10.300000 32.599998 -264.899994
v 5.500000 32.599998 -257.700012
v 10.500000 32.599998 -257.700012
v 10.500000 32.599998 -265.100006
v 5.500000 32.599998 -265.100006
v 8.000000 35.599998 -257.700012
v 8.000000 35.599998 -265.100006
v 6.700000 26.700001 -255.699997
v 9.300000 26.700001 -255.699997
v 6.700000 26.700001 -258.299988
v 9.300000 26.700001 -258.299988
v 6.700000 37.500000 -255.699997
v 9.300000 37.500000 -255.699997
v 6.700000 37.500000 -258.299988
v 9.300000 37.500000 -258.299988
v 6.500000 37.500000 -255.500000
v 9.500000 37.500000 -255.500000
v 9.500000 37.500000 -258.500000
v 6.500000 37.500000 -258.500000
v 8.000000 40.700001 -257.000000
v -4.850000 26.700001 -256.799988
v -5.069670 26.700001 -257.330322
v -5.600000 26.700001 -257.549988
v -6.130330 26.700001 -257.330322
v -6.350000 26.700001 -256.799988
v -6.130330 26.700001 -256.269684
v -5.600000 26.700001 -256.049988
v -5.069670 26.700001 -256.269684
v -4.850000 27.799999 -256.799988
v -5.069670 27.799999 -257.330322
v -5.600000 27.799999 -257.549988
v -6.130330 27.799999 -257.330322
v -6.350000 27.799999 -256.799988
v -6.130330 27.799999 -256.269684
v -5.600000 27.799999 -256.049988
v -5.069670 27.799999 -256.269684
v -6.410000 27.000000 -256.730011
v -6.270000 27.000000 -256.730011
v -6.410000 27.000000 -256.869995
v -6.270000 27.000000 -256.869995
v -6.410000 28.900000 -256.730011
v -6.270000 28.900000 -256.730011
v -6.410000 28.900000 -256.869995
v -6.270000 28.900000 -256.869995
v -4.930000 27.000000 -256.730011
v -4.790000 27.000000 -256.730011
v -4.930000 27.000000 -256.869995
v -4.790000 27.000000 -256.869995
v -4.930000 28.900000 -256.730011
v -4.790000 28.900000 -256.730011
v -4.930000 28.900000 -256.869995
v -4.790000 28.900000 -256.869995
v -6.650000 28.900000 -256.299988
v -4.550000 28.900000 -256.299988
v -4.550000 28.900000 -257.299988
v -6.650000 28.900000 -257.299988
v -5.600000 29.500000 -256.299988
v -5.600000 29.500000 -257.299988
v -21.120001 26.700001 -255.880005
v -20.879999 26.700001 -255.880005
v -21.120001 26.700001 -256.119995
v -20.879999 26.700001 -256.119995
v -21.120001 29.500000 -255.880005
v -20.879999 29.500000 -255.880005
v -21.120001 29.500000 -256.119995
v -20.879999 29.500000 -256.119995
v -16.320000 26.700001 -255.880005
v -16.080000 26.700001 -255.880005
v -16.320000 26.700001 -256.119995
v -16.080000 26.700001 -256.119995
v -16.320000 29.500000 -255.880005
v -16.080000 29.500000 -255.880005
v -16.320000 29.500000 -256.119995
v -16.080000 29.500000 -256.119995
v -11.120000 26.700001 -255.880005
v -10.880000 26.700001 -255.880005
v -11.120000 26.700001 -256.119995
v -10.880000 26.700001 -256.119995
v -11.120000 29.500000 -255.880005
v -10.880000 29.500000 -255.880005
v -11.120000 29.500000 -256.119995
v -10.880000 29.500000 -256.119995
v -7.520000 26.700001 -255.880005
v -7.280000 26.700001 -255.880005
v -7.520000 26.700001 -256.119995
v -7.280000 26.700001 -256.119995
v -7.520000 29.500000 -255.880005
v -7.280000 29.500000 -255.880005
v -7.520000 29.500000 -256.119995
v -7.280000 29.500000 -256.119995
v -1.720000 26.700001 -255.880005
v -1.480000 26.700001 -255.880005
v -1.720000 26.700001 -256.119995
v -1.480000 26.700001 -256.119995
v -1.720000 29.500000 -255.880005
v -1.480000 29.500000 -255.880005
v -1.720000 29.500000 -256.119995
v -1.480000 29.500000 -256.119995
v 3.480000 26.700001 -255.880005
v 3.720000 26.700001 -255.880005
v 3.480000 26.700001 -256.119995
v 3.720000 26.700001 -256.119995
v 3.480000 29.500000 -255.880005
v 3.720000 29.500000 -255.880005
v 3.480000 29.500000 -256.119995
v 3.720000 29.500000 -256.119995
v 11.480000 26.700001 -255.880005
v 11.720000 26.700001 -255.880005
v 11.480000 26.700001 -256.119995
v 11.720000 26.700001 -256.119995
v 11.480000 29.500000 -255.880005
v 11.720000 29.500000 -255.880005
v 11.480000 29.500000 -256.119995
v 11.720000 29.500000 -256.119995
v 16.280001 26.700001 -255.880005
v 16.520000 26.700001 -255.880005
v 16.280001 26.700001 -256.119995
v 16.520000 26.700001 -256.119995
v 16.280001 29.500000 -255.880005
v 16.520000 29.500000 -255.880005
v 16.280001 29.500000 -256.119995
v 16.520000 29.500000 -256.119995
v 20.879999 26.700001 -255.880005
v 21.120001 26.700001 -255.880005
v 20.879999 26.700001 -256.119995
v 21.120001 26.700001 -256.119995
v 20.879999 29.500000 -255.880005
v 21.120001 29.500000 -255.880005
v 20.879999 29.500000 -256.119995
v 21.120001 29.500000 -256.119995
vn 0.0034 0.3207 0.9472
vn 0.0014 0.3105 0.9506
vn -0.0005 0.3008 0.9537
vn 0.2356 0.3019 0.9238
vn 0.2023 0.2823 0.9377
vn 0.1677 0.2637 0.9499
vn 0.1317 0.2498 0.9593
vn -0.0000 0.2402 0.9707
vn -0.0000 0.2371 0.9715
vn -0.0000 0.2353 0.9719
vn -0.0191 0.2346 0.9719
vn -0.0571 0.2354 0.9702
vn -0.0948 0.2378 0.9667
vn 0.0577 0.2382 0.9695
vn 0.1582 0.2378 0.9583
vn 0.2226 0.2420 0.9444
vn 0.0631 0.2723 0.9601
vn -0.2695 0.2971 0.9160
vn -0.3009 0.3088 0.9023
vn -0.3307 0.3218 0.8872
vn -0.4119 0.3352 0.8474
vn -0.5481 0.3368 0.7656
vn -0.6741 0.3390 0.6563
vn -0.7806 0.3403 0.5242
vn -0.8593 0.3399 0.3821
vn -0.9130 0.3378 0.2287
vn -0.9395 0.3357 0.0682
vn -0.9380 0.3350 -0.0891
vn -0.9097 0.3362 -0.2436
vn -0.8526 0.3385 -0.3981
vn -0.7660 0.3401 -0.5455
vn -0.6603 0.3402 -0.6696
vn -0.5355 0.3385 -0.7737
vn -0.3947 0.3362 -0.8551
vn -0.2447 0.3349 -0.9099
vn -0.0917 0.3358 -0.9375
vn 0.0709 0.3379 -0.9385
vn 0.2383 0.3398 -0.9098
vn 0.3941 0.3404 -0.8537
vn 0.5354 0.3391 -0.7736
vn 0.6611 0.3367 -0.6705
vn 0.7669 0.3350 -0.5474
vn 0.8458 0.3354 -0.4148
vn 0.9033 0.3373 -0.2650
vn 0.9353 0.3394 -0.0999
vn 0.9378 0.3404 0.0681
vn 0.9124 0.3396 0.2285
vn 0.8602 0.3374 0.3825
vn 0.7821 0.3353 0.5252
vn 0.6850 0.3351 0.6469
vn 0.5665 0.3367 0.7521
vn 0.4249 0.3389 0.8394
vn -1.0000 -0.0000 -0.0000
vn 1.0000 -0.0000 -0.0000
vn -0.0000 -0.0000 1.0000
vn -0.0000 0.7526 0.6585
vn -0.0000 0.7526 -0.6585
vn -0.0000 1.0000 -0.0000
vn -0.0000 0.7507 0.6606
vn -0.0000 0.7507 -0.6606
vn -0.7546 0.6562 -0.0000
vn 0.7546 0.6562 -0.0000
vn -0.0000 -0.0000 -1.0000
vn -0.0000 0.7657 0.6432
vn -0.0000 0.7657 -0.6432
vn -0.0000 0.7372 0.6757
vn -0.0000 0.7372 -0.6757
vn -0.7234 0.6905 -0.0000
vn 0.7234 0.6905 -0.0000
vn -0.0000 0.7863 0.6178
vn -0.0000 0.7863 -0.6178
vn -0.7809 0.6247 -0.0000
vn 0.7809 0.6247 -0.0000
vn -0.0000 0.8036 0.5952
vn -0.0000 0.8036 -0.5952
vn -0.7526 0.6585 -0.0000
vn 0.7526 0.6585 -0.0000
vn -0.0000 0.7779 0.6283
vn -0.0000 0.7779 -0.6283
vn -0.0000 0.7634 0.6459
vn -0.0000 0.7634 -0.6460
vn -0.7682 0.6402 -0.0000
vn 0.7682 0.6402 -0.0000
vn -0.0000 0.4244 0.9055
vn 0.9055 0.4244 -0.0000
vn -0.0000 0.4244 -0.9055
vn -0.9055 0.4244 -0.0000
vn 0.9239 -0.0000 -0.3827
vn 0.3827 -0.0000 -0.9239
vn -0.3827 -0.0000 -0.9239
vn -0.9239 -0.0000 -0.3827
vn -0.9239 -0.0000 0.3827
vn -0.3827 -0.0000 0.9239
vn 0.3827 -0.0000 0.9239
vn 0.9239 -0.0000 0.3827
vn -0.4961 0.8682 -0.0000
vn 0.4961 0.8683 -0.0000
vn -0.0000 -1.0000 -0.0000
vn 0.3300 0.3271 0.8855
vn 0.3004 0.3139 0.9007
vn 0.2691 0.3019 0.9146
vn -0.1824 0.2594 0.9484
vn -0.2041 0.2436 0.9481
vn -0.1482 0.2387 0.9597
vn -0.0611 0.2381 0.9693
vn 0.0948 0.2378 0.9667
vn 0.0571 0.2354 0.9702
vn 0.0191 0.2346 0.9719
vn -0.1317 0.2497 0.9593
vn -0.1677 0.2640 0.9498
vn -0.2023 0.2837 0.9373
vn -0.2359 0.2971 0.9252
vn -0.0034 0.2962 0.9551
vn -0.0020 0.3054 0.9522
vn -0.0005 0.3153 0.9490
vn -0.4185 0.3365 0.8436
vn -0.5569 0.3388 0.7583
vn -0.6787 0.3403 0.6508
vn -0.7819 0.3400 0.5226
vn -0.8639 0.3381 0.3733
vn -0.9162 0.3359 0.2185
vn -0.9400 0.3349 0.0642
vn -0.9371 0.3360 -0.0945
vn -0.9061 0.3382 -0.2542
vn -0.8482 0.3401 -0.4060
vn -0.7656 0.3402 -0.5459
vn -0.6546 0.3387 -0.6758
vn -0.5266 0.3364 -0.7807
vn -0.3891 0.3350 -0.8581
vn -0.2417 0.3355 -0.9105
vn -0.0813 0.3376 -0.9378
vn 0.0812 0.3397 -0.9370
vn 0.2412 0.3404 -0.9088
vn 0.4000 0.3392 -0.8514
vn 0.5451 0.3370 -0.7677
vn 0.6674 0.3353 -0.6650
vn 0.7671 0.3351 -0.5470
vn 0.8492 0.3370 -0.4065
vn 0.9057 0.3393 -0.2541
vn 0.9355 0.3404 -0.0943
vn 0.9378 0.3397 0.0722
vn 0.9104 0.3376 0.2391
vn 0.8567 0.3356 0.3917
vn 0.7810 0.3350 0.5270
vn 0.6798 0.3364 0.6518
vn 0.5569 0.3387 0.7583
vn 0.4179 0.3403 0.8424
vn -0.0000 0.7371 0.6757
vn -0.0000 0.7371 -0.6757
vn -0.0000 0.7634 -0.6459
vn 0.4961 0.8682 -0.0000
vt 0.758245 0.284771
vt 0.744907 0.714178
vt 0.725124 0.715342
vt 0.755915 0.285849
vt 0.747057 0.713270
vt 0.727236 0.714199
vt 0.753790 0.286749
vt 0.749016 0.712540
vt 0.729159 0.713233
vt 0.773596 0.285440
vt 0.723518 0.708316
vt 0.759370 0.284352
vt 0.772535 0.278543
vt 0.724732 0.713764
vt 0.758019 0.277546
vt 0.768681 0.271636
vt 0.728791 0.722682
vt 0.753739 0.270905
vt 0.764158 0.267444
vt 0.733498 0.730338
vt 0.748852 0.267018
vt 0.745331 0.266098
vt 0.756899 0.733697
vt 0.736917 0.733902
vt 0.744012 0.266312
vt 0.758168 0.733566
vt 0.738175 0.733688
vt 0.742761 0.266439
vt 0.759394 0.733520
vt 0.739395 0.733561
vt 0.757239 0.266439
vt 0.740606 0.733520
vt 0.741551 0.266480
vt 0.755988 0.266312
vt 0.741832 0.733566
vt 0.740355 0.266434
vt 0.754669 0.266098
vt 0.743101 0.733697
vt 0.739147 0.266303
vt 0.735957 0.267368
vt 0.766385 0.730555
vt 0.746391 0.735129
vt 0.730951 0.271743
vt 0.771584 0.722140
vt 0.751590 0.735130
vt 0.726726 0.279308
vt 0.776026 0.712200
vt 0.756056 0.730233
vt 0.731207 0.283776
vt 0.771527 0.714575
vt 0.751570 0.718644
vt 0.746371 0.283263
vt 0.750829 0.715909
vt 0.732120 0.283970
vt 0.744108 0.282308
vt 0.752920 0.716806
vt 0.730231 0.283126
vt 0.741619 0.281286
vt 0.755224 0.717766
vt 0.728144 0.282217
vt 0.715106 0.281288
vt 0.797630 0.717684
vt 0.703055 0.719849
vt 0.714933 0.282574
vt 0.797802 0.715888
vt 0.703229 0.719127
vt 0.715122 0.283772
vt 0.797614 0.715262
vt 0.703039 0.717300
vt 0.784647 0.284070
vt 0.702617 0.715648
vt 0.715544 0.284039
vt 0.785000 0.283335
vt 0.702264 0.715332
vt 0.715898 0.283192
vt 0.785035 0.281976
vt 0.702229 0.716575
vt 0.715933 0.281823
vt 0.784733 0.280950
vt 0.702531 0.718504
vt 0.715630 0.280893
vt 0.715202 0.281056
vt 0.797534 0.718202
vt 0.702959 0.719763
vt 0.714945 0.282200
vt 0.797791 0.716293
vt 0.703218 0.719467
vt 0.715040 0.283518
vt 0.797696 0.715268
vt 0.703122 0.717825
vt 0.715425 0.284084
vt 0.797311 0.715847
vt 0.702735 0.715991
vt 0.784931 0.283624
vt 0.702333 0.715251
vt 0.715828 0.283503
vt 0.785063 0.282345
vt 0.702202 0.716127
vt 0.715961 0.282182
vt 0.784837 0.281138
vt 0.702427 0.718004
vt 0.715734 0.281048
vt 0.715310 0.280898
vt 0.797426 0.718687
vt 0.702850 0.719562
vt 0.714982 0.281839
vt 0.797753 0.716764
vt 0.703180 0.719706
vt 0.714979 0.283209
vt 0.797757 0.715394
vt 0.703183 0.718336
vt 0.715308 0.284044
vt 0.797428 0.715541
vt 0.702853 0.716416
vt 0.784841 0.283852
vt 0.702423 0.715291
vt 0.715738 0.283759
vt 0.785064 0.282718
vt 0.702201 0.715753
vt 0.715962 0.282555
vt 0.784927 0.281395
vt 0.702338 0.717479
vt 0.715824 0.281276
vt 0.715425 0.280820
vt 0.797311 0.719111
vt 0.702735 0.719255
vt 0.715044 0.281510
vt 0.797692 0.717275
vt 0.703118 0.719832
vt 0.714943 0.282861
vt 0.797793 0.715633
vt 0.703219 0.718807
vt 0.715198 0.283921
vt 0.797538 0.715339
vt 0.702963 0.716900
vt 0.784736 0.284006
vt 0.702528 0.715449
vt 0.715632 0.283947
vt 0.785038 0.283078
vt 0.702226 0.715474
vt 0.715936 0.282923
vt 0.784997 0.281707
vt 0.702268 0.716959
vt 0.715894 0.281566
vt 0.784646 0.280858
vt 0.702618 0.718860
vt 0.715542 0.280828
vt 0.715126 0.281230
vt 0.797610 0.717802
vt 0.703035 0.719840
vt 0.714934 0.282490
vt 0.797802 0.715972
vt 0.703229 0.719211
vt 0.715102 0.283720
vt 0.797634 0.715253
vt 0.703059 0.717417
vt 0.254200 0.503700
vt 0.245800 0.496300
vt 0.254200 0.496300
vt 0.245800 0.503700
vt 0.254000 0.496300
vt 0.246000 0.503700
vt 0.246000 0.496300
vt 0.754400 0.496811
vt 0.745600 0.503189
vt 0.745600 0.496811
vt 0.754400 0.496811
vt 0.745600 0.496811
vt 0.754800 0.498600
vt 0.750000 0.502800
vt 0.745200 0.498600
vt 0.745200 0.498600
vt 0.754800 0.498600
vt 0.250450 0.501860
vt 0.249550 0.498140
vt 0.250450 0.498140
vt 0.249550 0.501860
vt 0.250450 0.498140
vt 0.249550 0.501860
vt 0.249550 0.498140
vt 0.250450 0.499550
vt 0.249550 0.500450
vt 0.249550 0.499550
vt 0.254400 0.503900
vt 0.245600 0.496100
vt 0.254400 0.496100
vt 0.254400 0.496100
vt 0.245600 0.503900
vt 0.245600 0.496100
vt 0.245600 0.503900
vt 0.245600 0.496100
vt 0.754800 0.496670
vt 0.745200 0.503330
vt 0.745200 0.496670
vt 0.755000 0.498533
vt 0.750000 0.502933
vt 0.745000 0.498533
vt 0.250450 0.501920
vt 0.249550 0.498080
vt 0.250450 0.498080
vt 0.249550 0.501920
vt 0.250450 0.498080
vt 0.249550 0.501920
vt 0.249550 0.498080
vt 0.249550 0.500450
vt 0.254000 0.503700
vt 0.253600 0.496300
vt 0.246400 0.503700
vt 0.246400 0.496300
vt 0.754400 0.503048
vt 0.745600 0.496952
vt 0.754400 0.496952
vt 0.745600 0.503048
vt 0.746000 0.498467
vt 0.754000 0.498467
vt 0.750000 0.503067
vt 0.245600 0.503900
vt 0.254000 0.496100
vt 0.246000 0.503900
vt 0.246000 0.496100
vt 0.754400 0.496735
vt 0.745600 0.503265
vt 0.745600 0.496735
vt 0.755000 0.498600
vt 0.745000 0.498600
vt 0.249550 0.498140
vt 0.249550 0.501860
vt 0.245800 0.496300
vt 0.245800 0.503700
vt 0.245800 0.503700
vt 0.245800 0.496300
vt 0.754600 0.496744
vt 0.745400 0.503256
vt 0.745400 0.496744
vt 0.754600 0.496744
vt 0.745400 0.503256
vt 0.745400 0.496744
vt 0.754800 0.498533
vt 0.745200 0.498533
vt 0.254000 0.503500
vt 0.246000 0.496500
vt 0.254000 0.496500
vt 0.246000 0.503500
vt 0.253800 0.496500
vt 0.246200 0.503500
vt 0.246200 0.496500
vt 0.754400 0.503041
vt 0.745600 0.496959
vt 0.754400 0.496959
vt 0.754400 0.496959
vt 0.745600 0.503041
vt 0.745600 0.496959
vt 0.745800 0.498533
vt 0.754200 0.498533
vt 0.255000 0.503700
vt 0.245000 0.496300
vt 0.255000 0.496300
vt 0.245000 0.503700
vt 0.254400 0.496300
vt 0.245600 0.503700
vt 0.245600 0.496300
vt 0.754800 0.496439
vt 0.745200 0.503561
vt 0.745200 0.496439
vt 0.745200 0.503561
vt 0.755600 0.498533
vt 0.750000 0.502933
vt 0.744400 0.498533
vt 0.249550 0.498080
vt 0.249550 0.501920
vt 0.250450 0.499550
vt 0.254400 0.503300
vt 0.245600 0.496700
vt 0.254400 0.496700
vt 0.254400 0.496700
vt 0.245600 0.503300
vt 0.245600 0.496700
vt 0.253600 0.496700
vt 0.246400 0.503300
vt 0.246400 0.496700
vt 0.754800 0.503202
vt 0.745200 0.496798
vt 0.754800 0.496798
vt 0.745200 0.503202
vt 0.746000 0.498333
vt 0.754000 0.498333
vt 0.750000 0.503333
vt 0.254800 0.503900
vt 0.245200 0.496100
vt 0.254800 0.496100
vt 0.245200 0.503900
vt 0.755200 0.496640
vt 0.744800 0.503360
vt 0.744800 0.496640
vt 0.744800 0.503360
vt 0.755400 0.498667
vt 0.750000 0.502667
vt 0.744600 0.498667
vt 0.750000 0.502667
vt 0.250450 0.501800
vt 0.249550 0.498200
vt 0.250450 0.498200
vt 0.249550 0.501800
vt 0.249550 0.501800
vt 0.249550 0.498200
vt 0.254400 0.503500
vt 0.245600 0.496500
vt 0.254400 0.496500
vt 0.245600 0.503500
vt 0.754800 0.503189
vt 0.745200 0.496811
vt 0.754800 0.496811
vt 0.745200 0.503189
vt 0.745800 0.498400
vt 0.754200 0.498400
vt 0.750000 0.503200
vt 0.254600 0.503700
vt 0.245400 0.496300
vt 0.254600 0.496300
vt 0.254600 0.496300
vt 0.245400 0.503700
vt 0.245400 0.496300
vt 0.754600 0.496658
vt 0.745400 0.503342
vt 0.745400 0.496658
vt 0.754600 0.496658
vt 0.745400 0.496658
vt 0.755200 0.498600
vt 0.750000 0.502800
vt 0.744800 0.498600
vt 0.254600 0.503600
vt 0.245400 0.496400
vt 0.254600 0.496400
vt 0.254600 0.496400
vt 0.245400 0.503600
vt 0.245400 0.496400
vt 0.254200 0.496400
vt 0.245800 0.503600
vt 0.245800 0.496400
vt 0.754600 0.496594
vt 0.745400 0.503406
vt 0.745400 0.496594
vt 0.754600 0.496594
vt 0.745400 0.496594
vt 0.755200 0.498533
vt 0.744800 0.498533
vt 0.744800 0.498533
vt 0.755200 0.498533
vt 0.249550 0.498080
vt 0.250450 0.498080
vt 0.250450 0.498080
vt 0.249550 0.498080
vt 0.249550 0.498080
vt 0.254200 0.503300
vt 0.245800 0.496700
vt 0.254200 0.496700
vt 0.254200 0.496700
vt 0.245800 0.503300
vt 0.245800 0.496700
vt 0.754600 0.503124
vt 0.745400 0.496876
vt 0.754600 0.496876
vt 0.745400 0.503124
vt 0.746000 0.498400
vt 0.754000 0.498400
vt 0.255000 0.504700
vt 0.245000 0.495300
vt 0.255000 0.495300
vt 0.245000 0.504700
vt 0.254600 0.495300
vt 0.245400 0.504700
vt 0.245400 0.495300
vt 0.755000 0.496439
vt 0.745000 0.503561
vt 0.745000 0.496439
vt 0.745000 0.503561
vt 0.257000 0.505900
vt 0.243000 0.494100
vt 0.257000 0.494100
vt 0.243000 0.505900
vt 0.254600 0.494100
vt 0.245400 0.505900
vt 0.245400 0.494100
vt 0.757400 0.503905
vt 0.742600 0.496095
vt 0.757400 0.496095
vt 0.742600 0.503905
vt 0.745000 0.498000
vt 0.755000 0.498000
vt 0.750000 0.504000
vt 0.252600 0.510800
vt 0.247400 0.489200
vt 0.252600 0.489200
vt 0.252600 0.489200
vt 0.247400 0.510800
vt 0.247400 0.489200
vt 0.747000 0.497644
vt 0.753000 0.497644
vt 0.750000 0.504712
vt 0.250574 0.498900
vt 0.249426 0.501100
vt 0.249426 0.498900
vt 0.249426 0.501100
vt 0.249426 0.498900
vt 0.250574 0.498900
vt 0.249426 0.501100
vt 0.249426 0.498900
vt 0.250574 0.498900
vt 0.248939 0.501061
vt 0.248939 0.498939
vt 0.251061 0.498939
vt 0.750140 0.501900
vt 0.749860 0.498100
vt 0.750140 0.498100
vt 0.750140 0.498100
vt 0.749860 0.501900
vt 0.749860 0.498100
vt 0.749860 0.501900
vt 0.751000 0.501209
vt 0.749000 0.498791
vt 0.751000 0.498791
vt 0.749000 0.501209
vt 0.747900 0.499600
vt 0.752100 0.499600
vt 0.750000 0.500800
vt 0.752100 0.501000
vt 0.747900 0.499000
vt 0.752100 0.499000
vt 0.750240 0.502800
vt 0.749760 0.497200
vt 0.750240 0.497200
vt 0.749760 0.502800
vt 0.750240 0.497200
vt 0.749760 0.502800
vt 0.749760 0.497200
vt 0.771725 0.285709
vt 0.769791 0.286682
vt 0.768035 0.287478
vt 0.743516 0.721892
vt 0.744715 0.730147
vt 0.748788 0.734778
vt 0.753492 0.735200
vt 0.760853 0.266303
vt 0.759645 0.266434
vt 0.758449 0.266480
vt 0.760605 0.733561
vt 0.761825 0.733688
vt 0.763083 0.733902
vt 0.751266 0.266949
vt 0.745875 0.270987
vt 0.741191 0.278260
vt 0.745696 0.283005
vt 0.770680 0.716857
vt 0.772740 0.717760
vt 0.775013 0.718731
vt 0.784209 0.281180
vt 0.784035 0.282410
vt 0.784225 0.283667
vt 0.797192 0.716243
vt 0.796838 0.718142
vt 0.796803 0.719626
vt 0.797106 0.719653
vt 0.784305 0.280978
vt 0.784047 0.282040
vt 0.784142 0.283388
vt 0.784529 0.284077
vt 0.796908 0.717622
vt 0.796775 0.719346
vt 0.797002 0.719810
vt 0.784414 0.280854
vt 0.784085 0.281691
vt 0.784081 0.283060
vt 0.784411 0.283999
vt 0.796998 0.717098
vt 0.796774 0.718973
vt 0.796912 0.719850
vt 0.784529 0.280813
vt 0.784146 0.281382
vt 0.784045 0.282700
vt 0.784301 0.283841
vt 0.797103 0.716598
vt 0.796800 0.718525
vt 0.796842 0.719769
vt 0.797194 0.719455
vt 0.784229 0.281128
vt 0.784036 0.282326
vt 0.784205 0.283610
vt 0.754400 0.503189
vt 0.250450 0.501860
vt 0.250450 0.500450
vt 0.254400 0.503900
vt 0.754800 0.503330
vt 0.250450 0.501920
vt 0.250450 0.500450
vt 0.253600 0.503700
vt 0.254000 0.503900
vt 0.754400 0.503265
vt 0.754600 0.503256
vt 0.754600 0.503256
vt 0.253800 0.503500
vt 0.745600 0.503041
vt 0.754400 0.503041
vt 0.254400 0.503700
vt 0.754800 0.503561
vt 0.754800 0.503561
vt 0.250450 0.500450
vt 0.253600 0.503300
vt 0.755200 0.503360
vt 0.755200 0.503360
vt 0.250450 0.500450
vt 0.245400 0.503700
vt 0.254600 0.503700
vt 0.754600 0.503342
vt 0.245400 0.503600
vt 0.254600 0.503600
vt 0.254200 0.503600
vt 0.754600 0.503406
vt 0.250450 0.501920
vt 0.254600 0.504700
vt 0.755000 0.503561
vt 0.755000 0.503561
vt 0.254600 0.505900
vt 0.247400 0.510800
vt 0.252600 0.510800
vt 0.250574 0.501100
vt 0.250574 0.501100
vt 0.250574 0.501100
vt 0.251500 0.500000
vt 0.251061 0.501061
vt 0.250000 0.501500
vt 0.248500 0.500000
vt 0.250000 0.498500
vt 0.750140 0.501900
vt 0.747900 0.501000
vt 0.750240 0.502800
s 0
usemtl lantern
f 1/1/1 4/2/1 2/3/1
f 3/4/2 6/5/2 4/6/2
f 5/7/3 8/8/3 6/9/3
f 9/10/4 8/11/4 7/12/4
f 11/13/5 10/14/5 9/15/5
f 13/16/6 12/17/6 11/18/6
f 15/19/7 14/20/7 13/21/7
f 15/22/8 18/23/8 16/24/8
f 17/25/9 20/26/9 18/27/9
f 19/28/10 22/29/10 20/30/10
f 23/31/11 22/32/11 21/33/11
f 25/34/12 24/35/12 23/36/12
f 27/37/13 26/38/13 25/39/13
f 27/40/14 30/41/14 28/42/14
f 29/43/15 32/44/15 30/45/15
f 31/46/16 34/47/16 32/48/16
f 33/49/17 36/50/17 34/51/17
f 37/52/18 36/53/18 35/54/18
f 39/55/19 38/56/19 37/57/19
f 41/58/20 40/59/20 39/60/20
f 41/61/21 44/62/21 42/63/21
f 43/64/22 46/65/22 44/66/22
f 45/67/23 48/68/23 46/69/23
f 49/70/24 48/71/24 47/72/24
f 51/73/25 50/74/25 49/75/25
f 53/76/26 52/77/26 51/78/26
f 55/79/27 54/80/27 53/81/27
f 55/82/28 58/83/28 56/84/28
f 57/85/29 60/86/29 58/87/29
f 59/88/30 62/89/30 60/90/30
f 61/91/31 64/92/31 62/93/31
f 65/94/32 64/95/32 63/96/32
f 67/97/33 66/98/33 65/99/33
f 69/100/34 68/101/34 67/102/34
f 69/103/35 72/104/35 70/105/35
f 71/106/36 74/107/36 72/108/36
f 73/109/37 76/110/37 74/111/37
f 75/112/38 78/113/38 76/114/38
f 79/115/39 78/116/39 77/117/39
f 81/118/40 80/119/40 79/120/40
f 83/121/41 82/122/41 81/123/41
f 83/124/42 86/125/42 84/126/42
f 85/127/43 88/128/43 86/129/43
f 87/130/44 90/131/44 88/132/44
f 89/133/45 92/134/45 90/135/45
f 93/136/46 92/137/46 91/138/46
f 95/139/47 94/140/47 93/141/47
f 97/142/48 96/143/48 95/144/48
f 99/145/49 98/146/49 97/147/49
f 99/148/50 102/149/50 100/150/50
f 101/151/51 104/152/51 102/153/51
f 103/154/52 2/155/52 104/156/52
f 109/157/53 107/158/53 105/159/53
f 108/159/54 110/160/54 106/158/54
f 106/161/55 109/162/55 105/163/55
f 114/164/56 117/165/56 113/166/56
f 116/167/57 118/165/57 115/168/57
f 113/169/53 117/170/53 116/171/53
f 114/172/54 115/173/54 118/170/54
f 123/174/53 121/175/53 119/176/53
f 122/176/54 124/177/54 120/175/54
f 120/178/55 123/179/55 119/180/55
f 124/181/58 125/182/58 123/183/58
f 131/184/53 129/185/53 127/186/53
f 130/187/54 132/188/54 128/189/54
f 128/187/55 131/190/55 127/191/55
f 136/192/59 139/193/59 135/194/59
f 138/192/60 140/193/60 137/194/60
f 135/195/53 139/196/53 138/197/53
f 136/197/54 137/195/54 140/196/54
f 145/198/53 143/199/53 141/200/53
f 144/200/54 146/201/54 142/199/54
f 142/202/55 145/203/55 141/204/55
f 146/181/58 147/205/58 145/183/58
f 153/206/53 151/163/53 149/161/53
f 152/161/54 154/162/54 150/163/54
f 150/207/55 153/208/55 149/209/55
f 161/210/61 160/211/61 157/212/61
f 159/212/62 161/213/62 158/211/62
f 157/214/55 158/215/55 161/216/55
f 159/214/63 160/215/63 162/216/63
f 167/184/53 165/185/53 163/186/53
f 166/186/54 168/217/54 164/185/54
f 164/218/55 167/219/55 163/220/55
f 172/221/64 175/222/64 171/223/64
f 174/221/65 176/222/65 173/223/65
f 171/224/53 175/170/53 174/225/53
f 172/225/54 173/224/54 176/170/54
f 181/174/53 179/226/53 177/176/53
f 180/176/54 182/227/54 178/226/54
f 178/178/55 181/179/55 177/180/55
f 182/181/58 183/205/58 181/183/58
f 189/157/53 187/228/53 185/159/53
f 188/159/54 190/229/54 186/228/54
f 186/159/55 189/230/55 185/231/55
f 194/232/66 197/233/66 193/234/66
f 196/235/67 198/236/67 195/237/67
f 193/238/53 197/196/53 196/239/53
f 194/239/54 195/238/54 198/196/54
f 203/198/53 201/199/53 199/200/53
f 202/200/54 204/201/54 200/199/54
f 200/202/55 203/203/55 199/204/55
f 204/181/58 205/205/58 203/183/58
f 211/240/53 209/241/53 207/242/53
f 210/242/54 212/243/54 208/241/54
f 208/244/55 211/245/55 207/246/55
f 219/247/68 218/248/68 215/249/68
f 217/250/69 219/251/69 216/252/69
f 215/253/55 216/254/55 219/196/55
f 217/253/63 218/254/63 220/196/63
f 225/255/53 223/256/53 221/257/53
f 224/257/54 226/258/54 222/256/54
f 222/259/55 225/260/55 221/261/55
f 230/262/70 233/263/70 229/264/70
f 232/262/71 234/265/71 231/264/71
f 229/266/53 233/267/53 232/268/53
f 230/268/54 231/266/54 234/196/54
f 239/198/53 237/269/53 235/200/53
f 238/200/54 240/270/54 236/269/54
f 236/200/55 239/203/55 235/204/55
f 240/271/58 241/182/58 239/183/58
f 247/272/53 245/273/53 243/274/53
f 246/275/54 248/276/54 244/277/54
f 244/278/55 247/279/55 243/280/55
f 255/281/72 254/282/72 251/283/72
f 253/283/73 255/284/73 252/282/73
f 251/285/55 252/286/55 255/287/55
f 253/285/63 254/286/63 256/287/63
f 261/288/53 259/289/53 257/290/53
f 260/290/54 262/291/54 258/289/54
f 258/290/55 261/291/55 257/289/55
f 266/292/74 269/293/74 265/294/74
f 268/292/75 270/295/75 267/294/75
f 265/296/53 269/297/53 268/298/53
f 266/298/54 267/296/54 270/299/54
f 275/300/53 273/301/53 271/302/53
f 274/302/54 276/303/54 272/301/54
f 272/302/55 275/304/55 271/305/55
f 276/271/58 277/205/58 275/183/58
f 283/306/53 281/307/53 279/308/53
f 282/308/54 284/309/54 280/307/54
f 280/244/55 283/245/55 279/246/55
f 291/310/76 290/311/76 287/312/76
f 289/312/77 291/313/77 288/311/77
f 287/314/55 288/315/55 291/316/55
f 289/314/63 290/315/63 292/316/63
f 297/317/53 295/318/53 293/319/53
f 296/320/54 298/321/54 294/322/54
f 294/159/55 297/230/55 293/231/55
f 302/323/78 305/324/78 301/325/78
f 304/326/79 306/324/79 303/327/79
f 301/328/53 305/329/53 304/330/53
f 302/330/54 303/328/54 306/170/54
f 311/174/53 309/175/53 307/176/53
f 310/176/54 312/177/54 308/175/54
f 308/176/55 311/179/55 307/180/55
f 312/271/58 313/182/58 311/183/58
f 319/331/53 317/332/53 315/333/53
f 318/334/54 320/335/54 316/336/54
f 316/337/55 319/338/55 315/339/55
f 324/340/80 327/341/80 323/342/80
f 326/343/81 328/341/81 325/344/81
f 323/345/53 327/196/53 326/346/53
f 324/347/54 325/348/54 328/196/54
f 333/198/53 331/349/53 329/350/53
f 332/351/54 334/201/54 330/352/54
f 330/350/55 333/203/55 329/353/55
f 334/271/58 335/182/58 333/183/58
f 341/354/53 339/355/53 337/356/53
f 340/357/54 342/358/54 338/359/54
f 338/278/55 341/279/55 337/280/55
f 349/360/82 348/361/82 345/362/82
f 347/362/83 349/363/83 346/361/83
f 345/364/55 346/365/55 349/316/55
f 347/364/63 348/365/63 350/316/63
f 355/366/53 353/367/53 351/368/53
f 354/368/54 356/369/54 352/367/54
f 352/370/55 355/371/55 351/372/55
f 360/373/70 363/374/70 359/375/70
f 362/373/71 364/376/71 361/375/71
f 359/266/53 363/267/53 362/268/53
f 360/268/54 361/266/54 364/196/54
f 369/198/53 367/349/53 365/350/53
f 368/350/54 370/270/54 366/349/54
f 366/350/55 369/203/55 365/353/55
f 370/271/58 371/182/58 369/183/58
f 377/377/53 375/378/53 373/379/53
f 376/379/54 378/380/54 374/378/54
f 374/381/55 377/382/55 373/383/55
f 385/384/82 384/385/82 381/386/82
f 383/386/83 385/387/83 382/385/83
f 381/388/55 382/389/55 385/390/55
f 383/388/63 384/389/63 386/390/63
f 391/391/53 389/392/53 387/393/53
f 390/394/54 392/395/54 388/396/54
f 388/393/55 391/395/55 387/396/55
f 395/397/84 396/398/84 399/399/84
f 396/397/85 397/398/85 399/399/85
f 397/397/86 398/398/86 399/399/86
f 398/397/87 395/398/87 399/399/87
f 401/400/88 408/401/88 400/402/88
f 402/400/89 409/401/89 401/402/89
f 403/400/90 410/401/90 402/402/90
f 404/400/91 411/401/91 403/402/91
f 405/400/92 412/403/92 404/404/92
f 406/405/93 413/401/93 405/402/93
f 407/400/94 414/406/94 406/407/94
f 400/408/95 415/401/95 407/402/95
f 411/409/58 413/410/58 415/411/58
f 420/412/53 418/413/53 416/414/53
f 419/415/54 421/416/54 417/417/54
f 417/415/55 420/418/55 416/413/55
f 428/412/53 426/413/53 424/414/53
f 427/415/54 429/416/54 425/417/54
f 425/415/55 428/418/55 424/413/55
f 436/419/96 435/420/96 432/421/96
f 434/421/97 436/422/97 433/420/97
f 432/423/55 433/424/55 436/425/55
f 434/423/63 435/424/63 437/425/63
f 435/426/98 433/427/98 432/428/98
f 442/429/53 440/430/53 438/431/53
f 441/431/54 443/432/54 439/430/54
f 439/433/55 442/434/55 438/435/55
f 450/429/53 448/430/53 446/431/53
f 449/431/54 451/432/54 447/430/54
f 447/433/55 450/432/55 446/430/55
f 458/429/53 456/430/53 454/431/53
f 457/431/54 459/432/54 455/430/54
f 455/433/55 458/434/55 454/435/55
f 466/429/53 464/430/53 462/431/53
f 465/431/54 467/432/54 463/430/54
f 463/433/55 466/434/55 462/435/55
f 474/429/53 472/430/53 470/431/53
f 473/431/54 475/432/54 471/430/54
f 471/433/55 474/434/55 470/435/55
f 482/429/53 480/430/53 478/431/53
f 481/431/54 483/432/54 479/430/54
f 479/433/55 482/434/55 478/435/55
f 490/429/53 488/430/53 486/431/53
f 489/431/54 491/432/54 487/430/54
f 487/433/55 490/434/55 486/435/55
f 498/429/53 496/430/53 494/431/53
f 497/431/54 499/432/54 495/430/54
f 495/431/55 498/434/55 494/435/55
f 506/429/53 504/430/53 502/431/53
f 505/431/54 507/432/54 503/430/54
f 503/433/55 506/434/55 502/435/55
f 1/1/99 3/436/99 4/2/99
f 3/4/100 5/437/100 6/5/100
f 5/7/101 7/438/101 8/8/101
f 9/10/102 10/439/102 8/11/102
f 11/13/103 12/440/103 10/14/103
f 13/16/104 14/441/104 12/17/104
f 15/19/105 16/442/105 14/20/105
f 15/22/106 17/443/106 18/23/106
f 17/25/107 19/444/107 20/26/107
f 19/28/108 21/445/108 22/29/108
f 23/31/10 24/446/10 22/32/10
f 25/34/9 26/447/9 24/35/9
f 27/37/8 28/448/8 26/38/8
f 27/40/109 29/449/109 30/41/109
f 29/43/110 31/450/110 32/44/110
f 31/46/111 33/451/111 34/47/111
f 33/49/112 35/452/112 36/50/112
f 37/52/113 38/453/113 36/53/113
f 39/55/114 40/454/114 38/56/114
f 41/58/115 42/455/115 40/59/115
f 41/61/116 43/456/116 44/62/116
f 43/64/117 45/457/117 46/65/117
f 45/67/118 47/458/118 48/68/118
f 49/70/119 50/459/119 48/71/119
f 51/73/120 52/460/120 50/74/120
f 53/76/121 54/461/121 52/77/121
f 55/79/122 56/462/122 54/80/122
f 55/82/123 57/463/123 58/83/123
f 57/85/124 59/464/124 60/86/124
f 59/88/125 61/465/125 62/89/125
f 61/91/126 63/466/126 64/92/126
f 65/94/127 66/467/127 64/95/127
f 67/97/128 68/468/128 66/98/128
f 69/100/129 70/469/129 68/101/129
f 69/103/130 71/470/130 72/104/130
f 71/106/131 73/471/131 74/107/131
f 73/109/132 75/472/132 76/110/132
f 75/112/133 77/473/133 78/113/133
f 79/115/134 80/474/134 78/116/134
f 81/118/135 82/475/135 80/119/135
f 83/121/136 84/476/136 82/122/136
f 83/124/137 85/477/137 86/125/137
f 85/127/138 87/478/138 88/128/138
f 87/130/139 89/479/139 90/131/139
f 89/133/140 91/480/140 92/134/140
f 93/136/141 94/481/141 92/137/141
f 95/139/142 96/482/142 94/140/142
f 97/142/143 98/483/143 96/143/143
f 99/145/144 100/484/144 98/146/144
f 99/148/145 101/485/145 102/149/145
f 101/151/146 103/486/146 104/152/146
f 103/154/147 1/487/147 2/155/147
f 109/157/53 111/160/53 107/158/53
f 108/159/54 112/157/54 110/160/54
f 106/161/55 110/206/55 109/162/55
f 114/164/56 118/488/56 117/165/56
f 116/167/57 117/488/57 118/165/57
f 123/174/53 125/177/53 121/175/53
f 122/176/54 126/174/54 124/177/54
f 120/178/55 124/489/55 123/179/55
f 124/181/58 126/490/58 125/182/58
f 131/184/53 133/217/53 129/185/53
f 130/187/54 134/491/54 132/188/54
f 128/187/55 132/491/55 131/190/55
f 136/192/59 140/492/59 139/193/59
f 138/192/60 139/492/60 140/193/60
f 145/198/53 147/201/53 143/199/53
f 144/200/54 148/198/54 146/201/54
f 142/202/55 146/493/55 145/203/55
f 146/181/58 148/494/58 147/205/58
f 153/206/53 155/162/53 151/163/53
f 152/161/54 156/206/54 154/162/54
f 150/207/55 154/495/55 153/208/55
f 161/210/61 162/213/61 160/211/61
f 159/212/62 162/210/62 161/213/62
f 167/184/53 169/217/53 165/185/53
f 166/186/54 170/184/54 168/217/54
f 164/218/55 168/496/55 167/219/55
f 172/221/64 176/497/64 175/222/64
f 174/221/65 175/497/65 176/222/65
f 181/174/53 183/227/53 179/226/53
f 180/176/54 184/174/54 182/227/54
f 178/178/55 182/489/55 181/179/55
f 182/181/58 184/494/58 183/205/58
f 189/157/53 191/229/53 187/228/53
f 188/159/54 192/157/54 190/229/54
f 186/159/55 190/157/55 189/230/55
f 194/232/148 198/498/148 197/233/148
f 196/235/149 197/499/149 198/236/149
f 203/198/53 205/201/53 201/199/53
f 202/200/54 206/198/54 204/201/54
f 200/202/55 204/493/55 203/203/55
f 204/181/58 206/494/58 205/205/58
f 211/240/53 213/243/53 209/241/53
f 210/242/54 214/240/54 212/243/54
f 208/244/55 212/500/55 211/245/55
f 219/247/68 220/501/68 218/248/68
f 217/250/69 220/502/69 219/251/69
f 225/255/53 227/258/53 223/256/53
f 224/257/54 228/255/54 226/258/54
f 222/259/55 226/503/55 225/260/55
f 230/262/70 234/504/70 233/263/70
f 232/262/71 233/505/71 234/265/71
f 239/198/53 241/270/53 237/269/53
f 238/200/54 242/198/54 240/270/54
f 236/200/55 240/198/55 239/203/55
f 240/271/58 242/506/58 241/182/58
f 247/272/53 249/276/53 245/273/53
f 246/275/54 250/272/54 248/276/54
f 244/278/55 248/507/55 247/279/55
f 255/281/72 256/284/72 254/282/72
f 253/283/73 256/281/73 255/284/73
f 261/288/53 263/291/53 259/289/53
f 260/290/54 264/288/54 262/291/54
f 258/290/55 262/288/55 261/291/55
f 266/292/74 270/508/74 269/293/74
f 268/292/75 269/509/75 270/295/75
f 275/300/53 277/303/53 273/301/53
f 274/302/54 278/300/54 276/303/54
f 272/302/55 276/300/55 275/304/55
f 276/271/58 278/510/58 277/205/58
f 283/306/53 285/309/53 281/307/53
f 282/308/54 286/306/54 284/309/54
f 280/244/55 284/500/55 283/245/55
f 291/310/76 292/313/76 290/311/76
f 289/312/77 292/310/77 291/313/77
f 297/317/53 299/511/53 295/318/53
f 296/320/54 300/512/54 298/321/54
f 294/159/55 298/157/55 297/230/55
f 302/323/78 306/513/78 305/324/78
f 304/326/79 305/513/79 306/324/79
f 311/174/53 313/177/53 309/175/53
f 310/176/54 314/174/54 312/177/54
f 308/176/55 312/174/55 311/179/55
f 312/271/58 314/506/58 313/182/58
f 319/331/53 321/514/53 317/332/53
f 318/334/54 322/515/54 320/335/54
f 316/337/55 320/516/55 319/338/55
f 324/340/80 328/517/80 327/341/80
f 326/343/150 327/517/150 328/341/150
f 333/198/53 335/270/53 331/349/53
f 332/351/54 336/518/54 334/201/54
f 330/350/55 334/198/55 333/203/55
f 334/271/58 336/506/58 335/182/58
f 341/354/53 343/358/53 339/355/53
f 340/357/54 344/354/54 342/358/54
f 338/278/55 342/507/55 341/279/55
f 349/360/82 350/363/82 348/361/82
f 347/362/83 350/360/83 349/363/83
f 355/366/53 357/369/53 353/367/53
f 354/368/54 358/366/54 356/369/54
f 352/370/55 356/519/55 355/371/55
f 360/373/70 364/520/70 363/374/70
f 362/373/71 363/521/71 364/376/71
f 369/198/53 371/270/53 367/349/53
f 368/350/54 372/198/54 370/270/54
f 366/350/55 370/198/55 369/203/55
f 370/271/58 372/506/58 371/182/58
f 377/377/53 379/380/53 375/378/53
f 376/379/54 380/377/54 378/380/54
f 374/381/55 378/522/55 377/382/55
f 385/384/82 386/387/82 384/385/82
f 383/386/83 386/384/83 385/387/83
f 391/391/53 393/523/53 389/392/53
f 390/394/54 394/524/54 392/395/54
f 388/393/55 392/391/55 391/395/55
f 401/400/88 409/525/88 408/401/88
f 402/400/89 410/525/89 409/401/89
f 403/400/90 411/525/90 410/401/90
f 404/400/91 412/525/91 411/401/91
f 405/400/92 413/525/92 412/403/92
f 406/405/93 414/526/93 413/401/93
f 407/400/94 415/525/94 414/406/94
f 400/408/95 408/527/95 415/401/95
f 415/411/58 408/528/58 409/529/58
f 409/529/58 410/530/58 411/409/58
f 411/409/58 412/531/58 413/410/58
f 413/410/58 414/532/58 415/411/58
f 415/411/58 409/529/58 411/409/58
f 420/412/53 422/418/53 418/413/53
f 419/415/54 423/533/54 421/416/54
f 417/415/55 421/533/55 420/418/55
f 428/412/53 430/418/53 426/413/53
f 427/415/54 431/533/54 429/416/54
f 425/415/55 429/533/55 428/418/55
f 436/419/96 437/422/96 435/420/96
f 434/421/151 437/419/151 436/422/151
f 435/426/98 434/534/98 433/427/98
f 442/429/53 444/432/53 440/430/53
f 441/431/54 445/429/54 443/432/54
f 439/433/55 443/535/55 442/434/55
f 450/429/53 452/432/53 448/430/53
f 449/431/54 453/429/54 451/432/54
f 447/433/55 451/535/55 450/432/55
f 458/429/53 460/432/53 456/430/53
f 457/431/54 461/429/54 459/432/54
f 455/433/55 459/535/55 458/434/55
f 466/429/53 468/432/53 464/430/53
f 465/431/54 469/429/54 467/432/54
f 463/433/55 467/535/55 466/434/55
f 474/429/53 476/432/53 472/430/53
f 473/431/54 477/429/54 475/432/54
f 471/433/55 475/535/55 474/434/55
f 482/429/53 484/432/53 480/430/53
f 481/431/54 485/429/54 483/432/54
f 479/433/55 483/535/55 482/434/55
f 490/429/53 492/432/53 488/430/53
f 489/431/54 493/429/54 491/432/54
f 487/433/55 491/535/55 490/434/55
f 498/429/53 500/432/53 496/430/53
f 497/431/54 501/429/54 499/432/54
f 495/431/55 499/429/55 498/434/55
f 506/429/53 508/432/53 504/430/53
f 505/431/54 509/429/54 507/432/54
f 503/433/55 507/535/55 506/434/55
