# Blender 5.2.1 LTS
# www.blender.org
mtllib village_lights_3.mtl
o village_lights_3
v -7.450000 29.400000 -264.100006
v -6.550000 29.400000 -264.100006
v -6.550000 30.500000 -264.100006
v -7.450000 30.500000 -264.100006
v -0.450000 29.299999 -264.700012
v 0.450000 29.299999 -264.700012
v 0.450000 30.400000 -264.700012
v -0.450000 30.400000 -264.700012
v -0.050000 28.500000 -257.200012
v 0.850000 28.500000 -257.200012
v 0.850000 29.600000 -257.200012
v -0.050000 29.600000 -257.200012
v 1.950000 28.500000 -257.200012
v 2.850000 28.500000 -257.200012
v 2.850000 29.600000 -257.200012
v 1.950000 29.600000 -257.200012
v 7.550000 29.600000 -257.600006
v 8.450000 29.600000 -257.600006
v 8.450000 30.700001 -257.600006
v 7.550000 30.700001 -257.600006
v 7.500000 35.599998 -255.399994
v 8.500000 35.599998 -255.399994
v 8.500000 37.099998 -255.399994
v 7.500000 37.099998 -255.399994
v -1.850000 29.200001 -255.580002
v -1.350000 29.200001 -255.580002
v -1.350000 29.799999 -255.580002
v -1.850000 29.799999 -255.580002
v 3.350000 29.200001 -255.580002
v 3.850000 29.200001 -255.580002
v 3.850000 29.799999 -255.580002
v 3.350000 29.799999 -255.580002
vn -0.0000 -0.0000 1.0000
vt 0.250900 0.498900
vt 0.249100 0.501100
vt 0.249100 0.498900
vt 0.251000 0.498500
vt 0.249000 0.501500
vt 0.249000 0.498500
vt 0.250500 0.499400
vt 0.249500 0.500600
vt 0.249500 0.499400
vt 0.250900 0.501100
vt 0.251000 0.501500
vt 0.250500 0.500600
s 0
usemtl lantern
f 2/1/1 4/2/1 1/3/1
f 6/1/1 8/2/1 5/3/1
f 10/1/1 12/2/1 9/3/1
f 14/1/1 16/2/1 13/3/1
f 18/1/1 20/2/1 17/3/1
f 22/4/1 24/5/1 21/6/1
f 26/7/1 28/8/1 25/9/1
f 30/7/1 32/8/1 29/9/1
f 2/1/1 3/10/1 4/2/1
f 6/1/1 7/10/1 8/2/1
f 10/1/1 11/10/1 12/2/1
f 14/1/1 15/10/1 16/2/1
f 18/1/1 19/10/1 20/2/1
f 22/4/1 23/11/1 24/5/1
f 26/7/1 27/12/1 28/8/1
f 30/7/1 31/12/1 32/8/1
