# Blender 5.2.1 LTS
# www.blender.org
mtllib village_lights_2.mtl
o village_lights_2
v -15.950000 29.200001 -263.899994
v -15.050000 29.200001 -263.899994
v -15.050000 30.299999 -263.899994
v -15.950000 30.299999 -263.899994
v -9.950000 28.500000 -256.700012
v -9.050000 28.500000 -256.700012
v -9.050000 29.600000 -256.700012
v -9.950000 29.600000 -256.700012
v -7.350000 28.500000 -256.700012
v -6.450000 28.500000 -256.700012
v -6.450000 29.600000 -256.700012
v -7.350000 29.600000 -256.700012
v -8.650000 29.799999 -256.700012
v -7.750000 29.799999 -256.700012
v -7.750000 30.900000 -256.700012
v -8.650000 30.900000 -256.700012
v -3.850000 28.500000 -258.899994
v -2.950000 28.500000 -258.899994
v -2.950000 29.600000 -258.899994
v -3.850000 29.600000 -258.899994
v -11.250000 29.200001 -255.580002
v -10.750000 29.200001 -255.580002
v -10.750000 29.799999 -255.580002
v -11.250000 29.799999 -255.580002
v -7.650000 29.200001 -255.580002
v -7.150000 29.200001 -255.580002
v -7.150000 29.799999 -255.580002
v -7.650000 29.799999 -255.580002
vn -0.0000 -0.0000 1.0000
vt 0.250900 0.498900
vt 0.249100 0.501100
vt 0.249100 0.498900
vt 0.250500 0.499400
vt 0.249500 0.500600
vt 0.249500 0.499400
vt 0.250900 0.501100
vt 0.250500 0.500600
s 0
usemtl lantern
f 2/1/1 4/2/1 1/3/1
f 6/1/1 8/2/1 5/3/1
f 10/1/1 12/2/1 9/3/1
f 14/1/1 16/2/1 13/3/1
f 18/1/1 20/2/1 17/3/1
f 22/4/1 24/5/1 21/6/1
f 26/4/1 28/5/1 25/6/1
f 2/1/1 3/7/1 4/2/1
f 6/1/1 7/7/1 8/2/1
f 10/1/1 11/7/1 12/2/1
f 14/1/1 15/7/1 16/2/1
f 18/1/1 19/7/1 20/2/1
f 22/4/1 23/8/1 24/5/1
f 26/4/1 27/8/1 28/5/1
