# Blender 5.2.1 LTS
# www.blender.org
mtllib village_lights_1.mtl
o village_lights_1
v -19.450001 28.500000 -257.000000
v -18.549999 28.500000 -257.000000
v -18.549999 29.600000 -257.000000
v -19.450001 29.600000 -257.000000
v -17.450001 28.500000 -257.000000
v -16.549999 28.500000 -257.000000
v -16.549999 29.600000 -257.000000
v -17.450001 29.600000 -257.000000
v -13.250000 28.400000 -258.500000
v -12.350000 28.400000 -258.500000
v -12.350000 29.500000 -258.500000
v -13.250000 29.500000 -258.500000
v -21.250000 29.200001 -255.580002
v -20.750000 29.200001 -255.580002
v -20.750000 29.799999 -255.580002
v -21.250000 29.799999 -255.580002
v -16.450001 29.200001 -255.580002
v -15.950000 29.200001 -255.580002
v -15.950000 29.799999 -255.580002
v -16.450001 29.799999 -255.580002
vn -0.0000 -0.0000 1.0000
vt 0.250900 0.498900
vt 0.249100 0.501100
vt 0.249100 0.498900
vt 0.250500 0.499400
vt 0.249500 0.500600
vt 0.249500 0.499400
vt 0.250900 0.501100
vt 0.250500 0.500600
s 0
usemtl lantern
f 2/1/1 4/2/1 1/3/1
f 6/1/1 8/2/1 5/3/1
f 10/1/1 12/2/1 9/3/1
f 14/4/1 16/5/1 13/6/1
f 18/4/1 20/5/1 17/6/1
f 2/1/1 3/7/1 4/2/1
f 6/1/1 7/7/1 8/2/1
f 10/1/1 11/7/1 12/2/1
f 14/4/1 15/8/1 16/5/1
f 18/4/1 19/8/1 20/5/1
