# Blender 5.2.1 LTS
# www.blender.org
mtllib village_lights_4.mtl
o village_lights_4
v 4.150000 29.400000 -263.899994
v 5.050000 29.400000 -263.899994
v 5.050000 30.500000 -263.899994
v 4.150000 30.500000 -263.899994
v 12.550000 29.299999 -264.200012
v 13.450000 29.299999 -264.200012
v 13.450000 30.400000 -264.200012
v 12.550000 30.400000 -264.200012
v 18.049999 29.200001 -264.500000
v 18.950001 29.200001 -264.500000
v 18.950001 30.299999 -264.500000
v 18.049999 30.299999 -264.500000
v 12.750000 28.500000 -257.600006
v 13.650000 28.500000 -257.600006
v 13.650000 29.600000 -257.600006
v 12.750000 29.600000 -257.600006
v 14.750000 28.500000 -257.600006
v 15.650000 28.500000 -257.600006
v 15.650000 29.600000 -257.600006
v 14.750000 29.600000 -257.600006
v 18.350000 28.400000 -259.600006
v 19.250000 28.400000 -259.600006
v 19.250000 29.500000 -259.600006
v 18.350000 29.500000 -259.600006
v 21.450001 28.500000 -257.000000
v 22.350000 28.500000 -257.000000
v 22.350000 29.600000 -257.000000
v 21.450001 29.600000 -257.000000
v 23.650000 28.500000 -257.000000
v 24.549999 28.500000 -257.000000
v 24.549999 29.600000 -257.000000
v 23.650000 29.600000 -257.000000
v 11.350000 29.200001 -255.580002
v 11.850000 29.200001 -255.580002
v 11.850000 29.799999 -255.580002
v 11.350000 29.799999 -255.580002
v 16.150000 29.200001 -255.580002
v 16.650000 29.200001 -255.580002
v 16.650000 29.799999 -255.580002
v 16.150000 29.799999 -255.580002
v 20.750000 29.200001 -255.580002
v 21.250000 29.200001 -255.580002
v 21.250000 29.799999 -255.580002
v 20.750000 29.799999 -255.580002
vn -0.0000 -0.0000 1.0000
vt 0.250900 0.498900
vt 0.249100 0.501100
vt 0.249100 0.498900
vt 0.250500 0.499400
vt 0.249500 0.500600
vt 0.249500 0.499400
vt 0.250900 0.501100
vt 0.250500 0.500600
s 0
usemtl lantern
f 2/1/1 4/2/1 1/3/1
f 6/1/1 8/2/1 5/3/1
f 10/1/1 12/2/1 9/3/1
f 14/1/1 16/2/1 13/3/1
f 18/1/1 20/2/1 17/3/1
f 22/1/1 24/2/1 21/3/1
f 26/1/1 28/2/1 25/3/1
f 30/1/1 32/2/1 29/3/1
f 34/4/1 36/5/1 33/6/1
f 38/4/1 40/5/1 37/6/1
f 42/4/1 44/5/1 41/6/1
f 2/1/1 3/7/1 4/2/1
f 6/1/1 7/7/1 8/2/1
f 10/1/1 11/7/1 12/2/1
f 14/1/1 15/7/1 16/2/1
f 18/1/1 19/7/1 20/2/1
f 22/1/1 23/7/1 24/2/1
f 26/1/1 27/7/1 28/2/1
f 30/1/1 31/7/1 32/2/1
f 34/4/1 35/8/1 36/5/1
f 38/4/1 39/8/1 40/5/1
f 42/4/1 43/8/1 44/5/1
