# Blender 5.2.1 LTS
# www.blender.org
mtllib wall_pillar.mtl
o wall_pillar
v -0.200000 0.000000 0.200000
v 0.200000 0.000000 0.200000
v -0.200000 0.000000 -0.200000
v 0.200000 0.000000 -0.200000
v -0.200000 0.350000 0.200000
v 0.200000 0.350000 0.200000
v -0.200000 0.350000 -0.200000
v 0.200000 0.350000 -0.200000
v -0.150000 0.350000 0.150000
v 0.150000 0.350000 0.150000
v -0.150000 0.350000 -0.150000
v 0.150000 0.350000 -0.150000
v -0.150000 2.900000 0.150000
v 0.150000 2.900000 0.150000
v -0.150000 2.900000 -0.150000
v 0.150000 2.900000 -0.150000
v -0.200000 2.900000 0.200000
v 0.200000 2.900000 0.200000
v -0.200000 2.900000 -0.200000
v 0.200000 2.900000 -0.200000
v -0.200000 3.150000 0.200000
v 0.200000 3.150000 0.200000
v -0.200000 3.150000 -0.200000
v 0.200000 3.150000 -0.200000
vn -1.0000 -0.0000 -0.0000
vn 1.0000 -0.0000 -0.0000
vn -0.0000 -0.0000 1.0000
vn -0.0000 -0.0000 -1.0000
vn -0.0000 1.0000 -0.0000
vn -0.0000 -1.0000 -0.0000
vt 0.100000 0.175000
vt -0.100000 0.000000
vt 0.100000 0.000000
vt -0.100000 0.175000
vt 0.100000 -0.100000
vt -0.100000 0.100000
vt -0.100000 -0.100000
vt 0.075000 1.450000
vt -0.075000 0.175000
vt 0.075000 0.175000
vt -0.075000 1.450000
vt 0.100000 1.575000
vt -0.100000 1.450000
vt 0.100000 1.450000
vt -0.100000 1.575000
vt 0.100000 0.100000
s 0
usemtl wall_stone
f 5/1/1 3/2/1 1/3/1
f 4/3/2 6/4/2 2/2/2
f 2/3/3 5/4/3 1/2/3
f 7/1/4 4/2/4 3/3/4
f 6/5/5 7/6/5 5/7/5
f 13/8/1 11/9/1 9/10/1
f 12/10/2 14/11/2 10/9/2
f 10/10/3 13/11/3 9/9/3
f 15/8/4 12/9/4 11/10/4
f 21/12/1 19/13/1 17/14/1
f 20/14/2 22/15/2 18/13/2
f 18/14/3 21/15/3 17/13/3
f 23/12/4 20/13/4 19/14/4
f 19/7/6 18/16/6 17/6/6
f 22/5/5 23/6/5 21/7/5
f 5/1/1 7/4/1 3/2/1
f 4/3/2 8/1/2 6/4/2
f 2/3/3 6/1/3 5/4/3
f 7/1/4 8/4/4 4/2/4
f 6/5/5 8/16/5 7/6/5
f 13/8/1 15/11/1 11/9/1
f 12/10/2 16/8/2 14/11/2
f 10/10/3 14/8/3 13/11/3
f 15/8/4 16/11/4 12/9/4
f 21/12/1 23/15/1 19/13/1
f 20/14/2 24/12/2 22/15/2
f 18/14/3 22/12/3 21/15/3
f 23/12/4 24/15/4 20/13/4
f 19/7/6 20/5/6 18/16/6
f 22/5/5 24/16/5 23/6/5
