# Blender 5.2.1 LTS
# www.blender.org
mtllib wall_straight_crown.mtl
o wall_straight_crown
v -1.000000 0.000000 0.140000
v 1.000000 0.000000 0.140000
v -1.000000 0.000000 -0.140000
v 1.000000 0.000000 -0.140000
v -1.000000 0.250000 0.140000
v 1.000000 0.250000 0.140000
v -1.000000 0.250000 -0.140000
v 1.000000 0.250000 -0.140000
v -1.000000 0.250000 0.100000
v 1.000000 0.250000 0.100000
v -1.000000 0.250000 -0.100000
v 1.000000 0.250000 -0.100000
v -1.000000 2.850000 0.100000
v 1.000000 2.850000 0.100000
v -1.000000 2.850000 -0.100000
v 1.000000 2.850000 -0.100000
v -1.000000 2.850000 0.140000
v 1.000000 2.850000 0.140000
v -1.000000 2.850000 -0.140000
v 1.000000 2.850000 -0.140000
v -1.000000 3.000000 0.140000
v 1.000000 3.000000 0.140000
v -1.000000 3.000000 -0.140000
v 1.000000 3.000000 -0.140000
v -0.699644 2.986743 0.102416
v -0.750166 3.002285 0.090318
v -0.740356 2.993257 0.037757
v -0.689834 2.977715 0.049855
v -0.633050 3.243757 0.045644
v -0.638320 3.245378 0.044382
v -0.637297 3.244437 0.038899
v -0.632027 3.242815 0.040161
v -0.697573 3.121299 0.053113
v -0.674891 3.110921 0.036764
v -0.655907 3.117870 0.058691
v -0.678589 3.128248 0.075039
v -0.668163 3.201645 0.019582
v -0.664936 3.200169 0.017256
v -0.662235 3.201158 0.020376
v -0.665462 3.202634 0.022701
v -0.558744 2.988983 0.032255
v -0.603665 2.984902 0.078436
v -0.650001 2.991017 0.033906
v -0.605079 2.995098 -0.012276
v -0.591163 3.368696 0.075439
v -0.595099 3.368339 0.079486
v -0.599159 3.368875 0.075584
v -0.595223 3.369232 0.071537
v -0.619640 3.166667 0.044415
v -0.598304 3.192948 0.033706
v -0.579936 3.190375 0.063981
v -0.601272 3.164093 0.074691
v -0.715660 3.301620 0.132474
v -0.713111 3.304760 0.131194
v -0.710916 3.304453 0.134812
v -0.713465 3.301312 0.136092
v -0.674488 3.260676 0.111274
v -0.674774 3.259673 0.091936
v -0.661287 3.245784 0.092456
v -0.661001 3.246787 0.111795
v -0.619932 3.301704 0.100058
v -0.619974 3.301557 0.097234
v -0.618005 3.299529 0.097310
v -0.617963 3.299675 0.100134
v -0.593610 3.217826 0.035822
v -0.578977 3.211589 0.067565
v -0.603712 3.231885 0.082955
v -0.618345 3.238122 0.051213
v -0.466899 3.403033 0.031289
v -0.465150 3.402287 0.035082
v -0.468106 3.404713 0.036921
v -0.469854 3.405458 0.033128
v -0.518335 3.334107 0.030747
v -0.507168 3.336641 0.046366
v -0.521597 3.330425 0.057690
v -0.532763 3.327891 0.042071
v -0.542594 3.396489 0.048221
v -0.540963 3.396859 0.050502
v -0.543071 3.395952 0.052156
v -0.544702 3.395581 0.049875
v -0.546070 2.987562 0.033986
v -0.515962 2.990076 -0.022249
v -0.459766 2.992438 0.007944
v -0.489875 2.989924 0.064179
v -0.533356 3.508590 0.031061
v -0.530688 3.508812 0.026077
v -0.525709 3.509022 0.028753
v -0.528377 3.508799 0.033736
v -0.495993 3.265231 0.038760
v -0.527420 3.249741 0.041024
v -0.538196 3.267465 0.012696
v -0.506769 3.282955 0.010432
v -0.618497 3.504713 0.216063
v -0.622295 3.502841 0.216337
v -0.623597 3.504983 0.212914
v -0.619799 3.506854 0.212640
v -0.575978 3.410947 0.125985
v -0.567064 3.404780 0.141773
v -0.582954 3.407948 0.151983
v -0.591868 3.414116 0.136195
v -0.550179 3.496718 0.154826
v -0.548863 3.495807 0.157157
v -0.551210 3.496275 0.158665
v -0.552526 3.497186 0.156333
v -0.529250 3.317829 0.004411
v -0.501649 3.299047 0.015281
v -0.509645 3.306594 0.048625
v -0.537246 3.325375 0.037756
v -0.362841 3.537282 0.010900
v -0.359506 3.535012 0.012213
v -0.360472 3.535924 0.016243
v -0.363807 3.538194 0.014929
v -0.433312 3.445541 0.008321
v -0.414309 3.444520 0.010474
v -0.416234 3.448152 0.029179
v -0.435236 3.449172 0.027026
v -0.419183 3.538209 0.000139
v -0.416377 3.538058 0.000457
v -0.416661 3.538594 0.003219
v -0.419468 3.538745 0.002901
v -0.321669 2.996208 -0.033383
v -0.272616 2.976523 -0.047997
v -0.254438 2.983792 0.003228
v -0.303491 3.003477 0.017842
v -0.115111 3.533926 -0.156660
v -0.110051 3.531895 -0.158167
v -0.108176 3.532645 -0.152883
v -0.113236 3.534675 -0.151376
v -0.188832 3.297044 -0.115702
v -0.165882 3.309928 -0.100971
v -0.182986 3.312100 -0.076224
v -0.205936 3.299216 -0.090955
v -0.283007 3.579876 -0.189821
v -0.279779 3.581688 -0.187748
v -0.282185 3.581994 -0.184267
v -0.285413 3.580182 -0.186339
v -0.056640 2.984178 -0.025503
v -0.088191 2.990515 0.012102
v -0.125445 2.995822 -0.020049
v -0.093895 2.989485 -0.057654
v -0.020233 3.389832 -0.034475
v -0.023839 3.390557 -0.030177
v -0.028097 3.391163 -0.033852
v -0.024491 3.390439 -0.038150
v -0.070908 3.185789 -0.018477
v -0.071735 3.174993 -0.043453
v -0.050183 3.159480 -0.037461
v -0.049356 3.170276 -0.012485
v 0.012380 3.262608 -0.066965
v 0.012251 3.260926 -0.070858
v 0.015610 3.258508 -0.069924
v 0.015739 3.260191 -0.066031
v 0.063544 3.002173 0.065054
v 0.063327 2.997261 0.004614
v 0.120752 2.977827 0.005987
v 0.120968 2.982739 0.066427
v 0.293103 3.589337 -0.011067
v 0.293082 3.588879 -0.016705
v 0.298439 3.587066 -0.016577
v 0.298460 3.587524 -0.010939
v 0.201023 3.270094 0.030441
v 0.177552 3.293328 0.025785
v 0.180692 3.289881 -0.007239
v 0.204163 3.266648 -0.002583
v 0.342248 3.430053 0.012477
v 0.339263 3.433008 0.011885
v 0.339662 3.432570 0.007684
v 0.342648 3.429614 0.008276
v 0.270489 3.378036 0.008657
v 0.279991 3.366107 -0.001259
v 0.291343 3.363527 0.012720
v 0.281841 3.375457 0.022637
v 0.341881 3.451753 -0.025713
v 0.343358 3.449898 -0.027255
v 0.345123 3.449497 -0.025081
v 0.343646 3.451352 -0.023540
v 0.218507 3.359892 0.028641
v 0.199463 3.373084 0.004648
v 0.216088 3.355433 -0.018252
v 0.235132 3.342242 0.005740
v 0.464988 3.642814 -0.031685
v 0.462565 3.644492 -0.034737
v 0.464680 3.642247 -0.037650
v 0.467103 3.640569 -0.034598
v 0.355794 3.527726 -0.026738
v 0.373487 3.523624 -0.027783
v 0.375844 3.529440 -0.010708
v 0.358152 3.533542 -0.009663
v 0.385072 3.627544 -0.056595
v 0.387823 3.626906 -0.056757
v 0.388190 3.627811 -0.054102
v 0.385439 3.628448 -0.053940
v 0.219561 2.984315 0.034591
v 0.175302 2.988345 0.016197
v 0.194114 2.995685 -0.027457
v 0.238372 2.991655 -0.009062
v 0.216308 3.433545 0.085347
v 0.211103 3.434019 0.083184
v 0.213315 3.434882 0.078050
v 0.218521 3.434408 0.080213
v 0.202907 3.209223 0.025092
v 0.218755 3.225446 0.038710
v 0.218625 3.208514 0.059034
v 0.202777 3.192291 0.045417
v 0.089457 3.278316 0.096384
v 0.091999 3.280918 0.098568
v 0.091978 3.278202 0.101828
v 0.089436 3.275600 0.099644
v 0.332306 2.992919 0.037888
v 0.281772 2.993489 0.042626
v 0.277000 2.987081 -0.007500
v 0.327534 2.986511 -0.012238
v 0.307516 3.301384 -0.022025
v 0.301884 3.301448 -0.021497
v 0.301352 3.300734 -0.027083
v 0.306984 3.300670 -0.027611
v 0.297771 3.189354 0.008337
v 0.288273 3.193244 -0.017625
v 0.311260 3.181140 -0.027848
v 0.320758 3.177250 -0.001886
v 0.366259 3.308900 -0.011536
v 0.364816 3.309491 -0.015481
v 0.368309 3.307652 -0.017035
v 0.369753 3.307061 -0.013089
v 0.347354 3.255667 -0.021282
v 0.351592 3.260186 -0.007372
v 0.336999 3.262461 -0.003665
v 0.332761 3.257943 -0.017575
v 0.346737 3.311243 -0.032361
v 0.347524 3.312083 -0.029777
v 0.344814 3.312505 -0.029089
v 0.344027 3.311666 -0.031672
v 0.318235 3.147608 0.008880
v 0.293652 3.160698 0.006955
v 0.290846 3.151570 -0.019278
v 0.315429 3.138480 -0.017353
v 0.371515 3.264253 -0.050003
v 0.367779 3.266242 -0.050295
v 0.367352 3.264855 -0.054282
v 0.371088 3.262866 -0.053989
v 0.413258 2.990964 0.047043
v 0.385188 3.000477 -0.010219
v 0.441394 2.989036 -0.039672
v 0.469464 2.979523 0.017590
v 0.513143 3.366578 0.027361
v 0.510680 3.367413 0.022337
v 0.515611 3.366409 0.019753
v 0.518074 3.365574 0.024777
v 0.471674 3.197246 -0.009950
v 0.498805 3.190397 0.011836
v 0.476060 3.185331 0.038569
v 0.448929 3.192180 0.016783
v 0.484499 3.374841 0.055326
v 0.487745 3.374022 0.057932
v 0.485024 3.373416 0.061130
v 0.481778 3.374235 0.058524
v 0.614819 2.979442 -0.052537
v 0.602051 2.984843 0.003061
v 0.548698 3.000558 -0.010718
v 0.561466 2.995157 -0.066316
v 0.706591 3.391840 -0.044916
v 0.705330 3.392373 -0.039427
v 0.700063 3.393925 -0.040788
v 0.701323 3.393391 -0.046276
v 0.660063 3.198763 -0.052530
v 0.666679 3.213392 -0.025411
v 0.636620 3.222555 -0.023020
v 0.630004 3.207925 -0.050139
v 0.684852 3.345029 -0.121633
v 0.685743 3.346998 -0.117982
v 0.681696 3.348232 -0.117661
v 0.680806 3.346262 -0.121311
v 0.644406 3.259337 -0.029385
v 0.656019 3.255188 -0.058388
v 0.673024 3.230738 -0.048081
v 0.661412 3.234887 -0.019078
v 0.755479 3.327411 -0.009466
v 0.757042 3.326852 -0.013370
v 0.759332 3.323561 -0.011982
v 0.757768 3.324119 -0.008078
vn -1.0000 -0.0000 -0.0000
vn 1.0000 -0.0000 -0.0000
vn -0.0000 -0.0000 1.0000
vn -0.0000 -0.0000 -1.0000
vn -0.0000 1.0000 -0.0000
vn -0.0000 -1.0000 -0.0000
vn -0.1519 0.2506 0.9561
vn -0.8997 0.3702 -0.2315
vn 0.2084 -0.0811 -0.9747
vn 0.9562 -0.2007 0.2129
vn -0.3149 -0.9435 0.1033
vn 0.3150 0.9435 -0.1033
vn -0.6122 -0.1031 -0.7840
vn 0.7710 -0.2169 -0.5988
vn 0.6482 0.3583 0.6719
vn -0.7350 0.4721 0.4867
vn -0.1281 -0.9081 0.3987
vn 0.1280 0.9081 -0.3987
vn 0.7175 -0.0179 0.6963
vn -0.6919 0.0135 0.7218
vn -0.7138 0.1710 -0.6792
vn 0.6957 0.1395 -0.7047
vn -0.0242 -0.9935 -0.1113
vn 0.0242 0.9935 0.1113
vn -0.5665 0.1281 -0.8140
vn 0.5478 0.7936 -0.2650
vn 0.4645 -0.0163 0.8854
vn -0.6497 -0.6817 0.3363
vn 0.6093 -0.6685 -0.4265
vn -0.6093 0.6684 0.4265
vn -0.6050 0.7956 -0.0323
vn 0.0717 0.0323 -0.9969
vn 0.7777 -0.6282 0.0211
vn 0.1010 0.1351 0.9857
vn -0.7175 -0.6950 0.0467
vn 0.7174 0.6951 -0.0466
vn 0.7360 -0.5143 -0.4403
vn 0.4521 -0.1193 0.8839
vn -0.6539 0.6262 0.4245
vn -0.3701 0.2312 -0.8997
vn -0.5872 -0.8015 0.1132
vn 0.5872 0.8015 -0.1132
vn 0.6992 0.4316 -0.5700
vn 0.5320 0.2428 0.8112
vn -0.7800 -0.2057 0.5910
vn -0.6128 -0.0170 -0.7901
vn 0.3354 -0.9380 -0.0876
vn -0.3354 0.9380 0.0875
vn -0.8818 0.0189 -0.4713
vn 0.4680 0.0951 -0.8786
vn 0.8761 0.0928 0.4732
vn -0.4738 0.0165 0.8805
vn 0.0512 -0.9985 -0.0172
vn -0.0512 0.9985 0.0172
vn 0.2911 -0.4686 0.8341
vn -0.9096 -0.4051 0.0926
vn -0.3220 0.5398 -0.7778
vn 0.8786 0.4762 -0.0363
vn 0.3234 -0.7420 -0.5872
vn -0.3235 0.7419 0.5872
vn 0.8534 -0.0837 -0.5145
vn 0.4905 -0.2397 0.8378
vn -0.7997 0.2460 0.5476
vn -0.4369 0.4020 -0.8047
vn -0.3081 -0.9322 -0.1902
vn 0.3080 0.9322 0.1902
vn 0.2596 -0.1688 -0.9509
vn 0.8171 -0.4882 0.3064
vn -0.1951 0.2605 0.9456
vn -0.7527 0.5799 -0.3117
vn -0.5746 -0.8171 0.0471
vn 0.5747 0.8170 -0.0472
vn 0.1065 -0.1036 -0.9889
vn 0.9948 0.0323 0.0961
vn -0.0937 0.2743 0.9571
vn -0.9821 0.1384 -0.1279
vn -0.0734 -0.9804 0.1828
vn 0.0735 0.9804 -0.1827
vn -0.3187 -0.0938 -0.9432
vn 0.9063 -0.3201 -0.2762
vn 0.3437 0.1710 0.9234
vn -0.8812 0.3973 0.2563
vn -0.3000 -0.9239 0.2376
vn 0.3000 0.9239 -0.2376
vn 0.5533 -0.0339 -0.8323
vn 0.7469 0.4649 0.4754
vn -0.5799 0.1100 0.8072
vn -0.7735 -0.3887 -0.5005
vn 0.3153 -0.9013 0.2970
vn -0.3154 0.9013 -0.2970
vn 0.7605 -0.0539 0.6471
vn -0.6276 0.1810 0.7572
vn -0.7427 0.1602 -0.6501
vn 0.6454 -0.0747 -0.7602
vn -0.1646 -0.9860 0.0280
vn 0.1646 0.9860 -0.0280
vn -0.7311 0.6347 -0.2501
vn 0.0269 -0.3275 -0.9445
vn 0.8453 -0.5000 0.1882
vn 0.0874 0.4623 0.8824
vn -0.6101 -0.7197 0.3313
vn 0.6101 0.7197 -0.3314
vn -0.9322 0.3611 -0.0260
vn 0.0103 -0.0400 -0.9991
vn 0.9600 -0.2793 0.0193
vn 0.0175 0.1218 0.9924
vn -0.3213 -0.9438 0.0778
vn 0.3212 0.9438 -0.0779
vn -0.0460 0.1515 0.9874
vn -0.6541 0.7434 -0.1398
vn 0.1419 -0.0547 -0.9884
vn 0.7501 -0.6466 0.1388
vn -0.7042 -0.7100 0.0071
vn 0.7042 0.7100 -0.0071
vn -0.5810 0.1942 -0.7904
vn 0.5623 -0.6014 -0.5676
vn 0.6638 -0.0887 0.7427
vn -0.4796 0.7069 0.5199
vn -0.5812 -0.7415 0.3351
vn 0.5813 0.7414 -0.3351
vn -0.4731 0.5576 0.6821
vn -0.5456 0.4240 -0.7229
vn 0.5231 -0.5001 -0.6901
vn 0.5956 -0.3665 0.7148
vn -0.6523 -0.7507 0.1050
vn 0.6523 0.7507 -0.1050
vn -0.1155 -0.2534 -0.9604
vn 0.9838 -0.1594 -0.0815
vn 0.1430 0.3844 0.9120
vn -0.9563 0.2904 0.0331
vn -0.1933 -0.9203 0.3401
vn 0.1932 0.9203 -0.3402
vn -0.3899 -0.1062 0.9147
vn -0.9183 0.1300 -0.3739
vn 0.3915 0.1987 -0.8985
vn 0.9200 -0.0374 0.3902
vn -0.0177 -0.9847 -0.1732
vn 0.0177 0.9847 0.1732
vn -0.0542 0.6725 -0.7381
vn 0.5383 0.6458 0.5415
vn -0.0640 -0.6041 0.7943
vn -0.6566 -0.5774 -0.4853
vn 0.8007 -0.4628 -0.3805
vn -0.8007 0.4628 0.3804
vn 0.0937 0.1971 0.9759
vn -0.9931 0.0823 0.0840
vn -0.0938 -0.0548 -0.9941
vn 0.9930 0.0600 -0.1022
vn 0.0007 -0.9919 0.1268
vn -0.0006 0.9919 -0.1267
vn -0.7816 0.5080 0.3620
vn -0.3002 0.2148 -0.9294
vn 0.8591 -0.3560 -0.3676
vn 0.3777 -0.0628 0.9238
vn -0.4542 -0.8903 0.0328
vn 0.4542 0.8903 -0.0328
vn 0.9596 -0.0447 -0.2778
vn 0.2837 0.3987 0.8721
vn -0.9454 0.2523 0.2061
vn -0.2696 -0.1911 -0.9438
vn -0.0643 -0.9432 0.3260
vn 0.0643 0.9432 -0.3260
vn 0.1390 0.3949 0.9081
vn -0.8384 0.5363 -0.0969
vn -0.0612 -0.2567 -0.9645
vn 0.9164 -0.3981 0.0405
vn -0.4631 -0.8205 0.3350
vn 0.4632 0.8205 -0.3351
vn -0.8521 0.2507 0.4594
vn -0.4171 0.2209 -0.8816
vn 0.8862 -0.1032 -0.4516
vn 0.4511 -0.0734 0.8894
vn -0.2250 -0.9730 -0.0514
vn 0.2251 0.9730 0.0514
vn 0.6439 0.2225 -0.7320
vn 0.7672 -0.1123 0.6315
vn -0.6344 -0.0622 0.7705
vn -0.7577 0.2727 -0.5930
vn -0.0578 -0.9707 -0.2332
vn 0.0576 0.9707 0.2332
vn 0.9470 -0.2152 0.2384
vn -0.2047 0.1527 0.9668
vn -0.9117 0.3323 -0.2417
vn 0.2401 -0.0355 -0.9701
vn -0.2888 -0.9570 0.0267
vn 0.2888 0.9570 -0.0267
vn 0.9684 -0.2197 -0.1177
vn 0.2272 0.5325 0.8154
vn -0.9325 0.3597 0.0335
vn -0.1912 -0.3926 -0.8996
vn -0.2149 -0.8367 0.5038
vn 0.2149 0.8367 -0.5038
vn -0.4579 0.8358 -0.3029
vn 0.4452 -0.0667 -0.8929
vn 0.6155 -0.7074 0.3476
vn -0.2877 0.1951 0.9376
vn -0.7570 -0.6171 -0.2148
vn 0.7571 0.6170 0.2148
vn -0.1519 0.2505 0.9561
vn 0.2085 -0.0811 -0.9747
vn -0.3150 -0.9435 0.1033
vn 0.3149 0.9435 -0.1033
vn -0.6122 -0.1031 -0.7839
vn 0.1281 0.9081 -0.3987
vn 0.6956 0.1395 -0.7047
vn 0.0241 0.9935 0.1113
vn -0.5665 0.1281 -0.8141
vn 0.5479 0.7935 -0.2649
vn 0.4646 -0.0163 0.8854
vn -0.6498 -0.6817 0.3363
vn 0.6093 -0.6684 -0.4265
vn -0.6094 0.6684 0.4265
vn -0.6049 0.7956 -0.0323
vn 0.7175 0.6950 -0.0467
vn 0.7359 -0.5143 -0.4403
vn -0.6540 0.6262 0.4245
vn 0.6992 0.4316 -0.5699
vn 0.5320 0.2429 0.8111
vn -0.3354 0.9380 0.0876
vn 0.2909 -0.4687 0.8341
vn -0.3221 0.5398 -0.7777
vn 0.8786 0.4763 -0.0362
vn 0.3234 -0.7420 -0.5873
vn -0.3232 0.7421 0.5873
vn -0.3081 -0.9321 -0.1902
vn 0.8171 -0.4883 0.3065
vn -0.7526 0.5799 -0.3117
vn 0.5745 0.8171 -0.0472
vn 0.0733 0.9804 -0.1828
vn 0.9062 -0.3201 -0.2762
vn 0.2999 0.9239 -0.2376
vn -0.3153 0.9013 -0.2970
vn 0.1647 0.9860 -0.0280
vn -0.7311 0.6347 -0.2502
vn 0.8454 -0.5000 0.1881
vn 0.6101 0.7197 -0.3313
vn 0.3213 0.9438 -0.0779
vn -0.6541 0.7434 -0.1397
vn 0.7042 0.7099 -0.0071
vn -0.5811 0.1942 -0.7904
vn 0.6638 -0.0887 0.7426
vn 0.5812 0.7415 -0.3352
vn 0.5231 -0.5001 -0.6902
vn 0.1935 0.9202 -0.3401
vn -0.3898 -0.1062 0.9147
vn 0.9200 -0.0374 0.3901
vn -0.0641 -0.6041 0.7943
vn 0.8007 -0.4628 -0.3804
vn -0.8006 0.4628 0.3805
vn 0.9930 0.0599 -0.1022
vn -0.0008 0.9919 -0.1268
vn 0.4541 0.8903 -0.0328
vn 0.1391 0.3949 0.9081
vn -0.8385 0.5363 -0.0969
vn -0.0611 -0.2567 -0.9645
vn -0.4632 -0.8205 0.3350
vn 0.4632 0.8205 -0.3350
vn -0.4170 0.2209 -0.8816
vn 0.2249 0.9730 0.0514
vn 0.6440 0.2225 -0.7320
vn -0.7576 0.2727 -0.5930
vn 0.0579 0.9707 0.2332
vn 0.9470 -0.2151 0.2384
vn -0.2150 -0.8367 0.5038
vn 0.2150 0.8367 -0.5037
vn 0.6154 -0.7074 0.3476
vn 0.7569 0.6171 0.2149
vt 0.070000 0.125000
vt -0.070000 0.000000
vt 0.070000 0.000000
vt -0.070000 0.125000
vt 0.500000 0.000000
vt -0.500000 0.125000
vt -0.500000 0.000000
vt 0.500000 0.125000
vt 0.500000 -0.070000
vt -0.500000 0.070000
vt -0.500000 -0.070000
vt 0.050000 1.425000
vt -0.050000 0.125000
vt 0.050000 0.125000
vt -0.050000 1.425000
vt -0.500000 1.425000
vt 0.500000 1.425000
vt 0.070000 1.500000
vt -0.070000 1.425000
vt 0.070000 1.425000
vt -0.070000 1.500000
vt 0.500000 1.425000
vt -0.500000 1.500000
vt -0.500000 1.425000
vt 0.500000 1.500000
vt 0.500000 0.070000
vt -0.311726 1.552894
vt -0.337456 1.419316
vt -0.309025 1.552057
vt 0.098240 1.394532
vt 0.137201 1.264197
vt 0.101022 1.395039
vt 0.304825 1.609115
vt 0.358043 1.483923
vt 0.307534 1.609928
vt -0.088290 1.527368
vt -0.126022 1.396672
vt -0.099304 1.392064
vt -0.060338 0.823667
vt -0.097401 0.833492
vt -0.083782 0.810048
vt 0.080804 0.829103
vt 0.076937 0.828078
vt 0.079383 0.826658
vt 0.269331 1.612695
vt 0.277270 1.567090
vt 0.291240 1.572307
vt 0.195053 1.504413
vt 0.192463 1.458195
vt 0.197113 1.503907
vt -0.245366 1.574044
vt -0.270228 1.534996
vt -0.256391 1.529438
vt -0.176287 1.277090
vt -0.156046 1.235459
vt -0.174241 1.277651
vt -0.323946 0.773408
vt -0.303258 0.769314
vt -0.311556 0.781705
vt 0.312138 0.771071
vt 0.315081 0.771653
vt 0.313318 0.772834
vt -0.235746 1.680565
vt -0.206139 1.490857
vt -0.232923 1.680744
vt -0.190115 1.681121
vt -0.190754 1.489118
vt -0.187299 1.680854
vt 0.231066 1.627174
vt 0.236316 1.435241
vt 0.233889 1.626993
vt 0.186669 1.700862
vt 0.187487 1.508859
vt 0.219616 1.511946
vt 0.303282 0.195503
vt 0.294351 0.240268
vt 0.276434 0.213420
vt -0.300782 0.218210
vt -0.296859 0.217428
vt -0.298429 0.219781
vt 0.330137 1.619563
vt 0.266992 1.549943
vt 0.331549 1.617980
vt 0.094063 1.282674
vt 0.115062 1.191059
vt 0.096169 1.282926
vt -0.347505 1.648712
vt -0.271632 1.593236
vt -0.346079 1.650283
vt -0.105633 1.445153
vt -0.105006 1.351164
vt -0.103522 1.444943
vt 0.157738 1.017098
vt 0.141800 0.997700
vt 0.159468 0.999430
vt -0.148808 1.006263
vt -0.150713 1.008581
vt -0.150920 1.006470
vt 0.066491 0.755994
vt 0.063898 0.721305
vt 0.073546 0.722132
vt 0.304714 1.651187
vt 0.333219 1.631248
vt 0.305699 1.652202
vt -0.057010 1.090315
vt -0.064833 1.056419
vt -0.055171 1.055775
vt -0.313452 1.633265
vt -0.334478 1.605553
vt -0.312476 1.632242
vt 0.023975 1.407925
vt 0.034331 1.398965
vt 0.033633 1.408623
vt -0.029907 1.402785
vt -0.028394 1.404094
vt -0.029805 1.404196
vt 0.106433 1.352090
vt 0.119640 1.240476
vt 0.137016 1.244113
vt -0.215050 1.678223
vt -0.287631 1.592409
vt -0.273116 1.582188
vt -0.114020 1.198521
vt -0.129564 1.087209
vt -0.111953 1.198043
vt 0.223564 1.639472
vt 0.281301 1.543043
vt 0.295666 1.553474
vt -0.021626 1.193253
vt -0.033380 1.215437
vt -0.038595 1.198468
vt 0.028206 1.205653
vt 0.026802 1.203002
vt 0.028830 1.203626
vt 0.151316 1.629486
vt 0.151825 1.594704
vt 0.152716 1.629281
vt -0.240024 1.678482
vt -0.233898 1.644240
vt -0.224760 1.647444
vt -0.143205 1.709422
vt -0.144112 1.674648
vt -0.134515 1.675943
vt 0.229154 1.700500
vt 0.223385 1.666195
vt 0.230493 1.700046
vt 0.050600 0.338981
vt 0.037977 0.333670
vt 0.046944 0.330014
vt -0.043361 0.335905
vt -0.045205 0.336680
vt -0.044671 0.335371
vt 0.136570 1.749793
vt 0.143682 1.489122
vt 0.139396 1.749682
vt 0.225229 1.759517
vt 0.232918 1.498862
vt 0.228055 1.759412
vt -0.137568 1.767766
vt -0.144638 1.507093
vt -0.112745 1.508355
vt -0.224656 1.751849
vt -0.232387 1.491195
vt -0.200491 1.492377
vt 0.092699 -0.159866
vt 0.047581 -0.161264
vt 0.070839 -0.183124
vt -0.070053 -0.158593
vt -0.070176 -0.162591
vt -0.068115 -0.160654
vt -0.327575 1.548076
vt -0.255744 1.403763
vt -0.240535 1.412530
vt 0.074341 1.732292
vt -0.006293 1.592706
vt 0.076110 1.731121
vt 0.326999 1.465043
vt 0.251051 1.322853
vt 0.328805 1.463932
vt -0.095194 1.690139
vt 0.005232 1.564041
vt -0.093457 1.691357
vt 0.221103 0.981612
vt 0.219437 1.006383
vt 0.207884 0.993164
vt -0.220178 0.995478
vt -0.220379 0.992485
vt -0.218782 0.993881
vt 0.074407 1.718712
vt 0.094755 1.676133
vt 0.075745 1.719169
vt -0.277922 1.680218
vt -0.280496 1.633097
vt -0.276529 1.679977
vt -0.090262 1.627459
vt -0.111018 1.585077
vt -0.101987 1.581895
vt 0.278694 1.575463
vt 0.292568 1.530357
vt 0.280085 1.575719
vt 0.209260 0.806560
vt 0.213401 0.819453
vt 0.204884 0.815078
vt -0.212285 0.812749
vt -0.210381 0.813361
vt -0.211639 0.814007
vt 0.173578 1.734324
vt 0.239955 1.613473
vt 0.254699 1.623001
vt -0.068838 1.461383
vt -0.112245 1.330515
vt -0.095231 1.326192
vt -0.174875 1.695384
vt -0.259264 1.586347
vt -0.244649 1.576620
vt 0.076505 1.345397
vt 0.103301 1.210147
vt 0.120234 1.214779
vt -0.019443 1.172015
vt 0.003391 1.162271
vt -0.003154 1.178560
vt 0.006648 1.166554
vt 0.009407 1.167731
vt 0.007439 1.168522
vt 0.208379 1.757262
vt 0.205403 1.710165
vt 0.214965 1.710678
vt -0.021632 1.775064
vt -0.025130 1.728003
vt -0.020244 1.774796
vt -0.208594 1.695520
vt -0.205704 1.648417
vt -0.207182 1.695442
vt 0.028530 1.723572
vt 0.032111 1.676517
vt 0.041509 1.678351
vt -0.199518 0.422236
vt -0.187709 0.428864
vt -0.196928 0.431454
vt 0.194101 0.426340
vt 0.193122 0.424596
vt 0.194484 0.424979
vt 0.029457 1.767859
vt 0.121456 1.487922
vt 0.147031 1.497809
vt 0.088889 1.663983
vt 0.062692 1.370484
vt 0.091690 1.663588
vt -0.026656 1.756806
vt -0.119789 1.477244
vt -0.024022 1.755775
vt -0.088490 1.608697
vt -0.060951 1.315320
vt -0.033819 1.319281
vt -0.103434 0.654466
vt -0.087210 0.689686
vt -0.112932 0.680188
vt 0.093506 0.671227
vt 0.097139 0.672900
vt 0.094485 0.673880
vt 0.170384 1.788934
vt 0.097021 1.653882
vt 0.110655 1.647436
vt 0.001961 1.664056
vt -0.001947 1.510414
vt 0.004075 1.663884
vt -0.170259 1.778391
vt -0.096543 1.643531
vt -0.168344 1.779302
vt -0.002814 1.715386
vt 0.017754 1.563077
vt -0.000700 1.715552
vt -0.022630 0.616444
vt -0.034994 0.633822
vt -0.037501 0.618951
vt 0.029682 0.626360
vt 0.027943 0.623916
vt 0.030034 0.624268
vt 0.003767 1.691793
vt -0.008642 1.488307
vt 0.006572 1.691431
vt -0.021617 1.668316
vt -0.030087 1.464628
vt -0.018806 1.668007
vt -0.006288 1.669839
vt 0.033769 1.469949
vt -0.003483 1.670206
vt 0.018868 1.690669
vt 0.054446 1.489933
vt 0.021680 1.690973
vt -0.001437 0.293590
vt -0.036299 0.290504
vt -0.017325 0.274616
vt 0.019044 0.294028
vt 0.018691 0.290043
vt 0.020860 0.291859
vt -0.035504 1.256289
vt 0.002738 1.207671
vt -0.033683 1.257378
vt -0.006807 1.550935
vt 0.036471 1.506740
vt -0.005115 1.552214
vt 0.033937 1.411990
vt 0.012832 1.353846
vt 0.035822 1.411018
vt 0.009459 1.461675
vt -0.023943 1.409613
vt 0.011084 1.460312
vt -0.036209 1.117409
vt -0.017262 1.114012
vt -0.025037 1.125184
vt 0.027000 1.114223
vt 0.026471 1.117176
vt 0.025259 1.115435
vt -0.009617 1.726434
vt 0.001423 1.408980
vt 0.031629 1.411613
vt -0.149126 1.792489
vt -0.031686 1.497351
vt -0.146447 1.793397
vt 0.011278 1.763787
vt -0.031994 1.449102
vt -0.001782 1.446544
vt 0.146626 1.781662
vt 0.059889 1.476088
vt 0.149303 1.780749
vt 0.009699 0.466852
vt 0.046524 0.444886
vt 0.039095 0.474282
vt -0.027091 0.454166
vt -0.029140 0.457601
vt -0.029833 0.454859
vt 0.171229 1.695502
vt 0.089279 1.626342
vt 0.101110 1.614589
vt -0.029634 1.272374
vt -0.022418 1.165384
vt -0.005942 1.167961
vt -0.170173 1.713346
vt -0.088915 1.643374
vt -0.168653 1.714826
vt 0.027104 1.417474
vt 0.003322 1.312912
vt 0.019844 1.310653
vt 0.013791 1.096719
vt -0.000258 1.077777
vt 0.016238 1.080224
vt -0.005870 1.086050
vt -0.007657 1.088460
vt -0.007968 1.086362
vt -0.145342 1.710669
vt -0.113168 1.667015
vt -0.106403 1.673095
vt -0.112366 1.456691
vt -0.107958 1.402640
vt -0.099006 1.404255
vt 0.137020 1.727322
vt 0.097528 1.690156
vt 0.104375 1.684167
vt 0.116922 1.309377
vt 0.111250 1.255444
vt 0.118307 1.309093
vt 0.071305 1.047947
vt 0.078273 1.037134
vt 0.080196 1.046025
vt -0.075633 1.043105
vt -0.073952 1.042022
vt -0.074251 1.043404
vt 0.180145 1.594119
vt 0.097935 1.422696
vt 0.182010 1.593108
vt -0.196788 1.702298
vt -0.078203 1.553698
vt -0.195067 1.703538
vt -0.175680 1.653787
vt -0.080593 1.489156
vt -0.173792 1.654756
vt 0.188760 1.744776
vt 0.088485 1.583254
vt 0.190504 1.743570
vt 0.031508 1.030665
vt 0.008167 1.027290
vt 0.021525 1.017307
vt -0.020052 1.027460
vt -0.019623 1.030429
vt -0.021322 1.029159
vt -0.194537 1.755867
vt -0.187066 1.702154
vt -0.178221 1.704274
vt 0.010932 1.821899
vt -0.001575 1.769131
vt 0.012270 1.821441
vt 0.195942 1.673268
vt 0.177663 1.622212
vt 0.186483 1.619990
vt -0.021619 1.791769
vt 0.001367 1.742652
vt -0.020286 1.792242
vt 0.155500 0.593237
vt 0.153310 0.605913
vt 0.148067 0.598480
vt -0.155394 0.599780
vt -0.153423 0.599439
vt -0.154238 0.600595
vt 0.113408 1.706973
vt 0.107772 1.480843
vt 0.116226 1.706734
vt -0.001279 1.717191
vt -0.049312 1.496149
vt -0.025550 1.492447
vt -0.116185 1.681591
vt -0.083492 1.457765
vt -0.113367 1.681833
vt 0.002939 1.719919
vt 0.050705 1.498820
vt 0.005734 1.720351
vt -0.086376 0.243440
vt -0.119030 0.252948
vt -0.107457 0.231867
vt 0.102143 0.250112
vt 0.103261 0.246271
vt 0.104622 0.248751
vt -0.041076 1.247639
vt -0.107665 1.211921
vt -0.100261 1.200960
vt -0.003282 1.207227
vt 0.063922 1.172679
vt -0.002125 1.209005
vt 0.049932 1.334580
vt 0.102886 1.280675
vt 0.111331 1.290854
vt 0.013489 1.299314
vt -0.050210 1.258664
vt -0.041999 1.248295
vt -0.054874 1.462344
vt -0.073575 1.461944
vt -0.064024 1.452793
vt 0.064192 1.460652
vt 0.064256 1.463652
vt 0.062725 1.462184
vt 0.154107 1.617581
vt 0.138203 1.460554
vt 0.163581 1.460263
vt -0.000793 1.657219
vt 0.033113 1.503074
vt 0.002013 1.657578
vt -0.151282 1.647852
vt -0.163617 1.490504
vt -0.138240 1.490789
vt -0.001980 1.638129
vt -0.035854 1.483976
vt -0.010679 1.480766
vt 0.140766 0.211631
vt 0.163798 0.184104
vt 0.166046 0.209383
vt -0.150748 0.196568
vt -0.153816 0.199135
vt -0.153565 0.196317
vt 0.069644 1.511091
vt 0.066361 1.441355
vt 0.071738 1.510748
vt -0.175956 1.626578
vt -0.152375 1.560869
vt -0.139867 1.567065
vt -0.064619 1.606945
vt -0.062229 1.537173
vt -0.048427 1.539254
vt 0.171688 1.655200
vt 0.148804 1.589245
vt 0.173599 1.654279
vt 0.001587 0.598541
vt 0.010605 0.580981
vt 0.014876 0.594271
vt -0.006789 0.588409
vt -0.005418 0.591077
vt -0.007438 0.590428
vt -0.032675 1.661615
vt -0.045352 1.636061
vt -0.038082 1.633799
vt 0.169844 1.502907
vt 0.160800 1.475852
vt 0.168312 1.474612
vt 0.022510 1.645943
vt 0.026851 1.617750
vt 0.034098 1.620085
vt -0.169748 1.619186
vt -0.169921 1.590661
vt -0.162396 1.591820
vt 0.168338 0.499315
vt 0.164962 0.509540
vt 0.161537 0.502740
vt -0.165703 0.504195
vt -0.167602 0.504822
vt -0.166966 0.503559
vt 0.185577 1.499222
vt 0.156610 1.434658
vt 0.187401 1.498140
vt -0.046097 1.474823
vt -0.026274 1.406892
vt -0.013405 1.412299
vt -0.185026 1.581685
vt -0.157948 1.516306
vt -0.145742 1.523078
vt 0.035163 1.569878
vt 0.002592 1.507055
vt 0.015634 1.502080
vt 0.088875 0.807431
vt 0.085409 0.787997
vt 0.096859 0.795981
vt -0.086883 0.796234
vt -0.087409 0.799187
vt -0.088623 0.797447
vt 0.130994 1.684962
vt 0.118754 1.490529
vt 0.133790 1.684530
vt -0.228824 1.667960
vt -0.176283 1.480361
vt -0.226043 1.668474
vt -0.128642 1.697040
vt -0.082524 1.507760
vt -0.125845 1.697459
vt 0.225413 1.687660
vt 0.173638 1.499848
vt 0.205363 1.494113
vt -0.023054 0.143995
vt -0.068455 0.139817
vt -0.043665 0.119205
vt 0.047767 0.141749
vt 0.043784 0.142115
vt 0.045593 0.139941
vt -0.202234 1.613701
vt -0.173783 1.523040
vt -0.200155 1.614121
vt 0.130518 1.699247
vt 0.153927 1.607155
vt 0.132617 1.699552
vt 0.206646 1.675324
vt 0.178619 1.584531
vt 0.196015 1.581099
vt -0.125421 1.679834
vt -0.149269 1.587854
vt -0.131734 1.585221
vt -0.240640 0.319357
vt -0.215840 0.323070
vt -0.230096 0.333613
vt 0.228019 0.319723
vt 0.228463 0.322690
vt 0.226758 0.321429
vt 0.108020 1.728736
vt 0.071998 1.520357
vt 0.100514 1.517592
vt 0.340931 1.690398
vt 0.267288 1.492166
vt 0.294813 1.484216
vt -0.112211 1.710935
vt -0.075473 1.502681
vt -0.109397 1.711217
vt -0.334834 1.699414
vt -0.292096 1.492309
vt -0.264546 1.500171
vt 0.002104 0.136761
vt 0.019886 0.173169
vt -0.007209 0.163856
vt -0.011892 0.156762
vt -0.010136 0.153168
vt -0.009217 0.155843
vt 0.017187 1.708953
vt -0.013750 1.632978
vt 0.019053 1.707943
vt 0.344132 1.398459
vt 0.324520 1.318806
vt 0.346125 1.397731
vt -0.046566 1.685360
vt -0.013754 1.610176
vt -0.000085 1.618015
vt -0.345575 1.534293
vt -0.328281 1.454105
vt -0.313331 1.459086
vt 0.293247 0.747433
vt 0.288256 0.769151
vt 0.279892 0.755797
vt -0.290418 0.759728
vt -0.291090 0.756804
vt -0.289292 0.757930
vt -0.214409 1.174064
vt -0.190016 1.112578
vt -0.212349 1.174572
vt -0.335762 1.671389
vt -0.290423 1.623224
vt -0.280514 1.635477
vt 0.189850 1.406721
vt 0.186427 1.340662
vt 0.191934 1.406326
vt 0.361028 1.652556
vt 0.303715 1.619530
vt 0.313356 1.607065
vt -0.102104 1.093589
vt -0.115004 1.075417
vt -0.099468 1.078053
vt 0.107329 1.083634
vt 0.109776 1.085371
vt 0.107684 1.085726
vt -0.363353 1.427343
vt 0.110527 1.259338
vt 0.332076 1.476127
vt -0.091077 1.527848
vt -0.073957 0.847111
vt 0.078358 0.830524
vt 0.267344 1.611953
vt 0.177982 1.461754
vt -0.247335 1.574835
vt -0.170428 1.231517
vt -0.315649 0.761017
vt 0.313900 0.769891
vt -0.238352 1.488816
vt -0.222886 1.492175
vt 0.204105 1.437312
vt 0.183853 1.700591
vt 0.321199 0.222351
vt -0.299211 0.215858
vt 0.255177 1.563193
vt 0.097436 1.188944
vt -0.283566 1.580093
vt -0.122671 1.352923
vt 0.140070 1.015368
vt -0.148602 1.008374
vt 0.065082 0.755873
vt 0.326474 1.624300
vt -0.058422 1.090409
vt -0.341160 1.612562
vt 0.024673 1.398267
vt -0.028496 1.402683
vt 0.104356 1.351656
vt -0.216784 1.679444
vt -0.146860 1.091209
vt 0.221847 1.638225
vt -0.016411 1.210222
vt 0.026179 1.205030
vt 0.142244 1.596109
vt -0.241359 1.678014
vt -0.144607 1.709233
vt 0.214214 1.669304
vt 0.041633 0.342637
vt -0.043895 0.337214
vt 0.111789 1.490379
vt 0.201021 1.500049
vt -0.140395 1.767654
vt -0.227482 1.751745
vt 0.069440 -0.138006
vt -0.072114 -0.160531
vt -0.329413 1.547017
vt -0.020930 1.602399
vt 0.236100 1.332054
vt -0.009143 1.553963
vt 0.232655 0.994830
vt -0.221775 0.994082
vt 0.085693 1.673038
vt -0.289931 1.634729
vt -0.091596 1.627929
vt 0.283150 1.528627
vt 0.217777 0.810936
vt -0.211027 0.812103
vt 0.171797 1.733173
vt -0.070894 1.461906
vt -0.176641 1.696560
vt 0.074458 1.344838
vt -0.012898 1.155726
vt 0.008617 1.165763
vt 0.206967 1.757186
vt -0.034532 1.729820
vt -0.215265 1.648948
vt 0.027141 1.723302
vt -0.190299 0.419645
vt 0.192740 0.425958
vt 0.026819 1.766839
vt 0.035542 1.374320
vt -0.145324 1.487235
vt -0.091288 1.608289
vt -0.077712 0.663964
vt 0.096159 0.670247
vt 0.168466 1.789840
vt -0.016978 1.511641
vt -0.110160 1.637050
vt 0.002720 1.561898
vt -0.020123 0.631315
vt 0.027590 0.626008
vt -0.033185 1.491481
vt -0.054686 1.467326
vt 0.009231 1.466739
vt 0.029842 1.487272
vt -0.020411 0.309478
vt 0.016875 0.292212
vt -0.008944 1.200685
vt 0.025614 1.498531
vt 0.000733 1.360079
vt -0.034371 1.418360
vt -0.028434 1.106237
vt 0.028212 1.115964
vt -0.012435 1.726189
vt -0.060404 1.487626
vt 0.008460 1.764025
vt 0.031194 1.485877
vt 0.017128 0.437457
vt -0.026397 0.456908
vt 0.169724 1.696997
vt -0.031730 1.272047
vt -0.100862 1.631740
vt 0.025002 1.417762
vt -0.002704 1.094272
vt -0.005559 1.088149
vt -0.146394 1.709724
vt -0.113757 1.456440
vt 0.135955 1.728253
vt 0.102339 1.257267
vt 0.069383 1.039056
vt -0.075335 1.041723
vt 0.083273 1.430641
vt -0.091735 1.543954
vt -0.095428 1.481540
vt 0.074770 1.592739
vt 0.018150 1.040648
vt -0.018353 1.028730
vt -0.195913 1.755537
vt -0.010181 1.772077
vt 0.194571 1.673614
vt -0.007207 1.739613
vt 0.160743 0.600670
vt -0.154579 0.598624
vt 0.083809 1.482869
vt -0.004073 1.717626
vt -0.107453 1.455710
vt 0.026938 1.495147
vt -0.097949 0.264521
vt 0.100782 0.247632
vt -0.042263 1.249397
vt 0.056711 1.161591
vt 0.048578 1.332948
vt 0.012172 1.300977
vt -0.064424 1.471495
vt 0.065724 1.462120
vt 0.151278 1.617614
vt 0.007938 1.499858
vt -0.154110 1.647820
vt -0.004786 1.638486
vt 0.138518 0.186351
vt -0.150998 0.199385
vt 0.052586 1.443613
vt -0.177857 1.625637
vt -0.066717 1.606628
vt 0.136231 1.595309
vt -0.002684 0.585252
vt -0.004769 0.589058
vt -0.034026 1.662035
vt 0.168448 1.503137
vt 0.021164 1.645510
vt -0.171146 1.618971
vt 0.171762 0.506115
vt -0.166339 0.505458
vt 0.144606 1.441782
vt -0.048053 1.474002
vt -0.186881 1.580656
vt 0.033181 1.570634
vt 0.077425 0.799447
vt -0.085669 0.797974
vt 0.086892 1.495443
vt -0.207984 1.474496
vt -0.114407 1.502978
vt 0.222630 1.688163
vt -0.047843 0.164607
vt 0.045959 0.143924
vt -0.191163 1.519527
vt 0.136380 1.604606
vt 0.204564 1.675735
vt -0.127519 1.680149
vt -0.226384 0.308813
vt 0.229724 0.320985
vt 0.105205 1.729009
vt 0.338214 1.691183
vt -0.103980 1.499818
vt -0.337553 1.698638
vt 0.029199 0.146074
vt -0.012811 0.154087
vt -0.027610 1.640476
vt 0.309721 1.324218
vt -0.048406 1.684305
vt -0.347588 1.533623
vt 0.301611 0.760787
vt -0.292215 0.758602
vt -0.205314 1.108800
vt -0.337096 1.669739
vt 0.170945 1.343597
vt 0.359730 1.654234
vt -0.117640 1.090953
vt 0.109421 1.083280
s 0
usemtl wall_stone
f 5/1/1 3/2/1 1/3/1
f 4/3/2 6/4/2 2/2/2
f 2/5/3 5/6/3 1/7/3
f 7/8/4 4/7/4 3/5/4
f 6/9/5 7/10/5 5/11/5
f 13/12/1 11/13/1 9/14/1
f 12/14/2 14/15/2 10/13/2
f 10/8/3 13/16/3 9/6/3
f 15/17/4 12/6/4 11/8/4
f 21/18/1 19/19/1 17/20/1
f 20/20/2 22/21/2 18/19/2
f 18/22/3 21/23/3 17/24/3
f 23/25/4 20/24/4 19/22/4
f 19/26/6 18/11/6 17/9/6
f 22/9/5 23/10/5 21/11/5
f 30/27/7 25/28/7 29/29/7
f 31/30/8 26/31/8 30/32/8
f 32/33/9 27/34/9 31/35/9
f 32/36/10 25/37/10 28/38/10
f 25/39/11 27/40/11 28/41/11
f 31/42/12 29/43/12 32/44/12
f 37/45/13 34/46/13 33/47/13
f 39/48/14 34/49/14 38/50/14
f 39/51/15 36/52/15 35/53/15
f 37/54/16 36/55/16 40/56/16
f 33/57/17 35/58/17 36/59/17
f 39/60/18 37/61/18 40/62/18
f 46/63/19 41/64/19 45/65/19
f 47/66/20 42/67/20 46/68/20
f 48/69/21 43/70/21 47/71/21
f 48/72/22 41/73/22 44/74/22
f 42/75/23 44/76/23 41/77/23
f 47/78/24 45/79/24 48/80/24
f 54/81/25 49/82/25 53/83/25
f 55/84/26 50/85/26 54/86/26
f 56/87/27 51/88/27 55/89/27
f 53/90/28 52/91/28 56/92/28
f 50/93/29 52/94/29 49/95/29
f 56/96/30 54/97/30 53/98/30
f 61/99/31 58/100/31 57/101/31
f 63/102/32 58/103/32 62/104/32
f 63/105/33 60/106/33 59/107/33
f 61/108/34 60/109/34 64/110/34
f 58/111/35 60/112/35 57/113/35
f 64/114/36 62/115/36 61/116/36
f 69/117/37 66/118/37 65/119/37
f 70/120/38 67/121/38 66/122/38
f 72/123/39 67/124/39 71/125/39
f 72/126/40 65/127/40 68/128/40
f 66/129/41 68/130/41 65/131/41
f 72/132/42 70/133/42 69/134/42
f 78/135/43 73/136/43 77/137/43
f 78/138/44 75/139/44 74/140/44
f 79/141/45 76/142/45 75/143/45
f 77/144/46 76/145/46 80/146/46
f 73/147/47 75/148/47 76/149/47
f 79/150/48 77/151/48 80/152/48
f 86/153/49 81/154/49 85/155/49
f 87/156/50 82/157/50 86/158/50
f 87/159/51 84/160/51 83/161/51
f 88/162/52 81/163/52 84/164/52
f 82/165/53 84/166/53 81/167/53
f 87/168/54 85/169/54 88/170/54
f 93/171/55 90/172/55 89/173/55
f 95/174/56 90/175/56 94/176/56
f 96/177/57 91/178/57 95/179/57
f 93/180/58 92/181/58 96/182/58
f 90/183/59 92/184/59 89/185/59
f 96/186/60 94/187/60 93/188/60
f 102/189/61 97/190/61 101/191/61
f 103/192/62 98/193/62 102/194/62
f 103/195/63 100/196/63 99/197/63
f 101/198/64 100/199/64 104/200/64
f 98/201/65 100/202/65 97/203/65
f 103/204/66 101/205/66 104/206/66
f 109/207/67 106/208/67 105/209/67
f 110/210/68 107/211/68 106/212/68
f 111/213/69 108/214/69 107/215/69
f 112/216/70 105/217/70 108/218/70
f 105/219/71 107/220/71 108/221/71
f 111/222/72 109/223/72 112/224/72
f 117/225/73 114/226/73 113/227/73
f 119/228/74 114/229/74 118/230/74
f 120/231/75 115/232/75 119/233/75
f 120/234/76 113/235/76 116/236/76
f 113/237/77 115/238/77 116/239/77
f 120/240/78 118/241/78 117/242/78
f 125/243/79 122/244/79 121/245/79
f 127/246/80 122/247/80 126/248/80
f 128/249/81 123/250/81 127/251/81
f 128/252/82 121/253/82 124/254/82
f 122/255/83 124/256/83 121/257/83
f 127/258/84 125/259/84 128/260/84
f 133/261/85 130/262/85 129/263/85
f 135/264/86 130/265/86 134/266/86
f 136/267/87 131/268/87 135/269/87
f 133/270/88 132/271/88 136/272/88
f 129/273/89 131/274/89 132/275/89
f 135/276/90 133/277/90 136/278/90
f 142/279/91 137/280/91 141/281/91
f 143/282/92 138/283/92 142/284/92
f 144/285/93 139/286/93 143/287/93
f 141/288/94 140/289/94 144/290/94
f 138/291/95 140/292/95 137/293/95
f 143/294/96 141/295/96 144/296/96
f 150/297/97 145/298/97 149/299/97
f 151/300/98 146/301/98 150/302/98
f 152/303/99 147/304/99 151/305/99
f 149/306/100 148/307/100 152/308/100
f 146/309/101 148/310/101 145/311/101
f 151/312/102 149/313/102 152/314/102
f 157/315/103 154/316/103 153/317/103
f 159/318/104 154/319/104 158/320/104
f 159/321/105 156/322/105 155/323/105
f 157/324/106 156/325/106 160/326/106
f 154/327/107 156/328/107 153/329/107
f 159/330/108 157/331/108 160/332/108
f 165/333/109 162/334/109 161/335/109
f 166/336/110 163/337/110 162/338/110
f 168/339/111 163/340/111 167/341/111
f 168/342/112 161/343/112 164/344/112
f 162/345/113 164/346/113 161/347/113
f 168/348/114 166/349/114 165/350/114
f 173/351/115 170/352/115 169/353/115
f 174/354/116 171/355/116 170/356/116
f 175/357/117 172/358/117 171/359/117
f 173/360/118 172/361/118 176/362/118
f 169/363/119 171/364/119 172/365/119
f 176/366/120 174/367/120 173/368/120
f 182/369/121 177/370/121 181/371/121
f 183/372/122 178/373/122 182/374/122
f 184/375/123 179/376/123 183/377/123
f 181/378/124 180/379/124 184/380/124
f 177/381/125 179/382/125 180/383/125
f 184/384/126 182/385/126 181/386/126
f 189/387/127 186/388/127 185/389/127
f 191/390/128 186/391/128 190/392/128
f 191/393/129 188/394/129 187/395/129
f 189/396/130 188/397/130 192/398/130
f 186/399/131 188/400/131 185/401/131
f 191/402/132 189/403/132 192/404/132
f 198/405/133 193/406/133 197/407/133
f 198/408/134 195/409/134 194/410/134
f 200/411/135 195/412/135 199/413/135
f 197/414/136 196/415/136 200/416/136
f 194/417/137 196/418/137 193/419/137
f 199/420/138 197/421/138 200/422/138
f 205/423/139 202/424/139 201/425/139
f 207/426/140 202/427/140 206/428/140
f 207/429/141 204/430/141 203/431/141
f 208/432/142 201/433/142 204/434/142
f 201/435/143 203/436/143 204/437/143
f 208/438/144 206/439/144 205/440/144
f 213/441/145 210/442/145 209/443/145
f 215/444/146 210/445/146 214/446/146
f 215/447/147 212/448/147 211/449/147
f 216/450/148 209/451/148 212/452/148
f 210/453/149 212/454/149 209/455/149
f 215/456/150 213/457/150 216/458/150
f 222/459/151 217/460/151 221/461/151
f 222/462/152 219/463/152 218/464/152
f 223/465/153 220/466/153 219/467/153
f 221/468/154 220/469/154 224/470/154
f 218/471/155 220/472/155 217/473/155
f 224/474/156 222/475/156 221/476/156
f 229/477/157 226/478/157 225/479/157
f 230/480/158 227/481/158 226/482/158
f 231/483/159 228/484/159 227/485/159
f 232/486/160 225/487/160 228/488/160
f 225/489/161 227/490/161 228/491/161
f 232/492/162 230/493/162 229/494/162
f 238/495/163 233/496/163 237/497/163
f 238/498/164 235/499/164 234/500/164
f 239/501/165 236/502/165 235/503/165
f 240/504/166 233/505/166 236/506/166
f 234/507/167 236/508/167 233/509/167
f 240/510/168 238/511/168 237/512/168
f 246/513/169 241/514/169 245/515/169
f 247/516/170 242/517/170 246/518/170
f 248/519/171 243/520/171 247/521/171
f 248/522/172 241/523/172 244/524/172
f 241/525/173 243/526/173 244/527/173
f 247/528/174 245/529/174 248/530/174
f 254/531/175 249/532/175 253/533/175
f 255/534/176 250/535/176 254/536/176
f 255/537/177 252/538/177 251/539/177
f 256/540/178 249/541/178 252/542/178
f 250/543/179 252/544/179 249/545/179
f 255/546/180 253/547/180 256/548/180
f 261/549/181 258/550/181 257/551/181
f 262/552/182 259/553/182 258/554/182
f 264/555/183 259/556/183 263/557/183
f 264/558/184 257/559/184 260/560/184
f 257/561/185 259/562/185 260/563/185
f 263/564/186 261/565/186 264/566/186
f 270/567/187 265/568/187 269/569/187
f 271/570/188 266/571/188 270/572/188
f 271/573/189 268/574/189 267/575/189
f 272/576/190 265/577/190 268/578/190
f 265/579/191 267/580/191 268/581/191
f 271/582/192 269/583/192 272/584/192
f 278/585/193 273/586/193 277/587/193
f 278/588/194 275/589/194 274/590/194
f 280/591/195 275/592/195 279/593/195
f 280/594/196 273/595/196 276/596/196
f 273/597/197 275/598/197 276/599/197
f 280/600/198 278/601/198 277/602/198
f 5/1/1 7/4/1 3/2/1
f 4/3/2 8/1/2 6/4/2
f 2/5/3 6/8/3 5/6/3
f 7/8/4 8/6/4 4/7/4
f 6/9/5 8/26/5 7/10/5
f 13/12/1 15/15/1 11/13/1
f 12/14/2 16/12/2 14/15/2
f 10/8/3 14/17/3 13/16/3
f 15/17/4 16/16/4 12/6/4
f 21/18/1 23/21/1 19/19/1
f 20/20/2 24/18/2 22/21/2
f 18/22/3 22/25/3 21/23/3
f 23/25/4 24/23/4 20/24/4
f 19/26/6 20/10/6 18/11/6
f 22/9/5 24/26/5 23/10/5
f 30/27/199 26/603/199 25/28/199
f 31/30/8 27/604/8 26/31/8
f 32/33/200 28/605/200 27/34/200
f 32/36/10 29/606/10 25/37/10
f 25/39/201 26/607/201 27/40/201
f 31/42/202 30/608/202 29/43/202
f 37/45/203 38/609/203 34/46/203
f 39/48/14 35/610/14 34/49/14
f 39/51/15 40/611/15 36/52/15
f 37/54/16 33/612/16 36/55/16
f 33/57/17 34/613/17 35/58/17
f 39/60/204 38/614/204 37/61/204
f 46/63/19 42/615/19 41/64/19
f 47/66/20 43/616/20 42/67/20
f 48/69/21 44/617/21 43/70/21
f 48/72/205 45/618/205 41/73/205
f 42/75/23 43/619/23 44/76/23
f 47/78/206 46/620/206 45/79/206
f 54/81/207 50/621/207 49/82/207
f 55/84/208 51/622/208 50/85/208
f 56/87/209 52/623/209 51/88/209
f 53/90/210 49/624/210 52/91/210
f 50/93/211 51/625/211 52/94/211
f 56/96/212 55/626/212 54/97/212
f 61/99/213 62/627/213 58/100/213
f 63/102/32 59/628/32 58/103/32
f 63/105/33 64/629/33 60/106/33
f 61/108/34 57/630/34 60/109/34
f 58/111/35 59/631/35 60/112/35
f 64/114/214 63/632/214 62/115/214
f 69/117/215 70/633/215 66/118/215
f 70/120/38 71/634/38 67/121/38
f 72/123/216 68/635/216 67/124/216
f 72/126/40 69/636/40 65/127/40
f 66/129/41 67/637/41 68/130/41
f 72/132/42 71/638/42 70/133/42
f 78/135/217 74/639/217 73/136/217
f 78/138/218 79/640/218 75/139/218
f 79/141/45 80/641/45 76/142/45
f 77/144/46 73/642/46 76/145/46
f 73/147/47 74/643/47 75/148/47
f 79/150/219 78/644/219 77/151/219
f 86/153/49 82/645/49 81/154/49
f 87/156/50 83/646/50 82/157/50
f 87/159/51 88/647/51 84/160/51
f 88/162/52 85/648/52 81/163/52
f 82/165/53 83/649/53 84/166/53
f 87/168/54 86/650/54 85/169/54
f 93/171/220 94/651/220 90/172/220
f 95/174/56 91/652/56 90/175/56
f 96/177/221 92/653/221 91/178/221
f 93/180/222 89/654/222 92/181/222
f 90/183/223 91/655/223 92/184/223
f 96/186/224 95/656/224 94/187/224
f 102/189/61 98/657/61 97/190/61
f 103/192/62 99/658/62 98/193/62
f 103/195/63 104/659/63 100/196/63
f 101/198/64 97/660/64 100/199/64
f 98/201/225 99/661/225 100/202/225
f 103/204/66 102/662/66 101/205/66
f 109/207/67 110/663/67 106/208/67
f 110/210/226 111/664/226 107/211/226
f 111/213/69 112/665/69 108/214/69
f 112/216/227 109/666/227 105/217/227
f 105/219/71 106/667/71 107/220/71
f 111/222/228 110/668/228 109/223/228
f 117/225/73 118/669/73 114/226/73
f 119/228/74 115/670/74 114/229/74
f 120/231/75 116/671/75 115/232/75
f 120/234/76 117/672/76 113/235/76
f 113/237/77 114/673/77 115/238/77
f 120/240/229 119/674/229 118/241/229
f 125/243/79 126/675/79 122/244/79
f 127/246/230 123/676/230 122/247/230
f 128/249/81 124/677/81 123/250/81
f 128/252/82 125/678/82 121/253/82
f 122/255/83 123/679/83 124/256/83
f 127/258/231 126/680/231 125/259/231
f 133/261/85 134/681/85 130/262/85
f 135/264/86 131/682/86 130/265/86
f 136/267/87 132/683/87 131/268/87
f 133/270/88 129/684/88 132/271/88
f 129/273/89 130/685/89 131/274/89
f 135/276/232 134/686/232 133/277/232
f 142/279/91 138/687/91 137/280/91
f 143/282/92 139/688/92 138/283/92
f 144/285/93 140/689/93 139/286/93
f 141/288/94 137/690/94 140/289/94
f 138/291/95 139/691/95 140/292/95
f 143/294/233 142/692/233 141/295/233
f 150/297/234 146/693/234 145/298/234
f 151/300/98 147/694/98 146/301/98
f 152/303/235 148/695/235 147/304/235
f 149/306/100 145/696/100 148/307/100
f 146/309/101 147/697/101 148/310/101
f 151/312/236 150/698/236 149/313/236
f 157/315/103 158/699/103 154/316/103
f 159/318/104 155/700/104 154/319/104
f 159/321/105 160/701/105 156/322/105
f 157/324/106 153/702/106 156/325/106
f 154/327/107 155/703/107 156/328/107
f 159/330/237 158/704/237 157/331/237
f 165/333/109 166/705/109 162/334/109
f 166/336/238 167/706/238 163/337/238
f 168/339/111 164/707/111 163/340/111
f 168/342/112 165/708/112 161/343/112
f 162/345/113 163/709/113 164/346/113
f 168/348/239 167/710/239 166/349/239
f 173/351/240 174/711/240 170/352/240
f 174/354/116 175/712/116 171/355/116
f 175/357/241 176/713/241 172/358/241
f 173/360/118 169/714/118 172/361/118
f 169/363/119 170/715/119 171/364/119
f 176/366/242 175/716/242 174/367/242
f 182/369/121 178/717/121 177/370/121
f 183/372/122 179/718/122 178/373/122
f 184/375/243 180/719/243 179/376/243
f 181/378/124 177/720/124 180/379/124
f 177/381/125 178/721/125 179/382/125
f 184/384/126 183/722/126 182/385/126
f 189/387/127 190/723/127 186/388/127
f 191/390/128 187/724/128 186/391/128
f 191/393/129 192/725/129 188/394/129
f 189/396/130 185/726/130 188/397/130
f 186/399/131 187/727/131 188/400/131
f 191/402/244 190/728/244 189/403/244
f 198/405/245 194/729/245 193/406/245
f 198/408/134 199/730/134 195/409/134
f 200/411/135 196/731/135 195/412/135
f 197/414/246 193/732/246 196/415/246
f 194/417/137 195/733/137 196/418/137
f 199/420/138 198/734/138 197/421/138
f 205/423/139 206/735/139 202/424/139
f 207/426/140 203/736/140 202/427/140
f 207/429/247 208/737/247 204/430/247
f 208/432/142 205/738/142 201/433/142
f 201/435/248 202/739/248 203/436/248
f 208/438/249 207/740/249 206/439/249
f 213/441/145 214/741/145 210/442/145
f 215/444/146 211/742/146 210/445/146
f 215/447/147 216/743/147 212/448/147
f 216/450/250 213/744/250 209/451/250
f 210/453/149 211/745/149 212/454/149
f 215/456/251 214/746/251 213/457/251
f 222/459/151 218/747/151 217/460/151
f 222/462/152 223/748/152 219/463/152
f 223/465/153 224/749/153 220/466/153
f 221/468/154 217/750/154 220/469/154
f 218/471/155 219/751/155 220/472/155
f 224/474/252 223/752/252 222/475/252
f 229/477/157 230/753/157 226/478/157
f 230/480/158 231/754/158 227/481/158
f 231/483/159 232/755/159 228/484/159
f 232/486/160 229/756/160 225/487/160
f 225/489/161 226/757/161 227/490/161
f 232/492/162 231/758/162 230/493/162
f 238/495/253 234/759/253 233/496/253
f 238/498/254 239/760/254 235/499/254
f 239/501/255 240/761/255 236/502/255
f 240/504/166 237/762/166 233/505/166
f 234/507/256 235/763/256 236/508/256
f 240/510/257 239/764/257 238/511/257
f 246/513/169 242/765/169 241/514/169
f 247/516/258 243/766/258 242/517/258
f 248/519/171 244/767/171 243/520/171
f 248/522/172 245/768/172 241/523/172
f 241/525/173 242/769/173 243/526/173
f 247/528/259 246/770/259 245/529/259
f 254/531/260 250/771/260 249/532/260
f 255/534/176 251/772/176 250/535/176
f 255/537/177 256/773/177 252/538/177
f 256/540/261 253/774/261 249/541/261
f 250/543/179 251/775/179 252/544/179
f 255/546/262 254/776/262 253/547/262
f 261/549/263 262/777/263 258/550/263
f 262/552/182 263/778/182 259/553/182
f 264/555/183 260/779/183 259/556/183
f 264/558/184 261/780/184 257/559/184
f 257/561/185 258/781/185 259/562/185
f 263/564/186 262/782/186 261/565/186
f 270/567/187 266/783/187 265/568/187
f 271/570/188 267/784/188 266/571/188
f 271/573/189 272/785/189 268/574/189
f 272/576/190 269/786/190 265/577/190
f 265/579/264 266/787/264 267/580/264
f 271/582/265 270/788/265 269/583/265
f 278/585/193 274/789/193 273/586/193
f 278/588/194 279/790/194 275/589/194
f 280/591/266 276/791/266 275/592/266
f 280/594/196 277/792/196 273/595/196
f 273/597/197 274/793/197 275/598/197
f 280/600/267 279/794/267 278/601/267
