# Blender 5.2.1 LTS
# www.blender.org
mtllib wall_straight_broken.mtl
o wall_straight_broken
v -1.000000 0.000000 0.140000
v 1.000000 0.000000 0.140000
v -1.000000 0.000000 -0.140000
v 1.000000 0.000000 -0.140000
v -1.000000 0.250000 0.140000
v 1.000000 0.250000 0.140000
v -1.000000 0.250000 -0.140000
v 1.000000 0.250000 -0.140000
v -1.000000 0.250000 0.100000
v 1.000000 0.250000 0.100000
v -1.000000 0.250000 -0.100000
v 1.000000 0.250000 -0.100000
v -1.000000 2.850000 0.100000
v 1.000000 2.850000 0.100000
v -1.000000 2.850000 -0.100000
v 1.000000 2.850000 -0.100000
v -1.000000 2.850000 0.140000
v -0.460000 2.850000 0.140000
v -1.000000 2.850000 -0.140000
v -0.460000 2.850000 -0.140000
v -1.000000 3.000000 0.140000
v -0.460000 3.000000 0.140000
v -1.000000 3.000000 -0.140000
v -0.460000 3.000000 -0.140000
v 0.440000 2.850000 0.140000
v 1.000000 2.850000 0.140000
v 0.440000 2.850000 -0.140000
v 1.000000 2.850000 -0.140000
v 0.440000 3.000000 0.140000
v 1.000000 3.000000 0.140000
v 0.440000 3.000000 -0.140000
v 1.000000 3.000000 -0.140000
v -0.204088 2.895874 0.137017
v 0.393629 2.843708 0.140665
v -0.204088 2.877040 -0.132326
v 0.393629 2.824874 -0.128678
v -0.191886 3.035002 0.127288
v 0.405831 2.982836 0.130936
v -0.191886 3.016167 -0.142054
v 0.405831 2.964001 -0.138407
vn -1.0000 -0.0000 -0.0000
vn 1.0000 -0.0000 -0.0000
vn -0.0000 -0.0000 1.0000
vn -0.0000 -0.0000 -1.0000
vn -0.0000 1.0000 -0.0000
vn -0.0000 -1.0000 -0.0000
vn -0.9962 0.0869 -0.0061
vn 0.9962 -0.0869 0.0061
vn -0.0000 0.0698 0.9976
vn -0.0000 -0.0698 -0.9976
vn -0.0872 -0.9938 0.0695
vn 0.0872 0.9938 -0.0695
vt 0.070000 0.125000
vt -0.070000 0.000000
vt 0.070000 0.000000
vt -0.070000 0.125000
vt 0.500000 0.000000
vt -0.500000 0.125000
vt -0.500000 0.000000
vt 0.500000 0.125000
vt 0.500000 -0.070000
vt -0.500000 0.070000
vt -0.500000 -0.070000
vt 0.050000 1.425000
vt -0.050000 0.125000
vt 0.050000 0.125000
vt -0.050000 1.425000
vt -0.500000 1.425000
vt 0.500000 1.425000
vt 0.500000 -0.050000
vt -0.500000 0.050000
vt -0.500000 -0.050000
vt 0.070000 1.500000
vt -0.070000 1.425000
vt 0.070000 1.425000
vt -0.070000 1.500000
vt -0.230000 1.425000
vt -0.500000 1.500000
vt 0.500000 1.500000
vt 0.230000 1.425000
vt 0.500000 0.070000
vt 0.230000 -0.070000
vt -0.230000 -0.070000
vt 0.220000 1.500000
vt 0.220000 1.425000
vt -0.220000 1.500000
vt -0.220000 1.425000
vt -0.220000 0.070000
vt -0.220000 -0.070000
vt 0.220000 0.070000
vt 0.220000 -0.070000
vt 0.064228 1.503447
vt -0.065539 1.424166
vt 0.069130 1.433618
vt -0.069130 1.433619
vt 0.070440 1.493994
vt -0.064228 1.503447
vt -0.102044 1.439631
vt 0.202915 1.483218
vt -0.095943 1.509365
vt 0.102044 1.439631
vt -0.202915 1.483218
vt -0.196815 1.413484
vt -0.010050 0.283131
vt 0.072391 -0.035348
vt 0.177689 0.049135
vt -0.177689 0.049135
vt 0.115348 0.198648
vt 0.010050 0.283131
vt 0.500000 0.050000
vt -0.230000 1.500000
vt 0.230000 1.500000
vt 0.230000 0.070000
vt -0.230000 0.070000
vt -0.070440 1.493994
vt 0.065539 1.424165
vt 0.196815 1.413484
vt 0.095943 1.509365
vt -0.115348 0.198648
vt -0.072391 -0.035348
s 0
usemtl wall_stone
f 5/1/1 3/2/1 1/3/1
f 4/3/2 6/4/2 2/2/2
f 2/5/3 5/6/3 1/7/3
f 7/8/4 4/7/4 3/5/4
f 6/9/5 7/10/5 5/11/5
f 13/12/1 11/13/1 9/14/1
f 12/14/2 14/15/2 10/13/2
f 10/8/3 13/16/3 9/6/3
f 15/17/4 12/6/4 11/8/4
f 14/18/5 15/19/5 13/20/5
f 21/21/1 19/22/1 17/23/1
f 20/23/2 22/24/2 18/22/2
f 18/25/3 21/26/3 17/16/3
f 23/27/4 20/28/4 19/17/4
f 19/29/6 18/30/6 17/9/6
f 22/31/5 23/10/5 21/11/5
f 29/21/1 27/22/1 25/23/1
f 28/23/2 30/24/2 26/22/2
f 26/17/3 29/32/3 25/33/3
f 31/34/4 28/16/4 27/35/4
f 27/36/6 26/11/6 25/37/6
f 30/9/5 31/38/5 29/39/5
f 37/40/7 35/41/7 33/42/7
f 34/43/8 40/44/8 38/45/8
f 33/46/9 38/47/9 37/48/9
f 35/49/10 40/50/10 36/51/10
f 33/52/11 36/53/11 34/54/11
f 38/55/12 39/56/12 37/57/12
f 5/1/1 7/4/1 3/2/1
f 4/3/2 8/1/2 6/4/2
f 2/5/3 6/8/3 5/6/3
f 7/8/4 8/6/4 4/7/4
f 6/9/5 8/29/5 7/10/5
f 13/12/1 15/15/1 11/13/1
f 12/14/2 16/12/2 14/15/2
f 10/8/3 14/17/3 13/16/3
f 15/17/4 16/16/4 12/6/4
f 14/18/5 16/58/5 15/19/5
f 21/21/1 23/24/1 19/22/1
f 20/23/2 24/21/2 22/24/2
f 18/25/3 22/59/3 21/26/3
f 23/27/4 24/60/4 20/28/4
f 19/29/6 20/61/6 18/30/6
f 22/31/5 24/62/5 23/10/5
f 29/21/1 31/24/1 27/22/1
f 28/23/2 32/21/2 30/24/2
f 26/17/3 30/27/3 29/32/3
f 31/34/4 32/26/4 28/16/4
f 27/36/6 28/10/6 26/11/6
f 30/9/5 32/29/5 31/38/5
f 37/40/7 39/63/7 35/41/7
f 34/43/8 36/64/8 40/44/8
f 33/46/9 34/65/9 38/47/9
f 35/49/10 39/66/10 40/50/10
f 33/52/11 35/67/11 36/53/11
f 38/55/12 40/68/12 39/56/12
