# Blender 5.2.1 LTS
# www.blender.org
mtllib wall_straight.mtl
o wall_straight
v -1.000000 0.000000 0.140000
v 1.000000 0.000000 0.140000
v -1.000000 0.000000 -0.140000
v 1.000000 0.000000 -0.140000
v -1.000000 0.250000 0.140000
v 1.000000 0.250000 0.140000
v -1.000000 0.250000 -0.140000
v 1.000000 0.250000 -0.140000
v -1.000000 0.250000 0.100000
v 1.000000 0.250000 0.100000
v -1.000000 0.250000 -0.100000
v 1.000000 0.250000 -0.100000
v -1.000000 2.850000 0.100000
v 1.000000 2.850000 0.100000
v -1.000000 2.850000 -0.100000
v 1.000000 2.850000 -0.100000
v -1.000000 2.850000 0.140000
v 1.000000 2.850000 0.140000
v -1.000000 2.850000 -0.140000
v 1.000000 2.850000 -0.140000
v -1.000000 3.000000 0.140000
v 1.000000 3.000000 0.140000
v -1.000000 3.000000 -0.140000
v 1.000000 3.000000 -0.140000
vn -1.0000 -0.0000 -0.0000
vn 1.0000 -0.0000 -0.0000
vn -0.0000 -0.0000 1.0000
vn -0.0000 -0.0000 -1.0000
vn -0.0000 1.0000 -0.0000
vn -0.0000 -1.0000 -0.0000
vt 0.070000 0.125000
vt -0.070000 0.000000
vt 0.070000 0.000000
vt -0.070000 0.125000
vt 0.500000 0.000000
vt -0.500000 0.125000
vt -0.500000 0.000000
vt 0.500000 0.125000
vt 0.500000 -0.070000
vt -0.500000 0.070000
vt -0.500000 -0.070000
vt 0.050000 1.425000
vt -0.050000 0.125000
vt 0.050000 0.125000
vt -0.050000 1.425000
vt -0.500000 1.425000
vt 0.500000 1.425000
vt 0.070000 1.500000
vt -0.070000 1.425000
vt 0.070000 1.425000
vt -0.070000 1.500000
vt -0.500000 1.500000
vt 0.500000 1.500000
vt 0.500000 0.070000
s 0
usemtl wall_stone
f 5/1/1 3/2/1 1/3/1
f 4/3/2 6/4/2 2/2/2
f 2/5/3 5/6/3 1/7/3
f 7/8/4 4/7/4 3/5/4
f 6/9/5 7/10/5 5/11/5
f 13/12/1 11/13/1 9/14/1
f 12/14/2 14/15/2 10/13/2
f 10/8/3 13/16/3 9/6/3
f 15/17/4 12/6/4 11/8/4
f 21/18/1 19/19/1 17/20/1
f 20/20/2 22/21/2 18/19/2
f 18/17/3 21/22/3 17/16/3
f 23/23/4 20/16/4 19/17/4
f 19/11/6 18/24/6 17/10/6
f 22/9/5 23/10/5 21/11/5
f 5/1/1 7/4/1 3/2/1
f 4/3/2 8/1/2 6/4/2
f 2/5/3 6/8/3 5/6/3
f 7/8/4 8/6/4 4/7/4
f 6/9/5 8/24/5 7/10/5
f 13/12/1 15/15/1 11/13/1
f 12/14/2 16/12/2 14/15/2
f 10/8/3 14/17/3 13/16/3
f 15/17/4 16/16/4 12/6/4
f 21/18/1 23/21/1 19/19/1
f 20/20/2 24/18/2 22/21/2
f 18/17/3 22/23/3 21/22/3
f 23/23/4 24/22/4 20/16/4
f 19/11/6 20/9/6 18/24/6
f 22/9/5 24/24/5 23/10/5
